<svg width="720" height="647" viewBox="0 0 720 647" fill="none" xmlns="http://www.w3.org/2000/svg">
<path d="M708.037 461.912H11.9629V608.12H708.037V461.912Z" fill="white"/>
<path d="M708.037 609.397H11.9635C11.631 609.397 11.3122 609.265 11.0771 609.031C10.842 608.797 10.71 608.479 10.71 608.147V462.048C10.71 461.883 10.7424 461.721 10.8054 461.569C10.8684 461.418 10.9607 461.28 11.0771 461.164C11.1935 461.048 11.3317 460.956 11.4838 460.893C11.6359 460.83 11.7988 460.798 11.9635 460.798H708.037C708.202 460.798 708.365 460.83 708.517 460.893C708.669 460.956 708.807 461.048 708.924 461.164C709.04 461.28 709.133 461.418 709.196 461.569C709.259 461.721 709.291 461.883 709.291 462.048V608.283C709.257 608.59 709.11 608.874 708.879 609.08C708.647 609.286 708.348 609.399 708.037 609.397ZM13.1625 606.898H706.784V463.161H13.217L13.1625 606.898Z" fill="#D1D3D4"/>
<path d="M707.9 461.912H12.0986C6.13891 461.912 1.30762 466.728 1.30762 472.67V474.734C1.30762 480.676 6.13891 485.492 12.0986 485.492H707.9C713.86 485.492 718.691 480.676 718.691 474.734V472.67C718.691 466.728 713.86 461.912 707.9 461.912Z" fill="white"/>
<path d="M707.901 486.742H12.0992C8.90478 486.742 5.84122 485.477 3.58244 483.225C1.32365 480.973 0.0546875 477.919 0.0546875 474.734V472.697C0.0546794 469.51 1.32277 466.453 3.58077 464.197C5.83877 461.94 8.90228 460.669 12.0992 460.662H707.901C711.098 460.669 714.161 461.94 716.419 464.197C718.677 466.453 719.945 469.51 719.945 472.697V474.734C719.945 476.311 719.634 477.872 719.028 479.329C718.423 480.786 717.536 482.11 716.417 483.225C715.299 484.34 713.971 485.224 712.51 485.828C711.049 486.431 709.482 486.742 707.901 486.742V486.742ZM12.0992 463.161C9.56718 463.169 7.14133 464.176 5.35348 465.964C3.56563 467.751 2.56167 470.172 2.56168 472.697V474.734C2.56168 477.256 3.56652 479.674 5.35514 481.457C7.14377 483.241 9.56968 484.242 12.0992 484.242H707.901C710.43 484.242 712.856 483.241 714.645 481.457C716.433 479.674 717.438 477.256 717.438 474.734V472.697C717.438 470.172 716.434 467.751 714.646 465.964C712.859 464.176 710.433 463.169 707.901 463.161H12.0992Z" fill="#D1D3D4"/>
<path d="M278.494 424.314H60.5215V460.635H278.494V424.314Z" fill="#231F20"/>
<path d="M278.496 461.83H60.4959C60.1779 461.83 59.8729 461.704 59.648 461.48C59.4232 461.256 59.2969 460.952 59.2969 460.635V424.314C59.2969 423.997 59.4232 423.693 59.648 423.469C59.8729 423.244 60.1779 423.118 60.4959 423.118H278.496C278.814 423.118 279.119 423.244 279.344 423.469C279.569 423.693 279.695 423.997 279.695 424.314V460.635C279.695 460.952 279.569 461.256 279.344 461.48C279.119 461.704 278.814 461.83 278.496 461.83V461.83ZM61.7221 459.331H277.297V425.509H61.7221V459.331Z" fill="#231F20"/>
<path d="M278.468 424.314H159.686V460.635H278.468V424.314Z" fill="white"/>
<path d="M278.495 461.884H159.685C159.358 461.877 159.046 461.743 158.816 461.509C158.587 461.275 158.459 460.962 158.459 460.635V424.314C158.459 423.989 158.588 423.679 158.818 423.449C159.048 423.22 159.36 423.091 159.685 423.091H278.495C278.82 423.091 279.132 423.22 279.362 423.449C279.592 423.679 279.721 423.989 279.721 424.314V460.635C279.722 460.962 279.593 461.275 279.364 461.509C279.135 461.743 278.823 461.877 278.495 461.884ZM161.075 459.331H277.378V425.563H161.075V459.331Z" fill="#231F20"/>
<path d="M275.334 398.017H98.8359V424.939H275.334V398.017Z" fill="#231F20"/>
<path d="M275.333 426.134H98.8347C98.5168 426.134 98.2118 426.008 97.9869 425.784C97.7621 425.56 97.6357 425.256 97.6357 424.939V398.017C97.6357 397.7 97.7621 397.396 97.9869 397.172C98.2118 396.947 98.5168 396.822 98.8347 396.822H275.333C275.654 396.821 275.961 396.946 276.191 397.17C276.42 397.393 276.552 397.697 276.559 398.017V424.939C276.559 425.098 276.527 425.256 276.465 425.402C276.404 425.549 276.313 425.682 276.198 425.794C276.084 425.905 275.949 425.992 275.8 426.051C275.652 426.109 275.493 426.137 275.333 426.134V426.134ZM100.034 423.743H274.134V399.294H100.034V423.743Z" fill="#231F20"/>
<path d="M275.335 398.017H199.988V424.939H275.335V398.017Z" fill="white"/>
<path d="M275.335 426.188H199.989C199.656 426.188 199.338 426.056 199.102 425.822C198.867 425.588 198.735 425.27 198.735 424.939V398.017C198.742 397.688 198.877 397.374 199.11 397.141C199.344 396.908 199.659 396.774 199.989 396.767H275.335C275.668 396.767 275.986 396.899 276.221 397.133C276.457 397.368 276.589 397.685 276.589 398.017V424.939C276.592 425.104 276.562 425.268 276.501 425.421C276.439 425.574 276.347 425.714 276.23 425.83C276.113 425.947 275.973 426.039 275.819 426.101C275.665 426.162 275.501 426.192 275.335 426.188V426.188ZM201.242 423.716H274.109V399.266H201.242V423.716Z" fill="#231F20"/>
<path d="M250.428 371.856H73.9297V398.778H250.428V371.856Z" fill="#231F20"/>
<path d="M250.455 399.973H73.8748C73.5568 399.973 73.2518 399.847 73.027 399.623C72.8021 399.399 72.6758 399.095 72.6758 398.778V371.856C72.6758 371.539 72.8021 371.235 73.027 371.011C73.2518 370.786 73.5568 370.661 73.8748 370.661H250.455C250.773 370.661 251.078 370.786 251.303 371.011C251.527 371.235 251.654 371.539 251.654 371.856V398.778C251.654 399.095 251.527 399.399 251.303 399.623C251.078 399.847 250.773 399.973 250.455 399.973ZM75.1283 397.582H249.256V373.133H75.1283V397.582Z" fill="#231F20"/>
<path d="M250.427 371.856H175.081V398.778H250.427V371.856Z" fill="white"/>
<path d="M250.455 400.027H175.081C174.918 400.027 174.756 399.995 174.605 399.931C174.455 399.868 174.318 399.776 174.204 399.659C174.09 399.543 174 399.405 173.94 399.254C173.88 399.102 173.851 398.94 173.855 398.777V371.856C173.855 371.529 173.983 371.215 174.212 370.982C174.441 370.748 174.753 370.613 175.081 370.606H250.455C250.782 370.613 251.094 370.748 251.323 370.982C251.553 371.215 251.681 371.529 251.681 371.856V398.777C251.684 398.94 251.655 399.102 251.595 399.254C251.535 399.405 251.446 399.543 251.331 399.659C251.217 399.776 251.081 399.868 250.93 399.931C250.78 399.995 250.618 400.027 250.455 400.027V400.027ZM176.335 397.555H249.201V373.105H176.335V397.555Z" fill="#231F20"/>
<path d="M161.647 391.253C164.793 391.253 167.343 388.711 167.343 385.575C167.343 382.439 164.793 379.897 161.647 379.897C158.502 379.897 155.952 382.439 155.952 385.575C155.952 388.711 158.502 391.253 161.647 391.253Z" fill="white"/>
<path d="M161.648 392.502C160.274 392.502 158.93 392.096 157.787 391.335C156.645 390.573 155.754 389.492 155.228 388.226C154.702 386.96 154.565 385.567 154.833 384.223C155.101 382.88 155.763 381.645 156.734 380.676C157.706 379.708 158.944 379.048 160.292 378.781C161.64 378.513 163.037 378.65 164.307 379.175C165.577 379.699 166.662 380.587 167.426 381.726C168.189 382.865 168.597 384.205 168.597 385.575C168.597 387.412 167.865 389.174 166.561 390.473C165.258 391.772 163.491 392.502 161.648 392.502V392.502ZM161.648 381.147C160.769 381.147 159.911 381.406 159.18 381.893C158.45 382.38 157.881 383.071 157.544 383.88C157.208 384.689 157.12 385.58 157.292 386.439C157.463 387.298 157.886 388.087 158.507 388.706C159.128 389.325 159.92 389.747 160.781 389.918C161.643 390.089 162.536 390.001 163.348 389.666C164.159 389.331 164.853 388.763 165.341 388.035C165.829 387.307 166.09 386.451 166.09 385.575C166.083 384.403 165.612 383.28 164.781 382.452C163.949 381.623 162.824 381.154 161.648 381.147Z" fill="#231F20"/>
<path d="M116.057 421.624C115.727 421.617 115.412 421.483 115.179 421.251C114.945 421.018 114.811 420.704 114.804 420.375V402.282C114.804 402.118 114.836 401.955 114.899 401.804C114.962 401.652 115.054 401.514 115.171 401.398C115.287 401.282 115.425 401.19 115.578 401.127C115.73 401.065 115.893 401.032 116.057 401.032C116.223 401.029 116.388 401.058 116.541 401.12C116.695 401.181 116.835 401.273 116.952 401.39C117.069 401.507 117.161 401.646 117.223 401.799C117.285 401.953 117.314 402.117 117.311 402.282V420.51C117.277 420.818 117.13 421.102 116.899 421.308C116.667 421.513 116.367 421.626 116.057 421.624Z" fill="white"/>
<path d="M139.684 457.619C139.52 457.619 139.357 457.587 139.204 457.524C139.052 457.462 138.914 457.369 138.798 457.253C138.681 457.137 138.589 457 138.526 456.848C138.463 456.696 138.431 456.534 138.431 456.37V427.927C138.475 427.624 138.628 427.347 138.861 427.146C139.093 426.946 139.39 426.836 139.698 426.836C140.005 426.836 140.302 426.946 140.535 427.146C140.768 427.347 140.92 427.624 140.965 427.927V456.37C140.965 456.536 140.932 456.701 140.867 456.854C140.802 457.008 140.708 457.147 140.588 457.263C140.469 457.38 140.328 457.471 140.172 457.532C140.017 457.593 139.851 457.623 139.684 457.619V457.619Z" fill="white"/>
<path d="M172.955 54.1202L182.465 46.7853L222.55 63.4382L304 36.0004L311.358 47.22L226.147 95.929L172.955 54.1202Z" fill="#E6E7E8"/>
<path d="M202.795 184.762L169.932 50.6429L222.306 73.1093L316.864 38.9615L341.198 174.412L254.08 204.349L202.795 184.762Z" fill="white"/>
<path d="M254.078 205.599C253.934 205.625 253.787 205.625 253.642 205.599L202.358 186.012C202.171 185.937 202.005 185.819 201.872 185.668C201.74 185.517 201.645 185.337 201.595 185.143L168.704 50.9418C168.651 50.7203 168.662 50.4885 168.734 50.2725C168.806 50.0565 168.937 49.8649 169.113 49.7193C169.288 49.5633 169.506 49.4621 169.738 49.4283C169.971 49.3945 170.208 49.4296 170.421 49.5292L222.196 71.7783L316.399 37.7934C316.562 37.7198 316.738 37.6818 316.917 37.6818C317.095 37.6818 317.272 37.7198 317.435 37.7934C317.593 37.8845 317.73 38.0098 317.833 38.1602C317.937 38.3107 318.006 38.4824 318.034 38.6627L342.423 174.086C342.478 174.376 342.425 174.677 342.275 174.932C342.124 175.186 341.887 175.378 341.605 175.472L254.405 205.354L254.078 205.599ZM203.857 183.866L254.106 203.072L339.807 173.624L315.909 40.673L222.714 74.3047C222.424 74.4131 222.104 74.4131 221.814 74.3047L171.729 52.8434L203.857 183.866Z" fill="#231F20"/>
<path d="M246.477 198.536C246.189 198.53 245.911 198.428 245.689 198.245C245.466 198.063 245.312 197.811 245.251 197.53L221.025 73.3267C220.994 73.1678 220.994 73.0043 221.027 72.8456C221.059 72.6869 221.123 72.5362 221.214 72.4023C221.305 72.2683 221.422 72.1538 221.558 72.0653C221.694 71.9768 221.847 71.9162 222.006 71.8868C222.166 71.8554 222.33 71.8558 222.489 71.8881C222.648 71.9203 222.799 71.9838 222.934 72.0748C223.068 72.1658 223.183 72.2825 223.272 72.4181C223.36 72.5537 223.421 72.7056 223.451 72.8648L247.649 197.041C247.68 197.2 247.68 197.364 247.647 197.522C247.615 197.681 247.551 197.832 247.46 197.966C247.369 198.1 247.252 198.214 247.116 198.303C246.98 198.391 246.827 198.452 246.668 198.481L246.477 198.536Z" fill="#231F20"/>
<path d="M281.275 228.418C281.275 228.418 271.683 213.368 273.1 209.402C274.203 205.474 274.951 201.456 275.334 197.395L265.088 199.84C265.088 199.84 254.515 173.488 253.452 164.333C252.39 155.178 232.661 163.627 231.952 170.663C231.244 177.699 230.89 195.982 236.53 206.522C242.171 217.063 258.031 242.355 258.031 242.355" fill="white"/>
<path d="M258.003 243.713C257.79 243.709 257.581 243.653 257.395 243.548C257.21 243.444 257.053 243.295 256.94 243.115C256.776 242.871 240.999 217.661 235.412 207.202C229.826 196.743 229.962 178.731 230.671 170.663C231.243 165.04 241.244 159.253 248.002 159.199C248.771 159.093 249.554 159.141 250.304 159.342C251.054 159.543 251.756 159.892 252.369 160.368C252.981 160.844 253.491 161.438 253.869 162.115C254.247 162.791 254.485 163.536 254.569 164.306C255.496 172.184 263.807 193.619 265.742 198.481L274.952 196.308C275.142 196.256 275.342 196.254 275.533 196.301C275.724 196.349 275.899 196.445 276.042 196.58C276.191 196.712 276.307 196.876 276.383 197.059C276.459 197.243 276.491 197.441 276.478 197.639C276.067 201.801 275.292 205.918 274.162 209.945C273.426 211.956 277.786 220.812 282.337 227.739C282.467 228.014 282.492 228.327 282.407 228.62C282.322 228.912 282.133 229.163 281.876 229.326C281.619 229.49 281.31 229.554 281.009 229.507C280.707 229.46 280.433 229.304 280.239 229.07C278.576 226.49 270.401 213.314 271.927 209.076C272.89 205.83 273.546 202.501 273.889 199.133L265.36 201.171C265.068 201.231 264.764 201.189 264.501 201.05C264.237 200.911 264.03 200.685 263.916 200.41C263.48 199.323 253.288 173.787 252.198 164.578C252.198 163.872 251.871 161.698 248.138 161.698C242.143 161.698 233.668 167.132 233.26 170.908C232.497 178.704 232.388 196.118 237.701 206.034C243.151 216.411 259.011 241.567 259.174 241.811C259.346 242.093 259.4 242.43 259.323 242.751C259.247 243.071 259.046 243.349 258.766 243.523C258.542 243.674 258.271 243.741 258.003 243.713V243.713Z" fill="#231F20"/>
<path d="M583.45 243.441C583.248 243.443 583.049 243.395 582.871 243.301C582.692 243.207 582.539 243.071 582.426 242.904C582.313 242.738 582.242 242.546 582.222 242.346C582.201 242.146 582.229 241.943 582.306 241.757C587.265 228.539 588.47 214.212 585.787 200.356C583.104 186.499 576.638 173.648 567.1 163.22C566.119 162.187 565.111 161.155 564.076 160.123C557.808 153.82 550.723 146.54 551.159 137.466C551.302 135.555 551.63 133.663 552.14 131.815C552.52 130.296 552.802 128.753 552.985 127.197C553.884 117.336 545.709 109.132 538.706 103.997C537.016 102.748 535.245 101.552 533.501 100.33C526.934 95.8203 520.149 91.1749 516.061 84.1932C511.183 76.0433 510.611 66.4537 509.875 57.2715C509.276 49.1216 508.676 40.51 505.025 32.9849C501.6 25.8669 496.616 19.6054 490.442 14.6617C484.268 9.71797 477.06 6.21792 469.349 4.41931C461.639 2.6207 453.621 2.56933 445.888 4.26899C438.154 5.96866 430.902 9.37606 424.665 14.2403C418.233 19.0577 413.171 25.4618 409.977 32.8219C406.981 41.212 405.442 50.05 405.426 58.9558C404.472 77.5103 402.701 95.4128 392.51 110.572C389.325 115.007 385.838 119.219 382.073 123.177C375.097 130.892 368.448 138.172 366.404 147.626C365.375 152.702 365.771 157.963 367.55 162.829C369.329 167.694 372.422 171.975 376.487 175.2C376.617 175.298 376.727 175.422 376.809 175.563C376.891 175.705 376.943 175.861 376.964 176.023C376.984 176.185 376.972 176.35 376.927 176.507C376.883 176.664 376.807 176.811 376.705 176.939C376.501 177.195 376.203 177.362 375.877 177.403C375.551 177.444 375.222 177.355 374.961 177.156C370.547 173.632 367.195 168.962 365.272 163.661C363.349 158.36 362.93 152.633 364.061 147.11C366.268 136.896 373.407 129.017 380.411 121.411C384.091 117.531 387.496 113.401 390.602 109.05C400.521 94.4891 402.183 76.967 403.083 58.7928C403.117 49.5954 404.73 40.4717 407.851 31.8168C411.18 24.0599 416.465 17.2936 423.193 12.1756C429.719 7.11476 437.298 3.57347 445.375 1.81121C453.451 0.0489446 461.821 0.110352 469.871 1.99094C477.921 3.87153 485.447 7.52364 491.897 12.6797C498.348 17.8358 503.559 24.3652 507.15 31.7896C511.02 39.7221 511.647 48.4968 512.246 56.9727C512.9 66.2635 513.527 75.0382 518.105 82.8077C521.92 89.3004 528.46 93.81 534.782 98.1566C536.58 99.3791 538.352 100.602 540.068 101.851C547.589 107.284 556.418 116.249 555.356 127.279C555.176 128.957 554.866 130.619 554.429 132.25C553.975 133.959 553.674 135.704 553.53 137.466C553.148 145.616 559.552 152 565.738 158.248C566.773 159.308 567.809 160.34 568.79 161.372C578.805 172.085 585.599 185.388 588.398 199.764C591.197 214.14 589.889 229.01 584.622 242.681C584.525 242.909 584.361 243.104 584.152 243.239C583.944 243.374 583.699 243.445 583.45 243.441V243.441Z" fill="#231F20"/>
<path d="M389.975 166.398L338.69 278.404L288.768 222.686L247.157 242.246C247.157 242.246 339.044 380.495 364.332 367.917C389.62 355.339 425.863 243.74 425.863 243.74L389.975 166.398Z" fill="#F2C94C"/>
<path d="M456.138 135.266C456.138 135.266 400.548 141.351 387.468 168.164C374.388 194.977 377.358 319.316 377.358 319.316L582.469 341.24C582.469 341.24 577.264 239.013 567.59 193.646C557.917 148.278 528.35 118.368 456.138 135.266Z" fill="#F2C94C"/>
<path d="M439.679 148.822L460.334 259.741L488.892 138.2L439.679 148.822Z" fill="#231F20"/>
<path d="M460.335 261.018C460.064 261.001 459.805 260.896 459.599 260.719C459.393 260.543 459.249 260.305 459.191 260.04L438.481 149.039C438.431 148.734 438.499 148.422 438.671 148.164C438.843 147.907 439.106 147.725 439.407 147.653L488.648 137.031C488.847 136.996 489.051 137.007 489.245 137.064C489.439 137.12 489.617 137.221 489.765 137.357C489.897 137.508 489.993 137.686 490.045 137.879C490.097 138.073 490.104 138.275 490.065 138.471L461.507 260.013C461.467 260.293 461.327 260.55 461.111 260.735C460.895 260.92 460.62 261.021 460.335 261.018V261.018ZM441.069 149.636L460.471 253.792L487.285 139.694L441.069 149.636Z" fill="#231F20"/>
<path d="M439.869 116.494L439.678 148.821C439.678 148.821 442.948 166.914 462.677 161.399C468.499 159.713 473.872 156.756 478.406 152.743C482.94 148.73 486.522 143.763 488.892 138.199L486.657 82.21C486.657 79.8465 476.984 70.8817 477.365 50.3169C470.416 50.2604 463.556 48.76 457.222 45.9113C450.887 43.0627 445.219 38.9285 440.578 33.7727C440.578 33.7727 432.403 46.1061 428.751 50.0724C425.878 52.9986 423.387 56.2755 421.339 59.8251C417.987 66.0461 418.124 73.8157 418.287 80.7159C418.36 88.923 419.181 97.1065 420.74 105.165C423.901 120.243 439.869 116.494 439.869 116.494Z" fill="white"/>
<path d="M455.675 163.681C452.466 163.749 449.305 162.891 446.574 161.209C442.37 158.361 439.44 153.998 438.399 149.039L438.562 117.961C434.266 118.606 429.876 117.783 426.109 115.624C424.343 114.445 422.841 112.914 421.697 111.128C420.553 109.342 419.791 107.34 419.46 105.247C417.884 97.1901 417.054 89.0058 416.98 80.7974C416.844 74.1417 416.653 65.8832 420.168 59.2818C422.278 55.5851 424.851 52.171 427.826 49.1217C431.314 45.3456 439.461 33.148 439.543 33.0393C439.648 32.8741 439.793 32.7379 439.964 32.6429C440.136 32.548 440.328 32.4975 440.524 32.496C440.719 32.4729 440.916 32.5038 441.094 32.5853C441.271 32.6668 441.423 32.7957 441.532 32.9578C446.079 37.9591 451.609 41.9749 457.778 44.7555C463.947 47.5362 470.624 49.0224 477.393 49.1217C477.557 49.1207 477.72 49.1541 477.87 49.2196C478.02 49.2851 478.155 49.3813 478.265 49.502C478.383 49.6136 478.475 49.7488 478.536 49.8987C478.597 50.0485 478.626 50.2096 478.62 50.3713C478.201 60.3371 480.864 70.1905 486.25 78.597C487.057 79.6685 487.624 80.9008 487.912 82.2101V82.2101C487.912 82.2101 487.912 83.4597 490.146 138.2C490.172 138.352 490.172 138.509 490.146 138.661C487.734 144.427 484.048 149.575 479.363 153.724C474.678 157.872 469.115 160.914 463.087 162.622C460.678 163.318 458.183 163.675 455.675 163.681V163.681ZM440.906 148.822C441.91 152.987 444.399 156.646 447.909 159.118C450.099 160.316 452.521 161.033 455.012 161.221C457.503 161.408 460.006 161.062 462.351 160.204C467.933 158.563 473.088 155.726 477.455 151.892C481.823 148.059 485.299 143.321 487.639 138.009C487.476 133.88 485.432 82.6991 485.405 82.2644C485.058 81.4222 484.619 80.6205 484.097 79.8738C478.701 71.416 475.924 61.5611 476.113 51.5394C462.7 51.0979 449.989 45.4543 440.688 35.8102C437.275 41.0154 433.591 46.039 429.651 50.8603C426.866 53.7156 424.441 56.8996 422.43 60.3413C419.215 66.3722 419.378 73.9244 419.542 80.6073C419.61 88.713 420.413 96.7961 421.94 104.758C422.203 106.513 422.822 108.196 423.759 109.704C424.696 111.213 425.931 112.516 427.39 113.533C431.096 115.532 435.395 116.148 439.516 115.271C439.696 115.228 439.883 115.227 440.063 115.27C440.243 115.312 440.41 115.396 440.551 115.516C440.701 115.632 440.822 115.781 440.907 115.95C440.992 116.119 441.038 116.305 441.042 116.494L440.824 148.822H440.906Z" fill="#231F20"/>
<path d="M440.06 132.359C440.06 132.359 453.222 132.956 461.697 124.209C464.119 121.982 466.027 119.257 467.288 116.222C468.549 113.187 469.133 109.915 469 106.632C469 106.632 454.775 116.168 439.979 116.494L440.06 132.359Z" fill="#231F20"/>
<path d="M440.632 133.581H440.005C439.699 133.574 439.408 133.448 439.194 133.23C438.98 133.011 438.861 132.718 438.861 132.413L438.67 116.521C438.67 116.209 438.792 115.909 439.011 115.685C439.23 115.462 439.528 115.333 439.842 115.326C454.093 115 468.1 105.763 468.236 105.682C468.41 105.581 468.607 105.529 468.808 105.529C469.009 105.529 469.207 105.581 469.381 105.682C469.568 105.763 469.731 105.89 469.855 106.052C469.979 106.213 470.06 106.404 470.089 106.605C470.089 106.986 471.315 116.113 462.541 125.16C456.592 130.665 448.748 133.68 440.632 133.581V133.581ZM441.068 117.635L441.231 131.218C448.511 131.105 455.491 128.308 460.824 123.367C464.785 119.517 467.231 114.38 467.718 108.887C459.608 113.765 450.498 116.755 441.068 117.635Z" fill="#231F20"/>
<path d="M443.521 69.0072C443.521 69.0072 433.084 84.4376 435.564 87.1542C438.043 89.8709 444.992 88.0779 444.992 88.0779" fill="white"/>
<path d="M440.387 89.8709C439.356 89.9556 438.318 89.8334 437.335 89.5115C436.352 89.1895 435.444 88.6743 434.664 87.9964C431.939 85.0353 438.425 74.4133 442.512 68.2738C442.597 68.1362 442.708 68.017 442.84 67.9235C442.972 67.83 443.121 67.764 443.279 67.7295C443.437 67.695 443.6 67.6928 443.759 67.7229C443.918 67.753 444.069 67.8148 444.204 67.9047C444.338 67.9946 444.453 68.1106 444.541 68.2458C444.629 68.381 444.689 68.5326 444.717 68.6914C444.744 68.8503 444.74 69.0131 444.703 69.1701C444.666 69.3271 444.597 69.475 444.502 69.6049C439.351 77.293 435.591 85.1168 436.463 86.3665C438.071 88.1323 443.057 87.3444 444.638 86.9369C444.937 86.8809 445.246 86.9401 445.502 87.1026C445.759 87.2651 445.944 87.5187 446.02 87.8121C446.097 88.1056 446.058 88.4169 445.913 88.6831C445.767 88.9494 445.526 89.1506 445.237 89.2461C443.65 89.6378 442.022 89.8475 440.387 89.8709V89.8709Z" fill="#231F20"/>
<path d="M432.403 95.9561C432.403 95.9561 441.75 109.757 458.209 96.4723Z" fill="white"/>
<path d="M444.475 103.454C443.7 103.454 442.926 103.4 442.158 103.291C437.788 102.572 433.874 100.172 431.259 96.6081C431.082 96.3451 431.017 96.0228 431.078 95.7121C431.14 95.4014 431.322 95.1277 431.586 94.951C431.715 94.8601 431.862 94.7963 432.016 94.7634C432.171 94.7305 432.331 94.7293 432.487 94.7598C432.642 94.7902 432.789 94.8518 432.92 94.9407C433.051 95.0296 433.163 95.144 433.248 95.277C435.506 98.2452 438.805 100.254 442.486 100.9C447.064 101.58 452.078 99.7594 457.31 95.4671C457.433 95.3686 457.574 95.2954 457.726 95.2516C457.878 95.2078 458.037 95.1944 458.194 95.2121C458.351 95.2297 458.503 95.2782 458.641 95.3546C458.779 95.431 458.901 95.5339 458.999 95.6573C459.103 95.7769 459.181 95.9164 459.23 96.0671C459.278 96.2179 459.295 96.3769 459.279 96.5344C459.264 96.6919 459.217 96.8447 459.141 96.9834C459.064 97.1222 458.96 97.244 458.835 97.3416C454.891 100.958 449.822 103.115 444.475 103.454Z" fill="#231F20"/>
<path d="M401.72 317.849C401.4 317.828 401.1 317.683 400.886 317.444C400.672 317.205 400.561 316.892 400.576 316.573L408.315 188.24C408.318 188.082 408.353 187.928 408.419 187.785C408.485 187.642 408.58 187.514 408.697 187.41C408.815 187.305 408.953 187.226 409.103 187.177C409.253 187.128 409.411 187.111 409.568 187.126C409.729 187.129 409.888 187.165 410.035 187.232C410.181 187.299 410.312 187.396 410.42 187.515C410.527 187.635 410.609 187.776 410.659 187.929C410.709 188.081 410.728 188.243 410.713 188.403L402.974 316.708C402.967 316.865 402.929 317.02 402.862 317.162C402.795 317.304 402.701 317.432 402.584 317.538C402.468 317.644 402.331 317.726 402.183 317.78C402.035 317.833 401.878 317.857 401.72 317.849Z" fill="#231F20"/>
<path d="M549.17 332.954C550.124 335.67 580.944 424.504 545.6 456.234C507.914 490.029 317.3 472.235 317.3 472.235L296.481 408.204C294.165 385.466 292.993 369.438 337.574 365.282L399.976 352.541L401.72 316.654L549.17 332.954Z" fill="#231F20"/>
<path d="M421.558 478.103H417.225C365.45 477.885 317.572 473.457 317.109 473.43C316.872 473.408 316.647 473.316 316.462 473.166C316.278 473.016 316.142 472.815 316.073 472.588L295.281 408.585C294.028 396.659 292.883 385.629 299.532 377.561C305.582 370.199 317.626 365.934 337.383 363.978L398.75 351.454L400.439 316.464C400.449 316.301 400.492 316.142 400.568 315.997C400.643 315.852 400.747 315.724 400.875 315.622C400.995 315.513 401.138 315.431 401.294 315.384C401.449 315.337 401.614 315.326 401.774 315.35L549.224 331.65C549.453 331.675 549.67 331.765 549.848 331.91C550.027 332.054 550.16 332.247 550.232 332.465L549.088 332.845L550.287 332.655C553.502 342.136 580.698 426.161 546.336 456.995C530.885 471.04 488.865 478.103 421.558 478.103ZM318.199 471.094C331.578 472.289 509.139 487.394 544.81 455.338C577.51 425.998 552.113 345.559 548.27 334.041L402.864 318.067L401.202 352.677C401.183 352.944 401.077 353.197 400.9 353.399C400.723 353.6 400.484 353.737 400.221 353.79L337.819 366.531C318.607 368.324 307.081 372.345 301.467 379.164C295.445 386.444 296.535 397.012 297.679 408.177L318.199 471.094Z" fill="#231F20"/>
<path d="M348.937 414.371C348.937 414.371 339.045 366.857 303.075 377.615C267.105 388.373 347.138 565.062 347.138 576.662C347.138 588.262 316.564 623.279 316.564 623.279C325.297 622.813 334.001 621.906 342.642 620.562C352.098 618.769 378.067 581.117 379.075 577.096C380.083 573.076 361.09 448.464 348.937 414.371Z" fill="white"/>
<path d="M316.564 624.528C316.331 624.526 316.102 624.459 315.905 624.334C315.707 624.209 315.549 624.032 315.447 623.822C315.343 623.602 315.305 623.356 315.339 623.115C315.373 622.873 315.477 622.647 315.638 622.464C324.058 612.82 345.913 585.844 345.913 576.662C345.913 573.945 340.708 560.226 334.113 542.785C315.038 492.256 283.047 407.661 295.255 383.048C295.961 381.482 296.991 380.081 298.278 378.939C299.565 377.797 301.079 376.938 302.721 376.42C306.868 374.988 311.275 374.463 315.643 374.88C320.011 375.297 324.238 376.647 328.037 378.837C344.387 388.536 349.837 412.17 350.136 414.154C361.799 446.943 381.474 572.206 380.302 577.477C379.457 581.253 353.052 619.964 342.888 621.92C334.193 623.27 325.434 624.177 316.646 624.637L316.564 624.528ZM313.24 377.316C309.912 377.337 306.606 377.849 303.43 378.837C302.107 379.266 300.892 379.972 299.867 380.91C298.842 381.847 298.031 382.993 297.489 384.271C285.745 407.905 318.717 495.163 336.457 542.025C344.305 562.807 348.392 573.782 348.392 576.77C348.392 587.121 326.238 613.961 319.426 621.975C324.63 621.622 335.53 620.779 342.425 619.475C351.117 617.818 377.005 580.791 377.85 576.933C378.694 573.076 360.11 449.497 347.875 414.914C347.875 414.914 347.875 414.914 347.875 414.751C347.875 414.588 342.615 390.302 326.892 381.065C322.78 378.569 318.054 377.262 313.24 377.289V377.316Z" fill="#231F20"/>
<path d="M314.766 620.291C312.256 620.553 309.858 621.462 307.808 622.929C305.758 624.396 304.127 626.371 303.076 628.658C299.778 636.427 313.976 640.91 327.056 641.507C338.499 641.946 349.938 640.533 360.927 637.324C365.32 635.176 369.203 632.12 372.318 628.359C372.318 628.359 372.318 637.921 375.615 637.623C380.335 637.386 385.039 636.887 389.703 636.128C390.902 635.531 385.807 598.476 379.076 577.096C379.076 577.096 351.826 615.509 343.242 617.302C334.658 619.095 314.766 620.291 314.766 620.291Z" fill="#231F20"/>
<path d="M330.87 642.784C329.589 642.784 328.281 642.784 327 642.784C317.871 642.377 305.936 639.905 302.475 634.335C301.901 633.442 301.562 632.418 301.491 631.359C301.419 630.3 301.617 629.24 302.066 628.277C303.189 625.778 304.955 623.619 307.185 622.021C309.416 620.423 312.031 619.441 314.765 619.177V619.177C314.956 619.177 334.548 617.954 343.05 616.216C349.808 614.803 370.682 587.066 378.148 576.499C378.274 576.311 378.451 576.164 378.66 576.077C378.869 575.99 379.098 575.967 379.32 576.01C379.54 576.041 379.747 576.135 379.916 576.279C380.085 576.423 380.209 576.613 380.274 576.825C383.813 589.092 386.579 601.567 388.558 614.178C392.155 636.21 390.956 636.808 390.247 637.161C386.472 638.015 382.619 638.48 378.748 638.546L375.723 638.791C375.331 638.827 374.935 638.777 374.563 638.646C374.191 638.515 373.853 638.305 373.57 638.03C372.108 636.074 371.307 633.705 371.281 631.266C368.498 634.297 365.123 636.728 361.362 638.41C351.465 641.337 341.193 642.81 330.87 642.784V642.784ZM314.847 621.486C312.556 621.718 310.367 622.545 308.497 623.885C306.627 625.224 305.143 627.029 304.192 629.12C303.892 629.728 303.756 630.404 303.799 631.081C303.842 631.758 304.062 632.411 304.437 632.977C306.862 636.808 316.182 639.823 327.109 640.312C338.396 640.748 349.679 639.353 360.518 636.183C364.716 634.118 368.431 631.192 371.418 627.598C371.575 627.408 371.787 627.27 372.025 627.205C372.264 627.139 372.517 627.149 372.749 627.232C372.982 627.315 373.183 627.468 373.325 627.67C373.468 627.872 373.544 628.112 373.543 628.359C373.543 631.075 374.061 635.259 375.205 636.291C375.247 636.336 375.298 636.37 375.354 636.394C375.411 636.417 375.471 636.429 375.532 636.427L378.584 636.183C381.309 635.965 386.896 635.531 388.721 635.178C388.939 630.342 384.552 599.726 378.666 579.786C372.562 588.262 351.416 616.813 343.514 618.47C334.015 619.954 324.447 620.96 314.847 621.486V621.486Z" fill="#231F20"/>
<path d="M431.694 577.259C431.694 577.259 416.08 423.635 408.886 394.947C401.692 366.26 360.327 357.295 347.737 391.959C335.148 426.623 397.496 562.916 392.7 577.259C387.904 591.603 369.919 619.611 369.919 619.611C369.919 619.611 388.994 629.174 402.891 619.611C416.789 610.049 431.694 577.259 431.694 577.259Z" fill="white"/>
<path d="M388.176 625.208C381.67 625.056 375.267 623.558 369.374 620.807C369.218 620.725 369.08 620.613 368.968 620.478C368.855 620.343 368.771 620.187 368.72 620.019C368.638 619.675 368.697 619.314 368.883 619.014C369.047 618.742 386.841 590.897 391.528 576.852C393.245 571.717 384.497 546.236 375.178 519.287C358.828 472.018 338.663 413.339 346.538 391.606C351.988 376.311 364.005 367.591 378.366 368.351C385.774 368.818 392.842 371.623 398.544 376.361C404.247 381.098 408.289 387.522 410.085 394.703C417.225 423.146 432.73 575.657 432.893 577.178C432.945 577.392 432.945 577.616 432.893 577.83C432.267 579.188 417.606 611.108 403.681 620.752C399.106 623.814 393.684 625.372 388.176 625.208V625.208ZM371.826 619.15C376.241 620.997 391.228 626.321 402.264 618.661C414.936 609.886 428.942 580.356 430.495 577.042C429.678 568.892 414.69 422.874 407.769 395.246C406.1 388.585 402.349 382.626 397.058 378.23C391.768 373.835 385.212 371.232 378.339 370.796C365.204 370.09 354.168 378.213 348.991 392.529C341.415 413.366 362.343 474.191 377.63 518.608C389.348 552.592 395.861 572.125 393.98 577.775C389.62 590.435 375.287 613.526 371.744 619.15H371.826Z" fill="#231F20"/>
<path d="M369.92 619.611C364.452 622.152 359.48 625.638 355.232 629.907C350.3 635.748 345.803 638.437 352.507 642.92C359.21 647.402 401.557 644.251 407.361 642.458C413.165 640.665 423.112 626.783 423.112 626.783C423.112 626.783 422.648 642.458 424.447 642.92C428.438 642.757 432.406 642.229 436.301 641.344C437.652 619.923 436.14 598.419 431.804 577.395C431.804 577.395 417.226 610.266 398.859 616.895C380.493 623.523 369.92 619.611 369.92 619.611Z" fill="#231F20"/>
<path d="M371.744 646.479C362.615 646.479 354.658 645.827 351.879 644.007C350.905 643.52 350.05 642.829 349.373 641.979C348.695 641.13 348.211 640.144 347.955 639.09C347.655 636.59 349.589 634.444 352.069 631.755L354.331 629.228C358.67 624.798 363.787 621.197 369.428 618.606C369.724 618.485 370.057 618.485 370.354 618.606C370.354 618.606 380.736 622.355 398.449 615.89C416.161 609.424 430.44 577.123 430.576 576.797C430.682 576.568 430.857 576.376 431.077 576.25C431.297 576.123 431.55 576.068 431.803 576.091C432.057 576.119 432.297 576.226 432.487 576.396C432.678 576.567 432.81 576.793 432.865 577.042C437.192 598.186 438.704 619.806 437.362 641.344C437.348 641.599 437.249 641.841 437.082 642.033C436.914 642.225 436.686 642.356 436.435 642.404C432.438 643.459 428.333 644.06 424.2 644.197C423.382 643.979 421.747 643.572 421.856 630.614C418.532 634.906 412.21 642.377 407.741 643.762C395.841 645.686 383.798 646.595 371.744 646.479V646.479ZM370 620.97C364.842 623.401 360.156 626.721 356.157 630.777C355.366 631.7 354.576 632.57 353.868 633.357C351.797 635.612 350.162 637.378 350.353 638.791C350.353 639.741 351.388 640.801 353.078 641.996C359.127 646.017 400.356 643.409 406.896 641.399C411.392 640.04 419.322 629.935 422.02 626.158C422.169 625.947 422.382 625.789 422.628 625.709C422.874 625.628 423.14 625.629 423.385 625.712C423.631 625.794 423.843 625.954 423.99 626.167C424.136 626.379 424.21 626.634 424.2 626.892C423.884 631.893 424.13 636.914 424.936 641.86C428.296 641.566 431.63 641.021 434.909 640.23C436.037 620.435 434.747 600.575 431.067 581.09C426.843 589.783 414.499 612.521 399.13 618.117C382.671 624.175 372.37 621.703 370 620.97V620.97Z" fill="#231F20"/>
<path d="M557.235 398.316C559.116 401.032 565.111 459.793 565.111 459.793C565.111 459.793 631.928 465.824 632.881 461.151C633.835 456.478 598.819 444.607 598.819 444.607L587.919 398.017" fill="white"/>
<path d="M619.393 464.166C614.379 464.166 607.648 463.976 598.574 463.46C581.924 462.564 565.166 461.07 565.002 461.042C564.711 461.019 564.437 460.894 564.228 460.691C564.02 460.488 563.888 460.218 563.858 459.929C561.596 437.734 557.508 401.521 556.173 398.968C556.082 398.833 556.019 398.681 555.987 398.521C555.955 398.361 555.956 398.197 555.989 398.038C556.022 397.878 556.087 397.727 556.179 397.593C556.272 397.459 556.39 397.344 556.527 397.256C556.81 397.081 557.151 397.022 557.477 397.094C557.802 397.165 558.087 397.359 558.271 397.636C560.124 400.353 564.702 443.819 566.228 458.652C595.958 461.368 627.786 462.754 631.628 460.716C630.457 458 613.725 450.937 598.438 445.775C598.241 445.712 598.064 445.599 597.925 445.446C597.787 445.294 597.691 445.107 597.648 444.906L586.748 398.288C586.674 397.968 586.73 397.631 586.903 397.352C587.076 397.072 587.353 396.872 587.674 396.794C587.999 396.729 588.336 396.791 588.616 396.969C588.895 397.146 589.095 397.424 589.173 397.745L600.073 443.656C613.698 448.247 635.28 456.451 634.299 461.368C633.863 462.564 633.536 464.166 619.393 464.166Z" fill="#231F20"/>
<path d="M565.711 190.386L611.3 411.926L548.434 413.556C548.434 413.556 526.634 296.252 525.299 278.649C523.964 261.045 565.711 190.386 565.711 190.386Z" fill="#F2C94C"/>
<path d="M426.353 80.2269C434.194 80.2269 440.55 73.8901 440.55 66.0733C440.55 58.2565 434.194 51.9197 426.353 51.9197C418.512 51.9197 412.155 58.2565 412.155 66.0733C412.155 73.8901 418.512 80.2269 426.353 80.2269Z" fill="white"/>
<path d="M426.382 81.4766H425.755C422.707 81.3615 419.761 80.3478 417.29 78.5636C414.82 76.7793 412.935 74.3048 411.876 71.4529C410.816 68.601 410.628 65.4998 411.336 62.5416C412.045 59.5834 413.617 56.9011 415.855 54.8338C418.092 52.7665 420.895 51.4072 423.907 50.9277C426.92 50.4483 430.007 50.8702 432.779 52.1402C435.551 53.4102 437.883 55.4712 439.48 58.0625C441.077 60.6538 441.867 63.6591 441.751 66.6982H440.497H441.751C441.589 70.6647 439.898 74.4159 437.029 77.1694C434.161 79.9228 430.337 81.4658 426.355 81.4766H426.382ZM426.382 53.1694C422.683 53.2374 419.161 54.7588 416.581 57.4026C414.001 60.0464 412.573 63.5986 412.608 67.2867C412.642 70.9747 414.135 74.5001 416.763 77.096C419.391 79.6918 422.941 81.1482 426.641 81.1482C430.34 81.1482 433.89 79.6918 436.518 77.096C439.146 74.5001 440.64 70.9747 440.674 67.2867C440.708 63.5986 439.28 60.0464 436.7 57.4026C434.121 54.7588 430.599 53.2374 426.9 53.1694H426.382Z" fill="#231F20"/>
<path d="M457.637 81.4766C465.478 81.4766 471.834 75.1398 471.834 67.323C471.834 59.5062 465.478 53.1694 457.637 53.1694C449.796 53.1694 443.439 59.5062 443.439 67.323C443.439 75.1398 449.796 81.4766 457.637 81.4766Z" fill="white"/>
<path d="M457.637 82.699H457.01C453.969 82.5541 451.038 81.5179 448.584 79.7202C446.13 77.9226 444.263 75.4432 443.215 72.5926C442.168 69.742 441.988 66.6468 442.697 63.6944C443.405 60.742 444.972 58.0637 447.2 55.9947C449.446 53.9301 452.254 52.5753 455.271 52.1013C458.288 51.6273 461.379 52.0555 464.152 53.3317C466.925 54.6079 469.257 56.6749 470.852 59.2716C472.447 61.8682 473.235 64.878 473.115 67.9206C472.96 71.8942 471.267 75.6533 468.391 78.4088C465.515 81.1644 461.68 82.7021 457.692 82.699H457.637ZM457.637 54.3919C455.937 54.3598 454.248 54.6618 452.665 55.2806C451.082 55.8994 449.638 56.823 448.413 57.9985C445.939 60.3726 444.513 63.629 444.448 67.0513C444.383 70.4737 445.685 73.7816 448.066 76.2474C450.447 78.7132 453.714 80.1349 457.147 80.1998C458.847 80.2837 460.547 80.0238 462.144 79.4355C463.741 78.8472 465.202 77.9429 466.439 76.7768C467.69 75.6304 468.701 74.2475 469.412 72.7086C470.123 71.1696 470.52 69.5053 470.581 67.812V67.812C470.684 64.4056 469.428 61.0974 467.089 58.6125C464.749 56.1275 461.517 54.6684 458.1 54.5549L457.637 54.3919Z" fill="#231F20"/>
<path d="M357.546 300.273C357.376 300.274 357.207 300.239 357.052 300.168C356.896 300.098 356.758 299.994 356.647 299.865L295.989 230.157C295.882 230.037 295.802 229.897 295.751 229.745C295.7 229.593 295.681 229.432 295.693 229.273C295.706 229.113 295.751 228.957 295.825 228.815C295.899 228.673 296.001 228.548 296.125 228.446C296.234 228.332 296.365 228.242 296.511 228.18C296.656 228.119 296.812 228.087 296.97 228.087C297.127 228.087 297.283 228.119 297.429 228.18C297.574 228.242 297.705 228.332 297.814 228.446L358.473 298.154C358.578 298.272 358.659 298.41 358.709 298.56C358.759 298.709 358.779 298.868 358.766 299.025C358.753 299.183 358.709 299.336 358.635 299.476C358.561 299.615 358.46 299.739 358.337 299.838C358.242 299.961 358.123 300.064 357.987 300.139C357.851 300.213 357.701 300.259 357.546 300.273V300.273Z" fill="#231F20"/>
<path d="M245.196 94.6521L302.721 72.6475L307.899 98.9444L249.938 117.499L245.196 94.6521Z" fill="#E6E7E8"/>
<path d="M427.603 64.5658C427.676 62.7218 426.93 61.1955 425.937 61.1566C424.945 61.1177 424.081 62.581 424.009 64.425C423.936 66.269 424.682 67.7954 425.674 67.8343C426.667 67.8732 427.53 66.4098 427.603 64.5658Z" fill="#231F20"/>
<path d="M459.65 66.4852C459.722 64.6412 458.977 63.1148 457.984 63.0759C456.992 63.037 456.128 64.5004 456.055 66.3444C455.983 68.1884 456.728 69.7148 457.721 69.7537C458.713 69.7926 459.577 68.3292 459.65 66.4852Z" fill="#231F20"/>
<path d="M500.147 78.7599C499.838 78.7544 499.541 78.6347 499.315 78.4241C499.088 78.2134 498.948 77.9266 498.921 77.619C498.294 70.1754 479.247 69.9581 471.944 70.5014C471.78 70.5163 471.616 70.4983 471.46 70.4486C471.303 70.399 471.159 70.3186 471.034 70.2122C470.91 70.1058 470.808 69.9756 470.735 69.8293C470.662 69.683 470.619 69.5236 470.608 69.3604C470.613 69.056 470.729 68.7637 470.935 68.5386C471.141 68.3135 471.422 68.171 471.726 68.138C474.669 67.9206 500.42 66.2907 501.374 77.5103C501.389 77.6745 501.371 77.8401 501.321 77.9974C501.272 78.1547 501.191 78.3007 501.085 78.427C500.979 78.5533 500.848 78.6573 500.701 78.7331C500.554 78.8089 500.394 78.8549 500.229 78.8686L500.147 78.7599Z" fill="#231F20"/>
<path d="M475.076 79.4391C475.583 77.0391 476.855 74.8667 478.7 73.2452C480.49 71.8298 482.508 70.7275 484.668 69.9853C485.808 69.4737 487.042 69.2053 488.292 69.1974C489.173 69.3071 490.024 69.5837 490.799 70.0124C492.703 70.8662 494.24 72.3688 495.132 74.2504C495.664 75.8326 495.804 77.5195 495.541 79.1674C495.394 80.9756 495.009 82.7566 494.396 84.4648C493.756 86.1678 492.779 87.7253 491.523 89.0447C490.267 90.3641 488.758 91.4187 487.086 92.1458C485.414 92.873 483.612 93.2579 481.788 93.2778C479.963 93.2977 478.154 92.9521 476.466 92.2615" fill="white"/>
<path d="M481.563 94.3261C479.696 94.3197 477.846 93.9601 476.113 93.2667C475.972 93.2195 475.842 93.144 475.732 93.0449C475.621 92.9458 475.532 92.8251 475.47 92.6904C475.407 92.5556 475.374 92.4096 475.37 92.2614C475.367 92.1131 475.394 91.9657 475.45 91.8282C475.506 91.6908 475.589 91.5662 475.695 91.4622C475.801 91.3581 475.928 91.2768 476.066 91.2233C476.205 91.1697 476.353 91.145 476.502 91.1507C476.65 91.1564 476.796 91.1923 476.931 91.2564C478.49 91.8919 480.162 92.2101 481.847 92.1924C483.532 92.1747 485.197 91.8213 486.743 91.1532C488.289 90.485 489.685 89.5155 490.85 88.3016C492.015 87.0877 492.925 85.6539 493.526 84.0845C494.108 82.4654 494.466 80.7745 494.589 79.0588C494.839 77.578 494.727 76.0589 494.262 74.6307C493.459 73.0075 492.108 71.7184 490.447 70.9904C489.8 70.6216 489.087 70.3818 488.348 70.2841C487.265 70.29 486.195 70.5311 485.215 70.9904C483.17 71.6981 481.255 72.7351 479.547 74.0602C477.88 75.5251 476.733 77.4882 476.277 79.6564C476.211 79.9333 476.042 80.1747 475.804 80.3313C475.566 80.4879 475.277 80.5477 474.996 80.4986C474.715 80.4397 474.468 80.2725 474.31 80.0334C474.152 79.7943 474.095 79.5026 474.151 79.2218C474.704 76.5879 476.1 74.2044 478.13 72.4302C480.006 70.9321 482.126 69.7652 484.397 68.9801C485.694 68.385 487.112 68.0967 488.539 68.138C489.555 68.2471 490.538 68.5614 491.428 69.0616C493.564 70.0187 495.279 71.7182 496.251 73.8429C496.859 75.5867 497.018 77.4549 496.714 79.2761C496.573 81.1874 496.169 83.0703 495.515 84.8723C494.052 88.515 491.215 91.4409 487.613 93.0222C485.71 93.8748 483.649 94.319 481.563 94.3261V94.3261Z" fill="#231F20"/>
<path d="M547.535 409.454C547.241 409.452 546.958 409.348 546.734 409.159C546.51 408.97 546.359 408.709 546.308 408.422L509.303 183.187C509.275 183.028 509.28 182.865 509.316 182.708C509.352 182.551 509.419 182.403 509.512 182.271C509.606 182.14 509.725 182.029 509.862 181.943C509.999 181.858 510.152 181.8 510.311 181.774C510.472 181.743 510.638 181.744 510.799 181.778C510.96 181.812 511.112 181.878 511.247 181.972C511.381 182.066 511.496 182.185 511.583 182.324C511.671 182.463 511.729 182.618 511.755 182.779L548.761 408.014C548.788 408.175 548.782 408.339 548.745 408.498C548.707 408.657 548.638 408.806 548.542 408.938C548.445 409.069 548.323 409.181 548.183 409.264C548.043 409.348 547.887 409.404 547.725 409.427L547.535 409.454Z" fill="#231F20"/>
<path d="M435.782 355.42C435.603 355.456 435.417 355.456 435.238 355.42C420.986 349.063 400.521 353.926 400.303 353.953C400.131 353.998 399.952 354.008 399.776 353.983C399.601 353.958 399.432 353.898 399.28 353.807C399.127 353.716 398.995 353.595 398.89 353.452C398.785 353.31 398.709 353.148 398.668 352.975C398.623 352.801 398.614 352.619 398.641 352.44C398.668 352.262 398.73 352.09 398.824 351.936C398.917 351.782 399.041 351.648 399.188 351.542C399.334 351.435 399.5 351.36 399.676 351.318C400.548 351.101 421.258 346.184 436.355 352.948C436.683 353.096 436.939 353.368 437.067 353.704C437.195 354.04 437.183 354.413 437.036 354.741C436.908 354.957 436.724 355.134 436.503 355.253C436.283 355.373 436.033 355.431 435.782 355.42Z" fill="white"/>
<path d="M514.562 311.465C514.339 311.469 514.119 311.403 513.936 311.275L483.252 293.427C482.97 293.262 482.763 292.994 482.676 292.679C482.59 292.364 482.63 292.028 482.789 291.743C482.959 291.459 483.234 291.253 483.554 291.166C483.874 291.08 484.215 291.121 484.506 291.281L515.325 309.129C515.61 309.299 515.817 309.572 515.904 309.892C515.99 310.211 515.949 310.551 515.789 310.841C515.663 311.048 515.481 311.217 515.265 311.327C515.048 311.437 514.805 311.485 514.562 311.465V311.465Z" fill="#231F20"/>
<path d="M414.826 300.735C414.638 300.74 414.451 300.701 414.281 300.621C414.11 300.541 413.961 300.421 413.845 300.273C413.742 300.147 413.664 300.002 413.617 299.846C413.571 299.69 413.556 299.526 413.574 299.364C413.591 299.202 413.642 299.045 413.721 298.902C413.8 298.76 413.908 298.635 414.036 298.534L432.457 283.756C432.58 283.625 432.729 283.522 432.896 283.453C433.062 283.385 433.241 283.353 433.42 283.359C433.6 283.366 433.776 283.411 433.937 283.492C434.098 283.572 434.239 283.686 434.352 283.826C434.464 283.966 434.545 284.128 434.589 284.302C434.633 284.475 434.639 284.657 434.607 284.833C434.575 285.009 434.505 285.177 434.402 285.324C434.299 285.471 434.165 285.594 434.011 285.685L415.589 300.463C415.377 300.643 415.106 300.74 414.826 300.735V300.735Z" fill="#231F20"/>
<path d="M190.232 551.044C196.056 545.844 202.645 541.566 209.77 538.357C210.37 559.194 201.895 578.346 194.047 591.467H168.568" fill="white"/>
<path d="M194.048 592.88H168.569C168.383 592.88 168.199 592.843 168.027 592.772C167.855 592.701 167.699 592.597 167.567 592.466C167.436 592.335 167.331 592.179 167.26 592.008C167.189 591.836 167.152 591.653 167.152 591.467C167.152 591.282 167.189 591.098 167.26 590.927C167.331 590.755 167.436 590.599 167.567 590.468C167.699 590.337 167.855 590.233 168.027 590.162C168.199 590.091 168.383 590.054 168.569 590.054H193.258C200.316 578.074 208.382 560.172 208.409 540.531C202.173 543.614 196.373 547.505 191.16 552.103C190.899 552.362 190.546 552.507 190.179 552.507C189.811 552.507 189.458 552.362 189.198 552.103C188.936 551.839 188.79 551.483 188.79 551.112C188.79 550.741 188.936 550.385 189.198 550.12C195.128 544.79 201.858 540.417 209.145 537.162C209.354 537.08 209.581 537.048 209.805 537.071C210.029 537.093 210.245 537.169 210.434 537.291C210.624 537.413 210.781 537.578 210.893 537.773C211.005 537.968 211.069 538.187 211.079 538.412C211.679 559.9 202.741 579.568 195.138 592.282C195.015 592.459 194.853 592.606 194.664 592.709C194.475 592.813 194.264 592.871 194.048 592.88V592.88Z" fill="#231F20"/>
<path d="M153.719 556.667C159.986 524.068 185.574 503.585 185.574 503.585C190.35 518.924 191.935 535.073 190.234 551.044C188.907 564.817 185.952 578.385 181.432 591.467H153.991" fill="white"/>
<path d="M181.43 592.88H153.989C153.805 592.88 153.622 592.843 153.451 592.772C153.281 592.7 153.126 592.596 152.997 592.464C152.868 592.333 152.766 592.177 152.698 592.006C152.629 591.834 152.596 591.651 152.6 591.467C152.6 591.097 152.745 590.742 153.005 590.478C153.265 590.214 153.618 590.062 153.989 590.054H180.422C184.722 577.379 187.547 564.253 188.842 550.935C190.438 535.862 189.097 520.623 184.891 506.057C179.277 511.11 160.366 529.909 155.079 556.912C155.056 557.1 154.994 557.281 154.898 557.444C154.801 557.608 154.672 557.749 154.519 557.861C154.365 557.972 154.19 558.051 154.005 558.093C153.82 558.134 153.628 558.138 153.441 558.102C153.254 558.067 153.077 557.994 152.92 557.887C152.762 557.781 152.629 557.644 152.527 557.484C152.425 557.324 152.357 557.145 152.328 556.957C152.298 556.77 152.307 556.579 152.354 556.396C158.649 523.796 184.482 502.715 184.727 502.498C184.903 502.354 185.113 502.256 185.337 502.213C185.56 502.17 185.791 502.184 186.008 502.253C186.224 502.317 186.421 502.432 186.582 502.588C186.744 502.744 186.865 502.937 186.935 503.15C191.79 518.669 193.403 535.015 191.676 551.18C190.331 565.066 187.34 578.744 182.765 591.929C182.677 592.211 182.498 592.456 182.258 592.627C182.017 592.799 181.726 592.887 181.43 592.88V592.88Z" fill="#231F20"/>
<path d="M140.174 591.467H164.454C164.672 584.295 163.037 573.456 155.243 559.384C154.725 558.433 154.208 557.537 153.69 556.667C139.629 532.924 126.767 533.196 126.767 533.196C121.344 558.162 132.817 580.438 140.174 591.467Z" fill="white"/>
<path d="M164.454 592.88H140.174C139.942 592.882 139.713 592.825 139.508 592.716C139.304 592.607 139.13 592.448 139.002 592.255C131.536 581.035 119.927 558.406 125.377 532.897C125.435 532.585 125.599 532.303 125.843 532.1C126.087 531.896 126.395 531.784 126.713 531.783C127.339 531.783 140.556 531.783 154.889 555.961C155.407 556.858 155.925 557.754 156.442 558.678C164.617 573.402 166.034 584.648 165.816 591.494C165.81 591.855 165.665 592.2 165.411 592.457C165.158 592.715 164.815 592.866 164.454 592.88V592.88ZM140.937 590.163H163.064C163.064 583.562 161.347 573.347 154.017 560.28L152.491 557.564C141.346 538.765 131.154 535.478 127.966 534.907C123.279 558.243 133.825 579.215 140.937 590.082V590.163Z" fill="#231F20"/>
<path d="M144.589 629.853H192.195L199.879 591.494H136.932L144.589 629.853Z" fill="#231F20"/>
</svg>
