<svg width="396" height="361" viewBox="0 0 396 361" fill="none" xmlns="http://www.w3.org/2000/svg">
<path d="M342.481 353.862C342.481 357.809 309.299 360.994 260.672 360.994C212.044 360.994 67.7358 358.39 67.7358 354.459C67.7358 350.528 206.004 346.764 254.566 346.764C303.128 346.764 342.481 349.931 342.481 353.862Z" fill="#D1D3D4"/>
<path d="M67.7356 354.459H240.447C241.949 354.476 243.438 354.183 244.821 353.597C246.204 353.012 247.451 352.147 248.484 351.056C249.517 349.966 250.313 348.675 250.823 347.262C251.333 345.85 251.545 344.348 251.447 342.85L234.159 13.5054C233.966 10.3837 232.598 7.45079 230.329 5.29684C228.061 3.14289 225.06 1.92776 221.931 1.89597H49.1703C47.6692 1.87886 46.1807 2.17239 44.7985 2.75811C43.4163 3.34382 42.1702 4.20906 41.1387 5.29942C40.1072 6.38978 39.3125 7.68167 38.8045 9.09389C38.2966 10.5061 38.0864 12.0081 38.1872 13.5054L55.5247 342.85C55.7134 345.97 57.0782 348.903 59.3441 351.057C61.6101 353.211 64.6086 354.427 67.7356 354.459V354.459Z" fill="#231F20"/>
<path d="M240.447 355.172H67.736C64.4249 355.137 61.25 353.85 58.8494 351.57C56.4487 349.29 55.0003 346.187 54.7951 342.883L37.4576 13.5386C37.3571 11.9453 37.5864 10.3485 38.1312 8.84784C38.676 7.34718 39.5245 5.97497 40.6238 4.81695C41.7231 3.65893 43.0495 2.73998 44.5201 2.11754C45.9907 1.4951 47.5739 1.18253 49.1708 1.19938H221.882C225.194 1.2385 228.368 2.52623 230.771 4.80489C233.173 7.08354 234.627 10.1851 234.84 13.4888L252.177 342.85C252.28 344.446 252.052 346.046 251.507 347.55C250.963 349.053 250.113 350.428 249.012 351.588C247.91 352.749 246.581 353.669 245.107 354.291C243.634 354.913 242.047 355.225 240.447 355.206V355.172ZM49.1708 2.62569C47.7705 2.61128 46.3824 2.8861 45.0933 3.43292C43.8042 3.97974 42.642 4.78678 41.6794 5.80348C40.7169 6.82018 39.9747 8.02464 39.4995 9.34139C39.0242 10.6581 38.8261 12.0588 38.9176 13.4557L56.2551 342.85C56.4354 345.781 57.7201 348.534 59.8505 350.556C61.9809 352.578 64.7985 353.718 67.736 353.746H240.447C241.846 353.761 243.234 353.489 244.523 352.947C245.813 352.405 246.978 351.605 247.946 350.595C248.919 349.565 249.67 348.345 250.152 347.013C250.635 345.681 250.838 344.264 250.75 342.85L233.38 13.5386C233.203 10.6018 231.918 7.84156 229.784 5.81578C227.649 3.79001 224.825 2.64981 221.882 2.62569H49.1708Z" fill="#231F20"/>
<path d="M80.4942 353.862H253.222C254.723 353.877 256.21 353.582 257.591 352.995C258.972 352.408 260.217 351.543 261.248 350.453C262.279 349.363 263.074 348.073 263.583 346.661C264.092 345.25 264.304 343.749 264.205 342.253L246.868 12.9084C246.679 9.7881 245.314 6.85529 243.048 4.70097C240.782 2.54666 237.784 1.33098 234.657 1.29891H61.9455C60.4437 1.28197 58.9545 1.57548 57.5715 2.16103C56.1885 2.74657 54.9415 3.61152 53.9086 4.70159C52.8758 5.79167 52.0795 7.08335 51.5696 8.4956C51.0598 9.90786 50.8474 11.4102 50.9458 12.9084L68.2501 342.269C68.4433 345.392 69.8146 348.326 72.0871 350.477C74.3596 352.629 77.3642 353.839 80.4942 353.862V353.862Z" fill="white"/>
<path d="M253.222 354.691H80.4941C77.1613 354.64 73.9698 353.338 71.5538 351.042C69.1377 348.747 67.674 345.627 67.4536 342.302L50.1161 12.9581C50.0133 11.3483 50.2439 9.73455 50.7935 8.21785C51.343 6.70115 52.1998 5.31412 53.3101 4.14352C54.4204 2.97291 55.7603 2.04391 57.2462 1.41462C58.732 0.785326 60.3318 0.469278 61.9454 0.486244H234.657C237.979 0.535951 241.161 1.82932 243.576 4.11083C245.99 6.39234 247.461 9.49607 247.697 12.8089L265.035 342.153C265.137 343.762 264.907 345.374 264.359 346.889C263.81 348.405 262.955 349.791 261.846 350.962C260.738 352.132 259.4 353.061 257.916 353.692C256.432 354.322 254.834 354.64 253.222 354.625V354.691ZM61.9454 2.14474C60.5635 2.13109 59.1935 2.40145 57.9204 2.93905C56.6473 3.47666 55.4983 4.27004 54.5446 5.26998C53.591 6.26991 52.8531 7.45507 52.3767 8.75192C51.9003 10.0488 51.6956 11.4296 51.7752 12.8089L69.1127 342.153C69.3116 345.052 70.591 347.772 72.6983 349.774C74.8055 351.776 77.5873 352.915 80.4941 352.967H253.222C254.61 352.983 255.986 352.713 257.264 352.172C258.543 351.631 259.695 350.831 260.649 349.823C261.603 348.815 262.337 347.621 262.807 346.315C263.276 345.009 263.47 343.62 263.376 342.236L246.038 12.9581C245.839 10.0588 244.56 7.33947 242.453 5.33738C240.345 3.33529 237.564 2.19605 234.657 2.14474H61.9454Z" fill="#231F20"/>
<path d="M240.132 333.164H91.6097C88.9256 333.133 86.3521 332.091 84.4024 330.246C82.4528 328.402 81.2704 325.89 81.0911 323.213L65.8274 33.3245C65.7453 32.0238 65.9322 30.7201 66.3764 29.4948C66.8206 28.2695 67.5127 27.1488 68.4093 26.2027C69.306 25.2566 70.388 24.5053 71.588 23.9957C72.788 23.4861 74.0801 23.2292 75.3838 23.2409H223.889C226.575 23.2721 229.15 24.3135 231.103 26.1575C233.055 28.0016 234.241 30.5131 234.424 33.1918L249.671 323.08C249.758 324.381 249.575 325.685 249.134 326.912C248.693 328.138 248.002 329.26 247.106 330.207C246.211 331.154 245.129 331.905 243.928 332.414C242.728 332.923 241.435 333.178 240.132 333.164V333.164ZM75.3838 24.8496C74.3079 24.8369 73.2409 25.047 72.2502 25.4665C71.2594 25.8861 70.3662 26.5061 69.6268 27.2876C68.8849 28.073 68.3122 29.0023 67.9441 30.0178C67.5759 31.0334 67.4202 32.1137 67.4865 33.1918L82.7502 323.08C82.8884 325.344 83.879 327.471 85.5227 329.034C87.1664 330.598 89.3412 331.48 91.6097 331.506H240.132C241.205 331.514 242.269 331.302 243.257 330.884C244.246 330.465 245.138 329.847 245.878 329.07C246.618 328.293 247.191 327.372 247.561 326.365C247.931 325.357 248.09 324.285 248.029 323.213L232.765 33.3245C232.619 31.0608 231.624 28.9356 229.978 27.3737C228.333 25.8117 226.158 24.9281 223.889 24.8994L75.3838 24.8496Z" fill="#D1D3D4"/>
<path d="M177.551 14.4673H145.099C144.879 14.4673 144.668 14.38 144.512 14.2244C144.357 14.0689 144.27 13.858 144.27 13.6381C144.27 13.4182 144.357 13.2072 144.512 13.0517C144.668 12.8962 144.879 12.8088 145.099 12.8088H177.551C177.771 12.8088 177.982 12.8962 178.137 13.0517C178.293 13.2072 178.38 13.4182 178.38 13.6381C178.38 13.858 178.293 14.0689 178.137 14.2244C177.982 14.38 177.771 14.4673 177.551 14.4673Z" fill="#D1D3D4"/>
<path d="M140.288 14.4673H134.614C134.394 14.4673 134.183 14.38 134.027 14.2244C133.872 14.0689 133.784 13.858 133.784 13.6381C133.784 13.4182 133.872 13.2072 134.027 13.0517C134.183 12.8962 134.394 12.8088 134.614 12.8088H140.288C140.508 12.8088 140.719 12.8962 140.874 13.0517C141.03 13.2072 141.117 13.4182 141.117 13.6381C141.117 13.858 141.03 14.0689 140.874 14.2244C140.719 14.38 140.508 14.4673 140.288 14.4673Z" fill="#D1D3D4"/>
<path d="M47.4785 80.575C47.2669 80.5754 47.0631 80.4949 46.9089 80.35C46.7547 80.2051 46.6617 80.0067 46.649 79.7955L44.8572 45.7466C44.8481 45.525 44.9265 45.3087 45.0754 45.1442C45.2244 44.9798 45.432 44.8805 45.6535 44.8676C45.7625 44.8632 45.8713 44.8803 45.9736 44.9179C46.076 44.9555 46.1699 45.0129 46.25 45.0869C46.3301 45.1608 46.3949 45.2498 46.4406 45.3488C46.4863 45.4478 46.512 45.5548 46.5163 45.6637L48.3413 79.7126C48.348 79.8207 48.333 79.9291 48.2972 80.0313C48.2615 80.1335 48.2056 80.2276 48.133 80.3079C48.0604 80.3883 47.9724 80.4533 47.8742 80.4992C47.7761 80.545 47.6698 80.5708 47.5615 80.575H47.4785Z" fill="#D1D3D4"/>
<path d="M113.46 58.683H95.1107L65.2471 22.9258H83.58L113.46 58.683Z" fill="white"/>
<path d="M113.46 59.4292H95.1107C95.0009 59.4275 94.8925 59.403 94.7926 59.3573C94.6927 59.3116 94.6033 59.2458 94.53 59.1639L64.6664 23.4067C64.5738 23.2982 64.515 23.165 64.4973 23.0236C64.4796 22.8821 64.5038 22.7385 64.5668 22.6106C64.6247 22.4782 64.7197 22.3653 64.8405 22.2858C64.9612 22.2063 65.1025 22.1636 65.2471 22.1628H83.58C83.6922 22.1609 83.8032 22.1854 83.9041 22.2344C84.005 22.2834 84.0929 22.3555 84.1607 22.4448L114.024 58.1854C114.116 58.2974 114.175 58.4333 114.192 58.5772C114.21 58.7212 114.186 58.8671 114.124 58.998C114.065 59.1249 113.971 59.2325 113.854 59.3088C113.737 59.385 113.6 59.4268 113.46 59.4292ZM95.4757 57.92H111.834L83.1818 23.6886H66.8232L95.4757 57.92Z" fill="#231F20"/>
<path d="M113.46 58.6829H95.1108L95.7081 67.7714C95.8735 70.0015 96.8676 72.089 98.4948 73.6236C100.122 75.1581 102.265 76.0286 104.501 76.0639H106.409C107.476 76.0798 108.534 75.8714 109.516 75.4522C110.497 75.0329 111.379 74.4123 112.105 73.6304C112.831 72.8486 113.384 71.923 113.729 70.9137C114.074 69.9043 114.203 68.8338 114.107 67.7714L113.46 58.6829Z" fill="white"/>
<path d="M106.409 76.7772H104.551C102.131 76.7392 99.8124 75.8003 98.0481 74.144C96.2839 72.4878 95.2011 70.2332 95.0114 67.8213L94.4141 58.7327C94.4049 58.6293 94.4173 58.5251 94.4507 58.4267C94.484 58.3284 94.5376 58.238 94.6078 58.1616C94.6781 58.0851 94.7636 58.0241 94.8588 57.9825C94.954 57.9409 95.0568 57.9196 95.1607 57.92H113.51C113.703 57.9199 113.888 57.9939 114.027 58.1268C114.166 58.2597 114.248 58.4411 114.257 58.6332L114.871 67.7218C114.963 68.8839 114.812 70.0525 114.427 71.1531C114.043 72.2537 113.433 73.2621 112.637 74.1141C111.841 74.9661 110.876 75.6429 109.804 76.1014C108.732 76.5599 107.575 76.79 106.409 76.7772V76.7772ZM95.9736 59.4293L96.5211 67.7218C96.6817 69.7524 97.5932 71.6504 99.0778 73.0455C100.562 74.4407 102.514 75.233 104.551 75.2679H106.409C107.368 75.2806 108.319 75.0926 109.2 74.7159C110.082 74.3393 110.874 73.7823 111.528 73.0809C112.181 72.3795 112.68 71.5491 112.993 70.6433C113.306 69.7374 113.425 68.7762 113.344 67.8213L112.797 59.4293H95.9736Z" fill="#231F20"/>
<path d="M131.793 58.683H113.46L83.5801 22.9258H101.913L131.793 58.683Z" fill="#F2C94C"/>
<path d="M131.793 59.4293H113.46C113.35 59.4307 113.241 59.4076 113.14 59.3618C113.04 59.3159 112.951 59.2483 112.88 59.1639L83.016 23.4067C82.9234 23.2982 82.8646 23.165 82.8469 23.0236C82.8293 22.8821 82.8534 22.7385 82.9164 22.6106C82.9742 22.4782 83.0693 22.3653 83.1901 22.2858C83.3108 22.2063 83.4521 22.1636 83.5966 22.1628H101.847C101.959 22.1609 102.07 22.1854 102.171 22.2344C102.272 22.2834 102.36 22.3555 102.427 22.4448L132.291 58.1854C132.389 58.2943 132.452 58.4294 132.473 58.5741C132.495 58.7187 132.473 58.8664 132.411 58.9989C132.35 59.1314 132.25 59.2428 132.126 59.3193C132.001 59.3958 131.857 59.4341 131.71 59.4293H131.793ZM113.809 57.92H130.167L101.565 23.6886H85.206L113.809 57.92Z" fill="#231F20"/>
<path d="M131.793 58.6829H113.46L114.058 67.7714C114.216 70.0042 115.207 72.0961 116.836 73.6322C118.465 75.1682 120.612 76.0362 122.851 76.0639H124.659C125.726 76.0798 126.785 75.8714 127.766 75.4522C128.747 75.0329 129.629 74.4123 130.355 73.6304C131.081 72.8486 131.634 71.923 131.979 70.9137C132.324 69.9043 132.453 68.8338 132.357 67.7714L131.793 58.6829Z" fill="#F2C94C"/>
<path d="M124.659 76.7772H122.801C120.378 76.7433 118.055 75.8062 116.288 74.1495C114.52 72.4929 113.435 70.236 113.245 67.8213L112.647 58.7327C112.637 58.5209 112.708 58.3132 112.847 58.1522C112.921 58.0784 113.009 58.0199 113.105 57.98C113.202 57.9402 113.306 57.9198 113.411 57.92H131.793C131.986 57.9235 132.171 57.9983 132.312 58.13C132.453 58.2617 132.54 58.441 132.557 58.6332L133.154 67.7218C133.246 68.8867 133.095 70.0582 132.708 71.1611C132.321 72.264 131.709 73.274 130.909 74.1265C130.109 74.979 129.14 75.6551 128.064 76.1115C126.988 76.568 125.828 76.7947 124.659 76.7772ZM114.207 59.4293L114.771 67.7218C114.924 69.7551 115.834 71.6574 117.32 73.0541C118.806 74.4507 120.761 75.2405 122.801 75.2679H124.659C125.618 75.2806 126.568 75.0926 127.45 74.7159C128.332 74.3393 129.124 73.7823 129.778 73.0809C130.431 72.3795 130.93 71.5491 131.243 70.6433C131.556 69.7374 131.675 68.7762 131.594 67.8213L131.03 59.4293H114.207Z" fill="#231F20"/>
<path d="M150.143 58.683H131.793L101.913 22.9258H120.246L150.143 58.683Z" fill="white"/>
<path d="M150.143 59.4292H131.793C131.611 59.427 131.436 59.3626 131.296 59.2468L101.432 23.4896C101.339 23.3812 101.281 23.248 101.263 23.1065C101.245 22.965 101.269 22.8214 101.332 22.6935C101.392 22.5623 101.487 22.4506 101.608 22.3714C101.728 22.2921 101.869 22.2486 102.013 22.2457H120.346C120.46 22.245 120.573 22.27 120.676 22.3188C120.78 22.3676 120.871 22.439 120.943 22.5277L150.806 58.2683C150.899 58.3803 150.957 58.5162 150.975 58.6601C150.992 58.8041 150.968 58.95 150.906 59.0809C150.828 59.2087 150.714 59.3103 150.578 59.3724C150.442 59.4345 150.29 59.4543 150.143 59.4292ZM132.158 57.92H148.517L119.898 23.6886H103.539L132.158 57.92Z" fill="#231F20"/>
<path d="M150.143 58.6829H131.793L132.407 67.7714C132.565 70.0014 133.554 72.091 135.179 73.6266C136.805 75.1623 138.947 76.0321 141.183 76.0639H143.042C144.109 76.0798 145.167 75.8714 146.148 75.4522C147.129 75.0329 148.011 74.4123 148.737 73.6304C149.463 72.8486 150.016 71.923 150.361 70.9137C150.706 69.9043 150.835 68.8338 150.74 67.7714L150.143 58.6829Z" fill="white"/>
<path d="M143.042 76.7772H141.25C138.83 76.7392 136.511 75.8003 134.747 74.144C132.983 72.4878 131.9 70.2332 131.71 67.8213L131.113 58.7327C131.104 58.6293 131.116 58.5251 131.149 58.4267C131.183 58.3284 131.236 58.238 131.307 58.1616C131.377 58.0851 131.462 58.0241 131.557 57.9825C131.653 57.9409 131.756 57.9196 131.859 57.92H150.209C150.401 57.9199 150.586 57.9939 150.725 58.1268C150.865 58.2597 150.947 58.4411 150.956 58.6332L151.569 67.7218C151.662 68.8839 151.511 70.0525 151.126 71.1531C150.741 72.2537 150.132 73.2621 149.336 74.1141C148.54 74.9661 147.575 75.6429 146.502 76.1014C145.43 76.5599 144.274 76.79 143.108 76.7772H143.042ZM132.606 59.4293L133.153 67.7218C133.315 69.7636 134.236 71.6709 135.735 73.0677C137.233 74.4645 139.201 75.2495 141.25 75.2679H143.108C144.067 75.2804 145.019 75.0924 145.901 74.7159C146.783 74.3394 147.577 73.7827 148.231 73.0816C148.886 72.3805 149.387 71.5504 149.701 70.6445C150.016 69.7387 150.138 68.777 150.06 67.8213L149.496 59.4293H132.606Z" fill="#231F20"/>
<path d="M168.476 58.683H150.143L120.246 22.9258H138.596L168.476 58.683Z" fill="#F2C94C"/>
<path d="M168.476 59.4293H150.226C150.106 59.4572 149.981 59.4551 149.863 59.4233C149.744 59.3914 149.635 59.3308 149.546 59.2468L119.682 23.4067C119.593 23.2964 119.537 23.1634 119.519 23.0228C119.501 22.8822 119.523 22.7395 119.582 22.6106C119.644 22.4806 119.739 22.3699 119.859 22.2909C119.979 22.2119 120.119 22.1676 120.263 22.1628H138.596C138.707 22.1646 138.817 22.1907 138.917 22.2394C139.018 22.2881 139.106 22.3582 139.176 22.4448L169.04 58.1854C169.137 58.2943 169.201 58.4295 169.222 58.5741C169.244 58.7187 169.222 58.8665 169.16 58.999C169.098 59.1314 168.999 59.2429 168.874 59.3194C168.75 59.3959 168.605 59.4341 168.459 59.4293H168.476ZM150.491 57.92H166.85L138.231 23.6887H121.872L150.491 57.92Z" fill="#231F20"/>
<path d="M168.476 58.6829H150.226L150.823 67.7714C150.985 70.0029 151.977 72.0926 153.605 73.6279C155.233 75.1631 157.378 76.0324 159.616 76.0639H161.474C162.541 76.0798 163.599 75.8714 164.581 75.4522C165.562 75.0329 166.444 74.4123 167.17 73.6304C167.895 72.8486 168.449 71.923 168.794 70.9137C169.139 69.9043 169.268 68.8338 169.172 67.7714L168.476 58.6829Z" fill="#F2C94C"/>
<path d="M161.392 76.7772H159.5C157.079 76.7429 154.758 75.8053 152.993 74.1483C151.228 72.4913 150.147 70.2346 149.961 67.8213L149.347 58.7327C149.336 58.5209 149.408 58.3132 149.546 58.1522C149.62 58.0784 149.708 58.0199 149.805 57.98C149.901 57.9402 150.005 57.9198 150.11 57.92H168.36C168.553 57.9235 168.738 57.9983 168.879 58.13C169.02 58.2617 169.107 58.441 169.123 58.6332L169.72 67.7218C169.828 68.8858 169.689 70.0595 169.311 71.1659C168.933 72.2722 168.325 73.2862 167.528 74.1413C166.731 74.9964 165.761 75.6733 164.684 76.1275C163.606 76.5818 162.445 76.8032 161.276 76.7772H161.392ZM150.939 59.4293L151.503 67.7218C151.66 69.7481 152.566 71.6437 154.044 73.0388C155.522 74.4339 157.468 75.2286 159.5 75.2679H161.358C162.317 75.2806 163.268 75.0926 164.149 74.7159C165.031 74.3392 165.824 73.7823 166.477 73.0809C167.13 72.3795 167.629 71.5491 167.942 70.6433C168.255 69.7374 168.375 68.7762 168.293 67.8213L167.796 59.4293H150.939Z" fill="#231F20"/>
<path d="M186.826 58.683H168.476L138.596 22.9258H156.929L186.826 58.683Z" fill="white"/>
<path d="M186.825 59.4293H168.476C168.366 59.4275 168.258 59.403 168.158 59.3573C168.058 59.3116 167.968 59.2458 167.895 59.1639L138.032 23.4067C137.936 23.3 137.874 23.1677 137.854 23.0261C137.833 22.8846 137.855 22.7401 137.915 22.6106C137.979 22.4793 138.078 22.368 138.201 22.289C138.324 22.2101 138.466 22.1664 138.612 22.1628H156.862C156.974 22.1646 157.084 22.1907 157.184 22.2394C157.284 22.2881 157.373 22.3582 157.443 22.4448L187.307 58.1854C187.399 58.2974 187.457 58.4333 187.475 58.5773C187.492 58.7212 187.468 58.8672 187.406 58.9981C187.354 59.1132 187.273 59.2132 187.171 59.2887C187.07 59.3641 186.951 59.4125 186.825 59.4293V59.4293ZM168.824 57.92H185.199L156.564 23.6887H140.205L168.824 57.92Z" fill="#231F20"/>
<path d="M186.825 58.6829H168.476L169.089 67.7714C169.247 70.0042 170.239 72.0961 171.868 73.6322C173.497 75.1682 175.644 76.0362 177.883 76.0639H179.741C180.807 76.08 181.865 75.8716 182.845 75.4523C183.826 75.0329 184.707 74.412 185.431 73.6298C186.156 72.8476 186.708 71.9218 187.051 70.9125C187.394 69.9031 187.52 68.8329 187.422 67.7714L186.825 58.6829Z" fill="white"/>
<path d="M179.741 76.777H177.883C175.46 76.7432 173.137 75.8061 171.369 74.1494C169.602 72.4928 168.517 70.2359 168.327 67.8212L167.796 58.7326C167.787 58.6273 167.8 58.5214 167.834 58.4215C167.868 58.3215 167.923 58.2298 167.995 58.1521C168.065 58.0772 168.149 58.0178 168.244 57.9778C168.338 57.9378 168.44 57.918 168.542 57.9199H186.892C187.084 57.9197 187.269 57.9938 187.408 58.1267C187.547 58.2595 187.63 58.4409 187.638 58.6331L188.252 67.7216C188.344 68.8824 188.194 70.0496 187.81 71.149C187.427 72.2485 186.818 73.2561 186.024 74.1078C185.23 74.9595 184.267 75.6367 183.197 76.0962C182.126 76.5557 180.972 76.7876 179.807 76.777H179.741ZM169.289 59.4292L169.836 67.7216C169.997 69.7551 170.911 71.6553 172.399 73.0509C173.887 74.4465 175.843 75.237 177.883 75.2678H179.741C180.699 75.278 181.648 75.0882 182.529 74.7107C183.409 74.3331 184.201 73.7761 184.853 73.0753C185.506 72.3744 186.005 71.5451 186.319 70.6404C186.633 69.7357 186.755 68.7755 186.676 67.8212L186.046 59.4292H169.289Z" fill="#231F20"/>
<path d="M205.159 58.683H186.826L156.929 22.9258H175.262L205.159 58.683Z" fill="#F2C94C"/>
<path d="M205.158 59.4293H186.826C186.715 59.4307 186.606 59.4077 186.505 59.3618C186.405 59.3159 186.316 59.2483 186.245 59.1639L156.381 23.4067C156.286 23.3 156.224 23.1677 156.203 23.0261C156.183 22.8846 156.204 22.7401 156.265 22.6106C156.329 22.4793 156.428 22.368 156.551 22.289C156.674 22.2101 156.816 22.1664 156.962 22.1628H175.262C175.373 22.1646 175.483 22.1907 175.583 22.2394C175.684 22.2881 175.772 22.3582 175.842 22.4448L205.706 58.1854C205.804 58.2943 205.867 58.4295 205.888 58.5741C205.91 58.7187 205.888 58.8665 205.826 58.999C205.765 59.1314 205.665 59.2429 205.54 59.3194C205.416 59.3959 205.271 59.4341 205.125 59.4293H205.158ZM187.174 57.92H203.533L174.913 23.6887H158.538L187.174 57.92Z" fill="#231F20"/>
<path d="M205.158 58.6829H186.825L187.422 67.7714C187.588 70.0015 188.582 72.089 190.209 73.6236C191.836 75.1581 193.979 76.0286 196.216 76.0639H198.074C199.141 76.0798 200.199 75.8714 201.18 75.4522C202.161 75.0329 203.043 74.4123 203.769 73.6304C204.495 72.8486 205.048 71.923 205.393 70.9137C205.738 69.9043 205.867 68.8338 205.772 67.7714L205.158 58.6829Z" fill="#F2C94C"/>
<path d="M198.074 76.7772H196.216C193.796 76.7392 191.477 75.8003 189.713 74.144C187.948 72.4877 186.866 70.2332 186.676 67.8213L186.045 58.7327C186.035 58.5209 186.106 58.3132 186.245 58.1522C186.319 58.0784 186.407 58.0199 186.503 57.98C186.6 57.9402 186.704 57.9198 186.809 57.92H205.142C205.334 57.9235 205.519 57.9983 205.66 58.13C205.801 58.2617 205.888 58.441 205.905 58.6332L206.519 67.7218C206.613 68.8923 206.465 70.0698 206.082 71.1801C205.7 72.2904 205.091 73.3095 204.295 74.1733C203.495 75.0138 202.529 75.6791 201.458 76.1273C200.387 76.5755 199.235 76.7968 198.074 76.7772V76.7772ZM187.705 59.4293L188.269 67.7218C188.429 69.7524 189.341 71.6504 190.825 73.0455C192.31 74.4407 194.261 75.233 196.299 75.2679H198.157C199.115 75.2806 200.066 75.0926 200.947 74.7159C201.829 74.3392 202.622 73.7823 203.275 73.0809C203.928 72.3795 204.427 71.5491 204.74 70.6433C205.053 69.7374 205.173 68.7762 205.092 67.8213L204.528 59.4293H187.705Z" fill="#231F20"/>
<path d="M223.508 58.683H205.159L175.262 22.9258H193.595L223.508 58.683Z" fill="white"/>
<path d="M223.508 59.4293H205.158C205.049 59.4275 204.94 59.403 204.84 59.3573C204.74 59.3117 204.651 59.2458 204.578 59.1639L174.714 23.4067C174.619 23.3 174.557 23.1677 174.536 23.0261C174.516 22.8846 174.537 22.7401 174.598 22.6106C174.662 22.4793 174.761 22.368 174.884 22.2891C175.007 22.2101 175.149 22.1664 175.295 22.1629H193.628C193.74 22.1622 193.85 22.1873 193.951 22.2362C194.052 22.2851 194.14 22.3564 194.208 22.4448L224.072 58.1854C224.161 58.2992 224.217 58.4348 224.234 58.578C224.252 58.7211 224.23 58.8663 224.172 58.9981C224.111 59.1237 224.017 59.2304 223.9 59.3064C223.783 59.3824 223.648 59.4249 223.508 59.4293ZM205.507 57.92H221.882L193.246 23.6887H176.888L205.507 57.92Z" fill="#231F20"/>
<path d="M223.508 58.6829H205.158L205.772 67.7714C205.934 70.0029 206.927 72.0926 208.555 73.6279C210.183 75.1632 212.327 76.0324 214.565 76.0639H216.423C217.49 76.08 218.547 75.8716 219.528 75.4523C220.508 75.0329 221.389 74.412 222.114 73.6298C222.838 72.8476 223.39 71.9218 223.733 70.9125C224.076 69.9031 224.203 68.8329 224.105 67.7714L223.508 58.6829Z" fill="white"/>
<path d="M216.424 76.777H214.565C212.144 76.7394 209.823 75.8011 208.056 74.1451C206.289 72.4892 205.203 70.2345 205.009 67.8211L204.395 58.7326C204.391 58.5188 204.468 58.3114 204.611 58.1521C204.681 58.0772 204.766 58.0178 204.86 57.9778C204.954 57.9378 205.056 57.918 205.158 57.9199H223.508C223.7 57.9197 223.885 57.9938 224.024 58.1267C224.164 58.2595 224.246 58.4409 224.254 58.6331L224.868 67.7216C224.976 68.8857 224.837 70.0594 224.459 71.1657C224.081 72.2721 223.473 73.2861 222.676 74.1412C221.879 74.9962 220.909 75.6731 219.832 76.1274C218.754 76.5817 217.593 76.8031 216.424 76.777V76.777ZM205.955 59.4292L206.519 67.7216C206.676 69.7536 207.586 71.6537 209.072 73.0497C210.557 74.4456 212.51 75.2366 214.549 75.2678H216.407C217.366 75.2805 218.316 75.0925 219.198 74.7158C220.079 74.3391 220.872 73.7822 221.525 73.0808C222.179 72.3793 222.678 71.549 222.99 70.6432C223.303 69.7373 223.423 68.776 223.342 67.8211L222.778 59.4292H205.955Z" fill="#231F20"/>
<path d="M241.841 58.683H223.508L193.594 22.9258H211.927L241.841 58.683Z" fill="#F2C94C"/>
<path d="M241.841 59.4293H223.591C223.48 59.4307 223.371 59.4077 223.271 59.3618C223.17 59.3159 223.081 59.2483 223.01 59.1639L193.146 23.4067C193.054 23.2983 192.995 23.1651 192.977 23.0236C192.96 22.8821 192.984 22.7386 193.047 22.6106C193.105 22.4782 193.2 22.3653 193.32 22.2859C193.441 22.2064 193.582 22.1636 193.727 22.1629H211.977C212.089 22.1622 212.2 22.1873 212.3 22.2362C212.401 22.2851 212.489 22.3564 212.558 22.4448L242.421 58.1854C242.512 58.2966 242.569 58.4309 242.586 58.573C242.604 58.7151 242.581 58.8593 242.521 58.9891C242.46 59.1189 242.364 59.229 242.244 59.3068C242.124 59.3847 241.984 59.4271 241.841 59.4293V59.4293ZM223.856 57.9201H240.215L211.579 23.6887H195.22L223.856 57.9201Z" fill="#231F20"/>
<path d="M241.841 58.6829H223.591L224.188 67.7714C224.354 70.0043 225.35 72.0942 226.981 73.6291C228.612 75.164 230.758 76.0327 232.998 76.0639H234.856C235.922 76.08 236.98 75.8716 237.96 75.4523C238.941 75.0329 239.822 74.412 240.546 73.6298C241.271 72.8476 241.823 71.9218 242.166 70.9125C242.509 69.9031 242.636 68.8329 242.538 67.7714L241.841 58.6829Z" fill="#F2C94C"/>
<path d="M234.773 76.7772H232.915C230.492 76.7433 228.169 75.8062 226.401 74.1496C224.634 72.4929 223.548 70.2361 223.359 67.8213L222.745 58.7327C222.734 58.5209 222.806 58.3132 222.944 58.1522C223.018 58.0784 223.106 58.0199 223.203 57.98C223.299 57.9402 223.403 57.9198 223.508 57.92H241.758C241.951 57.9235 242.136 57.9983 242.277 58.13C242.418 58.2617 242.505 58.441 242.521 58.6332L243.135 67.7218C243.227 68.8825 243.077 70.0497 242.693 71.1492C242.309 72.2486 241.701 73.2562 240.907 74.1079C240.112 74.9596 239.15 75.6368 238.079 76.0963C237.009 76.5559 235.855 76.7877 234.69 76.7772H234.773ZM224.304 59.4293L224.868 67.7218C225.029 69.7552 225.943 71.6555 227.431 73.0511C228.919 74.4466 230.875 75.2371 232.915 75.268H234.773C235.73 75.2783 236.679 75.0886 237.559 74.7109C238.438 74.3332 239.229 73.7759 239.88 73.0747C240.532 72.3735 241.029 71.544 241.341 70.6393C241.653 69.7346 241.772 68.7748 241.691 67.8213L241.127 59.4293H224.304Z" fill="#231F20"/>
<path d="M260.19 58.683H241.841L211.927 22.9258H230.26L260.19 58.683Z" fill="white"/>
<path d="M260.19 59.4292H241.841C241.731 59.4275 241.622 59.403 241.523 59.3573C241.423 59.3116 241.333 59.2458 241.26 59.1639L211.396 23.4067C211.304 23.2982 211.245 23.165 211.227 23.0236C211.21 22.8821 211.234 22.7385 211.297 22.6106C211.355 22.4782 211.45 22.3653 211.57 22.2858C211.691 22.2063 211.832 22.1636 211.977 22.1628H230.31C230.422 22.1609 230.533 22.1854 230.634 22.2344C230.735 22.2834 230.823 22.3555 230.891 22.4448L260.754 58.1854C260.843 58.2991 260.899 58.4348 260.917 58.5779C260.934 58.7211 260.912 58.8663 260.854 58.998C260.793 59.1237 260.699 59.2303 260.582 59.3064C260.465 59.3824 260.33 59.4249 260.19 59.4292ZM242.189 57.92H258.564L229.912 23.6886H213.553L242.189 57.92Z" fill="#231F20"/>
<path d="M260.19 58.6829H241.841L242.455 67.7714C242.62 70.0015 243.614 72.089 245.241 73.6236C246.869 75.1581 249.011 76.0286 251.248 76.0639H253.106C254.173 76.0798 255.231 75.8714 256.212 75.4522C257.194 75.0329 258.076 74.4123 258.801 73.6304C259.527 72.8486 260.081 71.923 260.426 70.9137C260.771 69.9043 260.9 68.8338 260.804 67.7714L260.19 58.6829Z" fill="white"/>
<path d="M253.106 76.777H251.248C248.827 76.7357 246.508 75.7961 244.742 74.1409C242.976 72.4857 241.889 70.2332 241.691 67.8211L241.094 58.7326C241.085 58.6273 241.098 58.5214 241.133 58.4215C241.167 58.3215 241.222 58.2298 241.293 58.1521C241.363 58.0772 241.448 58.0178 241.542 57.9778C241.636 57.9378 241.738 57.918 241.841 57.9199H260.19C260.381 57.9237 260.564 57.9991 260.702 58.1311C260.841 58.2632 260.924 58.4423 260.937 58.6331L261.551 67.7216C261.658 68.8857 261.519 70.0594 261.141 71.1657C260.763 72.2721 260.156 73.2861 259.358 74.1412C258.561 74.9962 257.592 75.6731 256.514 76.1274C255.436 76.5817 254.275 76.8031 253.106 76.777V76.777ZM242.654 59.4292L243.218 67.7216C243.375 69.7536 244.285 71.6537 245.77 73.0497C247.256 74.4456 249.209 75.2366 251.248 75.2678H253.106C254.064 75.2805 255.015 75.0925 255.897 74.7158C256.778 74.3391 257.571 73.7822 258.224 73.0808C258.877 72.3793 259.376 71.549 259.689 70.6432C260.002 69.7373 260.122 68.776 260.041 67.8211L259.477 59.4292H242.654Z" fill="#231F20"/>
<path d="M65.2471 22.9258L67.603 58.683H95.1107L65.2471 22.9258Z" fill="#231F20"/>
<path d="M95.1107 59.4127H67.603C67.4188 59.4093 67.2424 59.338 67.1077 59.2125C66.9729 59.087 66.8893 58.9161 66.873 58.7327L64.5171 22.9755C64.5091 22.8207 64.5496 22.6673 64.6328 22.5365C64.7161 22.4057 64.838 22.3041 64.9816 22.2458C65.125 22.1897 65.2824 22.1803 65.4314 22.219C65.5804 22.2578 65.7133 22.3426 65.8112 22.4614L95.6748 58.202C95.7623 58.3098 95.8179 58.4399 95.8355 58.5776C95.8531 58.7153 95.8319 58.8551 95.7743 58.9814C95.7169 59.1095 95.6238 59.2183 95.5061 59.2948C95.3884 59.3712 95.2511 59.4122 95.1107 59.4127V59.4127ZM68.25 57.9532H93.518L66.0932 25.1149L68.25 57.9532Z" fill="#231F20"/>
<path d="M351.357 145.323C351.212 145.315 351.07 145.276 350.942 145.207C350.807 145.125 350.696 145.007 350.623 144.867C350.55 144.726 350.517 144.569 350.528 144.411C350.345 142.238 345.766 126.316 341.568 126.565C341.321 126.577 341.079 126.644 340.861 126.762C340.643 126.88 340.454 127.045 340.308 127.245C337.869 130.081 338.267 139.966 338.649 143.532C338.667 143.751 338.6 143.969 338.46 144.139C338.321 144.309 338.121 144.419 337.902 144.444C337.793 144.455 337.683 144.445 337.578 144.414C337.473 144.382 337.375 144.33 337.29 144.261C337.205 144.191 337.135 144.106 337.083 144.009C337.032 143.912 337 143.807 336.989 143.697C336.989 143.15 335.662 130.114 339.063 126.167C339.354 125.797 339.721 125.494 340.139 125.276C340.556 125.059 341.015 124.933 341.486 124.907C343.228 124.807 344.97 126.151 346.645 128.854C349.532 133.547 352.668 143.896 352.104 144.892C352.031 145.025 351.922 145.136 351.791 145.212C351.659 145.288 351.509 145.326 351.357 145.323V145.323Z" fill="#231F20"/>
<path d="M344.572 196.355C344.366 196.352 344.169 196.275 344.017 196.138C343.864 196 343.766 195.812 343.742 195.608L338.367 148.889C338.354 148.78 338.362 148.669 338.392 148.564C338.421 148.458 338.472 148.359 338.539 148.273C338.607 148.187 338.691 148.115 338.787 148.061C338.883 148.007 338.988 147.973 339.097 147.96C339.206 147.947 339.316 147.955 339.422 147.985C339.527 148.014 339.626 148.065 339.713 148.132C339.799 148.2 339.871 148.284 339.925 148.38C339.978 148.475 340.013 148.581 340.026 148.69L345.318 195.426C345.332 195.534 345.324 195.644 345.295 195.749C345.265 195.854 345.215 195.952 345.147 196.037C345.079 196.122 344.994 196.192 344.898 196.244C344.802 196.296 344.697 196.328 344.588 196.338L344.572 196.355Z" fill="#D1D3D4"/>
<path d="M319.619 201.198C319.304 200.518 322.124 146.019 322.124 146.019L354.56 149.917L361.694 200.252L319.619 201.198Z" fill="white"/>
<path d="M319.619 202.027C319.462 202.024 319.309 201.977 319.177 201.892C319.046 201.807 318.94 201.687 318.872 201.546C318.756 201.297 318.474 200.667 321.295 145.97C321.3 145.855 321.33 145.742 321.381 145.64C321.433 145.537 321.505 145.446 321.593 145.373C321.679 145.298 321.779 145.243 321.888 145.212C321.997 145.18 322.112 145.173 322.224 145.19L354.659 149.088C354.842 149.111 355.012 149.193 355.144 149.322C355.275 149.45 355.362 149.619 355.389 149.801L362.523 200.136C362.541 200.252 362.532 200.37 362.497 200.482C362.463 200.594 362.404 200.697 362.324 200.783C362.248 200.873 362.154 200.945 362.049 200.997C361.943 201.048 361.828 201.077 361.71 201.081L319.636 202.027H319.619ZM322.937 146.948C321.925 166.85 320.515 195.36 320.465 200.335L360.781 199.44L353.863 150.663L322.937 146.948Z" fill="#D1D3D4"/>
<path d="M322.124 146.019L326.77 140.165L362.772 140.928L354.559 149.917L322.124 146.019Z" fill="#D1D3D4"/>
<path d="M354.559 150.746H354.46L322.091 146.832C321.946 146.815 321.809 146.759 321.692 146.672C321.576 146.585 321.484 146.468 321.427 146.334C321.371 146.196 321.353 146.044 321.373 145.896C321.394 145.748 321.452 145.607 321.543 145.489L326.189 139.651C326.266 139.549 326.367 139.467 326.482 139.412C326.598 139.357 326.725 139.331 326.852 139.336L362.855 140.099C363.014 140.108 363.168 140.161 363.299 140.252C363.431 140.343 363.535 140.467 363.601 140.613C363.661 140.759 363.678 140.918 363.652 141.073C363.626 141.229 363.556 141.374 363.452 141.492L355.173 150.464C355.096 150.551 355.001 150.62 354.896 150.669C354.79 150.717 354.675 150.744 354.559 150.746V150.746ZM323.75 145.373L354.294 149.038L360.93 141.724L327.168 141.011L323.75 145.373Z" fill="#D1D3D4"/>
<path d="M362.772 140.928L371.151 195.028L361.694 200.252L354.56 149.917L362.772 140.928Z" fill="white"/>
<path d="M361.693 201.081C361.565 201.079 361.44 201.045 361.328 200.982C361.207 200.926 361.103 200.841 361.025 200.733C360.946 200.626 360.896 200.5 360.88 200.368L353.746 150.033C353.727 149.911 353.736 149.785 353.774 149.667C353.811 149.549 353.875 149.442 353.962 149.353L362.158 140.38C362.261 140.264 362.395 140.178 362.545 140.134C362.695 140.09 362.854 140.089 363.004 140.132C363.155 140.179 363.289 140.268 363.392 140.389C363.494 140.509 363.561 140.655 363.585 140.812L371.963 194.912C371.986 195.078 371.958 195.247 371.884 195.398C371.811 195.548 371.694 195.674 371.548 195.758L362.108 200.965C361.981 201.037 361.839 201.076 361.693 201.081V201.081ZM355.439 150.182L362.357 198.942L370.205 194.58L362.174 142.769L355.439 150.182Z" fill="#D1D3D4"/>
<path d="M345.401 154.677C345.292 154.67 345.186 154.643 345.087 154.595C344.989 154.547 344.901 154.481 344.829 154.399C344.756 154.317 344.701 154.222 344.665 154.119C344.63 154.016 344.615 153.907 344.622 153.798C345.169 144.013 344.257 128.307 339.512 127.875C339.124 127.849 338.735 127.902 338.37 128.034C338.004 128.165 337.67 128.371 337.388 128.638C333.257 132.187 331.482 146.152 331.133 151.244C331.116 151.461 331.014 151.662 330.85 151.805C330.685 151.948 330.471 152.02 330.254 152.006C330.146 152 330.039 151.972 329.942 151.924C329.845 151.877 329.758 151.81 329.687 151.728C329.616 151.646 329.562 151.551 329.528 151.448C329.494 151.344 329.482 151.236 329.491 151.127C329.491 150.348 330.801 132.088 336.31 127.378C336.756 126.972 337.28 126.661 337.851 126.464C338.421 126.268 339.026 126.189 339.628 126.233C347.508 126.93 346.397 151.111 346.264 153.897C346.247 154.113 346.148 154.314 345.988 154.459C345.827 154.604 345.618 154.682 345.401 154.677V154.677Z" fill="#231F20"/>
<path d="M342 145.24C341.836 145.241 341.675 145.193 341.539 145.101C341.403 145.009 341.297 144.879 341.237 144.726C341.005 144.162 335.414 130.595 337.769 125.272C337.96 124.795 338.249 124.364 338.618 124.007C338.987 123.65 339.427 123.374 339.91 123.198C341.735 122.535 343.991 123.398 346.629 125.753C351.391 129.965 357.927 140.049 357.679 141.127C357.679 141.347 357.591 141.558 357.436 141.713C357.28 141.869 357.069 141.956 356.849 141.956C356.629 141.956 356.418 141.869 356.262 141.713C356.107 141.558 356.019 141.347 356.019 141.127C355.323 139.468 345.202 123.049 340.441 124.774C340.169 124.875 339.923 125.035 339.72 125.241C339.516 125.447 339.36 125.695 339.263 125.968C337.604 129.832 341.187 140.381 342.747 144.112C342.787 144.213 342.807 144.322 342.806 144.431C342.804 144.54 342.781 144.647 342.738 144.747C342.695 144.848 342.632 144.938 342.554 145.014C342.476 145.09 342.384 145.15 342.282 145.19C342.193 145.227 342.097 145.244 342 145.24Z" fill="#231F20"/>
<path d="M366.14 198.859C365.979 198.858 365.821 198.81 365.686 198.722C365.551 198.634 365.443 198.509 365.377 198.361L344.439 149.85C344.396 149.75 344.372 149.642 344.37 149.533C344.368 149.424 344.388 149.316 344.428 149.214C344.468 149.112 344.528 149.019 344.604 148.941C344.68 148.862 344.77 148.799 344.871 148.756C344.971 148.712 345.079 148.689 345.188 148.687C345.297 148.685 345.406 148.705 345.507 148.745C345.609 148.785 345.702 148.844 345.78 148.92C345.859 148.996 345.922 149.087 345.966 149.187L366.887 197.698C366.931 197.798 366.954 197.906 366.956 198.015C366.958 198.125 366.939 198.233 366.899 198.335C366.859 198.437 366.799 198.53 366.723 198.608C366.647 198.687 366.556 198.749 366.455 198.793C366.356 198.837 366.249 198.86 366.14 198.859V198.859Z" fill="#D1D3D4"/>
<path d="M341.154 212.227C340.606 211.596 325.94 152.073 325.94 152.073L362.092 145.754L386.099 197.549L341.154 212.227Z" fill="white"/>
<path d="M341.154 213.056C341.037 213.055 340.923 213.029 340.817 212.98C340.711 212.932 340.617 212.861 340.54 212.774C340.374 212.575 339.843 211.994 325.127 152.272C325.099 152.162 325.095 152.047 325.115 151.936C325.135 151.824 325.179 151.718 325.243 151.625C325.304 151.529 325.384 151.448 325.478 151.385C325.572 151.322 325.679 151.279 325.791 151.26L361.959 144.925C362.138 144.898 362.321 144.931 362.479 145.017C362.638 145.104 362.764 145.241 362.838 145.406L386.795 197.201C386.844 197.307 386.87 197.423 386.87 197.541C386.87 197.658 386.844 197.774 386.795 197.881C386.696 198.094 386.517 198.26 386.298 198.345L341.353 213.006C341.289 213.033 341.222 213.049 341.154 213.056V213.056ZM326.952 152.736C332.327 174.545 340.225 206.074 341.685 211.182L384.954 197.051L361.61 146.666L326.952 152.736Z" fill="#D1D3D4"/>
<path d="M325.94 152.073L329.042 144.278L367.998 133.415L362.091 145.754L325.94 152.073Z" fill="#D1D3D4"/>
<path d="M325.94 152.902C325.815 152.9 325.693 152.871 325.581 152.817C325.469 152.762 325.371 152.684 325.293 152.587C325.203 152.471 325.144 152.334 325.121 152.189C325.098 152.044 325.111 151.896 325.16 151.758L328.279 143.979C328.321 143.857 328.393 143.747 328.489 143.66C328.584 143.573 328.701 143.512 328.827 143.482L367.782 132.619C367.934 132.578 368.094 132.582 368.244 132.629C368.393 132.676 368.527 132.764 368.628 132.884C368.734 133.005 368.802 133.155 368.822 133.314C368.843 133.474 368.816 133.636 368.744 133.78L362.838 146.102C362.784 146.222 362.701 146.327 362.597 146.408C362.493 146.489 362.371 146.543 362.241 146.567L326.073 152.886L325.94 152.902ZM329.656 144.974L327.25 150.995L361.527 145.008L366.505 134.708L329.656 144.974Z" fill="#D1D3D4"/>
<path d="M367.998 133.415L394.56 188.891L386.099 197.549L362.092 145.754L367.998 133.415Z" fill="white"/>
<path d="M386.099 198.378H385.966C385.832 198.354 385.706 198.298 385.599 198.214C385.492 198.13 385.407 198.021 385.352 197.897L361.345 146.102C361.292 145.991 361.265 145.869 361.265 145.746C361.265 145.622 361.292 145.5 361.345 145.389L367.252 133.066C367.327 132.936 367.436 132.827 367.567 132.751C367.698 132.676 367.847 132.636 367.998 132.636C368.149 132.636 368.298 132.676 368.429 132.751C368.56 132.827 368.669 132.936 368.745 133.066L395.29 188.527C395.364 188.682 395.388 188.856 395.358 189.026C395.328 189.195 395.247 189.351 395.124 189.472L386.663 198.129C386.513 198.28 386.312 198.369 386.099 198.378V198.378ZM363.004 145.754L386.348 196.123L393.565 188.726L367.998 135.339L363.004 145.754Z" fill="#D1D3D4"/>
<path d="M336.376 155.821C336.187 155.822 336.003 155.758 335.856 155.641C335.708 155.523 335.604 155.358 335.563 155.174C335.364 154.328 330.801 134.327 335.181 127.51C335.518 126.93 335.972 126.427 336.515 126.033C337.058 125.639 337.678 125.362 338.334 125.222C346.961 123.464 353.581 149.751 354.311 152.753C354.338 152.859 354.343 152.969 354.327 153.076C354.31 153.184 354.272 153.288 354.215 153.381C354.158 153.473 354.082 153.554 353.993 153.617C353.904 153.68 353.803 153.725 353.697 153.748C353.486 153.798 353.263 153.764 353.077 153.652C352.891 153.541 352.756 153.361 352.701 153.151C350.097 142.387 343.991 125.752 338.665 126.847C338.23 126.952 337.82 127.145 337.461 127.413C337.101 127.681 336.8 128.019 336.575 128.406C333.257 133.581 335.878 149.22 337.172 154.809C337.199 154.915 337.205 155.025 337.188 155.133C337.172 155.241 337.134 155.344 337.077 155.437C337.019 155.53 336.944 155.61 336.855 155.673C336.766 155.737 336.665 155.781 336.558 155.804L336.376 155.821Z" fill="#231F20"/>
<path d="M262.513 154.096C261.335 149.668 262.231 145.339 267.706 144.411C276.002 143.051 285.06 149.154 292.692 151.658C295.363 152.537 309.714 156.02 309.714 156.02C309.714 156.02 311.938 151.99 312.618 150.431C314.111 146.915 315.471 143.332 316.815 139.75C319.603 132.337 321.71 125.222 326.338 118.72C327.292 117.373 328.316 116.078 329.408 114.84C332.279 111.412 335.996 108.793 340.192 107.244C340.318 107.191 340.453 107.163 340.59 107.163C340.727 107.163 340.862 107.191 340.988 107.244C341.519 107.559 341.071 108.371 340.59 108.769L335.032 113.579C336.565 112.151 338.291 110.946 340.159 109.997C341.021 109.549 343.643 107.808 344.555 108.72C345.833 109.997 342.896 111.091 342.266 111.605C340.723 112.816 339.246 114.16 337.653 115.32C339.706 113.843 341.935 112.628 344.29 111.705C345.401 111.274 347.094 111.174 347.359 112.352C347.525 113.115 346.861 113.778 346.264 114.276L341.503 118.256C342.83 117.161 345.252 119.317 345.717 120.445C346.049 121.367 346.145 122.357 345.994 123.325C345.843 124.293 345.451 125.208 344.854 125.985C344.583 126.359 344.224 126.661 343.809 126.864C343.598 126.957 343.368 126.995 343.138 126.975C342.909 126.954 342.689 126.876 342.498 126.748C341.005 125.603 342.631 122.817 340.225 122.17C339.726 122.077 339.21 122.168 338.773 122.428C338.336 122.687 338.009 123.097 337.852 123.58C337.711 124.068 337.702 124.586 337.828 125.078C337.953 125.571 338.208 126.021 338.566 126.383C339.113 126.98 339.943 127.51 339.926 128.323C339.905 128.563 339.828 128.794 339.701 128.998C339.574 129.203 339.401 129.375 339.196 129.501C338.899 129.689 338.566 129.815 338.218 129.872C337.871 129.929 337.515 129.915 337.173 129.832C336.83 129.748 336.509 129.596 336.226 129.386C335.944 129.175 335.707 128.909 335.53 128.605C335.215 127.991 334.866 127.096 334.202 127.262C333.968 127.341 333.768 127.499 333.638 127.709C332.809 128.688 329.872 145.372 329.192 150.928C328.28 158.491 326.786 174.678 317.28 176.784C316.978 176.845 316.674 176.889 316.367 176.917C307.375 177.813 298.117 175.391 289.689 172.522C282.655 170.15 274.575 168.227 268.552 163.715C265.592 161.211 263.482 157.85 262.513 154.096V154.096Z" fill="white"/>
<path d="M312.419 177.763C304.289 177.763 296.292 175.474 289.391 173.152C288.03 172.688 286.636 172.24 285.226 171.792C279.22 169.902 273.015 167.928 268.055 164.23C264.99 161.633 262.796 158.16 261.767 154.279V154.279C261.342 153.045 261.181 151.737 261.292 150.437C261.403 149.138 261.786 147.876 262.414 146.732C263.003 145.877 263.771 145.16 264.665 144.63C265.559 144.101 266.557 143.771 267.59 143.664C273.613 142.669 279.884 145.439 285.956 148.109C288.412 149.187 290.718 150.215 292.924 150.945C295.131 151.675 306.662 154.494 309.333 155.141C309.947 154.013 311.407 151.31 311.921 150.166C313.447 146.583 314.824 142.935 316.118 139.518C316.605 138.224 317.07 136.947 317.512 135.687C319.735 129.55 321.826 123.779 325.725 118.306C326.786 116.813 327.815 115.536 328.827 114.375C331.788 110.836 335.627 108.137 339.96 106.547C340.18 106.444 340.421 106.39 340.665 106.39C340.908 106.39 341.149 106.444 341.37 106.547C341.539 106.644 341.682 106.781 341.786 106.946C341.89 107.11 341.952 107.298 341.967 107.492C341.987 107.722 341.959 107.954 341.884 108.172C343.045 107.642 344.306 107.327 345.086 108.172C345.277 108.347 345.425 108.564 345.517 108.806C345.609 109.048 345.644 109.308 345.617 109.566C345.529 110.006 345.302 110.407 344.97 110.71C345.682 110.546 346.429 110.622 347.094 110.926C347.337 111.046 347.548 111.221 347.712 111.437C347.876 111.652 347.988 111.903 348.039 112.169C348.338 113.48 347.143 114.475 346.695 114.84L343.56 117.46C344.763 118.017 345.749 118.956 346.364 120.13C346.746 121.177 346.858 122.303 346.69 123.404C346.521 124.506 346.078 125.547 345.401 126.433C345.057 126.913 344.594 127.296 344.058 127.544C343.718 127.678 343.35 127.721 342.989 127.668C342.628 127.616 342.287 127.47 342 127.245C341.639 126.905 341.357 126.489 341.173 126.028C340.99 125.566 340.91 125.071 340.938 124.575C340.855 123.431 340.773 123.016 340.009 122.8C339.696 122.76 339.378 122.829 339.109 122.995C338.84 123.161 338.637 123.414 338.533 123.713C338.438 124.073 338.439 124.453 338.535 124.813C338.631 125.174 338.819 125.503 339.08 125.769L339.462 126.134C339.799 126.38 340.081 126.695 340.287 127.058C340.493 127.421 340.619 127.824 340.656 128.24C340.636 128.602 340.529 128.954 340.345 129.266C340.16 129.577 339.903 129.84 339.595 130.031C339.21 130.291 338.776 130.467 338.319 130.548C337.863 130.629 337.394 130.614 336.944 130.503C336.494 130.392 336.072 130.188 335.705 129.904C335.339 129.62 335.036 129.262 334.816 128.854L334.684 128.589C334.577 128.339 334.437 128.105 334.269 127.892C334.269 127.892 334.269 128.041 334.169 128.091C333.456 129.318 330.619 145.157 329.922 150.846L329.789 151.957C328.811 160.1 327.002 175.176 317.413 177.348C317.081 177.348 316.749 177.481 316.417 177.514C315.073 177.713 313.796 177.763 312.419 177.763ZM270.195 144.974C269.406 144.977 268.619 145.038 267.839 145.157C267.015 145.235 266.217 145.489 265.498 145.901C264.78 146.313 264.158 146.873 263.675 147.545C263.182 148.522 262.891 149.587 262.817 150.678C262.742 151.768 262.888 152.863 263.243 153.897V153.897C264.185 157.442 266.174 160.621 268.951 163.019C273.712 166.568 279.801 168.492 285.691 170.349C287.101 170.797 288.511 171.245 289.872 171.709C297.752 174.38 307.043 176.967 316.251 176.071C316.525 176.043 316.796 175.999 317.064 175.939C325.608 174.048 327.334 159.602 328.263 151.841L328.396 150.729C328.893 146.583 331.896 128.506 333.008 127.179C333.249 126.853 333.585 126.609 333.97 126.482C335.148 126.217 335.729 127.361 336.028 127.991L336.144 128.207C336.261 128.426 336.427 128.616 336.628 128.762C336.829 128.909 337.06 129.008 337.305 129.053C337.532 129.129 337.772 129.155 338.01 129.129C338.248 129.103 338.477 129.026 338.682 128.904C338.786 128.841 338.876 128.757 338.944 128.657C339.013 128.557 339.059 128.443 339.08 128.323C339.08 128.025 338.748 127.693 338.367 127.345C338.215 127.209 338.071 127.065 337.935 126.913C337.482 126.453 337.16 125.879 337.003 125.252C336.845 124.625 336.858 123.968 337.04 123.348C337.264 122.68 337.727 122.119 338.338 121.771C338.95 121.422 339.669 121.31 340.358 121.457C342.233 121.955 342.349 123.547 342.432 124.592C342.432 125.388 342.548 125.885 342.896 126.167C342.98 126.212 343.074 126.236 343.17 126.236C343.265 126.236 343.359 126.212 343.444 126.167C343.747 126.031 344.005 125.813 344.19 125.537C344.707 124.865 345.047 124.074 345.18 123.237C345.313 122.4 345.235 121.543 344.953 120.744C344.432 119.823 343.596 119.122 342.598 118.77C342.15 118.654 341.984 118.77 341.917 118.77C341.842 118.834 341.754 118.883 341.659 118.912C341.564 118.942 341.464 118.953 341.366 118.943C341.267 118.934 341.171 118.905 341.083 118.858C340.995 118.812 340.918 118.748 340.856 118.671C340.73 118.516 340.67 118.318 340.689 118.12C340.708 117.921 340.803 117.738 340.955 117.609L345.717 113.629C346.33 113.115 346.613 112.717 346.546 112.451C346.542 112.401 346.524 112.354 346.495 112.313C346.466 112.272 346.426 112.24 346.38 112.219C345.761 112.029 345.092 112.076 344.506 112.352C342.241 113.235 340.1 114.405 338.135 115.835V115.835C338.054 115.894 337.961 115.937 337.863 115.96C337.766 115.984 337.664 115.987 337.565 115.97C337.466 115.953 337.371 115.916 337.286 115.861C337.202 115.807 337.129 115.736 337.073 115.652C337.015 115.573 336.973 115.483 336.95 115.387C336.927 115.292 336.923 115.192 336.939 115.095C336.954 114.998 336.988 114.905 337.04 114.821C337.091 114.738 337.159 114.665 337.239 114.607V114.607C338.168 113.944 339.08 113.181 339.96 112.435C340.557 111.937 341.154 111.44 341.768 110.959C342.014 110.791 342.269 110.636 342.531 110.494C342.896 110.279 344.041 109.649 344.091 109.317C344.091 109.317 344.091 109.317 343.991 109.201C343.892 109.085 343.444 108.952 341.021 110.312L340.474 110.61C339.155 111.281 337.909 112.087 336.758 113.015L335.497 114.093C335.354 114.231 335.164 114.308 334.966 114.308C334.768 114.308 334.577 114.231 334.435 114.093C334.301 113.949 334.226 113.759 334.226 113.563C334.226 113.366 334.301 113.176 334.435 113.032C334.85 112.65 335.281 112.269 335.729 111.921L340.026 108.206L340.159 108.073C336.164 109.589 332.627 112.108 329.889 115.387C328.822 116.605 327.82 117.878 326.886 119.201C323.103 124.492 321.046 130.197 318.856 136.218C318.408 137.495 317.927 138.772 317.446 140.065C316.152 143.498 314.758 147.164 313.232 150.779C312.551 152.438 310.395 156.269 310.295 156.435C310.216 156.578 310.092 156.691 309.942 156.757C309.792 156.823 309.625 156.838 309.466 156.8C308.868 156.65 295.048 153.3 292.36 152.421C290.087 151.675 287.748 150.647 285.259 149.552C280.299 147.263 275.106 144.974 270.195 144.974Z" fill="#231F20"/>
<path d="M199.949 140.994L172.059 148.142L161.873 110.378C161.873 110.378 159.915 101.406 157.891 99.9298C153.843 96.9942 142.859 98.8849 140.935 103.777C140.68 104.474 140.545 105.209 140.537 105.95C140.532 108.036 141.342 110.041 142.793 111.539C144.635 113.397 149.164 113.198 149.562 115.221C149.761 116.249 148.484 118.007 148.368 119.102C148.32 120.509 148.432 121.916 148.699 123.298C149.413 129.352 150.226 135.388 151.188 141.409C152.076 147.371 153.272 153.283 154.772 159.121C155.601 162.173 156.58 167.414 159.301 169.487C159.649 169.799 160.072 170.016 160.529 170.117C168.509 171.311 203.035 161.825 203.035 161.825" fill="white"/>
<path d="M162.171 170.98C161.583 170.989 160.995 170.95 160.413 170.864C159.834 170.752 159.296 170.489 158.853 170.101C156.281 168.144 155.186 163.815 154.39 160.664C154.279 160.188 154.163 159.741 154.042 159.32C152.53 153.456 151.328 147.516 150.441 141.525C149.562 136.019 148.782 130.081 147.953 123.381C147.953 123.049 147.953 122.717 147.82 122.386C147.609 121.294 147.542 120.178 147.621 119.069C147.73 118.409 147.943 117.771 148.251 117.178C148.554 116.635 148.746 116.038 148.816 115.42C148.683 114.707 147.405 114.325 146.061 113.927C144.661 113.645 143.351 113.024 142.246 112.12C140.65 110.484 139.767 108.284 139.79 106C139.78 105.167 139.926 104.34 140.221 103.562C141.068 101.406 143.54 99.598 146.957 98.5863C151.288 97.3259 155.966 97.6244 158.339 99.3492C160.711 101.074 162.271 108.703 162.619 110.262L172.574 147.247L199.75 140.298C199.846 140.273 199.945 140.267 200.043 140.281C200.141 140.296 200.236 140.329 200.321 140.38C200.406 140.431 200.479 140.498 200.538 140.578C200.597 140.658 200.639 140.749 200.662 140.845C200.689 140.941 200.697 141.041 200.683 141.14C200.67 141.239 200.637 141.334 200.586 141.419C200.535 141.505 200.466 141.579 200.385 141.637C200.304 141.695 200.212 141.736 200.115 141.757L172.242 148.806C172.051 148.856 171.847 148.829 171.676 148.729C171.505 148.63 171.38 148.466 171.329 148.275L161.159 110.66C160.413 107.343 158.77 101.572 157.459 100.709C155.469 99.2663 151.238 99.0507 147.389 100.178C144.419 101.041 142.329 102.517 141.648 104.225C141.42 104.835 141.307 105.482 141.316 106.132C141.321 107.994 142.054 109.779 143.357 111.108C144.286 111.816 145.364 112.304 146.509 112.534C148.169 113.032 150.01 113.563 150.325 115.188C150.356 116.117 150.127 117.036 149.662 117.841C149.434 118.302 149.256 118.786 149.131 119.284C149.075 120.284 149.142 121.286 149.33 122.27L149.479 123.298C150.259 129.932 151.138 135.902 151.951 141.392C152.834 147.327 154.024 153.211 155.518 159.022C155.634 159.437 155.751 159.901 155.867 160.398C156.613 163.334 157.625 167.348 159.782 168.989C160.029 169.214 160.324 169.378 160.645 169.47C168.393 170.615 202.504 161.178 202.836 161.178C203.029 161.121 203.237 161.144 203.415 161.24C203.592 161.336 203.724 161.499 203.781 161.692C203.833 161.888 203.806 162.096 203.707 162.272C203.608 162.449 203.444 162.58 203.25 162.637C201.906 162.87 172.424 170.98 162.171 170.98Z" fill="#231F20"/>
<path d="M253.073 123.547L264.836 122.452C264.836 122.452 260.489 117.941 261.236 114.16C261.982 110.378 264.454 110.212 260.273 103.777C257.868 100.096 254.832 97.2595 253.886 92.8645C252.808 87.7729 249.622 85.451 244.164 86.8607C242.511 87.3884 240.811 87.755 239.087 87.9553C237.428 87.9553 235.918 87.69 234.342 87.6734C232.125 87.6761 229.949 88.2748 228.043 89.407C226.137 90.5392 224.57 92.163 223.508 94.1084C222.662 95.7669 223.16 97.84 222.38 99.0839C221.6 100.328 219.393 100.858 218.381 101.655C217.197 102.478 216.301 103.653 215.819 105.012C215.337 106.372 215.293 107.848 215.694 109.234C216.805 115.304 222.496 118.306 216.822 121.872C211.148 125.437 210.899 129.517 210.899 129.517L253.073 123.547Z" fill="white"/>
<path d="M210.932 130.33C210.837 130.333 210.743 130.316 210.655 130.282C210.566 130.248 210.486 130.197 210.417 130.131C210.332 130.058 210.265 129.966 210.221 129.862C210.178 129.759 210.16 129.646 210.169 129.534C210.169 129.351 210.517 125.023 216.457 121.241C219.542 119.301 218.763 117.924 217.22 114.989C216.173 113.261 215.416 111.373 214.98 109.4C214.569 107.88 214.633 106.27 215.164 104.788C215.695 103.306 216.667 102.021 217.95 101.107C218.473 100.733 219.028 100.405 219.609 100.129C220.409 99.8066 221.137 99.3273 221.749 98.7191C222.038 98.0896 222.185 97.4047 222.18 96.7123C222.212 95.7057 222.437 94.7146 222.844 93.7933C223.971 91.723 225.635 89.9943 227.661 88.7889C229.687 87.5836 232 86.9462 234.358 86.9437C235.071 86.9437 235.768 87.0267 236.482 87.093C237.34 87.2025 238.205 87.2468 239.07 87.2257C240.355 87.1125 241.624 86.8566 242.853 86.4628L243.997 86.1642C245.132 85.7063 246.358 85.5229 247.577 85.6288C248.796 85.7347 249.972 86.127 251.011 86.7737C252.049 87.4203 252.92 88.3031 253.552 89.3501C254.184 90.3971 254.56 91.5785 254.649 92.7982C255.433 95.6348 256.845 98.2589 258.78 100.477C259.493 101.422 260.223 102.418 260.92 103.462C264.089 108.338 263.674 109.98 262.729 112.236C262.413 112.934 262.169 113.662 261.999 114.408C261.451 117.145 264.255 120.794 265.4 121.971C265.498 122.072 265.566 122.199 265.595 122.337C265.625 122.475 265.614 122.618 265.566 122.751C265.514 122.885 265.427 123.003 265.312 123.091C265.198 123.179 265.062 123.233 264.919 123.248L253.172 124.359L210.932 130.33ZM234.159 88.4861C232.117 88.5258 230.121 89.1033 228.373 90.1604C226.625 91.2174 225.187 92.7165 224.204 94.5065C223.89 95.2584 223.721 96.0632 223.707 96.8781C223.701 97.8083 223.474 98.7238 223.043 99.5483C222.307 100.417 221.366 101.089 220.306 101.505C219.807 101.734 219.33 102.006 218.879 102.318C217.809 103.062 217.001 104.125 216.569 105.354C216.137 106.584 216.104 107.918 216.473 109.168C216.888 110.986 217.588 112.726 218.547 114.326C220.09 117.178 221.55 119.881 217.253 122.618C214.808 123.956 212.911 126.11 211.894 128.705L252.99 122.834L263.309 121.855C261.999 120.197 259.908 116.996 260.505 114.093C260.686 113.243 260.958 112.414 261.318 111.622C262.081 109.814 262.529 108.72 259.659 104.275C259.012 103.263 258.282 102.301 257.585 101.356C255.506 98.9609 253.997 96.1256 253.172 93.0636C253.117 92.0522 252.817 91.0692 252.3 90.1984C251.782 89.3275 251.062 88.5946 250.2 88.062C249.338 87.5294 248.36 87.2129 247.349 87.1395C246.339 87.0661 245.325 87.2379 244.396 87.6403L243.267 87.9388C241.931 88.3635 240.551 88.6361 239.153 88.7515C238.216 88.7826 237.279 88.7382 236.349 88.6188C235.685 88.6188 235.022 88.4861 234.358 88.4861H234.159Z" fill="#231F20"/>
<path d="M125.372 134.642C125.219 134.638 125.07 134.593 124.941 134.509C124.755 134.396 124.622 134.214 124.569 134.003C124.516 133.792 124.549 133.569 124.659 133.382C128.84 126.532 142.71 104.175 146.41 103.694C146.603 103.666 146.8 103.681 146.986 103.738C147.173 103.796 147.344 103.894 147.488 104.026C150.026 106.464 142.975 122.469 139.823 129.252C139.777 129.351 139.712 129.44 139.632 129.514C139.552 129.588 139.458 129.646 139.356 129.683C139.253 129.721 139.144 129.738 139.035 129.734C138.926 129.73 138.819 129.704 138.72 129.658C138.621 129.612 138.531 129.548 138.457 129.467C138.383 129.387 138.326 129.293 138.288 129.191C138.25 129.089 138.233 128.98 138.237 128.871C138.242 128.762 138.268 128.654 138.313 128.555C142.859 118.787 147.123 107.459 146.426 105.336C143.987 106.481 134.315 120.661 126.086 134.178C126.019 134.311 125.917 134.424 125.792 134.506C125.666 134.588 125.522 134.635 125.372 134.642V134.642Z" fill="#231F20"/>
<path d="M122.104 131.574L81.2905 184.214L87.6448 189.19L90.2828 200.136L140.586 181.577L150.159 129.434L122.104 131.574Z" fill="white"/>
<path d="M90.2825 200.965C90.1565 200.99 90.0268 200.99 89.9009 200.965C89.796 200.91 89.7045 200.832 89.6328 200.738C89.5612 200.643 89.5111 200.534 89.4861 200.418L86.8979 189.754L80.7759 184.961C80.6049 184.824 80.4951 184.625 80.4702 184.408C80.4453 184.19 80.5075 183.972 80.6431 183.8L121.457 131.159C121.525 131.068 121.613 130.993 121.713 130.939C121.813 130.884 121.924 130.852 122.037 130.844L150.093 128.688C150.22 128.681 150.347 128.702 150.465 128.751C150.583 128.8 150.688 128.875 150.773 128.97C150.858 129.063 150.92 129.174 150.954 129.295C150.989 129.416 150.995 129.543 150.972 129.667L141.399 181.81C141.376 181.951 141.317 182.083 141.226 182.194C141.136 182.304 141.018 182.389 140.885 182.44L90.5811 200.999C90.4804 201.003 90.3796 200.992 90.2825 200.965ZM82.4515 184.082L88.1588 188.61C88.2358 188.661 88.3019 188.727 88.3531 188.803C88.4044 188.88 88.4399 188.967 88.4574 189.057L90.8963 199.108L139.873 181.03L149.164 130.413L122.618 132.453L82.4515 184.082Z" fill="#D1D3D4"/>
<path d="M127.164 140.447L120.345 131.541L143.058 122.253L148.235 127.942L127.164 140.447Z" fill="#D1D3D4"/>
<path d="M127.164 141.276C127.04 141.277 126.916 141.249 126.804 141.194C126.692 141.139 126.594 141.06 126.517 140.961L119.682 132.038C119.602 131.94 119.547 131.824 119.521 131.7C119.495 131.576 119.499 131.447 119.533 131.325C119.566 131.201 119.629 131.087 119.716 130.992C119.802 130.896 119.91 130.823 120.03 130.778L142.76 121.474C142.918 121.41 143.092 121.396 143.258 121.435C143.425 121.473 143.575 121.562 143.689 121.689L148.849 127.378C148.931 127.469 148.993 127.577 149.03 127.694C149.067 127.812 149.079 127.936 149.064 128.058C149.044 128.18 148.998 128.296 148.929 128.399C148.86 128.502 148.771 128.589 148.666 128.655L127.596 141.16C127.466 141.239 127.316 141.279 127.164 141.276V141.276ZM121.656 131.889L127.38 139.352L146.941 127.743L142.909 123.232L121.656 131.889Z" fill="#D1D3D4"/>
<path d="M138.628 138.755H138.512C138.296 138.718 138.103 138.599 137.973 138.423C137.843 138.247 137.787 138.027 137.815 137.81C137.815 137.727 139.06 129.434 140.752 121.225C144.286 104.026 146.36 103.927 147.388 103.877C147.637 103.863 147.885 103.905 148.114 104C148.344 104.094 148.55 104.239 148.716 104.424C151.802 107.509 150.773 128.025 150.541 132.105C150.52 132.321 150.418 132.522 150.254 132.667C150.091 132.812 149.879 132.889 149.661 132.884C149.552 132.878 149.446 132.85 149.347 132.802C149.249 132.755 149.161 132.688 149.089 132.606C149.017 132.525 148.961 132.43 148.925 132.326C148.89 132.223 148.875 132.114 148.882 132.005C149.678 118.256 149.031 106.116 147.455 105.469C145.431 106.099 141.731 122.85 139.491 138.009C139.466 138.218 139.364 138.411 139.205 138.549C139.045 138.687 138.839 138.761 138.628 138.755V138.755Z" fill="#231F20"/>
<path d="M132.324 138.739L118.687 196.819L132.026 205.775L155.352 187.93L158.14 132.403L132.324 138.739Z" fill="white"/>
<path d="M132.025 206.604C131.861 206.603 131.7 206.557 131.561 206.472L118.288 197.499C118.144 197.409 118.032 197.275 117.969 197.117C117.906 196.959 117.896 196.785 117.94 196.62L131.577 138.573C131.61 138.421 131.685 138.281 131.794 138.169C131.902 138.058 132.04 137.979 132.191 137.942L158.007 131.607C158.133 131.575 158.265 131.574 158.391 131.603C158.518 131.632 158.636 131.69 158.737 131.773C158.837 131.854 158.916 131.958 158.968 132.077C159.02 132.195 159.043 132.324 159.035 132.453L156.182 187.963C156.18 188.082 156.15 188.2 156.096 188.306C156.041 188.413 155.962 188.505 155.866 188.576L132.523 206.438C132.381 206.549 132.205 206.608 132.025 206.604V206.604ZM119.682 196.454L132.058 204.747L154.523 187.498L157.227 133.464L132.954 139.418L119.682 196.454Z" fill="#D1D3D4"/>
<path d="M130.914 138.158L140.089 142.719L158.14 132.403L152.449 126.913L130.914 138.158Z" fill="#D1D3D4"/>
<path d="M140.089 143.548C139.962 143.553 139.836 143.524 139.724 143.465L130.532 138.855C130.398 138.781 130.286 138.673 130.207 138.542C130.129 138.411 130.086 138.261 130.084 138.108C130.084 137.955 130.126 137.805 130.205 137.673C130.284 137.542 130.397 137.434 130.532 137.362L152.101 126.134C152.255 126.052 152.43 126.021 152.603 126.045C152.776 126.069 152.937 126.146 153.063 126.267L158.754 131.756C158.847 131.844 158.919 131.954 158.962 132.075C159.005 132.196 159.019 132.325 159.002 132.453C158.982 132.579 158.935 132.699 158.863 132.805C158.791 132.911 158.697 133.001 158.588 133.066L140.537 143.399C140.405 143.49 140.249 143.542 140.089 143.548V143.548ZM132.739 138.141L140.072 141.79L156.763 132.221L152.3 127.925L132.739 138.141Z" fill="#D1D3D4"/>
<path d="M93.4519 194.447C93.2881 194.444 93.1281 194.398 92.9873 194.315C92.8043 194.19 92.6775 193.999 92.6341 193.782C92.5907 193.565 92.6341 193.339 92.755 193.154L125.439 143.399C125.561 143.217 125.749 143.091 125.964 143.047C126.178 143.004 126.401 143.047 126.584 143.167C126.676 143.225 126.755 143.302 126.816 143.392C126.878 143.482 126.921 143.583 126.943 143.69C126.964 143.796 126.964 143.906 126.943 144.013C126.921 144.12 126.878 144.221 126.816 144.311L94.1487 194.066C94.0726 194.182 93.9693 194.277 93.8478 194.344C93.7263 194.41 93.5904 194.446 93.4519 194.447V194.447Z" fill="#D1D3D4"/>
<path d="M134.249 202.574H134.132C133.915 202.545 133.717 202.431 133.584 202.257C133.45 202.083 133.391 201.863 133.419 201.645L140.636 148.242C140.65 148.133 140.686 148.028 140.741 147.933C140.795 147.837 140.868 147.754 140.955 147.687C141.042 147.62 141.142 147.571 141.248 147.542C141.354 147.514 141.465 147.506 141.573 147.52C141.682 147.534 141.788 147.57 141.883 147.625C141.978 147.679 142.061 147.752 142.128 147.839C142.195 147.926 142.245 148.026 142.273 148.132C142.302 148.238 142.309 148.348 142.295 148.457L135.062 201.878C135.03 202.071 134.931 202.247 134.783 202.374C134.634 202.502 134.445 202.573 134.249 202.574V202.574Z" fill="#D1D3D4"/>
<path d="M145.879 145.671C145.659 145.671 145.448 145.584 145.292 145.428C145.137 145.273 145.049 145.062 145.049 144.842C145.165 126.781 145.978 105.187 149.247 104.889C151.885 104.889 154.34 117.294 156.53 141.757C156.539 141.866 156.527 141.976 156.493 142.08C156.46 142.184 156.406 142.28 156.335 142.364C156.264 142.447 156.177 142.515 156.08 142.565C155.982 142.614 155.876 142.644 155.767 142.653C155.659 142.664 155.55 142.654 155.446 142.622C155.342 142.591 155.245 142.538 155.161 142.469C155.078 142.399 155.009 142.314 154.959 142.217C154.909 142.12 154.879 142.015 154.871 141.906C153.461 126.101 151.039 109.101 149.313 106.713C147.77 109.367 146.742 127.793 146.642 144.858C146.639 145.065 146.559 145.262 146.417 145.412C146.276 145.562 146.084 145.655 145.879 145.671V145.671Z" fill="#231F20"/>
<path d="M206.054 257.537L194.606 291.237L153.295 270.987C153.295 270.987 138.064 291.088 140.818 291.652C143.573 292.216 153.195 289.595 153.195 289.595C153.195 289.595 199.285 322.417 204.826 317.558C210.368 312.698 229.182 263.855 229.182 263.855" fill="white"/>
<path d="M203.151 318.802C199.982 318.802 193.063 316.33 176.605 306.048C165.572 299.182 155.037 291.752 153.112 290.425C151.171 290.939 143.357 292.946 140.719 292.398C140.527 292.359 140.349 292.271 140.201 292.144C140.053 292.016 139.94 291.852 139.873 291.669C138.944 289.164 148.566 276.062 152.747 270.539C152.853 270.397 153.006 270.295 153.178 270.253C153.351 270.21 153.533 270.23 153.693 270.307L194.241 290.209L205.407 257.321C205.471 257.13 205.609 256.972 205.789 256.882C205.969 256.792 206.178 256.777 206.369 256.84C206.555 256.911 206.706 257.05 206.792 257.229C206.879 257.408 206.893 257.613 206.834 257.802L195.336 291.436C195.258 291.637 195.102 291.798 194.905 291.884C194.806 291.929 194.698 291.952 194.59 291.952C194.481 291.952 194.373 291.929 194.274 291.884L153.511 271.982C147.471 280.009 141.482 288.949 141.233 290.989C143.639 291.254 150.474 289.595 152.996 288.899C153.106 288.873 153.221 288.87 153.332 288.89C153.443 288.91 153.549 288.953 153.643 289.015C171.263 301.57 200.612 320.278 204.329 317.01C208.609 313.262 221.998 280.441 228.485 263.623C228.52 263.53 228.573 263.445 228.641 263.372C228.71 263.3 228.792 263.242 228.883 263.201C228.975 263.161 229.073 263.14 229.173 263.138C229.272 263.136 229.371 263.155 229.464 263.192C229.65 263.266 229.799 263.41 229.88 263.593C229.96 263.776 229.966 263.984 229.895 264.171C229.132 266.161 210.965 313.229 205.341 318.155C204.718 318.638 203.936 318.869 203.151 318.802V318.802Z" fill="#231F20"/>
<path d="M278.739 253.789L318.673 330.079C318.673 330.079 340.54 322.235 338.914 324.523C337.288 326.812 306.695 345.255 306.695 345.255L250.933 258.482" fill="white"/>
<path d="M306.695 346.167C306.567 346.165 306.441 346.132 306.329 346.072C306.216 346.011 306.12 345.924 306.048 345.818L250.302 259.046C250.245 258.963 250.206 258.87 250.186 258.771C250.167 258.672 250.168 258.571 250.19 258.473C250.212 258.375 250.254 258.282 250.313 258.201C250.372 258.12 250.448 258.052 250.535 258.001C250.617 257.946 250.71 257.907 250.807 257.888C250.905 257.869 251.005 257.869 251.103 257.889C251.2 257.909 251.292 257.949 251.374 258.005C251.456 258.061 251.526 258.133 251.58 258.217L306.927 344.376C317.346 338.09 332.942 328.421 337.222 325.17C331.044 326.782 324.953 328.709 318.972 330.942C318.804 331.007 318.617 331.007 318.449 330.943C318.28 330.878 318.142 330.754 318.06 330.593L278.109 254.203C278.045 254.029 278.047 253.838 278.114 253.665C278.182 253.492 278.31 253.35 278.474 253.264C278.639 253.179 278.829 253.157 279.009 253.201C279.189 253.246 279.347 253.354 279.452 253.507L319.088 329.3C338.45 322.384 339.246 323.412 339.628 323.926C339.762 324.096 339.836 324.307 339.836 324.523C339.836 324.74 339.762 324.95 339.628 325.12C337.969 327.475 310.328 344.16 307.176 346.051C307.037 346.152 306.864 346.193 306.695 346.167V346.167Z" fill="#231F20"/>
<path d="M219.227 137.478C208.559 148.043 211.346 167.596 210.699 184.181L263.359 192.209C263.359 192.209 266.229 145.373 258.747 138.208C251.264 131.043 229.912 126.913 219.227 137.478Z" fill="#231F20"/>
<path d="M263.359 192.938H263.243L210.6 184.911C210.423 184.883 210.262 184.792 210.146 184.655C210.03 184.518 209.968 184.344 209.97 184.165C210.103 180.848 210.086 177.282 210.086 173.849C210.086 159.967 209.986 145.655 218.713 136.947C229.331 126.449 251.165 129.932 259.245 137.677C266.893 145.008 264.222 190.334 264.089 192.258C264.082 192.359 264.054 192.458 264.005 192.546C263.956 192.635 263.889 192.712 263.807 192.772C263.685 192.883 263.524 192.942 263.359 192.938V192.938ZM211.463 183.634L262.662 191.429C262.994 185.243 264.869 145.157 258.249 138.805C251.629 132.453 230.46 127.461 219.742 138.059C211.446 146.351 211.446 160.332 211.546 173.915C211.563 177 211.563 180.317 211.463 183.634Z" fill="#231F20"/>
<path d="M257.917 164.827L280.066 170.731L285.889 146.533L255.163 135.587L257.917 164.827Z" fill="#231F20"/>
<path d="M280.066 171.461H279.867L257.735 165.573C257.591 165.534 257.462 165.454 257.365 165.342C257.267 165.229 257.205 165.09 257.187 164.943L254.45 135.703C254.433 135.582 254.449 135.458 254.496 135.344C254.542 135.231 254.618 135.131 254.715 135.057C254.811 134.978 254.926 134.927 255.048 134.906C255.171 134.886 255.296 134.898 255.412 134.941L286.138 145.87C286.307 145.934 286.447 146.056 286.532 146.214C286.617 146.373 286.643 146.557 286.603 146.732L280.763 170.93C280.745 171.027 280.705 171.118 280.648 171.199C280.591 171.279 280.517 171.346 280.431 171.394C280.317 171.446 280.192 171.469 280.066 171.461V171.461ZM258.598 164.263L279.519 169.835L285.027 146.998L256.009 136.665L258.598 164.263Z" fill="#231F20"/>
<path d="M231.986 130.065L190.094 141.193L197.493 166.518L236.598 159.453L232.118 132.702" fill="#231F20"/>
<path d="M197.493 167.248C197.337 167.251 197.184 167.202 197.058 167.109C196.932 167.016 196.84 166.884 196.797 166.734L189.364 141.392C189.299 141.21 189.299 141.011 189.364 140.828C189.464 140.66 189.624 140.536 189.812 140.48L231.704 129.368C231.891 129.318 232.09 129.343 232.258 129.44C232.426 129.536 232.549 129.695 232.6 129.882C232.65 130.069 232.625 130.269 232.528 130.437C232.432 130.604 232.272 130.727 232.085 130.778L191.023 141.707L198.024 165.689L235.818 158.873L231.455 132.834C231.439 132.74 231.441 132.643 231.462 132.549C231.483 132.455 231.523 132.366 231.578 132.288C231.634 132.209 231.704 132.142 231.786 132.091C231.867 132.04 231.957 132.005 232.052 131.989C232.147 131.972 232.244 131.975 232.338 131.996C232.432 132.017 232.52 132.056 232.599 132.112C232.678 132.167 232.744 132.238 232.796 132.319C232.847 132.4 232.882 132.491 232.898 132.586L237.378 159.337C237.407 159.528 237.361 159.723 237.25 159.88C237.139 160.038 236.97 160.147 236.781 160.183L197.659 167.248H197.493Z" fill="#231F20"/>
<path d="M247.001 124.359L248.029 134.609C248.029 134.609 247.532 140.447 241.111 139.286C239.212 138.92 237.419 138.134 235.864 136.986C234.308 135.838 233.028 134.358 232.119 132.652C231.941 131.785 231.896 130.895 231.986 130.015L231.654 124.011C231.488 120.976 231.073 117.858 231.156 114.823C231.239 111.788 231.156 108.62 231.272 105.486C231.269 105.303 231.321 105.124 231.422 104.972C231.534 104.866 231.682 104.807 231.837 104.806C232.695 104.623 233.583 104.623 234.441 104.806C234.493 102.675 234.242 100.547 233.695 98.4868C235.506 99.8366 236.908 101.662 237.743 103.761C239.872 103.658 242.006 103.764 244.114 104.076C244.391 102.608 244.187 101.09 243.533 99.7473C244.428 100.858 245.248 102.027 245.989 103.247C246.972 103.569 248.008 103.704 249.041 103.645C249.539 103.214 249.373 100.328 249.44 99.5483C250.896 101.385 251.887 103.548 252.326 105.851C252.717 110.173 252.867 114.514 252.774 118.853C252.868 119.622 252.781 120.402 252.519 121.132C252.258 121.861 251.83 122.519 251.269 123.054C250.708 123.589 250.031 123.985 249.29 124.212C248.548 124.438 247.765 124.489 247.001 124.359V124.359Z" fill="white"/>
<path d="M242.72 140.198C242.163 140.192 241.608 140.137 241.061 140.032C239.053 139.641 237.156 138.811 235.507 137.601C233.858 136.391 232.497 134.831 231.521 133.033C231.288 132.317 231.209 131.56 231.289 130.811C231.305 130.579 231.305 130.346 231.289 130.114L230.841 124.094C230.841 123.099 230.692 122.087 230.609 121.076C230.404 119.009 230.316 116.933 230.343 114.856C230.343 113.375 230.343 111.899 230.343 110.428C230.343 108.769 230.343 107.111 230.343 105.452C230.324 105.083 230.449 104.72 230.692 104.441C230.914 104.22 231.208 104.084 231.521 104.059C232.181 103.959 232.852 103.959 233.512 104.059C233.475 102.29 233.23 100.531 232.782 98.8185C232.741 98.6688 232.748 98.5101 232.802 98.3645C232.855 98.2188 232.953 98.0935 233.081 98.0058C233.21 97.9174 233.364 97.8701 233.521 97.8701C233.677 97.8701 233.831 97.9174 233.96 98.0058C235.746 99.3247 237.158 101.085 238.058 103.114C239.804 103.059 241.551 103.136 243.284 103.346C243.356 102.266 243.145 101.185 242.67 100.212C242.602 100.045 242.594 99.859 242.649 99.6871C242.705 99.5153 242.819 99.3686 242.972 99.2731C243.125 99.1777 243.307 99.1396 243.486 99.1656C243.665 99.1917 243.828 99.2803 243.948 99.4156C244.813 100.466 245.606 101.574 246.32 102.733C247.003 102.881 247.697 102.975 248.394 103.014C248.394 102.517 248.477 101.174 248.477 100.56C248.477 99.9463 248.477 99.7638 248.477 99.5648C248.485 99.4137 248.538 99.2684 248.63 99.1482C248.722 99.028 248.848 98.9386 248.992 98.8918C249.136 98.845 249.291 98.8431 249.436 98.8863C249.581 98.9295 249.71 99.0157 249.805 99.1336C251.361 101.055 252.41 103.336 252.857 105.768C253.286 109.788 253.441 113.833 253.322 117.875V118.953C253.349 119.861 253.181 120.766 252.829 121.604C252.477 122.442 251.949 123.195 251.281 123.812C250.268 124.687 248.97 125.165 247.631 125.155L248.56 134.526C248.49 135.393 248.247 136.238 247.845 137.01C247.443 137.782 246.891 138.465 246.221 139.02C245.21 139.777 243.983 140.19 242.72 140.198V140.198ZM232.036 105.585C232.036 107.244 232.036 108.902 232.036 110.428C232.036 111.954 232.036 113.413 232.036 114.906C232.017 116.922 232.105 118.937 232.301 120.943C232.384 121.971 232.484 122.999 232.533 124.011L232.849 130.031C232.865 130.308 232.865 130.584 232.849 130.861C232.796 131.37 232.824 131.885 232.932 132.386C233.8 133.967 235.005 135.337 236.461 136.4C237.917 137.463 239.59 138.194 241.36 138.54C242.079 138.734 242.832 138.772 243.567 138.652C244.302 138.532 245.004 138.256 245.624 137.843C246.614 137.004 247.243 135.816 247.382 134.526L246.354 124.409C246.346 124.295 246.363 124.181 246.404 124.075C246.445 123.968 246.509 123.872 246.591 123.793C246.673 123.714 246.772 123.654 246.88 123.617C246.988 123.58 247.103 123.567 247.216 123.58C247.802 123.677 248.403 123.646 248.976 123.489C249.549 123.331 250.081 123.051 250.535 122.668C251.037 122.192 251.432 121.615 251.692 120.974C251.953 120.333 252.073 119.644 252.044 118.953V117.891C252.131 113.961 251.987 110.029 251.613 106.116C251.309 104.702 250.83 103.331 250.186 102.036C250.186 103.296 249.97 103.96 249.589 104.308C248.909 104.922 245.856 104.126 245.839 104.109C245.653 104.026 245.492 103.894 245.375 103.728V103.728L245.026 103.18C245.015 103.559 244.971 103.937 244.894 104.308C244.861 104.501 244.754 104.673 244.596 104.788C244.438 104.902 244.241 104.951 244.047 104.922C241.988 104.626 239.905 104.521 237.826 104.607C237.668 104.621 237.51 104.583 237.375 104.499C237.24 104.416 237.136 104.29 237.079 104.142C236.572 102.89 235.854 101.735 234.956 100.726C235.174 102.113 235.269 103.517 235.238 104.922C235.236 105.034 235.209 105.145 235.159 105.246C235.108 105.347 235.035 105.435 234.946 105.503C234.856 105.572 234.753 105.619 234.642 105.642C234.532 105.665 234.418 105.662 234.309 105.635C233.562 105.465 232.789 105.448 232.036 105.585V105.585Z" fill="#231F20"/>
<path d="M247.432 129.401C244.902 129.68 242.361 128.98 240.331 127.444C239.504 126.807 238.825 125.998 238.341 125.073C237.857 124.149 237.579 123.13 237.527 122.087C240.456 123.613 243.715 124.394 247.017 124.359L247.432 129.401Z" fill="#231F20"/>
<path d="M246.353 130.197C243.996 130.247 241.696 129.473 239.85 128.008C238.933 127.3 238.184 126.401 237.653 125.372C237.123 124.343 236.825 123.21 236.78 122.054C236.786 121.93 236.825 121.81 236.892 121.705C236.959 121.6 237.052 121.515 237.162 121.457C237.268 121.396 237.388 121.364 237.51 121.364C237.633 121.364 237.753 121.396 237.859 121.457C240.668 122.91 243.787 123.661 246.951 123.646C247.046 123.637 247.141 123.647 247.233 123.676C247.324 123.705 247.408 123.751 247.481 123.813C247.553 123.875 247.613 123.951 247.656 124.036C247.699 124.121 247.724 124.214 247.73 124.31L248.145 129.285C248.16 129.473 248.103 129.659 247.986 129.807C247.869 129.954 247.701 130.052 247.515 130.081C247.13 130.141 246.742 130.179 246.353 130.197ZM238.423 123.331C238.836 124.731 239.663 125.974 240.795 126.897C242.46 128.173 244.523 128.819 246.619 128.721L246.32 125.106C243.593 125.067 240.904 124.462 238.423 123.331Z" fill="#231F20"/>
<path d="M243.649 116.813C243.29 116.844 242.93 116.844 242.571 116.813C242.38 116.785 242.207 116.681 242.092 116.526C241.977 116.37 241.929 116.175 241.957 115.984C241.99 115.791 242.097 115.619 242.255 115.504C242.413 115.39 242.61 115.342 242.803 115.37C243.55 115.486 244.778 115.37 245.06 115.088C244.258 113.404 243.231 111.836 242.007 110.428C241.946 110.354 241.9 110.269 241.872 110.177C241.844 110.085 241.834 109.989 241.843 109.893C241.852 109.798 241.88 109.705 241.926 109.62C241.971 109.536 242.032 109.461 242.106 109.4C242.26 109.279 242.454 109.223 242.649 109.241C242.843 109.26 243.023 109.352 243.152 109.499C247.283 114.574 246.47 115.619 246.221 115.967C245.879 116.287 245.472 116.528 245.028 116.674C244.584 116.82 244.114 116.867 243.649 116.813V116.813Z" fill="#231F20"/>
<path d="M234.159 109.284C233.651 108.034 232.888 106.905 231.919 105.967C231.426 105.507 230.805 105.209 230.138 105.111C229.471 105.013 228.79 105.121 228.186 105.419C227.615 105.89 227.183 106.509 226.937 107.207C226.691 107.906 226.641 108.658 226.792 109.383C226.987 111.059 227.447 112.694 228.153 114.226C228.484 115.169 229.056 116.01 229.812 116.664C230.195 116.982 230.672 117.166 231.169 117.187C231.667 117.208 232.158 117.065 232.566 116.78" fill="white"/>
<path d="M231.305 117.974C230.569 117.961 229.855 117.718 229.265 117.278C228.413 116.543 227.767 115.6 227.39 114.541C226.657 112.967 226.175 111.288 225.963 109.566C225.785 108.697 225.855 107.796 226.166 106.966C226.477 106.135 227.016 105.41 227.722 104.872C228.462 104.492 229.3 104.348 230.124 104.457C230.948 104.567 231.719 104.926 232.334 105.486C233.385 106.48 234.216 107.683 234.773 109.018C234.828 109.108 234.864 109.209 234.878 109.314C234.892 109.418 234.884 109.525 234.855 109.626C234.826 109.727 234.776 109.822 234.708 109.903C234.641 109.984 234.557 110.05 234.463 110.098C234.368 110.145 234.265 110.172 234.159 110.177C234.054 110.182 233.949 110.166 233.85 110.128C233.751 110.091 233.661 110.033 233.586 109.959C233.511 109.885 233.452 109.796 233.412 109.698C232.944 108.555 232.25 107.517 231.372 106.647C230.998 106.291 230.527 106.056 230.018 105.97C229.51 105.884 228.988 105.953 228.518 106.166C227.34 106.895 227.423 108.836 227.473 109.483C227.662 111.079 228.104 112.636 228.784 114.093C229.061 114.911 229.547 115.643 230.194 116.216C230.437 116.43 230.742 116.56 231.065 116.586C231.388 116.613 231.71 116.536 231.986 116.365C232.143 116.239 232.344 116.179 232.545 116.197C232.746 116.216 232.932 116.312 233.064 116.465C233.189 116.62 233.249 116.817 233.231 117.016C233.212 117.214 233.116 117.397 232.965 117.526C232.48 117.863 231.894 118.021 231.305 117.974V117.974Z" fill="#231F20"/>
<path d="M304.687 342.684C304.803 342.833 320.747 332.351 320.747 332.351C320.747 332.351 320.299 327.558 321.577 326.563C322.854 325.568 341.22 320.112 342.747 322.699C344.273 325.286 307.292 349.6 307.292 349.6L304.687 342.684Z" fill="#231F20"/>
<path d="M307.292 350.329H307.076C306.969 350.295 306.872 350.237 306.792 350.16C306.711 350.082 306.649 349.987 306.611 349.882L304.007 342.982C303.941 342.818 303.939 342.636 304 342.471C304.062 342.305 304.182 342.169 304.338 342.087H304.471C305.417 341.606 314.077 335.967 319.984 332.136C319.868 330.577 319.801 327.16 321.129 326.132C322.456 325.104 337.139 320.659 341.768 321.538C342.096 321.565 342.415 321.663 342.702 321.827C342.989 321.99 343.236 322.214 343.427 322.483C343.941 323.362 344.721 324.673 326.056 337.874C317.114 344.21 307.806 350.296 307.806 350.363C307.635 350.401 307.456 350.39 307.292 350.329ZM305.633 342.966L307.706 348.489C323.849 337.874 340.955 325.552 342 322.948C341.848 322.874 341.686 322.823 341.519 322.798C337.421 321.953 323.119 326.281 322.008 327.094C321.427 327.542 321.261 330.112 321.46 332.235C321.474 332.367 321.452 332.499 321.397 332.619C321.341 332.739 321.254 332.841 321.145 332.915C311.257 339.533 307.292 342.07 305.583 342.966H305.633Z" fill="#231F20"/>
<path d="M157.559 272.281L146.742 288.119L149.944 292.066C149.944 292.066 136.074 300.359 133.652 298.369C131.229 296.379 151.205 268.698 151.205 268.698L157.559 272.281Z" fill="#231F20"/>
<path d="M134.746 299.38C134.19 299.422 133.637 299.263 133.187 298.933C130.748 296.943 141.283 281.154 150.557 268.284C150.659 268.135 150.813 268.03 150.988 267.991C151.163 267.951 151.347 267.978 151.503 268.068L157.924 271.634C158.097 271.737 158.222 271.904 158.272 272.098C158.298 272.196 158.302 272.299 158.285 272.399C158.268 272.499 158.23 272.595 158.173 272.679L147.654 288.119L150.508 291.635C150.577 291.717 150.626 291.813 150.652 291.916C150.678 292.02 150.68 292.128 150.657 292.232C150.64 292.334 150.602 292.431 150.544 292.517C150.487 292.602 150.412 292.675 150.325 292.73C147.438 294.422 138.794 299.38 134.746 299.38ZM151.337 269.66C142.362 282.182 133.568 296.03 134.166 297.855C135.294 298.75 142.461 295.516 148.832 291.818L146.161 288.501C146.069 288.376 146.02 288.225 146.02 288.07C146.02 287.914 146.069 287.763 146.161 287.638L156.514 272.463L151.337 269.66Z" fill="#231F20"/>
<path d="M243.633 120.611H243.185C241.21 120.412 239.468 118.953 238.042 116.083C237.996 115.998 237.968 115.904 237.959 115.807C237.95 115.71 237.96 115.612 237.99 115.52C238.019 115.427 238.067 115.341 238.13 115.267C238.193 115.193 238.27 115.132 238.357 115.088C238.531 115 238.733 114.984 238.919 115.043C239.105 115.102 239.26 115.231 239.352 115.403C240.53 117.742 241.874 119.002 243.334 119.152C244.134 119.108 244.916 118.893 245.626 118.521C246.336 118.149 246.957 117.629 247.449 116.996C247.508 116.92 247.582 116.857 247.667 116.811C247.751 116.764 247.843 116.735 247.939 116.724C248.034 116.713 248.131 116.721 248.224 116.748C248.316 116.775 248.402 116.819 248.477 116.88C248.554 116.938 248.618 117.011 248.666 117.095C248.715 117.178 248.746 117.27 248.758 117.366C248.77 117.462 248.764 117.559 248.738 117.652C248.713 117.745 248.669 117.832 248.61 117.908C248.002 118.667 247.249 119.297 246.394 119.762C245.54 120.226 244.601 120.515 243.633 120.611V120.611Z" fill="#231F20"/>
<path d="M237.295 108.289C237.142 108.285 236.992 108.239 236.864 108.156C236.707 108.04 236.603 107.868 236.572 107.675C236.541 107.483 236.586 107.287 236.698 107.128C236.847 106.929 238.125 105.22 239.601 105.386C240.016 105.45 240.406 105.628 240.725 105.9C241.044 106.173 241.282 106.529 241.41 106.929C241.46 107.101 241.446 107.285 241.371 107.448C241.297 107.611 241.166 107.741 241.003 107.816C240.84 107.89 240.655 107.904 240.483 107.853C240.311 107.803 240.163 107.693 240.066 107.542C239.966 107.293 239.734 106.879 239.452 106.846C239.17 106.813 238.274 107.476 237.892 107.99C237.824 108.084 237.734 108.16 237.63 108.212C237.526 108.263 237.411 108.29 237.295 108.289V108.289Z" fill="#231F20"/>
<path d="M248.776 108.438C248.637 108.437 248.502 108.398 248.385 108.324C248.268 108.251 248.173 108.147 248.112 108.023C247.979 107.741 247.432 106.879 246.818 106.746C246.204 106.613 246.104 107.542 246.104 107.559C246.047 107.743 245.919 107.898 245.748 107.988C245.577 108.078 245.377 108.097 245.192 108.04C245.099 108.013 245.012 107.968 244.937 107.908C244.861 107.847 244.799 107.773 244.752 107.688C244.706 107.603 244.677 107.51 244.667 107.414C244.657 107.317 244.666 107.22 244.694 107.128C244.792 106.567 245.101 106.065 245.558 105.726C246.015 105.387 246.585 105.235 247.15 105.303C247.653 105.477 248.116 105.753 248.51 106.112C248.904 106.471 249.22 106.907 249.439 107.393C249.481 107.48 249.506 107.574 249.511 107.671C249.516 107.767 249.502 107.864 249.47 107.955C249.437 108.046 249.387 108.13 249.322 108.201C249.257 108.273 249.178 108.331 249.091 108.371C248.992 108.419 248.884 108.441 248.776 108.438V108.438Z" fill="#231F20"/>
<path d="M209.273 177.713C209.273 177.713 204.76 207.251 187.24 280.706C187.24 280.706 189.38 292.78 226.494 293.46C263.608 294.14 295.496 267.653 295.496 267.653L265.981 183.518L209.273 177.713Z" fill="#F2C94C"/>
<path d="M222.91 191.844L222.396 131.972L228.651 129.948L228.8 192.888L222.91 191.844Z" fill="#F2C94C"/>
<path d="M252.028 132.171L251.148 189.422L256.623 191.18L257.967 134.095L252.028 132.171Z" fill="#F2C94C"/>
<path d="M154.125 102.799C153.516 102.08 152.752 101.511 151.889 101.134C151.026 100.758 150.088 100.584 149.147 100.626C147.281 100.721 145.44 101.101 143.689 101.754C143.341 101.87 142.909 102.086 142.926 102.451C142.942 102.816 143.274 102.948 143.573 103.064C145.563 103.85 147.688 104.239 149.828 104.209C149.325 104.822 148.985 105.553 148.84 106.333C148.695 107.113 148.749 107.917 148.998 108.67C149.35 110.78 150.423 112.703 152.034 114.11C152.846 114.794 153.845 115.219 154.901 115.328C155.957 115.438 157.022 115.227 157.957 114.723" fill="white"/>
<path d="M155.601 116.133C154.146 116.122 152.737 115.619 151.603 114.707C149.862 113.183 148.692 111.113 148.285 108.836C147.953 107.548 148.017 106.19 148.467 104.938C146.705 104.804 144.972 104.413 143.324 103.777C143.029 103.703 142.764 103.541 142.562 103.313C142.361 103.085 142.233 102.802 142.196 102.5C142.196 102.185 142.196 101.422 143.506 101.024C145.317 100.356 147.22 99.9704 149.147 99.8799V99.8799C150.197 99.8418 151.241 100.043 152.201 100.468C153.161 100.894 154.012 101.532 154.689 102.335C154.763 102.412 154.82 102.505 154.855 102.607C154.891 102.708 154.905 102.816 154.896 102.923C154.887 103.03 154.856 103.134 154.804 103.228C154.752 103.323 154.681 103.405 154.595 103.469C154.509 103.534 154.41 103.58 154.305 103.604C154.201 103.628 154.092 103.629 153.986 103.608C153.881 103.587 153.781 103.544 153.693 103.482C153.606 103.419 153.532 103.339 153.478 103.247C152.945 102.628 152.278 102.139 151.528 101.817C150.777 101.495 149.963 101.348 149.147 101.389V101.389C147.413 101.484 145.702 101.836 144.071 102.434C145.916 103.148 147.882 103.498 149.861 103.462C150.013 103.466 150.162 103.513 150.288 103.598C150.415 103.683 150.514 103.803 150.574 103.943C150.63 104.085 150.64 104.241 150.605 104.389C150.569 104.537 150.489 104.671 150.375 104.772C149.986 105.306 149.728 105.922 149.622 106.573C149.515 107.225 149.563 107.892 149.761 108.521C150.093 110.445 151.07 112.2 152.532 113.496C153.214 114.069 154.05 114.428 154.936 114.529C155.821 114.629 156.716 114.466 157.509 114.06C157.677 113.981 157.868 113.966 158.047 114.017C158.225 114.069 158.379 114.184 158.479 114.341C158.578 114.497 158.617 114.685 158.589 114.868C158.56 115.052 158.465 115.218 158.322 115.337C157.508 115.852 156.565 116.128 155.601 116.133V116.133Z" fill="#231F20"/>
<path d="M242.339 214.731H241.277C223.11 214.134 222.098 193.751 222.081 193.552C222.08 193.325 222.162 193.107 222.313 192.938C222.392 192.855 222.487 192.79 222.593 192.747C222.699 192.704 222.813 192.684 222.927 192.689L260.572 193.054C260.774 193.061 260.968 193.14 261.117 193.277C261.266 193.414 261.361 193.599 261.385 193.801C261.764 196.562 261.552 199.373 260.763 202.046C259.974 204.72 258.625 207.195 256.806 209.307C253.438 212.89 248.577 214.731 242.339 214.731ZM223.823 194.348C224.155 197.403 224.985 200.383 226.279 203.171C227.527 206.127 229.622 208.649 232.299 210.419C234.976 212.189 238.117 213.13 241.327 213.122C247.565 213.304 252.376 211.679 255.595 208.147C257.153 206.293 258.327 204.147 259.048 201.835C259.769 199.523 260.022 197.09 259.792 194.68L223.823 194.348Z" fill="#231F20"/>
<path d="M109.727 269.527C109.503 269.527 109.288 269.437 109.13 269.279C109.052 269.203 108.991 269.113 108.949 269.013C108.907 268.913 108.886 268.806 108.886 268.698C108.886 268.59 108.907 268.483 108.949 268.383C108.991 268.284 109.052 268.193 109.13 268.118L179.409 199.556C179.484 199.469 179.576 199.4 179.679 199.351C179.782 199.302 179.895 199.274 180.009 199.271C180.123 199.267 180.237 199.287 180.343 199.33C180.449 199.372 180.545 199.436 180.626 199.517C180.706 199.599 180.768 199.696 180.809 199.803C180.85 199.909 180.869 200.023 180.864 200.137C180.858 200.252 180.83 200.363 180.779 200.466C180.729 200.568 180.657 200.659 180.57 200.733L110.407 269.295C110.319 269.384 110.212 269.45 110.094 269.491C109.976 269.531 109.851 269.544 109.727 269.527V269.527Z" fill="#D1D3D4"/>
<path d="M177.966 105.336C177.845 105.338 177.725 105.312 177.616 105.26C177.507 105.208 177.411 105.132 177.335 105.038C177.264 104.956 177.21 104.86 177.176 104.757C177.143 104.654 177.13 104.545 177.14 104.436C177.149 104.328 177.18 104.223 177.231 104.127C177.281 104.031 177.351 103.946 177.435 103.877L198.854 85.8656C198.936 85.7945 199.031 85.7406 199.135 85.707C199.238 85.6734 199.347 85.6609 199.455 85.6702C199.564 85.6795 199.669 85.7104 199.765 85.761C199.861 85.8117 199.946 85.8811 200.015 85.9652C200.155 86.1356 200.224 86.3542 200.205 86.5742C200.186 86.7942 200.083 86.9982 199.915 87.1427L178.497 105.137C178.349 105.265 178.161 105.336 177.966 105.336V105.336Z" fill="#D1D3D4"/>
<path d="M115.717 235.246C115.55 235.244 115.388 235.192 115.252 235.097C115.115 235.001 115.01 234.867 114.951 234.711C114.892 234.556 114.881 234.386 114.92 234.224C114.959 234.062 115.046 233.916 115.169 233.804L138.081 213.271C138.246 213.124 138.463 213.048 138.684 213.061C138.905 213.073 139.112 213.173 139.259 213.338C139.407 213.503 139.482 213.719 139.47 213.94C139.457 214.161 139.358 214.368 139.193 214.515L116.364 235.047C116.182 235.196 115.95 235.267 115.717 235.246Z" fill="#D1D3D4"/>
<path d="M22.2764 353.464C29.8266 353.464 35.9473 352.506 35.9473 351.324C35.9473 350.143 29.8266 349.185 22.2764 349.185C14.7261 349.185 8.60547 350.143 8.60547 351.324C8.60547 352.506 14.7261 353.464 22.2764 353.464Z" fill="#D1D3D4"/>
<path d="M24.8648 289.214C24.9906 287.294 24.5829 285.377 23.6868 283.675C22.7981 282.551 21.9674 281.383 21.1982 280.175C20.153 277.936 20.883 275.2 20.6341 272.811C20.4209 270.741 19.5079 268.804 18.0459 267.322C16.7518 266.028 15.0928 265.133 13.865 263.773C11.8409 261.534 11.2603 258.399 10.1155 255.613C8.47826 251.676 5.64643 248.352 2.01913 246.11C4.22572 250.538 -0.784731 256.177 1.48822 260.572C2.20163 261.965 3.57867 262.977 4.10958 264.469C5.38708 268.035 1.1398 271.899 2.45049 275.432C3.13071 277.19 5.02208 278.218 5.9014 279.893C7.07935 282.149 6.15026 284.869 6.2498 287.439C6.63147 290.977 8.35298 294.235 11.0612 296.544C12.7203 298.07 14.3793 299.381 16.138 300.74C18.1787 302.399 19.0414 304.057 20.8498 301.47C23.3425 297.857 24.7369 293.601 24.8648 289.214V289.214Z" fill="#D1D3D4"/>
<path d="M27.1379 291.221C26.2516 288.528 26.2516 285.622 27.1379 282.928C28.3988 280.026 31.5179 277.953 31.8995 274.835C32.1317 272.778 31.0865 270.689 31.5013 268.649C31.9161 266.609 33.5751 265.232 34.9356 263.673C38.0885 260.205 39.9616 255.763 40.2447 251.085C42.3559 253.57 44.0686 256.368 45.3215 259.378C45.9297 260.902 46.1788 262.547 46.0493 264.183C45.9198 265.82 45.4153 267.404 44.5749 268.815C44.0466 269.449 43.616 270.159 43.2974 270.921C42.6836 272.911 44.3924 274.785 45.2883 276.692C45.8131 277.779 46.0316 278.987 45.9206 280.188C45.8095 281.389 45.3729 282.537 44.6579 283.509C42.8495 285.748 39.382 286.627 38.5027 289.363C38.2804 290.382 38.1747 291.422 38.1874 292.465C37.9956 294.283 37.2597 296.001 36.0757 297.395C34.8918 298.788 33.3149 299.793 31.5511 300.276C29.4274 300.79 29.4772 299.945 29.0956 298.153C28.6476 295.948 27.7186 293.626 27.1379 291.221Z" fill="#D1D3D4"/>
<path d="M20.3689 271.65C18.8592 266.426 18.2453 260.953 16.6526 255.762C15.2948 251.69 13.6309 247.726 11.6753 243.904L18.1623 246.64C20.2362 247.519 22.4926 248.548 23.4714 250.571C25.1305 254.12 22.111 258.648 23.9194 262.18C24.6947 263.317 25.5484 264.397 26.4744 265.414C28.3823 268.085 28.1335 271.783 27.0551 274.901C26.5905 276.244 24.6328 283.194 22.8742 281.253C22.1773 280.474 22.111 277.604 21.8123 276.543C21.3976 274.851 20.8335 273.276 20.3689 271.65Z" fill="#D1D3D4"/>
<path d="M23.9189 341.191C22.6248 332.633 18.5766 302.515 18.5269 302.216L19.6384 302.067C19.6384 302.366 23.7364 332.484 25.0305 341.025L23.9189 341.191Z" fill="#D1D3D4"/>
<path d="M25.429 349.185H24.3174C24.3174 339.035 28.6144 300.26 31.0699 297.589L31.8994 298.352C30.2735 300.11 25.5451 335.287 25.429 349.185Z" fill="#D1D3D4"/>
<path d="M27.6356 347.261H26.5074C27.4863 325.386 22.8408 279.429 22.791 278.964L23.9026 278.848C23.9524 279.263 28.6144 325.303 27.6356 347.261Z" fill="#D1D3D4"/>
<path d="M12.8032 320.526H36.9596L35.3005 344.973C35.1575 347.011 34.2453 348.919 32.7483 350.311C31.2514 351.703 29.2816 352.474 27.2373 352.469H22.5753C20.5327 352.474 18.5648 351.702 17.0706 350.31C15.5764 348.918 14.6677 347.01 14.5287 344.973L12.8032 320.526Z" fill="white"/>
<path d="M27.2039 353.298H22.5419C20.2873 353.295 18.1177 352.438 16.4706 350.899C14.8234 349.36 13.8211 347.254 13.6657 345.006L12.0066 320.56C11.9994 320.448 12.0147 320.336 12.0518 320.231C12.0889 320.125 12.1469 320.028 12.2223 319.946C12.3 319.861 12.3949 319.793 12.5007 319.747C12.6065 319.702 12.7209 319.679 12.8362 319.681H36.9926C37.1056 319.678 37.2177 319.7 37.321 319.746C37.4243 319.792 37.5161 319.86 37.5898 319.946C37.6688 320.026 37.7291 320.123 37.7664 320.229C37.8036 320.335 37.817 320.448 37.8055 320.56L36.1464 345.006C35.9826 347.263 34.9686 349.374 33.309 350.913C31.6494 352.452 29.4677 353.304 27.2039 353.298V353.298ZM13.6823 321.289L15.3414 344.84C15.4753 346.667 16.2952 348.377 17.6366 349.626C18.9781 350.874 20.7421 351.57 22.5751 351.574H27.2371C29.0701 351.57 30.8341 350.874 32.1755 349.626C33.517 348.377 34.3368 346.667 34.4707 344.84L36.1298 321.289H13.6823Z" fill="#D1D3D4"/>
</svg>
