<svg width="404" height="318" viewBox="0 0 404 318" fill="none" xmlns="http://www.w3.org/2000/svg">
<path d="M366.245 0.898804V270.038L403.051 307.384V0.898804H366.245Z" fill="white"/>
<path d="M403.051 308.13C402.844 308.13 402.646 308.049 402.5 307.906L365.755 270.59C365.619 270.448 365.542 270.262 365.54 270.068V0.898789C365.538 0.801492 365.556 0.704773 365.593 0.614306C365.63 0.523839 365.685 0.441441 365.754 0.371935C365.824 0.30243 365.908 0.247217 366 0.209531C366.092 0.171845 366.191 0.152446 366.29 0.152466H403.035C403.239 0.152466 403.433 0.231096 403.577 0.371058C403.72 0.511021 403.801 0.700852 403.801 0.898789V307.399C403.8 307.546 403.755 307.69 403.67 307.812C403.586 307.934 403.466 308.03 403.326 308.086C403.237 308.115 403.144 308.13 403.051 308.13V308.13ZM367.01 269.739L402.301 305.563V1.64511H367.01V269.739Z" fill="#231F20"/>
<path d="M366.26 0.898804H38.1729V270.038H366.26V0.898804Z" fill="white"/>
<path d="M366.245 270.784H38.1727C37.9697 270.784 37.775 270.706 37.6314 270.566C37.4879 270.426 37.4072 270.236 37.4072 270.038V0.898789C37.4072 0.700852 37.4879 0.511021 37.6314 0.371058C37.775 0.231096 37.9697 0.152466 38.1727 0.152466H366.245C366.448 0.152466 366.642 0.231096 366.786 0.371058C366.93 0.511021 367.01 0.700852 367.01 0.898789V270.038C367.01 270.236 366.93 270.426 366.786 270.566C366.642 270.706 366.448 270.784 366.245 270.784ZM38.923 269.292H365.494V1.64511H38.923V269.292Z" fill="#231F20"/>
<path d="M194.553 262.739H56.6063C56.4045 262.735 56.2121 262.655 56.0694 262.516C55.9266 262.377 55.8447 262.189 55.8408 261.993V14.3923C55.8408 14.1944 55.9215 14.0046 56.065 13.8646C56.2086 13.7246 56.4033 13.646 56.6063 13.646H194.553C194.756 13.646 194.951 13.7246 195.095 13.8646C195.238 14.0046 195.319 14.1944 195.319 14.3923V261.993C195.315 262.189 195.233 262.377 195.09 262.516C194.948 262.655 194.755 262.735 194.553 262.739V262.739ZM57.3719 261.246H193.788V15.1386H57.3719V261.246Z" fill="#D1D3D4"/>
<path d="M347.857 262.739H209.864C209.662 262.735 209.469 262.655 209.327 262.516C209.184 262.377 209.102 262.189 209.098 261.993V14.3923C209.098 14.1944 209.179 14.0046 209.322 13.8646C209.466 13.7246 209.661 13.646 209.864 13.646H347.811C348.014 13.646 348.208 13.7246 348.352 13.8646C348.495 14.0046 348.576 14.1944 348.576 14.3923V261.993C348.573 262.182 348.497 262.363 348.364 262.501C348.231 262.639 348.05 262.724 347.857 262.739ZM210.675 261.246H347.091V15.1386H210.675V261.246Z" fill="#D1D3D4"/>
<path d="M403.051 307.384H1.36621L38.1725 270.038H366.244L403.051 307.384Z" fill="white"/>
<path d="M403.051 308.13H1.36634C1.21736 308.129 1.0719 308.086 0.947104 308.007C0.822311 307.927 0.723406 307.815 0.662066 307.683C0.602089 307.549 0.584619 307.4 0.611908 307.257C0.639196 307.113 0.709989 306.981 0.815168 306.877L37.5602 269.56C37.6295 269.485 37.7145 269.424 37.8095 269.383C37.9045 269.342 38.0074 269.321 38.1114 269.322H366.245C366.348 269.321 366.451 269.342 366.546 269.383C366.641 269.424 366.726 269.485 366.796 269.56L403.541 306.877C403.646 306.981 403.717 307.113 403.744 307.257C403.771 307.4 403.754 307.549 403.694 307.683C403.637 307.806 403.548 307.913 403.435 307.992C403.322 308.07 403.189 308.118 403.051 308.13V308.13ZM3.17298 306.653H401.244L365.908 270.829H38.4941L3.17298 306.653Z" fill="#231F20"/>
<path d="M1.36621 0.898804V307.384L38.1725 270.038V0.898804H1.36621Z" fill="white"/>
<path d="M1.36586 308.13C1.26956 308.146 1.17127 308.146 1.07496 308.13C0.935163 308.074 0.815491 307.979 0.731028 307.857C0.646566 307.735 0.601096 307.591 0.600342 307.444V0.898789C0.600342 0.700852 0.680994 0.511021 0.824557 0.371058C0.96812 0.231096 1.16283 0.152466 1.36586 0.152466H38.1109C38.2107 0.152446 38.3095 0.171845 38.4016 0.209531C38.4936 0.247217 38.577 0.30243 38.6469 0.371935C38.7167 0.441441 38.7717 0.523839 38.8085 0.614306C38.8452 0.704773 38.8631 0.801492 38.8611 0.898789V270.038C38.8592 270.232 38.7827 270.419 38.6468 270.56L1.90173 307.877C1.76452 308.027 1.57186 308.118 1.36586 308.13V308.13ZM2.11607 1.64511V305.548L37.3301 269.725V1.64511H2.11607Z" fill="#231F20"/>
<path d="M38.8615 195.256C35.631 195.824 12.5582 195.45 13.0175 199.928C13.4768 204.406 24.7147 249.186 27.8992 261.201C31.0838 273.217 39.7342 283.591 47.9253 288.069C56.1164 292.547 80.9958 273.053 86.5382 271.65C92.0806 270.247 38.8615 195.256 38.8615 195.256Z" fill="#231F20"/>
<path d="M50.8956 289.457C49.7305 289.496 48.5752 289.238 47.5426 288.711C39.8874 284.502 30.7012 274.426 27.1492 261.381C23.9187 249.216 12.7114 204.57 12.2521 200.003C12.2249 199.712 12.2599 199.418 12.3547 199.141C12.4496 198.863 12.6023 198.608 12.8033 198.391C15.0539 195.853 24.4392 195.241 33.8398 194.838C36.0904 194.734 38.0196 194.644 38.7391 194.525C38.8818 194.503 39.0279 194.521 39.1607 194.576C39.2934 194.632 39.4074 194.722 39.4894 194.838C47.8948 206.78 89.7229 266.172 87.5947 271.665C87.5225 271.851 87.4056 272.017 87.2537 272.149C87.1018 272.282 86.9194 272.377 86.722 272.426C85.0838 272.814 81.3481 275.098 77.0152 277.725C68.671 282.8 57.7241 289.457 50.8956 289.457ZM38.5095 196.062C37.5602 196.167 35.968 196.242 33.9164 196.316C27.6544 196.6 15.9878 197.107 14.0128 199.301C13.9456 199.365 13.8931 199.442 13.8588 199.527C13.8244 199.612 13.8091 199.703 13.8138 199.794C14.2731 204.197 25.5416 249.171 28.6802 260.993C32.0332 273.605 40.9285 283.382 48.3388 287.397C53.5443 290.248 67.2012 281.949 76.2497 276.441C79.3871 274.317 82.7305 272.497 86.2321 271.008C86.967 266.575 57.5863 223.02 38.5095 196.062Z" fill="#231F20"/>
<path d="M125.289 167.732C125.289 167.732 17.8861 163.478 17.4268 170.941C16.9675 178.404 70.508 288.427 78.3316 290.039C86.1553 291.652 86.9667 284.397 89.9676 285.129C92.9684 285.86 123.252 276.77 132.837 268.71C142.421 260.649 116.7 199.719 117.817 192.167C118.935 184.614 134.108 168.807 125.289 167.732Z" fill="white"/>
<path d="M80.4599 291.04C79.6922 291.037 78.9272 290.952 78.1786 290.786C72.8965 289.711 52.5796 250.066 44.0823 233.065C30.6091 206.093 16.4164 175.135 16.6613 170.941C16.7685 169.314 16.9829 165.508 71.5339 165.792C98.1434 165.911 125.12 166.986 125.319 167.001C125.945 167.015 126.557 167.188 127.093 167.502C127.63 167.816 128.074 168.26 128.382 168.792C129.775 171.523 126.759 176.553 123.574 181.882C121.262 185.718 118.889 189.704 118.491 192.331C118.108 194.794 121.063 204.167 124.477 215.004C131.321 236.752 139.788 263.814 133.235 269.322C123.589 277.382 93.0144 286.636 89.7227 285.815C89.049 285.666 88.4519 286.263 87.4415 287.308C86.6508 288.412 85.6095 289.323 84.3985 289.97C83.1876 290.617 81.8397 290.983 80.4599 291.04V291.04ZM68.2116 167.15C36.3506 167.15 18.3914 168.717 18.2536 170.956C18.0393 174.315 30.2876 201.869 45.5215 232.364C64.7361 270.948 75.9433 288.86 78.4849 289.338C82.8636 290.233 84.7315 288.203 86.3697 286.353C87.5027 285.129 88.5591 283.994 90.1667 284.382C92.7389 284.994 122.732 276.188 132.301 268.187C138.134 263.321 129.071 234.513 123.115 215.452C119.501 203.973 116.654 194.913 117.067 192.107C117.481 189.301 119.976 185.032 122.349 181.061C125.059 176.583 128.137 171.404 127.111 169.389C126.909 169.089 126.634 168.844 126.311 168.674C125.987 168.505 125.625 168.417 125.258 168.419C103.119 167.598 83.9354 167.21 68.1503 167.21L68.2116 167.15Z" fill="#231F20"/>
<path d="M320.803 266.232C320.803 266.232 337.185 265.784 339.314 264.739C341.442 263.694 353.721 248.171 356.599 244.469C359.477 240.767 360.243 236.483 362.218 235.603C364.193 234.722 365.403 233.229 366.153 235.603C366.903 237.976 362.815 255.007 360.029 264.291C357.242 273.576 354.119 286.039 351.838 287.517C349.556 288.995 343.493 287.069 341.824 285.442C339.931 283.947 337.878 282.656 335.7 281.591C335.7 281.591 316.118 281.74 315.797 281.307C315.475 280.875 320.803 266.232 320.803 266.232Z" fill="white"/>
<path d="M349.571 288.86C346.595 288.785 343.719 287.798 341.35 286.039C339.585 284.634 337.67 283.418 335.639 282.412C315.843 282.561 315.598 282.203 315.307 281.785C315.016 281.367 314.802 281.039 320.084 266.053C320.129 265.908 320.22 265.781 320.344 265.69C320.467 265.599 320.618 265.548 320.773 265.545C327.05 265.381 337.522 264.844 338.961 264.142C340.401 263.44 349.862 251.962 355.987 244.096C357.131 242.561 358.091 240.903 358.85 239.155C359.814 237.17 360.58 235.588 361.912 234.991C362.304 234.819 362.683 234.62 363.045 234.394C363.933 233.901 364.759 233.438 365.601 233.752C365.933 233.925 366.222 234.167 366.447 234.461C366.672 234.755 366.828 235.094 366.903 235.453C367.821 238.319 362.999 257.186 360.779 264.575C360.335 266.068 359.875 267.695 359.416 269.307C356.354 279.889 354.272 286.905 352.281 288.203C351.46 288.669 350.52 288.896 349.571 288.86V288.86ZM335.792 280.934C335.903 280.912 336.018 280.912 336.129 280.934C338.361 282.033 340.461 283.37 342.391 284.92C343.922 286.412 349.587 288.099 351.439 286.89C353.292 285.681 355.91 275.994 357.962 268.829C358.421 267.217 358.88 265.605 359.324 264.082C362.509 253.216 366.015 237.722 365.448 235.812C365.234 235.155 365.05 235.065 365.05 235.065C365.05 235.065 364.193 235.394 363.81 235.618C363.427 235.841 363.014 236.065 362.555 236.274C361.728 236.633 361.024 238.065 360.258 239.722C359.431 241.556 358.405 243.297 357.196 244.917C356.584 245.708 342.177 264.157 339.635 265.396C337.568 266.396 324.493 266.888 321.263 266.888C319.624 271.56 317.251 278.531 316.669 280.636C319.288 280.83 329.316 280.845 335.67 280.8L335.792 280.934Z" fill="#231F20"/>
<path d="M143.355 288.726C143.355 288.726 226.705 278.412 232.646 277.919C238.586 277.427 323.161 283.681 326.223 283.233C329.285 282.785 330.097 264.157 330.097 264.157C330.097 264.157 248.232 242.663 225.021 243.752C211.594 244.379 168.066 243.752 168.066 243.752L143.355 288.726Z" fill="#231F20"/>
<path d="M143.355 289.472C143.223 289.476 143.092 289.445 142.975 289.383C142.859 289.32 142.762 289.229 142.693 289.119C142.625 289.008 142.588 288.881 142.586 288.752C142.584 288.623 142.617 288.495 142.682 288.383L167.347 243.394C167.414 243.274 167.514 243.175 167.636 243.106C167.757 243.038 167.896 243.003 168.036 243.006C168.465 243.006 211.686 243.618 224.929 243.006C248.002 241.931 326.897 262.56 330.25 263.44C330.418 263.482 330.567 263.579 330.67 263.715C330.773 263.851 330.825 264.018 330.816 264.187C330.541 269.978 329.53 283.487 326.3 283.979C324.891 284.188 309.642 283.203 284.87 281.606C261.904 280.113 235.876 278.427 232.707 278.621C226.889 279.054 144.289 289.323 143.447 289.427L143.355 289.472ZM168.526 244.499L144.779 287.786C156.308 286.293 227.134 277.561 232.646 277.158C235.846 276.919 260.848 278.531 285.023 280.143C304.559 281.412 324.753 282.725 326.116 282.531C327.479 282.337 328.795 274.098 329.301 264.754C321.829 262.814 246.839 243.499 225.052 244.529C212.467 245.081 173.226 244.558 168.526 244.499Z" fill="#231F20"/>
<path d="M258.199 259.201C258.199 259.201 266.39 272.068 267.293 274.74C268.196 277.412 268.212 284.726 270.018 288.054C271.825 291.383 323.498 290.726 323.283 288.741C323.069 286.756 300.976 277.845 295.173 273.814C289.371 269.784 274.168 248.559 274.168 248.559L258.199 259.201Z" fill="white"/>
<path d="M296.337 291.084C283.4 291.084 270.447 290.413 269.36 288.412C268.273 286.412 267.737 282.711 267.354 279.576C267.223 278.02 266.962 276.478 266.573 274.964C265.869 272.934 260.357 264.023 257.54 259.589C257.435 259.428 257.399 259.234 257.439 259.047C257.479 258.86 257.592 258.696 257.755 258.589L273.693 247.947C273.858 247.836 274.061 247.792 274.259 247.826C274.456 247.859 274.632 247.967 274.749 248.126C274.902 248.335 289.983 269.366 295.617 273.247C300.158 275.913 304.857 278.315 309.688 280.442C320.665 285.636 323.88 287.338 324.034 288.651C324.095 289.189 323.727 289.577 322.931 289.816C320.711 290.487 308.539 291.084 296.337 291.084ZM259.224 259.41C260.878 262.023 267.201 272.098 268.013 274.501C268.439 276.107 268.726 277.744 268.87 279.397C269.034 282.243 269.649 285.048 270.692 287.711C271.519 288.592 279.985 289.607 296.567 289.651C309.29 289.726 319.532 289.099 322.181 288.487C317.933 286.008 313.542 283.77 309.029 281.785C304.118 279.62 299.343 277.173 294.729 274.456C289.371 270.769 276.51 253.156 273.938 249.589L259.224 259.41Z" fill="#231F20"/>
<path d="M110.116 278.412C111.494 279.307 117.511 287.905 143.355 288.786C169.199 289.666 211.762 213.407 211.762 213.407L256.683 264.814L277.306 252.096C277.306 252.096 249.089 175.643 236.351 167.792C223.612 159.94 202.668 165.717 193.481 171.479C184.295 177.24 140.232 236.259 140.232 236.259L110.116 278.412Z" fill="#231F20"/>
<path d="M143.799 289.487H143.324C120.144 288.696 112.704 281.77 110.269 279.501C110.009 279.262 109.825 279.083 109.703 278.994C109.616 278.941 109.542 278.871 109.484 278.789C109.426 278.707 109.386 278.614 109.366 278.516C109.335 278.319 109.378 278.117 109.488 277.949L139.68 235.797C141.502 233.364 184.081 176.583 193.145 170.807C201.672 165.403 223.214 158.776 236.749 167.12C249.579 175.016 276.877 248.663 278.087 251.798C278.146 251.957 278.147 252.13 278.092 252.29C278.036 252.45 277.926 252.587 277.781 252.678L257.142 265.396C256.985 265.489 256.799 265.526 256.617 265.498C256.434 265.471 256.268 265.382 256.147 265.247L211.961 214.676C204.612 227.453 196.594 239.853 187.939 251.828C169.566 276.815 154.746 289.487 143.799 289.487ZM111.142 278.233L111.326 278.397C113.668 280.576 120.772 287.203 143.37 287.98H143.814C168.939 287.98 210.675 213.735 211.104 212.974C211.16 212.869 211.243 212.78 211.345 212.714C211.447 212.649 211.564 212.61 211.685 212.601C211.811 212.585 211.938 212.599 212.056 212.644C212.173 212.688 212.278 212.76 212.359 212.855L256.759 263.754L276.311 251.708C273.708 244.723 247.68 175.583 235.876 168.359C229.492 164.418 210.614 161.448 193.925 172.031C185.045 177.658 141.319 236.035 140.875 236.632L111.142 278.233Z" fill="#231F20"/>
<path d="M132.225 226.169C132.225 225.288 143.447 210.869 146.249 209.526C148.94 208.111 151.552 206.556 154.073 204.869L149.878 195.585C149.878 195.585 146.556 196.883 147.244 194.002C147.933 191.122 141.993 187.092 141.993 187.092C141.993 187.092 134.246 193.808 134.062 201.54C133.909 207.765 116.746 217.736 116.746 217.736L132.225 226.169Z" fill="white"/>
<path d="M132.225 226.856C132.091 226.856 131.96 226.826 131.842 226.766L116.378 218.333C116.261 218.268 116.163 218.173 116.094 218.059C116.026 217.945 115.99 217.815 115.99 217.683C115.99 217.551 116.026 217.422 116.094 217.308C116.163 217.194 116.261 217.099 116.378 217.034C120.971 214.318 133.22 206.227 133.312 201.466C133.511 193.51 141.181 186.748 141.503 186.539C141.639 186.438 141.806 186.383 141.977 186.383C142.149 186.383 142.316 186.438 142.452 186.539C143.095 186.972 148.775 190.943 147.994 194.226C147.857 194.794 147.994 195.047 147.994 195.107C147.994 195.167 149.035 195.107 149.525 194.958C149.709 194.887 149.913 194.888 150.095 194.96C150.278 195.033 150.425 195.171 150.505 195.346L154.7 204.63C154.771 204.788 154.784 204.965 154.737 205.131C154.689 205.297 154.585 205.442 154.44 205.541C151.892 207.253 149.249 208.827 146.525 210.258C143.998 211.467 133.48 224.975 132.914 226.348C132.896 226.457 132.854 226.56 132.791 226.65C132.727 226.741 132.644 226.816 132.546 226.871C132.439 226.889 132.329 226.884 132.225 226.856V226.856ZM118.261 217.646L131.918 225.109C134.092 221.423 143.432 210.004 145.927 208.825C148.396 207.526 150.793 206.101 153.108 204.556L149.449 196.451C149.043 196.583 148.611 196.624 148.187 196.57C147.762 196.515 147.356 196.367 146.999 196.137C146.698 195.832 146.49 195.451 146.401 195.036C146.312 194.622 146.344 194.191 146.494 193.794C146.877 192.182 144.151 189.54 142.054 188.002C140.446 189.495 134.965 195.256 134.827 201.511C134.69 207.198 122.334 215.183 118.261 217.646V217.646Z" fill="#231F20"/>
<path d="M110.346 112.728C95.2192 94.5923 70.0948 103.772 62.7458 123.4C59.8368 131.207 57.035 138.327 51.6151 144.805C46.777 150.641 39.2137 155.791 38.9228 164C38.7237 169.732 42.6432 175.031 47.6957 177.957C52.7481 180.882 58.7498 181.808 64.5371 182.121C77.6285 182.822 90.7251 180.839 102.982 176.3C107.973 174.449 113.806 171.494 116.439 166.657C119.67 160.761 116.133 156.283 114.786 150.238C113.684 145.238 115.352 140.133 116.455 135.133C118.323 126.863 115.766 119.281 110.346 112.728Z" fill="white"/>
<path d="M69.6352 183.002C67.9358 183.002 66.221 183.002 64.5215 182.867C59.4232 182.584 52.8703 181.852 47.2514 178.598C41.6324 175.344 37.912 169.523 38.0651 163.971C38.3866 157.507 42.7654 153.029 47.0523 148.551C48.4609 147.059 49.7929 145.745 50.9718 144.312C56.1773 138.043 58.9332 131.282 61.98 123.117C66.0066 112.355 75.5144 104.28 86.2011 102.533C95.617 101.041 104.39 104.429 110.882 112.22C116.883 119.415 119.027 127.147 117.235 135.297C117.052 136.118 116.853 136.954 116.654 137.775C115.689 141.849 114.679 146.074 115.567 150.074C115.941 151.621 116.407 153.146 116.96 154.641C118.338 158.627 119.639 162.403 117.143 166.971C114.939 171.001 110.284 174.359 103.288 176.957C92.5367 180.937 81.1351 182.985 69.6352 183.002V183.002ZM90.5339 103.683C89.1639 103.687 87.7967 103.802 86.4461 104.026C76.2952 105.683 67.2468 113.385 63.4804 123.654C60.4183 131.953 57.5706 138.819 52.2273 145.283C51.0024 146.775 49.5785 148.268 48.2159 149.611C44.128 153.806 39.9024 158.134 39.7033 164.03C39.5196 169.046 42.7654 174.255 48.0934 177.33C53.4215 180.405 59.7447 181.121 64.6746 181.375C77.619 182.04 90.564 180.078 102.69 175.613C109.32 173.15 113.714 170.016 115.735 166.314C117.924 162.314 116.776 159 115.444 155.164C114.872 153.616 114.397 152.036 114.02 150.432C113.056 146.104 114.097 141.715 115.107 137.491C115.306 136.67 115.505 135.849 115.689 135.028C117.373 127.371 115.337 120.102 109.641 113.191C104.512 106.981 97.8217 103.683 90.5339 103.683V103.683Z" fill="#231F20"/>
<path d="M54.1414 167.732C48.0173 175.434 49.1349 211.213 63.6951 229.841C78.2554 248.469 85.8493 272.74 118.92 285.158L145.085 233.095C145.085 233.095 123.467 214.467 122.594 208.541C121.722 202.615 125.917 193.614 122.901 185.763C110.116 152.865 60.2197 160.045 54.1414 167.732Z" fill="#F2C94C"/>
<path d="M95.7092 159.91L95.6327 174.374C95.6327 174.374 96.8422 180.345 86.9364 178.076C77.0305 175.807 72.6211 163.911 72.6211 163.911L73.5091 142.775C73.5091 142.775 89.0033 134.685 86.7986 119.146C88.7519 122.738 91.7926 125.657 95.5071 127.505C99.2216 129.353 103.43 130.041 107.56 129.475C107.56 129.475 107.804 143.357 106.626 150.835C105.447 158.313 95.7092 159.91 95.7092 159.91Z" fill="white"/>
<path d="M90.9019 179.345C89.5064 179.321 88.1187 179.136 86.7681 178.792C76.5713 176.434 72.0854 164.672 71.9016 164.164C71.8857 164.071 71.8857 163.975 71.9016 163.881L72.7896 142.745C72.7946 142.614 72.8356 142.487 72.9083 142.376C72.981 142.266 73.0828 142.177 73.203 142.118C73.3408 142.043 88.1919 134.073 86.0791 119.251C86.0568 119.076 86.0983 118.9 86.1964 118.753C86.2944 118.605 86.4426 118.496 86.615 118.445C86.7884 118.387 86.9776 118.393 87.1469 118.461C87.3161 118.53 87.4537 118.657 87.5336 118.818C89.392 122.275 92.3037 125.086 95.868 126.863C99.4323 128.641 103.474 129.298 107.437 128.744C107.544 128.731 107.652 128.741 107.755 128.771C107.858 128.802 107.953 128.854 108.034 128.923C108.117 128.991 108.184 129.076 108.232 129.171C108.279 129.266 108.306 129.37 108.31 129.475C108.31 130.043 108.539 143.491 107.376 150.94C106.304 157.806 98.7255 160.015 96.4596 160.522L96.383 174.374C96.4848 175.027 96.4284 175.693 96.2184 176.32C96.0083 176.948 95.6505 177.518 95.1735 177.986C93.9894 178.971 92.4539 179.46 90.9019 179.345V179.345ZM73.3868 163.791C73.9073 165.075 78.2708 175.3 87.1661 177.359C90.5957 178.151 93.03 178.001 94.1783 176.912C94.4804 176.592 94.7047 176.21 94.8346 175.794C94.9645 175.378 94.9966 174.938 94.9285 174.509V159.91C94.9328 159.735 94.9991 159.566 95.1163 159.433C95.2335 159.3 95.3943 159.21 95.5716 159.179C95.6634 159.179 104.758 157.567 105.86 150.716C106.608 143.94 106.92 137.125 106.794 130.311C103.149 130.685 99.4684 130.113 96.1236 128.653C92.7789 127.192 89.8894 124.897 87.7479 121.997C87.8398 134.64 76.4948 141.894 74.2441 143.208L73.3868 163.791Z" fill="#231F20"/>
<path d="M78.1941 141.984C77.6752 140.351 76.5968 138.94 75.1392 137.99C73.6817 137.039 71.9334 136.604 70.1868 136.76C65.8845 137.416 65.9458 142.163 67.2931 145.223C67.7054 146.151 68.3023 146.991 69.0493 147.693C69.7962 148.395 70.6785 148.946 71.6451 149.314C72.6117 149.681 73.6435 149.859 74.6809 149.836C75.7182 149.812 76.7406 149.589 77.6889 149.178" fill="white"/>
<path d="M74.4892 150.581C72.8069 150.584 71.1609 150.105 69.7561 149.202C68.3513 148.3 67.2499 147.015 66.589 145.506C66.0514 144.396 65.7612 143.188 65.7374 141.961C65.7137 140.734 65.957 139.515 66.4512 138.386C66.8226 137.742 67.3448 137.193 67.9754 136.783C68.6061 136.373 69.3271 136.115 70.0798 136.028C72.0132 135.841 73.9532 136.315 75.5676 137.368C77.1821 138.422 78.3705 139.99 78.9292 141.805C78.9534 141.903 78.9574 142.004 78.9413 142.104C78.9251 142.203 78.889 142.299 78.8349 142.385C78.7809 142.471 78.71 142.545 78.6264 142.605C78.5428 142.664 78.448 142.707 78.3474 142.73C78.2469 142.754 78.1426 142.758 78.0405 142.742C77.9384 142.726 77.8405 142.691 77.7523 142.638C77.6642 142.585 77.5875 142.516 77.5268 142.435C77.466 142.353 77.4223 142.261 77.3982 142.163C76.9109 140.719 75.9426 139.475 74.6473 138.628C73.3519 137.782 71.8036 137.381 70.2482 137.491C69.7274 137.542 69.227 137.716 68.7898 137.996C68.3526 138.277 67.9915 138.657 67.7373 139.103C67.3496 140.033 67.1669 141.031 67.2012 142.034C67.2355 143.037 67.486 144.022 67.9363 144.924C68.3054 145.765 68.8425 146.525 69.5164 147.161C70.1903 147.797 70.9874 148.296 71.8612 148.628C72.735 148.96 73.6679 149.119 74.6055 149.096C75.543 149.072 76.4664 148.867 77.3216 148.492C77.5069 148.415 77.7155 148.411 77.9038 148.48C78.0921 148.55 78.2455 148.688 78.3321 148.865C78.3727 148.955 78.3945 149.052 78.3964 149.15C78.3984 149.249 78.3803 149.347 78.3433 149.438C78.3063 149.53 78.2511 149.613 78.1809 149.684C78.1106 149.755 78.0268 149.811 77.9341 149.85C76.849 150.321 75.6767 150.569 74.4892 150.581V150.581Z" fill="#231F20"/>
<path d="M98.0975 136.954C98.0975 136.954 103.579 144.297 102.4 145.656C101.221 147.014 97.8066 146.283 97.8066 146.283" fill="white"/>
<path d="M99.7053 147.223C98.986 147.215 98.2687 147.145 97.5619 147.014C97.3588 146.972 97.1811 146.854 97.0677 146.685C96.9542 146.515 96.9145 146.309 96.9571 146.111C96.9998 145.913 97.1213 145.74 97.295 145.629C97.4687 145.519 97.6804 145.48 97.8834 145.521C98.8786 145.73 101.145 145.909 101.803 145.148C102.048 144.462 100.027 140.805 97.47 137.357C97.4088 137.279 97.3645 137.191 97.3398 137.096C97.315 137.001 97.3104 136.903 97.3262 136.806C97.342 136.71 97.3778 136.617 97.4315 136.535C97.4852 136.453 97.5556 136.382 97.6384 136.327C97.8016 136.214 98.0035 136.168 98.2009 136.199C98.3983 136.23 98.5756 136.334 98.6949 136.491C101.359 140.058 104.268 144.626 102.966 146.104C102.536 146.505 102.022 146.813 101.46 147.006C100.897 147.199 100.299 147.273 99.7053 147.223Z" fill="#231F20"/>
<path d="M93.759 135.785C94.4267 135.766 94.9313 134.528 94.8859 133.02C94.8405 131.512 94.2625 130.305 93.5947 130.324C92.927 130.343 92.4225 131.581 92.4679 133.089C92.5133 134.597 93.0913 135.804 93.759 135.785Z" fill="#231F20"/>
<path d="M104.063 136.953C104.73 136.934 105.235 135.696 105.19 134.188C105.144 132.68 104.566 131.473 103.898 131.492C103.231 131.511 102.726 132.749 102.772 134.257C102.817 135.765 103.395 136.972 104.063 136.953Z" fill="#231F20"/>
<path d="M95.7094 159.911C95.7094 159.911 90.0751 160.911 83.3691 156.627C83.3691 156.627 85.8494 166.792 95.6175 167.732L95.7094 159.911Z" fill="#231F20"/>
<path d="M95.6635 168.478C85.4055 167.493 82.7262 156.895 82.6956 156.791C82.6575 156.647 82.6665 156.494 82.7213 156.355C82.7762 156.216 82.8743 156.097 83.0018 156.015C83.1284 155.931 83.2777 155.887 83.4305 155.887C83.5833 155.887 83.7326 155.931 83.8592 156.015C87.2699 158.408 91.4451 159.536 95.6329 159.194C95.7434 159.179 95.8561 159.185 95.964 159.213C96.0719 159.242 96.1728 159.291 96.2606 159.358C96.348 159.429 96.4181 159.518 96.4658 159.619C96.5134 159.72 96.5375 159.829 96.5362 159.94V167.762C96.5367 167.863 96.5151 167.964 96.4728 168.056C96.4306 168.149 96.3687 168.232 96.2912 168.299C96.2061 168.372 96.1059 168.425 95.9975 168.456C95.8891 168.487 95.7752 168.495 95.6635 168.478ZM84.7472 158.284C85.8801 161.015 88.7432 165.911 94.9133 166.896V160.746C91.3565 160.855 87.8383 160.002 84.7472 158.284V158.284Z" fill="#231F20"/>
<path d="M89.5391 141.984C89.5391 141.984 89.539 156.656 102.752 151.925Z" fill="white"/>
<path d="M97.9754 153.612C96.3061 153.65 94.6669 153.175 93.2904 152.253C88.8351 149.268 88.6973 142.282 88.6973 141.984C88.7012 141.787 88.7831 141.6 88.9258 141.46C89.0685 141.321 89.261 141.241 89.4628 141.238C89.6658 141.238 89.8605 141.316 90.0041 141.456C90.1477 141.596 90.2283 141.786 90.2283 141.984C90.2283 141.984 90.2283 148.447 94.0866 151.029C96.1229 152.417 98.9247 152.522 102.415 151.223C102.605 151.162 102.811 151.176 102.99 151.261C103.169 151.346 103.307 151.496 103.375 151.678C103.443 151.861 103.435 152.062 103.353 152.239C103.271 152.416 103.121 152.555 102.936 152.626C101.353 153.232 99.6749 153.565 97.9754 153.612V153.612Z" fill="#231F20"/>
<path d="M180.59 213.347C179.917 213.123 162.616 208.869 162.616 208.869C162.616 208.869 191.522 164.284 192.195 164.09C192.869 163.896 216.998 159.164 216.998 159.164L180.59 213.347Z" fill="white"/>
<path d="M180.59 214.094H180.345C179.825 213.914 169.337 211.347 162.432 209.616C162.315 209.587 162.207 209.531 162.117 209.453C162.026 209.376 161.955 209.279 161.911 209.17C161.866 209.061 161.848 208.943 161.859 208.826C161.87 208.709 161.909 208.596 161.973 208.496C191.063 163.717 191.629 163.493 191.951 163.373C192.655 163.149 212.819 159.224 216.861 158.433C217.009 158.405 217.163 158.42 217.303 158.477C217.442 158.534 217.561 158.63 217.645 158.753C217.728 158.876 217.773 159.021 217.772 159.168C217.771 159.316 217.726 159.46 217.642 159.582L181.233 213.765C181.161 213.866 181.064 213.948 180.952 214.005C180.841 214.062 180.717 214.092 180.59 214.094V214.094ZM163.825 208.436C167.347 209.302 177.605 211.825 180.253 212.496L215.376 160.254C206.342 162.015 194.293 164.388 192.609 164.732C190.879 166.911 174.803 191.51 163.825 208.436Z" fill="#231F20"/>
<path d="M162.616 208.914L141.993 197.988L169.904 158.552L192.195 164.105L162.616 208.914Z" fill="white"/>
<path d="M162.616 209.66C162.488 209.659 162.362 209.628 162.248 209.571L141.625 198.645C141.533 198.595 141.452 198.526 141.389 198.444C141.326 198.362 141.281 198.267 141.258 198.167C141.229 198.066 141.223 197.96 141.242 197.857C141.26 197.753 141.302 197.655 141.365 197.57L169.276 158.134C169.363 158.009 169.487 157.912 169.633 157.859C169.778 157.806 169.937 157.797 170.087 157.836L192.379 163.373C192.499 163.401 192.61 163.456 192.703 163.533C192.797 163.611 192.869 163.71 192.915 163.821C192.955 163.934 192.969 164.054 192.956 164.173C192.943 164.292 192.903 164.406 192.839 164.508L163.259 209.287C163.192 209.397 163.098 209.489 162.986 209.554C162.874 209.619 162.746 209.656 162.616 209.66V209.66ZM143.11 197.719L162.401 207.929L191.032 164.567L170.271 159.403L143.11 197.719Z" fill="#231F20"/>
<path d="M78.1943 219.781C78.1943 219.781 98.5878 252.619 114.679 258.589C130.77 264.56 176.579 218.706 176.579 218.706C176.579 218.706 182.183 221.213 187.955 213.825C191.48 209.253 194.282 204.191 196.268 198.809C196.268 198.809 199.254 192.838 198.121 189.241C197.156 186.121 194.11 192.226 194.11 192.226C194.11 192.226 188.981 200.003 185.934 199.272C182.887 198.54 185.49 190.614 184.571 188.286C183.653 185.957 179.151 194.256 178.095 197.794C177.038 201.331 171.42 207.854 168.985 209.914C166.551 211.974 130.25 236.2 127.188 235.976C124.126 235.752 102.063 209.586 102.063 209.586L78.1943 219.781Z" fill="white"/>
<path d="M117.864 259.798C116.685 259.817 115.512 259.625 114.404 259.231C98.2664 253.261 78.3782 221.527 77.5361 220.169C77.4908 220.073 77.4673 219.968 77.4673 219.863C77.4673 219.757 77.4908 219.653 77.5361 219.557C77.5693 219.458 77.6232 219.367 77.6944 219.29C77.7656 219.213 77.8524 219.151 77.9495 219.109L101.742 208.899C101.896 208.835 102.066 208.821 102.229 208.858C102.391 208.896 102.537 208.984 102.645 209.108C113.209 221.721 125.305 234.946 127.234 235.244C130.296 235.244 165.387 212.153 168.572 209.466C171.037 207.362 176.472 200.958 177.452 197.689C178.187 195.197 181.846 187.33 184.143 187.241C184.423 187.229 184.7 187.311 184.926 187.474C185.151 187.637 185.313 187.871 185.383 188.136C185.705 189.661 185.731 191.23 185.459 192.764C185.245 195.122 184.954 198.346 186.225 198.66C187.924 199.048 191.553 194.973 193.559 191.928C194.339 190.345 195.962 187.539 197.524 187.659C197.983 187.659 198.596 187.972 198.933 189.062C200.142 192.958 197.172 198.928 197.034 199.182C195.047 204.616 192.218 209.72 188.644 214.317C183.53 220.885 178.478 220.094 176.87 219.616C172.507 223.826 135.593 259.798 117.864 259.798ZM79.3121 220.198C82.3742 225.035 100.609 252.634 114.939 257.918C121.247 260.231 133.771 254.171 151.164 240.364C164.438 229.826 175.906 218.422 176.028 218.303C176.137 218.194 176.279 218.121 176.432 218.094C176.586 218.068 176.744 218.088 176.885 218.154C177.1 218.243 182.045 220.288 187.343 213.496C190.812 208.982 193.577 203.992 195.549 198.689C195.549 198.54 198.412 192.913 197.386 189.569C197.36 189.427 197.297 189.293 197.202 189.181C196.191 190.217 195.377 191.42 194.799 192.734C193.849 194.226 189.149 200.988 185.75 200.197C183.224 199.585 183.561 195.943 183.852 192.734C184.026 191.477 184.052 190.205 183.928 188.942C182.673 189.868 179.733 195.137 178.815 198.197C177.712 201.899 172.063 208.466 169.491 210.675C167.485 212.392 131.214 236.812 127.127 236.812C123.927 236.588 107.422 217.243 101.834 210.586L79.3121 220.198Z" fill="#231F20"/>
<path d="M101.987 210.317C101.843 210.318 101.702 210.279 101.581 210.205C101.459 210.131 101.361 210.025 101.298 209.899L89.4167 185.868C89.3294 185.692 89.3174 185.489 89.3835 185.304C89.4495 185.119 89.5881 184.968 89.7688 184.883C89.9495 184.797 90.1575 184.786 90.347 184.85C90.5365 184.915 90.692 185.05 90.7793 185.226L102.676 209.257C102.72 209.345 102.745 209.439 102.752 209.536C102.758 209.633 102.744 209.73 102.711 209.822C102.678 209.914 102.627 209.998 102.561 210.07C102.494 210.143 102.413 210.201 102.323 210.243C102.22 210.296 102.104 210.321 101.987 210.317V210.317Z" fill="#231F20"/>
<path d="M78.194 220.527C78.0505 220.527 77.9099 220.488 77.788 220.414C77.6662 220.34 77.5682 220.235 77.505 220.109C77.3672 219.81 62.7152 190.375 59.7602 186.733C59.6351 186.579 59.5777 186.382 59.6007 186.186C59.6236 185.991 59.725 185.812 59.8827 185.688C59.9605 185.626 60.0502 185.58 60.1468 185.552C60.2433 185.524 60.3446 185.515 60.4446 185.527C60.5446 185.538 60.6412 185.568 60.7288 185.617C60.8164 185.665 60.8932 185.73 60.9545 185.808C64.0165 189.584 78.2705 218.243 78.883 219.467C78.9679 219.644 78.9786 219.846 78.9128 220.03C78.847 220.214 78.7099 220.365 78.5308 220.452C78.4271 220.505 78.311 220.531 78.194 220.527Z" fill="#231F20"/>
<path d="M147.244 288.86C147.041 288.89 146.835 288.84 146.669 288.721C146.504 288.602 146.394 288.424 146.364 288.226C146.334 288.028 146.385 287.826 146.507 287.665C146.629 287.504 146.812 287.397 147.015 287.368C164.867 281.681 191.599 243.961 191.874 243.573C191.991 243.415 192.167 243.307 192.365 243.273C192.562 243.24 192.766 243.283 192.931 243.394C193.014 243.448 193.086 243.518 193.141 243.599C193.196 243.681 193.235 243.772 193.253 243.868C193.272 243.964 193.27 244.063 193.249 244.158C193.228 244.254 193.187 244.344 193.13 244.424C192.027 245.991 165.831 282.934 147.489 288.786L147.244 288.86Z" fill="white"/>
<path d="M141.993 187.032C143.893 185.671 145.948 184.529 148.117 183.629C153.123 181.479 159.799 182.002 158.13 184.106C156.461 186.211 145.147 190.793 145.147 190.793C145.147 190.793 146.127 195.824 140.217 198.048" fill="white"/>
<path d="M140.155 198.794C139.952 198.83 139.743 198.785 139.574 198.67C139.404 198.556 139.289 198.38 139.252 198.182C139.216 197.984 139.261 197.78 139.379 197.615C139.497 197.45 139.677 197.337 139.88 197.301C145.101 195.346 144.381 191.062 144.335 190.883C144.307 190.716 144.337 190.544 144.42 190.396C144.503 190.247 144.635 190.129 144.794 190.062C149.265 188.256 156.323 185.032 157.456 183.614C157.502 183.561 157.539 183.5 157.563 183.435C157.135 182.808 152.526 182.479 148.377 184.256C146.322 185.139 144.367 186.23 142.544 187.51C142.399 187.643 142.207 187.717 142.008 187.717C141.809 187.717 141.617 187.643 141.472 187.51C141.333 187.373 141.255 187.187 141.255 186.995C141.255 186.802 141.333 186.617 141.472 186.48C143.415 185.048 145.527 183.85 147.765 182.912C151.914 181.136 157.487 180.972 158.788 182.584C159.011 182.866 159.123 183.217 159.103 183.573C159.083 183.929 158.934 184.267 158.681 184.524C157.15 186.539 148.331 190.241 145.912 191.241C145.983 192.901 145.484 194.536 144.494 195.888C143.504 197.24 142.079 198.231 140.446 198.704C140.355 198.75 140.257 198.781 140.155 198.794V198.794Z" fill="#231F20"/>
<path d="M78.332 276.8C78.1689 276.798 78.0103 276.747 77.8785 276.654C77.7467 276.56 77.6483 276.428 77.5971 276.277C69.008 249.932 27.6698 177.389 27.2258 176.658C27.1541 176.488 27.1489 176.299 27.2112 176.126C27.2735 175.953 27.399 175.809 27.5637 175.72C27.7284 175.631 27.9208 175.605 28.1041 175.646C28.2875 175.687 28.449 175.792 28.5578 175.942C28.9865 176.673 70.4012 249.35 79.0822 275.829C79.1397 276.017 79.1189 276.22 79.0244 276.393C78.9298 276.566 78.7691 276.696 78.577 276.755C78.4994 276.786 78.416 276.801 78.332 276.8V276.8Z" fill="#D1D3D4"/>
<path d="M403.066 307.399H1.36621V317.116H403.066V307.399Z" fill="white"/>
<path d="M403.051 317.847H1.36635C1.16332 317.847 0.968609 317.769 0.825046 317.629C0.681482 317.489 0.60083 317.299 0.60083 317.101V307.399C0.60083 307.201 0.681482 307.011 0.825046 306.871C0.968609 306.731 1.16332 306.653 1.36635 306.653H403.051C403.254 306.653 403.448 306.731 403.592 306.871C403.736 307.011 403.816 307.201 403.816 307.399V317.101C403.816 317.299 403.736 317.489 403.592 317.629C403.448 317.769 403.254 317.847 403.051 317.847ZM2.11656 316.355H402.301V308.13H2.11656V316.355Z" fill="#231F20"/>
<path d="M121.308 68.5754C121.195 68.5757 121.082 68.5518 120.979 68.5054C120.876 68.459 120.785 68.3912 120.711 68.3068C120.584 68.1539 120.524 67.9585 120.544 67.7629C120.564 67.5672 120.663 67.3872 120.818 67.2619L155.206 39.5882C155.349 39.4515 155.541 39.3749 155.741 39.3749C155.942 39.3749 156.134 39.4515 156.277 39.5882C156.404 39.741 156.464 39.9365 156.444 40.1321C156.424 40.3278 156.326 40.5078 156.17 40.6331L121.798 68.4112C121.659 68.5198 121.486 68.5779 121.308 68.5754Z" fill="#D1D3D4"/>
<path d="M248.293 86.4871C248.137 86.4856 247.986 86.4378 247.858 86.35C247.731 86.2622 247.635 86.1387 247.581 85.9959C247.528 85.8531 247.521 85.6979 247.56 85.5509C247.6 85.404 247.685 85.2723 247.803 85.1736L291.652 49.3501C291.81 49.2237 292.011 49.1624 292.214 49.1791C292.418 49.1958 292.606 49.2893 292.739 49.4396C292.869 49.593 292.932 49.7897 292.915 49.9878C292.898 50.1858 292.802 50.3694 292.647 50.4994L248.783 86.3229C248.643 86.4294 248.471 86.4872 248.293 86.4871V86.4871Z" fill="#D1D3D4"/>
<path d="M138.502 108.772C138.391 108.772 138.281 108.748 138.18 108.702C138.08 108.655 137.991 108.588 137.92 108.504C137.791 108.35 137.728 108.154 137.745 107.956C137.762 107.758 137.858 107.574 138.012 107.444L165.127 85.1736C165.204 85.1099 165.294 85.0617 165.39 85.0317C165.487 85.0017 165.589 84.9906 165.69 84.9989C165.79 85.0072 165.889 85.0348 165.979 85.0802C166.069 85.1255 166.149 85.1877 166.214 85.2632C166.279 85.3386 166.329 85.4259 166.36 85.52C166.39 85.6141 166.402 85.7132 166.393 85.8116C166.385 85.91 166.356 86.0058 166.31 86.0935C166.263 86.1813 166.2 86.2592 166.122 86.3229L138.992 108.593C138.856 108.708 138.682 108.772 138.502 108.772V108.772Z" fill="#D1D3D4"/>
<path d="M314.878 211.869C314.768 211.869 314.66 211.845 314.56 211.802C314.46 211.758 314.37 211.695 314.296 211.616C314.165 211.464 314.099 211.269 314.113 211.071C314.128 210.873 314.221 210.688 314.373 210.556L331.704 195.824C331.778 195.754 331.867 195.699 331.963 195.664C332.06 195.628 332.163 195.612 332.266 195.616C332.37 195.62 332.471 195.645 332.564 195.688C332.657 195.732 332.741 195.793 332.809 195.869C332.877 195.944 332.929 196.033 332.961 196.128C332.994 196.224 333.006 196.325 332.997 196.426C332.988 196.526 332.959 196.624 332.91 196.712C332.861 196.801 332.795 196.88 332.714 196.943L315.383 211.69C315.241 211.805 315.062 211.869 314.878 211.869V211.869Z" fill="#D1D3D4"/>
<path d="M258.551 160.836C258.391 160.838 258.235 160.792 258.104 160.703C257.973 160.615 257.874 160.489 257.82 160.342C257.766 160.196 257.76 160.037 257.803 159.887C257.846 159.738 257.937 159.605 258.061 159.507L307.391 119.49C307.467 119.426 307.555 119.377 307.651 119.347C307.746 119.317 307.847 119.305 307.947 119.314C308.046 119.322 308.144 119.35 308.232 119.395C308.321 119.441 308.399 119.504 308.463 119.579C308.593 119.733 308.656 119.929 308.638 120.127C308.621 120.325 308.525 120.509 308.371 120.639L259.041 160.657C258.904 160.77 258.731 160.833 258.551 160.836V160.836Z" fill="#D1D3D4"/>
</svg>
