<svg width="586" height="403" viewBox="0 0 586 403" fill="none" xmlns="http://www.w3.org/2000/svg">
<path d="M386.877 336.846L438.929 310.859C426.96 294.19 426.066 284.632 424.03 271.439C417.466 229.077 371.422 202.021 335.617 179.738C332.603 177.805 329.478 176.02 326.256 174.391C322.461 172.533 311.869 166.771 309.1 172.092C306.449 177.198 313.041 186.515 316.352 190.258C314.176 187.291 311.767 184.472 309.144 181.823C308.332 180.835 307.207 180.098 305.921 179.711C303.519 179.216 301.204 181.302 300.838 183.521C300.684 185.782 301.297 188.032 302.596 189.964C305.265 194.787 308.598 199.279 312.514 203.331C309.892 200.658 300.164 190.432 300.369 200.738C300.539 207.237 303.507 213.413 308.632 217.929C306.39 216.123 303.973 214.508 301.409 213.103C301.048 212.845 300.633 212.659 300.189 212.555C299.745 212.452 299.283 212.433 298.831 212.501C298.349 212.713 297.936 213.035 297.63 213.435C297.325 213.836 297.138 214.302 297.087 214.787C295.476 221.391 299.49 226.11 302.259 231.764C304.398 236.135 305.658 240.306 308.383 244.543C318.286 259.889 328.57 270.53 339.895 285.033C342.81 288.656 386.76 336.913 386.877 336.846Z" fill="white"/>
<path d="M386.95 337.514C386.467 337.514 385.485 336.498 379.318 329.721C375.128 325.149 369.532 319.027 363.847 312.744C358.544 306.916 341.125 287.707 339.294 285.354C335.485 280.475 331.793 275.997 328.204 271.706C320.768 263.134 313.918 254.152 307.694 244.811C306.067 242.151 304.681 239.375 303.548 236.509C302.933 235.026 302.273 233.502 301.526 231.964C300.955 230.802 300.325 229.652 299.71 228.542C297.278 224.171 294.978 220.027 296.326 214.573C296.382 213.968 296.62 213.389 297.012 212.899C297.405 212.408 297.938 212.026 298.552 211.793C299.104 211.694 299.672 211.703 300.22 211.818C300.768 211.933 301.283 212.152 301.731 212.461C302.464 212.876 303.196 213.303 303.929 213.798C301.174 209.897 299.654 205.378 299.534 200.738C299.534 197.877 300.164 196.22 301.629 195.699C302.845 195.271 304.354 195.699 306.024 196.781C304.506 194.693 303.126 192.524 301.893 190.285C300.511 188.24 299.871 185.85 300.061 183.454C300.193 182.713 300.487 182.003 300.925 181.367C301.362 180.731 301.936 180.181 302.61 179.751C303.096 179.427 303.651 179.2 304.239 179.085C304.827 178.97 305.435 178.969 306.024 179.083C307.328 179.438 308.482 180.147 309.335 181.115C307.87 177.893 307.02 174.431 308.383 171.757C308.661 171.204 309.066 170.712 309.572 170.315C310.078 169.919 310.671 169.626 311.313 169.458C315.488 168.215 322.183 171.557 325.787 173.348L326.622 173.762C329.87 175.413 333.019 177.22 336.056 179.176L340.232 181.77C375.069 203.398 418.404 230.307 424.762 271.332L425.114 273.564C426.93 285.475 428.351 294.952 439.559 310.472C439.616 310.548 439.654 310.635 439.672 310.726C439.689 310.817 439.685 310.911 439.66 311C439.635 311.09 439.59 311.174 439.527 311.246C439.464 311.319 439.385 311.378 439.295 311.421L387.243 337.421C387.158 337.477 387.056 337.51 386.95 337.514V337.514ZM299.373 213.023C299.261 213.009 299.148 213.009 299.036 213.023C298.333 213.223 297.981 214.106 297.805 214.827C296.589 219.813 298.757 223.743 301.072 227.901C301.687 229.024 302.347 230.187 302.933 231.39C303.68 232.94 304.398 234.491 304.984 235.988C306.082 238.791 307.434 241.505 309.027 244.102C315.2 253.388 321.996 262.317 329.376 270.837C332.965 275.155 336.701 279.62 340.495 284.512C343.63 288.522 382.98 331.592 387.038 335.937L437.889 310.539C426.901 295.059 425.465 285.608 423.649 273.684L423.297 271.452C417.042 231.015 373.985 204.28 339.397 182.812L335.207 180.139C332.216 178.208 329.116 176.423 325.919 174.792L325.069 174.364C321.904 172.8 315.327 169.512 311.737 170.581C311.304 170.706 310.905 170.913 310.566 171.19C310.227 171.466 309.958 171.806 309.774 172.185C308.031 175.527 310.785 181.342 314.023 185.954C315.048 187.183 316.03 188.427 316.953 189.71C317.061 189.852 317.103 190.027 317.07 190.197C317.037 190.368 316.932 190.519 316.777 190.619C316.624 190.723 316.433 190.768 316.245 190.746C316.056 190.723 315.884 190.634 315.766 190.499C315.634 190.338 314.404 188.935 312.953 186.889C311.566 185.232 310.101 183.632 308.558 182.09C307.84 181.21 306.85 180.545 305.716 180.179C305.324 180.109 304.92 180.114 304.529 180.192C304.139 180.27 303.77 180.42 303.445 180.633C302.935 180.961 302.501 181.378 302.169 181.86C301.837 182.342 301.614 182.879 301.512 183.441C301.394 185.561 301.987 187.664 303.211 189.469C305.85 194.218 309.138 198.643 312.997 202.636V202.636C313.116 202.77 313.173 202.941 313.157 203.113C313.14 203.284 313.052 203.443 312.911 203.557C312.769 203.671 312.585 203.73 312.396 203.723C312.207 203.716 312.029 203.643 311.898 203.518V203.518V203.438C305.877 197.236 303.358 196.38 302.303 196.755C301.512 197.035 301.101 198.372 301.145 200.524C301.191 203.672 301.919 206.781 303.286 209.672C304.654 212.563 306.635 215.178 309.115 217.367C309.246 217.489 309.321 217.652 309.324 217.822C309.328 217.992 309.26 218.158 309.135 218.284C309.01 218.41 308.836 218.488 308.65 218.502C308.464 218.515 308.279 218.463 308.133 218.356C305.92 216.584 303.537 214.996 301.014 213.611C300.527 213.297 299.964 213.095 299.373 213.023V213.023Z" fill="#231F20"/>
<path d="M266.696 296.838L367.212 319.417C371.266 320.328 375.361 318.067 376.359 314.368L429.274 118.241C430.272 114.542 427.795 110.805 423.741 109.895L323.225 87.3161C319.171 86.4055 315.076 88.6659 314.078 92.3649L261.163 288.492C260.165 292.191 262.642 295.928 266.696 296.838Z" fill="white"/>
<path d="M369.019 320.31C368.342 320.308 367.668 320.232 367.012 320.083L266.498 297.519C264.365 297.035 262.529 295.8 261.392 294.083C260.256 292.367 259.911 290.31 260.433 288.362L313.319 92.2341C313.85 90.2874 315.203 88.6113 317.083 87.5718C318.963 86.5324 321.218 86.2142 323.355 86.6866L423.868 109.264C424.929 109.498 425.928 109.92 426.808 110.508C427.689 111.095 428.433 111.836 428.999 112.687C429.564 113.538 429.939 114.483 430.102 115.467C430.265 116.452 430.212 117.455 429.948 118.421L377.047 314.549C376.605 316.189 375.575 317.647 374.12 318.691C372.665 319.735 370.87 320.305 369.019 320.31V320.31ZM266.849 296.249L367.363 318.813C368.234 319.009 369.138 319.046 370.024 318.923C370.911 318.8 371.762 318.519 372.529 318.095C373.296 317.672 373.965 317.115 374.496 316.456C375.027 315.797 375.411 315.049 375.626 314.255L428.527 118.1C428.947 116.502 428.658 114.816 427.722 113.412C426.786 112.007 425.28 110.997 423.531 110.601L323.018 87.9833C322.145 87.7875 321.239 87.7505 320.351 87.8743C319.463 87.9981 318.61 88.2804 317.841 88.7049C317.073 89.1294 316.403 89.6879 315.871 90.3485C315.339 91.0091 314.955 91.7589 314.74 92.555L261.854 288.669C261.42 290.275 261.703 291.973 262.639 293.389C263.576 294.805 265.09 295.824 266.849 296.222V296.249Z" fill="#231F20"/>
<path d="M273.308 267.229L376.413 290.389L419.918 129.139L316.813 105.979L273.308 267.229Z" fill="#E6E7E8"/>
<path d="M308.886 299.531L328.502 303.937C330.993 304.497 333.509 303.108 334.122 300.836L335.971 293.982C336.584 291.71 335.062 289.414 332.572 288.855L312.955 284.448C310.464 283.889 307.948 285.277 307.335 287.55L305.486 294.403C304.873 296.676 306.395 298.971 308.886 299.531Z" fill="white"/>
<path d="M329.625 304.75C329.195 304.748 328.767 304.698 328.35 304.603L308.734 300.205C307.35 299.889 306.158 299.087 305.42 297.972C304.682 296.858 304.457 295.522 304.793 294.257L306.639 287.413C306.986 286.15 307.865 285.063 309.087 284.389C310.308 283.715 311.772 283.51 313.158 283.817L332.76 288.228C333.447 288.38 334.094 288.654 334.665 289.035C335.235 289.416 335.717 289.896 336.083 290.448C336.45 291 336.693 291.612 336.799 292.249C336.905 292.887 336.871 293.538 336.701 294.163L334.855 301.008C334.569 302.076 333.898 303.026 332.95 303.705C332.001 304.384 330.83 304.752 329.625 304.75V304.75ZM309.115 298.909L328.731 303.307C329.235 303.42 329.758 303.44 330.269 303.366C330.781 303.292 331.272 303.126 331.713 302.877C332.153 302.628 332.535 302.301 332.836 301.916C333.136 301.531 333.35 301.095 333.463 300.633L335.309 293.789C335.431 293.33 335.451 292.853 335.369 292.387C335.288 291.92 335.105 291.473 334.833 291.072C334.56 290.67 334.203 290.322 333.782 290.047C333.361 289.772 332.884 289.577 332.379 289.471L312.777 285.06C312.273 284.951 311.751 284.933 311.239 285.009C310.728 285.084 310.237 285.25 309.797 285.499C309.356 285.747 308.973 286.072 308.67 286.456C308.367 286.839 308.15 287.273 308.031 287.734L306.185 294.578C306.065 295.038 306.046 295.515 306.128 295.981C306.211 296.448 306.394 296.895 306.666 297.298C306.938 297.7 307.294 298.049 307.714 298.326C308.135 298.602 308.611 298.8 309.115 298.909V298.909Z" fill="#E6E7E8"/>
<path d="M389.939 112.62H389.763L360.463 106.029C360.37 106.009 360.283 105.972 360.206 105.921C360.129 105.869 360.064 105.804 360.015 105.729C359.966 105.655 359.933 105.572 359.92 105.486C359.906 105.399 359.912 105.312 359.936 105.227C359.981 105.056 360.099 104.907 360.264 104.815C360.428 104.722 360.626 104.693 360.815 104.733L390.115 111.323C390.304 111.367 390.467 111.477 390.568 111.63C390.669 111.782 390.701 111.965 390.657 112.138C390.612 112.279 390.517 112.403 390.387 112.49C390.258 112.577 390.1 112.623 389.939 112.62V112.62Z" fill="#E6E7E8"/>
<path d="M356.464 105.107H356.288L352.362 104.225C352.173 104.184 352.011 104.076 351.909 103.926C351.808 103.776 351.775 103.595 351.82 103.423C351.84 103.337 351.879 103.256 351.935 103.184C351.991 103.112 352.062 103.051 352.144 103.005C352.226 102.959 352.317 102.928 352.413 102.915C352.508 102.902 352.605 102.906 352.699 102.928L356.639 103.81C356.736 103.821 356.829 103.849 356.913 103.892C356.997 103.935 357.072 103.993 357.132 104.063C357.191 104.132 357.236 104.212 357.262 104.297C357.288 104.382 357.296 104.471 357.284 104.559C357.272 104.647 357.242 104.732 357.195 104.809C357.147 104.886 357.084 104.954 357.007 105.008C356.931 105.063 356.844 105.103 356.751 105.127C356.657 105.151 356.56 105.158 356.464 105.147V105.107Z" fill="#E6E7E8"/>
<path d="M305.17 236.545L366.452 249.568C371.874 250.72 377.292 247.644 378.555 242.697L379.578 238.687C380.841 233.74 377.469 228.796 372.048 227.644L310.766 214.621C305.345 213.469 299.926 216.545 298.663 221.492L297.64 225.502C296.377 230.449 299.749 235.393 305.17 236.545Z" fill="#231F20"/>
<path d="M368.74 250.478C367.916 250.474 367.096 250.385 366.294 250.211L305.013 237.191C302.222 236.597 299.803 235.015 298.29 232.794C296.776 230.573 296.291 227.895 296.941 225.348L297.966 221.337C298.287 220.075 298.878 218.883 299.704 217.829C300.53 216.775 301.576 215.88 302.781 215.194C303.986 214.509 305.328 214.047 306.729 213.835C308.13 213.623 309.563 213.665 310.946 213.958L372.227 226.978C375.016 227.576 377.432 229.158 378.945 231.378C380.458 233.598 380.945 236.275 380.299 238.822L379.274 242.832C378.719 245.003 377.377 246.94 375.465 248.328C373.553 249.715 371.184 250.473 368.74 250.478V250.478ZM308.5 215.041C306.39 215.044 304.342 215.696 302.689 216.892C301.035 218.088 299.872 219.758 299.387 221.631L298.362 225.642C298.084 226.733 298.044 227.863 298.244 228.968C298.445 230.073 298.882 231.131 299.531 232.082C300.18 233.033 301.028 233.858 302.026 234.51C303.025 235.162 304.154 235.628 305.35 235.881L366.631 248.901C369.045 249.41 371.583 249.025 373.686 247.829C375.79 246.634 377.288 244.726 377.853 242.525L378.878 238.515C379.436 236.311 379.014 233.996 377.704 232.077C376.394 230.157 374.303 228.79 371.89 228.275L310.58 215.269C309.899 215.117 309.201 215.041 308.5 215.041Z" fill="#231F20"/>
<path d="M426.96 289.792C426.96 289.792 417.525 217.889 408.296 210.015C397.323 200.658 387.317 194.322 385.5 199.669C383.684 205.016 381.955 213.905 396.956 223.917L394.759 241.723C394.759 241.723 380.006 251.08 387.683 280.395" fill="white"/>
<path d="M426.945 290.407C426.782 290.402 426.626 290.344 426.505 290.244C426.384 290.143 426.307 290.007 426.286 289.859C426.198 289.151 416.793 218.089 407.842 210.456C394.364 198.987 389.382 197.984 387.595 198.425C387.231 198.522 386.902 198.708 386.643 198.962C386.385 199.216 386.208 199.53 386.13 199.869C384.05 205.965 383.435 214.146 397.352 223.449C397.448 223.512 397.524 223.597 397.57 223.696C397.617 223.795 397.632 223.904 397.616 224.011L395.433 241.803C395.419 241.891 395.385 241.975 395.335 242.05C395.285 242.126 395.218 242.192 395.14 242.244C394.993 242.338 380.871 251.708 388.342 280.275C388.378 280.432 388.347 280.596 388.254 280.733C388.161 280.87 388.015 280.969 387.844 281.01C387.671 281.046 387.49 281.019 387.339 280.934C387.188 280.848 387.08 280.713 387.038 280.555C379.801 252.871 392.107 242.832 394.129 241.402L396.253 224.225C381.97 214.56 382.658 205.938 384.856 199.495C384.997 198.956 385.295 198.462 385.718 198.065C386.14 197.668 386.673 197.381 387.258 197.236C390.877 196.367 398.114 200.524 408.75 209.587C418.067 217.514 427.238 286.785 427.619 289.792C427.631 289.872 427.626 289.954 427.603 290.032C427.58 290.11 427.54 290.183 427.485 290.247C427.43 290.31 427.362 290.363 427.284 290.402C427.207 290.441 427.121 290.466 427.033 290.474L426.945 290.407Z" fill="#231F20"/>
<path d="M149.049 316.113C149.049 316.113 178.437 264.153 200.573 240.734C203.591 237.539 207.458 237.004 210.169 238.648C213.377 240.613 213.509 247.15 213.509 247.15C213.509 247.15 221.903 242.765 225.932 243.674C229.961 244.583 230.43 250.358 230.43 250.358C230.43 250.358 239.41 247.685 243.102 250.572C246.794 253.459 246.896 258.593 246.896 258.593C246.896 258.593 294.157 224.412 299.373 221.538C304.588 218.664 313.935 223.77 309.32 229.839C306.39 233.622 282.569 254.997 274.848 261.787C267.128 268.578 249.138 287.052 247.131 292.479C245.124 297.906 243.41 304.082 255.672 304.844C267.934 305.606 278.863 307.518 284.239 311.635C289.616 315.752 293.146 321.914 290.451 323.117C287.755 324.32 244.406 319.869 227.939 325.911C211.472 331.953 190.04 353.983 190.04 353.983L149.049 316.113Z" fill="white"/>
<path d="M190.04 354.691C189.941 354.693 189.843 354.677 189.753 354.642C189.662 354.608 189.58 354.556 189.512 354.491L148.492 316.594C148.386 316.49 148.317 316.359 148.293 316.218C148.27 316.078 148.293 315.934 148.36 315.805C148.668 315.297 178.041 263.498 199.987 240.292C203.093 237.017 207.312 236.135 210.55 238.1C213.231 239.731 213.948 244.035 214.139 246.121C216.571 244.958 222.651 242.311 226.079 243.086C229.507 243.862 230.708 247.778 231.016 249.503C233.418 248.901 240.245 247.511 243.541 250.077C245.765 252.004 247.157 254.593 247.468 257.376C254.675 252.176 294.143 223.703 298.962 221.043C302.42 219.145 307.108 220.428 309.466 222.728C310.54 223.725 311.176 225.047 311.254 226.444C311.333 227.84 310.848 229.214 309.891 230.307C306.961 234.117 283.521 255.13 275.332 262.389C267.143 269.647 249.724 287.573 247.79 292.787C246.647 295.888 245.651 299.109 247.248 301.288C248.493 302.999 251.335 303.962 255.701 304.269C270.014 305.151 279.756 307.491 284.679 311.22C289.074 314.562 292.399 319.415 292.004 322.021C291.973 322.399 291.836 322.762 291.604 323.076C291.373 323.39 291.056 323.644 290.685 323.812C289.748 324.24 286.202 324.133 278.291 323.812C263.744 323.305 239.381 322.476 228.13 326.593C212.015 332.501 190.714 354.304 190.494 354.518C190.43 354.589 190.35 354.647 190.258 354.686C190.167 354.725 190.067 354.745 189.966 354.745L190.04 354.691ZM149.943 315.926L190.01 352.98C193.468 349.505 212.454 330.804 227.661 325.229C239.22 320.992 263.773 321.847 278.438 322.355C284.063 322.556 289.381 322.743 290.158 322.449C290.31 322.38 290.438 322.273 290.526 322.141C290.614 322.008 290.659 321.855 290.656 321.7C290.905 319.802 288.151 315.391 283.8 312.089C279.126 308.547 269.662 306.301 255.657 305.405C250.749 305.098 247.614 303.935 246.091 301.836C244.113 299.163 245.197 295.58 246.457 292.158C248.61 286.357 267.128 267.589 274.292 261.226C282.159 254.315 305.877 233.061 308.675 229.385C309.45 228.547 309.85 227.473 309.796 226.378C309.741 225.283 309.237 224.247 308.382 223.476C306.405 221.565 302.449 220.522 299.695 222.032C294.597 224.84 247.775 258.699 247.306 259.034C247.198 259.111 247.068 259.16 246.931 259.174C246.794 259.188 246.655 259.167 246.53 259.114C246.408 259.061 246.305 258.978 246.232 258.874C246.159 258.77 246.121 258.649 246.12 258.526C246.12 258.526 245.973 253.566 242.589 250.933C239.205 248.3 230.693 250.813 230.605 250.839C230.501 250.873 230.389 250.884 230.28 250.87C230.17 250.856 230.066 250.818 229.976 250.759C229.881 250.705 229.802 250.63 229.745 250.542C229.689 250.453 229.658 250.353 229.653 250.251C229.653 250.251 229.184 244.998 225.727 244.222C222.651 243.527 216.087 246.441 213.831 247.618C213.72 247.676 213.594 247.707 213.465 247.707C213.336 247.707 213.21 247.676 213.099 247.618C212.988 247.563 212.896 247.482 212.831 247.383C212.767 247.284 212.733 247.171 212.732 247.056C212.732 245.332 212.088 240.546 209.715 239.103C207.341 237.659 203.679 238.327 201.086 241.054C180.356 263.137 152.829 310.953 149.943 315.992V315.926Z" fill="#231F20"/>
<path d="M182.671 141.961L154.411 210.242L225.346 221.845C226.518 218.985 228.994 216.98 230.811 217.354L239.044 219.011C239.733 219.158 240.67 218.557 241.271 217.501C241.718 216.778 241.922 215.95 241.857 215.121C241.857 214.912 241.786 214.708 241.655 214.536C241.525 214.364 241.339 214.232 241.124 214.159L227.837 210.857C227.586 210.771 227.365 210.623 227.2 210.429C227.034 210.236 226.93 210.005 226.899 209.761C226.795 209.069 226.891 208.364 227.178 207.716C227.808 206.205 229.097 205.216 230.108 205.497L231.968 205.978L239.191 208.037C240.216 208.331 241.667 207.208 242.311 205.524C242.584 204.863 242.685 204.154 242.604 203.452C242.604 203.191 242.525 202.935 242.375 202.713C242.225 202.491 242.01 202.312 241.754 202.195L227.559 197.49C227.29 197.377 227.059 197.201 226.889 196.981C226.719 196.76 226.617 196.502 226.592 196.233C226.444 195.268 226.65 194.286 227.178 193.439C227.91 192.196 229.082 191.621 229.947 191.956L248.992 199.228C249.856 199.548 251.072 198.573 251.716 197.022C252.361 195.485 252.2 193.934 251.35 193.56L238.165 187.785C237.913 187.645 237.705 187.449 237.559 187.215C237.413 186.981 237.334 186.717 237.33 186.448C237.23 185.723 237.336 184.987 237.638 184.309C238.253 182.812 239.484 181.957 240.377 182.385L241.549 182.919L249.27 186.662C250.002 187.023 251.365 186.863 252.332 184.831C253.87 181.609 252.332 180.633 251.892 180.406L244.435 175.981L182.671 141.961Z" fill="white"/>
<path d="M182.671 141.961L244.406 175.955L251.863 180.379C252.273 180.607 253.841 181.582 252.302 184.804C251.585 186.301 250.647 186.782 249.914 186.782C249.68 186.783 249.449 186.733 249.241 186.635L241.52 182.892L240.348 182.358C240.193 182.288 240.023 182.251 239.85 182.251C239.044 182.251 238.121 183.053 237.609 184.283C237.307 184.96 237.201 185.696 237.301 186.421C237.305 186.691 237.383 186.954 237.529 187.188C237.676 187.422 237.884 187.618 238.136 187.758L251.321 193.533C252.171 193.907 252.332 195.458 251.687 196.995C251.13 198.332 250.134 199.254 249.314 199.254C249.198 199.274 249.078 199.274 248.962 199.254L229.917 191.982C229.756 191.917 229.581 191.885 229.404 191.889C228.913 191.955 228.448 192.135 228.053 192.411C227.658 192.687 227.347 193.05 227.148 193.466C226.62 194.313 226.414 195.295 226.562 196.26C226.587 196.529 226.69 196.787 226.86 197.007C227.03 197.228 227.261 197.404 227.529 197.516L241.681 202.275C241.937 202.392 242.152 202.571 242.302 202.793C242.452 203.015 242.531 203.271 242.531 203.532C242.611 204.234 242.511 204.943 242.238 205.604C241.667 207.114 240.436 208.17 239.454 208.17C239.343 208.184 239.229 208.184 239.117 208.17L231.895 206.112L230.005 205.51C229.893 205.496 229.78 205.496 229.668 205.51C228.76 205.51 227.676 206.446 227.119 207.783C226.833 208.431 226.737 209.136 226.841 209.828C226.872 210.072 226.976 210.303 227.141 210.496C227.306 210.689 227.527 210.837 227.778 210.924L241.066 214.226C241.281 214.299 241.466 214.431 241.597 214.603C241.728 214.775 241.798 214.979 241.798 215.188C241.864 216.017 241.66 216.844 241.212 217.568C241.046 217.96 240.773 218.306 240.42 218.575C240.066 218.844 239.643 219.026 239.191 219.105H238.986L230.752 217.447C230.606 217.434 230.459 217.434 230.313 217.447C228.555 217.447 226.372 219.346 225.288 221.979L154.353 210.376L182.612 142.095L182.671 141.961ZM182.612 140.878C182.467 140.853 182.318 140.853 182.173 140.878C181.986 140.936 181.816 141.031 181.674 141.155C181.532 141.28 181.422 141.432 181.353 141.6L153.107 209.868C153.034 210.036 153.004 210.218 153.019 210.399C153.034 210.579 153.094 210.754 153.195 210.911C153.292 211.066 153.425 211.2 153.584 211.304C153.743 211.408 153.926 211.479 154.118 211.512L225.039 223.115H225.288C225.558 223.113 225.821 223.036 226.044 222.896C226.266 222.755 226.436 222.557 226.533 222.326C227.544 219.88 229.375 218.584 230.313 218.584H230.459L238.795 220.214C238.956 220.228 239.118 220.228 239.279 220.214C239.978 220.145 240.644 219.907 241.208 219.524C241.772 219.141 242.214 218.627 242.487 218.036C243.067 217.088 243.318 216.002 243.205 214.921C243.176 214.472 242.998 214.043 242.694 213.689C242.391 213.336 241.976 213.075 241.505 212.943L228.32 209.667C228.314 209.61 228.314 209.552 228.32 209.494C228.27 209.04 228.341 208.581 228.526 208.157C228.62 207.843 228.784 207.55 229.008 207.297C229.233 207.044 229.512 206.836 229.829 206.687L231.661 207.168L238.854 209.213C239.091 209.282 239.338 209.318 239.586 209.32C240.553 209.185 241.454 208.792 242.177 208.19C242.899 207.588 243.41 206.804 243.644 205.938C243.983 205.083 244.103 204.168 243.996 203.264C243.967 202.78 243.789 202.313 243.484 201.916C243.178 201.519 242.757 201.208 242.267 201.019L228.115 196.26C228.074 196.15 228.04 196.039 228.013 195.926C227.919 195.24 228.073 194.545 228.452 193.947C228.877 193.239 229.375 192.998 229.536 192.998L248.581 200.27C248.86 200.377 249.159 200.432 249.46 200.431C250.925 200.431 252.317 199.227 253.079 197.369C254.017 195.137 253.577 193.025 252.039 192.357L238.854 186.582C238.854 186.582 238.854 186.462 238.766 186.221C238.706 185.699 238.786 185.171 239 184.684C239.16 184.189 239.501 183.759 239.967 183.467L241.081 183.962L248.757 187.691C249.161 187.878 249.608 187.975 250.061 187.972C250.764 187.972 252.508 187.718 253.68 185.299C255.525 181.422 253.606 179.845 252.698 179.337L245.27 174.952L183.506 140.932C183.299 140.816 183.06 140.756 182.818 140.758L182.612 140.878Z" fill="#231F20"/>
<path d="M204.309 199.709H204.089C203.994 199.676 203.907 199.624 203.836 199.557C203.765 199.49 203.712 199.409 203.679 199.321L182.686 143.886C182.645 143.736 182.668 143.577 182.75 143.442C182.831 143.307 182.966 143.204 183.127 143.156C183.288 143.107 183.463 143.115 183.617 143.178C183.771 143.242 183.894 143.356 183.96 143.498L204.675 198.171L243.19 175.955C243.341 175.872 243.521 175.846 243.692 175.881C243.864 175.916 244.014 176.009 244.113 176.142C244.161 176.21 244.193 176.286 244.208 176.366C244.223 176.445 244.22 176.527 244.199 176.605C244.179 176.684 244.141 176.758 244.088 176.823C244.036 176.888 243.97 176.943 243.893 176.984L204.705 199.615C204.587 199.684 204.448 199.717 204.309 199.709Z" fill="#231F20"/>
<path d="M154.411 210.857C154.261 210.862 154.114 210.819 153.994 210.737C153.875 210.656 153.789 210.539 153.752 210.407C153.714 210.275 153.727 210.135 153.788 210.01C153.849 209.885 153.955 209.783 154.088 209.721L199.328 186.301C199.481 186.223 199.663 186.204 199.832 186.246C200.002 186.288 200.147 186.39 200.236 186.528C200.28 186.598 200.309 186.674 200.32 186.753C200.331 186.833 200.325 186.913 200.302 186.991C200.279 187.068 200.239 187.14 200.185 187.203C200.131 187.266 200.063 187.318 199.987 187.357L154.748 210.777C154.645 210.83 154.529 210.858 154.411 210.857Z" fill="#231F20"/>
<path d="M225.346 222.447C225.201 222.446 225.06 222.403 224.944 222.324C224.828 222.244 224.743 222.133 224.702 222.006L215.267 192.597C215.239 192.448 215.272 192.294 215.361 192.165C215.449 192.037 215.587 191.943 215.747 191.901C215.907 191.86 216.078 191.874 216.228 191.941C216.377 192.007 216.494 192.122 216.556 192.263L225.976 221.672C226.003 221.749 226.013 221.83 226.004 221.911C225.996 221.991 225.969 222.07 225.927 222.141C225.885 222.212 225.827 222.275 225.757 222.325C225.688 222.375 225.608 222.412 225.522 222.433L225.346 222.447Z" fill="#231F20"/>
<path d="M283.228 19.8893L171.405 114.331L281.47 189.189C286.144 185.245 292.223 183.748 294.978 185.78L307.459 195.003C308.499 195.779 310.638 195.485 312.675 194.161C314.113 193.27 315.23 192.009 315.883 190.539C316.072 190.185 316.139 189.788 316.076 189.4C316.014 189.011 315.824 188.648 315.531 188.36L295.93 172.359C295.576 172.02 295.336 171.596 295.237 171.136C295.139 170.677 295.186 170.201 295.373 169.766C295.825 168.498 296.645 167.366 297.746 166.491C300.222 164.405 303.343 163.723 304.734 164.94L307.459 167.212L317.846 176.316C319.311 177.652 322.842 176.837 325.508 174.471C326.585 173.555 327.417 172.425 327.94 171.169C328.186 170.721 328.288 170.219 328.237 169.721C328.185 169.222 327.981 168.746 327.647 168.349L307.972 149.26C307.624 148.855 307.398 148.375 307.315 147.866C307.233 147.358 307.298 146.838 307.503 146.359C308.147 144.606 309.409 143.097 311.093 142.068C313.495 140.518 316.044 140.451 317.216 141.68L342.927 168.857C344.099 170.1 347.102 169.365 349.637 167.239C352.171 165.1 353.343 162.333 352.23 161.037L335.045 140.905C334.757 140.481 334.586 139.998 334.547 139.5C334.509 139.001 334.605 138.502 334.826 138.045C335.344 136.74 336.21 135.573 337.345 134.649C339.792 132.591 342.693 132.083 343.806 133.513L345.271 135.318L354.94 147.696C355.848 148.859 358.324 149.648 361.855 146.934C367.495 142.643 365.722 139.769 365.224 139.047L356.625 125.68L283.228 19.8893Z" fill="#F2C94C"/>
<path d="M283.229 19.8894L356.742 125.733L365.342 139.101C365.84 139.822 367.613 142.696 361.972 146.987C360.786 148.047 359.232 148.694 357.577 148.819C357.098 148.84 356.62 148.754 356.186 148.567C355.752 148.381 355.374 148.1 355.087 147.749L345.418 135.371L343.953 133.566C343.727 133.295 343.431 133.078 343.091 132.936C342.751 132.793 342.378 132.73 342.004 132.751C340.293 132.887 338.691 133.579 337.492 134.703C336.357 135.627 335.491 136.793 334.972 138.098C334.752 138.555 334.656 139.055 334.694 139.553C334.733 140.052 334.904 140.534 335.192 140.959L352.377 161.09C353.49 162.427 352.377 165.1 349.784 167.293C348.447 168.55 346.668 169.34 344.759 169.525C344.446 169.541 344.132 169.495 343.841 169.389C343.55 169.282 343.288 169.119 343.074 168.91L317.363 141.734C317.065 141.447 316.703 141.222 316.301 141.075C315.899 140.927 315.467 140.86 315.034 140.878C313.66 140.931 312.336 141.364 311.239 142.122C309.556 143.151 308.294 144.66 307.65 146.413C307.445 146.891 307.38 147.411 307.462 147.92C307.545 148.429 307.771 148.909 308.119 149.313L327.794 168.402C328.127 168.8 328.332 169.275 328.384 169.774C328.435 170.273 328.333 170.775 328.087 171.223C327.564 172.479 326.732 173.608 325.655 174.524C324.16 175.961 322.135 176.842 319.971 176.997C319.246 177.035 318.535 176.809 317.993 176.369L307.606 167.266L304.881 164.993C304.359 164.579 303.683 164.364 302.991 164.392C301.317 164.574 299.731 165.179 298.411 166.137C297.091 167.096 296.09 168.371 295.52 169.819C295.333 170.255 295.286 170.73 295.384 171.19C295.483 171.649 295.723 172.073 296.077 172.412L315.664 188.36C315.956 188.648 316.146 189.011 316.209 189.4C316.271 189.788 316.204 190.185 316.015 190.539C315.362 192.009 314.246 193.27 312.807 194.161C311.739 194.914 310.448 195.357 309.101 195.431C308.574 195.441 308.058 195.29 307.636 195.003L295.154 185.78C294.207 185.142 293.048 184.821 291.872 184.871C288.002 185.157 284.368 186.687 281.617 189.189L171.405 114.331L283.185 19.8894H283.229ZM283.185 18.6729C282.846 18.6792 282.519 18.7925 282.262 18.9937L170.541 113.435C170.397 113.557 170.284 113.706 170.211 113.872C170.138 114.038 170.106 114.217 170.117 114.396C170.128 114.575 170.182 114.749 170.276 114.906C170.37 115.064 170.5 115.2 170.658 115.306L280.709 190.164C280.946 190.315 281.226 190.399 281.515 190.405C281.851 190.406 282.175 190.292 282.423 190.084C284.926 187.803 288.219 186.385 291.74 186.074C292.61 186.027 293.472 186.248 294.187 186.702L306.669 195.926C307.337 196.4 308.166 196.645 309.013 196.621C310.639 196.551 312.204 196.028 313.496 195.124C315.159 194.088 316.445 192.621 317.187 190.913C317.473 190.332 317.557 189.685 317.428 189.059C317.3 188.434 316.966 187.858 316.469 187.411L296.882 171.477C296.472 171.142 296.633 170.421 296.721 170.14C297.212 168.947 298.045 167.896 299.132 167.097C300.219 166.298 301.522 165.779 302.904 165.595C303.25 165.577 303.593 165.671 303.87 165.862L306.625 168.081L316.968 177.158C317.768 177.816 318.82 178.162 319.898 178.12C322.412 177.963 324.772 176.957 326.519 175.3C327.745 174.247 328.692 172.953 329.288 171.517C329.608 170.864 329.723 170.144 329.619 169.436C329.516 168.727 329.198 168.059 328.702 167.506L309.013 148.431C308.828 148.179 308.717 147.889 308.689 147.588C308.66 147.286 308.717 146.983 308.851 146.707C309.41 145.218 310.491 143.94 311.928 143.071C312.798 142.459 313.85 142.101 314.946 142.041C315.187 142.028 315.429 142.06 315.656 142.135C315.883 142.211 316.09 142.33 316.264 142.483L341.975 169.659C342.314 170 342.731 170.269 343.197 170.447C343.663 170.625 344.166 170.707 344.671 170.688C346.891 170.489 348.965 169.585 350.531 168.135C353.68 165.461 354.926 162.106 353.285 160.261L336.174 140.143C336.032 139.874 335.959 139.58 335.959 139.281C335.959 138.983 336.032 138.688 336.174 138.419C336.624 137.311 337.363 136.32 338.327 135.531C339.282 134.622 340.559 134.049 341.931 133.914C342.09 133.897 342.252 133.915 342.402 133.966C342.553 134.017 342.687 134.1 342.796 134.208L344.261 136.039L353.9 148.391C354.319 148.896 354.862 149.303 355.486 149.579C356.109 149.856 356.796 149.994 357.489 149.982C359.47 149.867 361.342 149.119 362.778 147.87C368.814 143.258 367.334 139.702 366.411 138.379L357.841 125.105L284.357 19.2477C284.251 19.095 284.109 18.9656 283.942 18.8686C283.775 18.7715 283.586 18.7093 283.39 18.6863L283.185 18.6729Z" fill="#231F20"/>
<path d="M266.865 134.663C266.683 134.661 266.509 134.594 266.381 134.475C266.314 134.41 266.263 134.331 266.233 134.246C266.203 134.16 266.193 134.07 266.205 133.981L282.057 23.258C282.082 23.0967 282.176 22.9513 282.319 22.8535C282.462 22.7558 282.642 22.7137 282.818 22.7366C282.905 22.7465 282.989 22.772 283.065 22.8118C283.141 22.8516 283.208 22.9047 283.261 22.9682C283.314 23.0316 283.353 23.1041 283.375 23.1814C283.397 23.2587 283.402 23.3393 283.39 23.4184L267.641 133.326L354.691 125.305C354.857 125.307 355.017 125.365 355.139 125.467C355.261 125.569 355.338 125.709 355.354 125.86C355.371 126.01 355.325 126.161 355.227 126.283C355.129 126.406 354.985 126.49 354.823 126.522L266.923 134.676L266.865 134.663Z" fill="#231F20"/>
<path d="M171.405 114.946C171.235 114.946 171.072 114.886 170.949 114.779C170.826 114.672 170.753 114.526 170.746 114.371C170.74 114.29 170.751 114.209 170.78 114.132C170.808 114.056 170.853 113.985 170.912 113.924C170.97 113.863 171.041 113.813 171.121 113.778C171.2 113.742 171.287 113.721 171.376 113.716L270.307 108.917C270.396 108.907 270.486 108.915 270.571 108.94C270.656 108.964 270.734 109.005 270.801 109.06C270.867 109.114 270.92 109.181 270.956 109.255C270.992 109.33 271.011 109.41 271.01 109.492C271.014 109.654 270.95 109.811 270.829 109.931C270.709 110.05 270.543 110.123 270.366 110.133L171.449 114.946H171.405Z" fill="#231F20"/>
<path d="M281.514 189.75H281.397C281.223 189.721 281.068 189.63 280.967 189.497C280.865 189.365 280.825 189.201 280.855 189.041L292.223 131.561C292.255 131.402 292.355 131.261 292.5 131.169C292.646 131.076 292.825 131.039 293 131.067C293.087 131.08 293.17 131.108 293.245 131.151C293.32 131.194 293.385 131.25 293.435 131.316C293.486 131.382 293.521 131.457 293.54 131.536C293.558 131.615 293.559 131.696 293.542 131.775L282.173 189.255C282.143 189.395 282.061 189.52 281.94 189.61C281.82 189.7 281.67 189.75 281.514 189.75V189.75Z" fill="#231F20"/>
<path d="M329.757 205.51C329.617 205.508 329.48 205.471 329.361 205.403L268.329 164.793C268.187 164.697 268.093 164.554 268.067 164.395C268.041 164.236 268.085 164.073 268.19 163.944C268.295 163.815 268.452 163.729 268.626 163.705C268.801 163.681 268.978 163.721 269.12 163.817L330.152 204.414C330.269 204.488 330.357 204.594 330.402 204.717C330.448 204.841 330.448 204.974 330.404 205.097C330.359 205.22 330.272 205.327 330.155 205.402C330.039 205.476 329.899 205.514 329.757 205.51V205.51Z" fill="white"/>
<path d="M338.137 189.75C337.955 189.748 337.781 189.681 337.653 189.563L317.421 170.287C317.347 170.232 317.286 170.163 317.243 170.085C317.2 170.007 317.176 169.921 317.172 169.834C317.168 169.747 317.185 169.66 317.22 169.579C317.256 169.498 317.311 169.424 317.38 169.364C317.449 169.304 317.532 169.257 317.622 169.229C317.713 169.2 317.809 169.189 317.904 169.196C318 169.204 318.092 169.23 318.176 169.273C318.259 169.316 318.332 169.374 318.388 169.445L338.62 188.707C338.746 188.823 338.817 188.979 338.817 189.142C338.817 189.305 338.746 189.461 338.62 189.576C338.488 189.686 338.316 189.748 338.137 189.75V189.75Z" fill="white"/>
<path d="M351.395 188.386C351.213 188.385 351.039 188.318 350.911 188.199L338.503 176.463C338.377 176.347 338.306 176.191 338.306 176.028C338.306 175.865 338.377 175.709 338.503 175.594C338.631 175.482 338.801 175.419 338.979 175.419C339.156 175.419 339.327 175.482 339.455 175.594L351.863 187.33C351.986 187.447 352.055 187.603 352.055 187.765C352.055 187.927 351.986 188.082 351.863 188.199C351.737 188.311 351.571 188.378 351.395 188.386Z" fill="white"/>
<path d="M363.32 182.518C363.218 182.518 363.117 182.496 363.025 182.455C362.934 182.413 362.854 182.352 362.793 182.278C351.073 168.643 333.229 148.057 332.277 147.255C332.205 147.214 332.144 147.161 332.096 147.098C332.048 147.035 332.015 146.964 331.999 146.888C331.982 146.813 331.983 146.736 332 146.661C332.018 146.586 332.052 146.515 332.101 146.453C332.15 146.383 332.213 146.323 332.288 146.277C332.362 146.23 332.446 146.196 332.534 146.179C332.623 146.162 332.714 146.16 332.803 146.175C332.892 146.19 332.977 146.221 333.053 146.266C333.742 146.64 352.64 168.522 363.818 181.529C363.925 181.657 363.973 181.819 363.951 181.979C363.929 182.139 363.839 182.284 363.701 182.384C363.591 182.462 363.459 182.509 363.32 182.518V182.518Z" fill="white"/>
<path d="M336.335 198.827C336.192 198.826 336.054 198.783 335.939 198.706L323.765 190.512C323.685 190.468 323.615 190.409 323.561 190.34C323.507 190.27 323.469 190.191 323.45 190.107C323.431 190.023 323.432 189.937 323.452 189.853C323.472 189.769 323.511 189.691 323.566 189.621C323.621 189.552 323.692 189.495 323.773 189.452C323.854 189.409 323.944 189.382 324.037 189.373C324.13 189.363 324.225 189.372 324.314 189.398C324.403 189.424 324.486 189.466 324.556 189.523L336.804 197.717C336.921 197.791 337.008 197.897 337.054 198.02C337.099 198.143 337.1 198.277 337.055 198.4C337.01 198.523 336.923 198.63 336.807 198.705C336.69 198.779 336.55 198.817 336.408 198.813L336.335 198.827Z" fill="white"/>
<path d="M368.873 162.387C368.761 162.388 368.65 162.364 368.551 162.318C368.451 162.271 368.366 162.203 368.301 162.119L351.747 139.101C351.698 139.034 351.664 138.959 351.647 138.881C351.63 138.802 351.63 138.721 351.648 138.643C351.666 138.564 351.7 138.49 351.75 138.424C351.8 138.358 351.863 138.302 351.937 138.258C352.009 138.212 352.091 138.179 352.178 138.163C352.264 138.146 352.353 138.146 352.44 138.162C352.527 138.179 352.609 138.211 352.681 138.257C352.753 138.304 352.814 138.363 352.86 138.432L369.429 161.398C369.478 161.464 369.512 161.539 369.529 161.617C369.546 161.696 369.546 161.777 369.528 161.855C369.51 161.934 369.476 162.008 369.426 162.074C369.376 162.14 369.313 162.196 369.239 162.24C369.135 162.321 369.008 162.372 368.873 162.387V162.387Z" fill="white"/>
<path d="M330.753 30.1689L285.162 51.7842L313.583 85.0826C315.488 84.1869 317.612 84.2003 318.315 85.0826L321.465 89.0928C321.728 89.427 322.446 89.5072 323.237 89.2398C323.814 89.0759 324.324 88.7596 324.702 88.3309C324.794 88.2268 324.851 88.1019 324.869 87.9698C324.888 87.8377 324.865 87.7036 324.805 87.5823L320 80.805C319.919 80.6666 319.884 80.5103 319.897 80.3542C319.91 80.198 319.971 80.0484 320.073 79.9227C320.34 79.5445 320.715 79.2396 321.157 79.0405C322.168 78.5726 323.252 78.5993 323.589 79.0405L324.248 80.0029L326.695 83.8661C327.046 84.4142 328.277 84.4409 329.376 83.8661C329.813 83.656 330.194 83.3591 330.489 82.9972C330.611 82.8691 330.693 82.7127 330.724 82.5453C330.755 82.3778 330.734 82.2058 330.665 82.0481L326.153 74.2415C326.078 74.0828 326.051 73.9088 326.074 73.7374C326.097 73.5659 326.17 73.4032 326.285 73.2657C326.666 72.7485 327.221 72.3589 327.867 72.1562C328.804 71.8488 329.64 72.0359 329.903 72.5305L335.587 83.4651C335.851 83.9731 336.891 83.9731 337.917 83.4651C338.942 82.9839 339.602 82.1284 339.382 81.6739L335.778 73.7202C335.722 73.5591 335.711 73.3875 335.747 73.2216C335.782 73.0557 335.864 72.9007 335.983 72.7711C336.282 72.3902 336.68 72.0826 337.14 71.8755C338.137 71.4076 339.118 71.4878 339.352 72.0359L339.66 72.7444L341.579 77.5567C341.77 78.0112 342.488 78.4657 343.909 77.8775C346.165 76.9418 345.872 75.8724 345.784 75.5917L344.319 70.5655L330.753 30.1689Z" fill="white"/>
<path d="M330.753 30.1689L344.275 70.5788L345.74 75.605C345.828 75.8857 346.121 76.9418 343.865 77.8908C343.491 78.0616 343.081 78.1573 342.663 78.1716C342.43 78.1925 342.195 78.1457 341.992 78.0376C341.79 77.9296 341.63 77.766 341.535 77.57L339.616 72.7577L339.308 72.0493C339.22 71.89 339.079 71.7596 338.906 71.6759C338.733 71.5922 338.536 71.5592 338.342 71.5814C337.907 71.5982 337.481 71.7032 337.096 71.8888C336.636 72.0959 336.238 72.4036 335.939 72.7845C335.82 72.914 335.738 73.069 335.703 73.2349C335.667 73.4009 335.677 73.5724 335.734 73.7336L339.338 81.6872C339.572 82.1952 338.913 83.024 337.873 83.4785C337.422 83.7015 336.92 83.8252 336.408 83.8394C336.234 83.8588 336.057 83.8327 335.899 83.7641C335.741 83.6954 335.607 83.5871 335.514 83.4517L329.83 72.5171C329.708 72.342 329.535 72.2009 329.331 72.109C329.127 72.017 328.899 71.9779 328.673 71.9958C328.373 72.0035 328.077 72.0531 327.794 72.1428C327.148 72.3456 326.592 72.7351 326.211 73.2523C326.097 73.3898 326.024 73.5525 326.001 73.724C325.978 73.8954 326.005 74.0694 326.079 74.2282L330.592 82.0348C330.661 82.1924 330.681 82.3644 330.65 82.5319C330.619 82.6994 330.538 82.8558 330.416 82.9839C330.12 83.3457 329.74 83.6426 329.302 83.8527C328.819 84.1019 328.276 84.2396 327.72 84.2538C327.528 84.2659 327.336 84.2372 327.158 84.17C326.98 84.1027 326.821 83.9987 326.695 83.8661L324.219 80.0564L323.56 79.0939C323.441 78.9527 323.284 78.8417 323.104 78.7714C322.925 78.7012 322.728 78.6742 322.534 78.6929C322.023 78.6943 321.521 78.8089 321.069 79.0271C320.627 79.2262 320.252 79.5312 319.985 79.9093C319.883 80.0351 319.822 80.1847 319.809 80.3408C319.796 80.4969 319.831 80.6532 319.912 80.7916L324.717 87.5689C324.777 87.6902 324.8 87.8243 324.781 87.9564C324.763 88.0885 324.706 88.2135 324.614 88.3175C324.236 88.7462 323.726 89.0626 323.149 89.2265C322.864 89.3261 322.562 89.3803 322.256 89.3869C322.093 89.4023 321.929 89.3825 321.776 89.3291C321.623 89.2757 321.487 89.1901 321.377 89.0794L318.227 85.0692C317.985 84.8305 317.686 84.646 317.353 84.5301C317.02 84.4142 316.663 84.3699 316.308 84.4008C315.327 84.4248 314.365 84.6535 313.495 85.0692L285.162 51.7842L330.753 30.2224V30.1689ZM330.753 29.006C330.539 29.0043 330.328 29.0502 330.138 29.1396L284.547 50.6345C284.377 50.7237 284.229 50.843 284.11 50.9853C283.992 51.1277 283.906 51.2902 283.858 51.4633C283.814 51.6389 283.813 51.8213 283.856 51.9971C283.899 52.173 283.985 52.3377 284.107 52.4793L312.528 85.7777C312.653 85.9256 312.812 86.0458 312.995 86.1291C313.178 86.2125 313.379 86.2569 313.583 86.2589C313.798 86.2575 314.01 86.207 314.198 86.1119C314.877 85.7845 315.628 85.6017 316.396 85.5772C316.688 85.5487 316.981 85.6098 317.231 85.7509L320.381 89.7612C320.609 90.0217 320.903 90.229 321.236 90.3661C321.57 90.5032 321.934 90.5661 322.3 90.5499C322.765 90.5436 323.225 90.4668 323.662 90.3226C324.472 90.0727 325.181 89.6071 325.699 88.9859C325.948 88.6877 326.093 88.3277 326.114 87.9531C326.134 87.5785 326.031 87.2069 325.816 86.8872L321.216 80.4039C321.354 80.2867 321.507 80.1836 321.67 80.0965C321.915 79.9814 322.185 79.9175 322.461 79.9093V79.9093L323.018 80.698L325.479 84.481C325.723 84.8138 326.058 85.0827 326.452 85.2609C326.845 85.439 327.282 85.5204 327.72 85.4969C328.501 85.4886 329.267 85.3001 329.947 84.9489C330.578 84.6527 331.121 84.2216 331.529 83.6923C331.793 83.3853 331.956 83.0167 332 82.6289C332.044 82.2411 331.967 81.8498 331.778 81.5001L327.383 73.894C327.608 73.6278 327.914 73.4278 328.262 73.3192C328.397 73.2688 328.541 73.2416 328.687 73.239V73.239L334.283 83.9998C334.48 84.3489 334.785 84.6376 335.16 84.8301C335.535 85.0226 335.964 85.1103 336.393 85.0826C337.11 85.0667 337.812 84.8973 338.444 84.588C340.173 83.7725 341.052 82.369 340.524 81.2327L337.008 73.4796C337.185 73.2717 337.41 73.1026 337.668 72.985C337.821 72.9147 337.984 72.8608 338.151 72.8246L338.327 73.2256L340.246 77.9978C340.445 78.4147 340.779 78.7661 341.203 79.005C341.628 79.2439 342.122 79.3588 342.619 79.3345C343.23 79.3258 343.83 79.1934 344.377 78.9469C347.512 77.6101 347.161 75.7387 346.97 75.1906L345.505 70.2045L331.998 29.7545C331.913 29.5042 331.741 29.2857 331.509 29.1316C331.277 28.9774 330.996 28.8959 330.709 28.899L330.753 29.006Z" fill="#231F20"/>
<path d="M343.601 71.0868H343.484L314.184 66.5553C314.083 66.5408 313.987 66.5056 313.903 66.4523C313.82 66.399 313.75 66.3291 313.7 66.2478C313.661 66.1633 313.641 66.0723 313.641 65.9805C313.641 65.8886 313.661 65.7976 313.7 65.7131L329.625 31.0111C329.707 30.8802 329.839 30.7815 329.996 30.7336C330.153 30.6858 330.323 30.6921 330.475 30.7516C330.627 30.811 330.75 30.9193 330.82 31.0559C330.89 31.1925 330.903 31.3478 330.856 31.4923L315.18 65.4591L343.704 69.8704C343.864 69.9006 344.007 69.9832 344.106 70.1027C344.205 70.2223 344.252 70.3706 344.24 70.5198C344.227 70.6691 344.155 70.809 344.038 70.9134C343.92 71.0178 343.765 71.0794 343.601 71.0868V71.0868Z" fill="#231F20"/>
<path d="M317.788 58.8555H317.641L285.016 52.3188C284.92 52.3109 284.828 52.2845 284.744 52.2413C284.661 52.1981 284.588 52.1392 284.532 52.0685C284.476 51.9978 284.436 51.9169 284.417 51.8312C284.397 51.7455 284.398 51.657 284.419 51.5716C284.44 51.4863 284.481 51.406 284.539 51.3361C284.597 51.2663 284.67 51.2085 284.754 51.1666C284.838 51.1247 284.931 51.0997 285.027 51.0932C285.123 51.0868 285.219 51.099 285.309 51.1291L317.905 57.6525C318.077 57.6877 318.227 57.783 318.323 57.918C318.419 58.0529 318.453 58.2167 318.418 58.3743C318.386 58.5067 318.306 58.6256 318.192 58.7126C318.078 58.7997 317.936 58.8499 317.788 58.8555Z" fill="#231F20"/>
<path d="M313.583 85.644C313.492 85.6629 313.396 85.6629 313.305 85.644C313.144 85.5745 313.02 85.4497 312.959 85.2969C312.899 85.1441 312.907 84.9758 312.982 84.8286L322.3 67.0231C322.336 66.9509 322.388 66.886 322.452 66.832C322.516 66.7781 322.591 66.7363 322.672 66.7089C322.754 66.6816 322.841 66.6693 322.928 66.6727C323.015 66.6762 323.1 66.6953 323.179 66.729C323.34 66.7985 323.464 66.9233 323.524 67.0761C323.585 67.2288 323.576 67.3972 323.501 67.5444L314.155 85.2964C314.103 85.3967 314.023 85.4821 313.922 85.5434C313.822 85.6048 313.704 85.6395 313.583 85.644V85.644Z" fill="#231F20"/>
<path d="M195.665 367.364L211.707 341.244C211.707 341.244 150.177 301.703 149.049 301.141C147.921 300.58 106.388 367.043 106.388 367.043L109.567 367.35L195.665 367.364Z" fill="#231F20"/>
<path d="M195.665 368.032H109.567L106.3 367.725C106.18 367.712 106.065 367.673 105.965 367.61C105.865 367.547 105.784 367.462 105.729 367.364C105.671 367.265 105.641 367.155 105.641 367.043C105.641 366.931 105.671 366.821 105.729 366.722C105.832 366.562 116.233 349.919 126.635 333.557C148.053 299.898 148.478 300.139 149.371 300.566C150.514 301.114 205.818 336.659 212.117 340.669C212.267 340.762 212.373 340.903 212.414 341.064C212.455 341.225 212.427 341.394 212.337 341.538L196.222 367.671C196.171 367.769 196.092 367.854 195.995 367.917C195.898 367.981 195.784 368.02 195.665 368.032V368.032ZM107.575 366.495L109.641 366.709H195.226L210.755 341.458C190.509 328.451 153.62 304.791 149.122 302.01C145.841 305.766 123.06 341.859 107.575 366.495Z" fill="#231F20"/>
<path d="M476.433 367.364L479.612 367.056C479.612 367.056 446.693 297.545 445.55 298.133C444.408 298.722 376.93 336.712 376.93 336.712L391.462 367.364H476.433Z" fill="#231F20"/>
<path d="M476.433 368.032H391.463C391.32 368.031 391.181 367.992 391.061 367.921C390.942 367.85 390.847 367.75 390.789 367.631L376.256 336.979C376.19 336.83 376.183 336.664 376.237 336.51C376.29 336.357 376.401 336.225 376.549 336.137C379.303 334.587 444.056 298.093 445.213 297.545C445.31 297.505 445.415 297.485 445.521 297.485C445.627 297.485 445.732 297.505 445.829 297.545C447.411 298.053 465.445 335.496 480.286 366.829C480.339 366.922 480.368 367.025 480.368 367.13C480.368 367.235 480.339 367.338 480.286 367.431C480.227 367.522 480.147 367.599 480.05 367.657C479.954 367.715 479.844 367.752 479.729 367.765L476.535 368.072L476.433 368.032ZM391.931 366.695H476.389L478.557 366.495C466.368 340.816 448.261 303.253 445.389 298.989C440.379 301.756 400.048 324.467 377.853 336.979L391.931 366.695Z" fill="#231F20"/>
<path d="M318.028 227.725C318.559 227.965 318.945 228.34 319.187 228.852C319.431 229.354 319.492 229.883 319.371 230.439C319.196 231.242 318.774 231.818 318.105 232.169C317.447 232.513 316.617 232.575 315.614 232.357L311.141 231.381L313.235 221.779L317.558 222.722C318.533 222.934 319.246 223.324 319.696 223.89C320.155 224.458 320.3 225.125 320.133 225.891C320.01 226.457 319.757 226.893 319.375 227.202C319.001 227.512 318.552 227.686 318.028 227.725ZM314.727 226.174L316.259 226.508C316.642 226.591 316.952 226.573 317.188 226.452C317.436 226.325 317.595 226.097 317.667 225.769C317.738 225.441 317.688 225.167 317.516 224.948C317.353 224.731 317.081 224.581 316.698 224.497L315.166 224.163L314.727 226.174ZM315.615 230.379C316.007 230.465 316.327 230.444 316.575 230.316C316.833 230.182 316.999 229.946 317.073 229.608C317.146 229.271 317.09 228.982 316.904 228.74C316.727 228.501 316.442 228.339 316.05 228.253L314.354 227.883L313.892 230.004L315.615 230.379ZM324.976 234.513C324.228 234.35 323.588 234.043 323.056 233.593C322.533 233.144 322.162 232.586 321.945 231.918C321.737 231.251 321.72 230.522 321.893 229.728C322.064 228.944 322.387 228.293 322.863 227.776C323.341 227.25 323.915 226.893 324.587 226.705C325.258 226.517 325.968 226.505 326.716 226.668C327.463 226.831 328.103 227.138 328.636 227.588C329.168 228.039 329.542 228.602 329.757 229.28C329.974 229.948 329.997 230.674 329.826 231.459C329.655 232.243 329.326 232.897 328.839 233.421C328.363 233.939 327.785 234.29 327.105 234.476C326.433 234.664 325.723 234.676 324.976 234.513ZM325.417 232.489C325.864 232.586 326.278 232.505 326.66 232.244C327.051 231.985 327.313 231.551 327.446 230.94C327.579 230.329 327.527 229.825 327.288 229.429C327.059 229.035 326.721 228.79 326.274 228.692C325.818 228.593 325.404 228.674 325.031 228.937C324.661 229.19 324.408 229.627 324.273 230.247C324.139 230.858 324.183 231.36 324.403 231.752C324.632 232.146 324.97 232.391 325.417 232.489ZM335.329 229.994C335.694 229.634 336.107 229.38 336.569 229.233C337.033 229.076 337.516 229.052 338.018 229.162L337.478 231.637L336.835 231.497C336.251 231.37 335.786 231.402 335.438 231.594C335.093 231.776 334.851 232.182 334.714 232.811L333.941 236.354L331.602 235.844L333.267 228.211L335.606 228.722L335.329 229.994ZM342.547 231.568C342.912 231.208 343.326 230.955 343.788 230.807C344.252 230.65 344.735 230.627 345.236 230.736L344.696 233.212L344.053 233.072C343.47 232.944 343.004 232.977 342.657 233.168C342.311 233.351 342.07 233.757 341.933 234.386L341.16 237.929L338.821 237.418L340.486 229.786L342.825 230.296L342.547 231.568ZM349.49 239.86C348.742 239.697 348.102 239.39 347.57 238.94C347.047 238.491 346.677 237.933 346.459 237.265C346.251 236.598 346.234 235.869 346.407 235.075C346.578 234.291 346.901 233.64 347.377 233.123C347.855 232.597 348.43 232.24 349.101 232.052C349.772 231.864 350.482 231.852 351.23 232.015C351.978 232.178 352.618 232.485 353.15 232.935C353.682 233.385 354.056 233.949 354.271 234.627C354.488 235.295 354.511 236.021 354.34 236.806C354.169 237.59 353.84 238.244 353.353 238.768C352.878 239.286 352.299 239.637 351.619 239.823C350.947 240.011 350.238 240.023 349.49 239.86ZM349.932 237.836C350.378 237.933 350.793 237.852 351.174 237.591C351.565 237.332 351.827 236.897 351.96 236.286C352.094 235.676 352.041 235.172 351.803 234.776C351.573 234.382 351.235 234.137 350.788 234.039C350.332 233.94 349.918 234.021 349.546 234.284C349.175 234.537 348.922 234.974 348.787 235.594C348.654 236.205 348.697 236.707 348.917 237.099C349.147 237.493 349.485 237.738 349.932 237.836ZM368.738 235.948L365.008 243.13L362.422 242.566L362.299 237.352L359.974 242.032L357.402 241.471L356.988 233.385L359.327 233.895L359.217 239.589L361.693 234.412L364.169 234.952L364.284 240.665L366.536 235.468L368.738 235.948Z" fill="#F2C94C"/>
</svg>
