<svg width="780" height="504" viewBox="0 0 780 504" fill="none" xmlns="http://www.w3.org/2000/svg">
<path d="M778.61 133.242H418.865V502.109H778.61V133.242Z" fill="white"/>
<path d="M778.61 503.349H418.865C418.521 503.349 418.191 503.219 417.947 502.986C417.704 502.754 417.567 502.438 417.567 502.109V133.242C417.567 132.913 417.704 132.598 417.947 132.365C418.191 132.132 418.521 132.002 418.865 132.002H778.61C778.954 132.002 779.284 132.132 779.527 132.365C779.77 132.598 779.907 132.913 779.907 133.242V502.109C779.907 502.438 779.77 502.754 779.527 502.986C779.284 503.219 778.954 503.349 778.61 503.349ZM420.162 500.868H777.312V134.483H420.162V500.868Z" fill="#231F20"/>
<path d="M778.61 133.242H418.865V174.081H778.61V133.242Z" fill="white"/>
<path d="M778.61 175.322H418.865C418.521 175.322 418.191 175.191 417.947 174.958C417.704 174.726 417.567 174.41 417.567 174.081V133.242C417.567 132.913 417.704 132.598 417.947 132.365C418.191 132.132 418.521 132.002 418.865 132.002H778.61C778.954 132.002 779.284 132.132 779.527 132.365C779.77 132.598 779.907 132.913 779.907 133.242V174.081C779.907 174.41 779.77 174.726 779.527 174.958C779.284 175.191 778.954 175.322 778.61 175.322V175.322ZM420.162 172.841H777.312V134.483H420.162V172.841Z" fill="#231F20"/>
<path d="M438.095 158.202C441.119 158.202 443.57 155.858 443.57 152.967C443.57 150.076 441.119 147.732 438.095 147.732C435.071 147.732 432.619 150.076 432.619 152.967C432.619 155.858 435.071 158.202 438.095 158.202Z" fill="#F2C94C"/>
<path d="M457.764 158.202C460.788 158.202 463.24 155.858 463.24 152.967C463.24 150.076 460.788 147.732 457.764 147.732C454.74 147.732 452.289 150.076 452.289 152.967C452.289 155.858 454.74 158.202 457.764 158.202Z" fill="#D1D3D4"/>
<path d="M477.434 158.202C480.459 158.202 482.91 155.858 482.91 152.967C482.91 150.076 480.459 147.732 477.434 147.732C474.41 147.732 471.959 150.076 471.959 152.967C471.959 155.858 474.41 158.202 477.434 158.202Z" fill="#D1D3D4"/>
<path d="M576.044 334.783C576.044 334.783 495.832 345.725 485.063 334.783C474.294 323.841 449.615 261.416 449.615 261.416L421.07 283.945C421.07 283.945 442.505 400.805 478.861 400.185C515.217 399.565 596.648 371.131 596.648 371.131L576.044 334.783Z" fill="white"/>
<path d="M478.551 401.425C441.702 401.425 420.656 288.957 419.774 284.143C419.742 283.929 419.765 283.711 419.842 283.507C419.919 283.304 420.047 283.122 420.215 282.977L448.76 260.449C448.922 260.324 449.111 260.237 449.314 260.194C449.516 260.151 449.726 260.153 449.928 260.201C450.124 260.26 450.305 260.36 450.457 260.493C450.61 260.626 450.73 260.788 450.81 260.97C451.044 261.59 475.515 323.295 485.972 333.939C494.432 342.499 553.702 336.569 575.837 333.542C576.1 333.514 576.365 333.56 576.6 333.675C576.835 333.79 577.03 333.968 577.161 334.187L597.791 370.436C597.881 370.59 597.935 370.761 597.949 370.936C597.964 371.112 597.938 371.289 597.874 371.454C597.809 371.619 597.708 371.769 597.578 371.893C597.447 372.017 597.289 372.113 597.116 372.173C596.286 372.471 515.01 400.805 478.862 401.425H478.551ZM422.473 284.441C424.341 294.142 445.309 398.944 478.525 398.944H478.81C511.922 398.374 583.804 374.133 594.807 370.337L575.344 336.123C571.192 336.668 553.365 338.926 534.681 340.117C505.876 341.953 488.853 340.44 484.104 335.626C474.139 325.503 453.094 273.599 449.046 263.476L422.473 284.441Z" fill="#231F20"/>
<path d="M361.516 1.94177H1.77148V370.809H361.516V1.94177Z" fill="white"/>
<path d="M361.646 372.074H1.77113C1.42701 372.074 1.09699 371.943 0.853661 371.711C0.610332 371.478 0.473633 371.162 0.473633 370.833V1.96657C0.473633 1.63755 0.610332 1.32201 0.853661 1.08936C1.09699 0.856713 1.42701 0.726013 1.77113 0.726013H361.646C361.99 0.726013 362.32 0.856713 362.563 1.08936C362.807 1.32201 362.943 1.63755 362.943 1.96657V370.833C362.943 371.162 362.807 371.478 362.563 371.711C362.32 371.943 361.99 372.074 361.646 372.074ZM3.19838 369.593H360.219V3.20712H3.06863L3.19838 369.593Z" fill="#231F20"/>
<path d="M361.516 1.94177H1.77148V42.7809H361.516V1.94177Z" fill="white"/>
<path d="M361.646 44.0462H1.77113C1.42909 44.0399 1.10292 43.9071 0.861016 43.6758C0.619113 43.4446 0.480276 43.1327 0.473633 42.8057V1.96657C0.473633 1.63755 0.610332 1.32201 0.853661 1.08936C1.09699 0.856713 1.42701 0.726013 1.77113 0.726013H361.646C361.99 0.726013 362.32 0.856713 362.563 1.08936C362.807 1.32201 362.943 1.63755 362.943 1.96657V42.8057C362.943 43.1347 362.807 43.4502 362.563 43.6829C362.32 43.9155 361.99 44.0462 361.646 44.0462ZM3.19838 41.5651H360.219V3.20712H3.06863L3.19838 41.5651Z" fill="#231F20"/>
<path d="M20.9999 26.9017C24.0239 26.9017 26.4753 24.5578 26.4753 21.6665C26.4753 18.7753 24.0239 16.4314 20.9999 16.4314C17.9759 16.4314 15.5244 18.7753 15.5244 21.6665C15.5244 24.5578 17.9759 26.9017 20.9999 26.9017Z" fill="#F2C94C"/>
<path d="M40.6708 26.9017C43.6948 26.9017 46.1462 24.5578 46.1462 21.6665C46.1462 18.7753 43.6948 16.4314 40.6708 16.4314C37.6468 16.4314 35.1953 18.7753 35.1953 21.6665C35.1953 24.5578 37.6468 26.9017 40.6708 26.9017Z" fill="#D1D3D4"/>
<path d="M60.3407 26.9017C63.3647 26.9017 65.8161 24.5578 65.8161 21.6665C65.8161 18.7753 63.3647 16.4314 60.3407 16.4314C57.3167 16.4314 54.8652 18.7753 54.8652 21.6665C54.8652 24.5578 57.3167 26.9017 60.3407 26.9017Z" fill="#D1D3D4"/>
<path d="M97.5788 328.679L89.1191 370.833H226.472L218.921 349.421L97.5788 328.679Z" fill="#231F20"/>
<path d="M226.472 372.074H89.1704C88.9816 372.074 88.7952 372.034 88.6247 371.957C88.4541 371.88 88.3037 371.767 88.1843 371.627C88.0583 371.49 87.967 371.327 87.9175 371.151C87.868 370.974 87.8616 370.789 87.8988 370.61L96.3585 328.431C96.4216 328.109 96.6152 327.824 96.8972 327.639C97.1791 327.453 97.5265 327.381 97.8636 327.439L219.18 348.181C219.409 348.22 219.623 348.317 219.801 348.46C219.979 348.604 220.113 348.79 220.192 349L227.743 370.412C227.809 370.598 227.828 370.796 227.798 370.99C227.768 371.184 227.69 371.368 227.571 371.528C227.452 371.688 227.295 371.819 227.113 371.909C226.931 372 226.729 372.048 226.524 372.049L226.472 372.074ZM90.7014 369.593H224.655L217.934 350.513L98.5643 330.118L90.7014 369.593Z" fill="#231F20"/>
<path d="M272.611 209.363L350.513 299.104L316.207 312.527L232.752 227.624L272.611 209.363Z" fill="white"/>
<path d="M316.208 313.768C316.032 313.769 315.858 313.734 315.697 313.665C315.536 313.597 315.392 313.496 315.274 313.371L231.897 228.467C231.754 228.329 231.648 228.16 231.589 227.974C231.531 227.788 231.52 227.591 231.559 227.4C231.596 227.206 231.681 227.024 231.807 226.868C231.934 226.712 232.098 226.589 232.286 226.507L272.145 208.246C272.405 208.127 272.7 208.094 272.982 208.152C273.264 208.21 273.517 208.357 273.702 208.569L351.552 298.31C351.684 298.459 351.776 298.636 351.821 298.826C351.866 299.016 351.863 299.214 351.812 299.402C351.759 299.591 351.661 299.765 351.526 299.911C351.391 300.058 351.222 300.172 351.033 300.246L316.753 313.669C316.584 313.747 316.396 313.781 316.208 313.768V313.768ZM234.933 228.021L316.546 311.063L348.386 298.658L272.275 210.975L234.933 228.021Z" fill="#231F20"/>
<path d="M249.203 162.594L288.673 211.769L234.879 239.98L249.203 162.594Z" fill="#F2C94C"/>
<path d="M249.204 162.718C245.908 157.755 171.068 135.227 146.519 151.751C121.971 168.275 95.9429 296.053 89.1699 335.602L238.746 372.372C238.746 372.372 267.343 190.63 249.204 162.718Z" fill="#F2C94C"/>
<path d="M246.09 340.316H245.934C245.765 340.289 245.603 340.23 245.458 340.143C245.313 340.056 245.187 339.942 245.089 339.808C244.99 339.674 244.919 339.523 244.882 339.363C244.845 339.203 244.841 339.038 244.87 338.877C245 337.76 258.26 227.227 253.979 199.537C253.953 199.375 253.961 199.208 254.003 199.049C254.045 198.889 254.119 198.738 254.221 198.606C254.324 198.473 254.452 198.361 254.6 198.276C254.748 198.192 254.911 198.135 255.082 198.111C255.252 198.086 255.426 198.094 255.593 198.134C255.76 198.174 255.917 198.245 256.056 198.343C256.195 198.44 256.312 198.564 256.4 198.705C256.489 198.846 256.548 199.002 256.574 199.165C260.907 227.227 248.036 334.609 247.491 339.15C247.465 339.481 247.303 339.789 247.041 340.007C246.778 340.225 246.437 340.336 246.09 340.316V340.316Z" fill="#231F20"/>
<path d="M207.737 131.778C199.491 129.52 192.051 125.143 186.225 119.125C183.512 116.494 181.702 113.136 181.035 109.498C180.772 107.673 181.136 105.815 182.072 104.204C183.007 102.594 184.465 101.317 186.225 100.566C184.478 99.4305 183.039 97.913 182.028 96.1396C181.017 94.3661 180.463 92.3878 180.412 90.3686C180.361 86.3172 181.465 82.3291 183.604 78.8315C186.199 74.2166 190.48 69.825 195.93 69.6762C193.958 65.6071 191.986 60.893 193.932 56.824C195.043 54.831 196.646 53.1276 198.603 51.8618C202.246 49.1533 206.147 46.7776 210.254 44.7658C212.46 43.6989 215.263 42.7561 217.235 44.1703C218.454 40.0695 220.847 36.3755 224.143 33.5043C227.44 30.6332 231.509 28.6988 235.893 27.9191C240.24 27.0662 244.761 27.625 248.738 29.507C252.461 32.1285 255.935 35.0594 259.118 38.2653C265.476 36.5037 275.57 38.2653 280.267 42.7561C282.299 44.8018 283.718 47.3322 284.375 50.0822C285.033 52.8322 284.905 55.7007 284.004 58.3871C288.575 60.8551 292.533 64.241 295.604 68.3115C297.117 70.3562 298.135 72.6974 298.584 75.165C299.032 77.6327 298.901 80.1649 298.199 82.5779C297.427 84.9636 295.849 87.0371 293.712 88.4738C291.575 89.9104 289.001 90.6292 286.392 90.5175C288.479 92.6482 289.683 95.433 289.779 98.3511C289.874 101.269 288.855 104.12 286.911 106.372C284.853 108.53 282.167 110.051 279.199 110.741C276.231 111.43 273.115 111.257 270.251 110.242C269.442 109.873 268.552 109.694 267.656 109.721C266.679 110.038 265.791 110.564 265.061 111.26C262.466 113.22 259.092 112.55 256.212 113.741C252.31 115.926 248.604 118.416 245.131 121.184C241.528 123.505 237.803 125.65 233.973 127.61C229.743 129.793 225.721 133.118 220.998 134.433C216.846 135.599 214.562 133.863 210.618 132.696L207.737 131.778Z" fill="white"/>
<path d="M218.35 136.021C216.436 135.946 214.557 135.507 212.823 134.731C212.018 134.458 211.188 134.135 210.228 133.862L207.269 132.944C198.823 130.597 191.2 126.104 185.212 119.943C182.297 117.139 180.381 113.527 179.736 109.622C179.533 107.886 179.793 106.129 180.492 104.515C181.191 102.902 182.306 101.483 183.733 100.392C180.886 97.788 179.202 94.2317 179.036 90.4678C179.006 86.2126 180.181 82.029 182.435 78.36C183.888 75.73 187.807 69.9242 193.983 68.7581C192.192 64.7883 190.817 60.4215 192.737 56.3525C193.939 54.1974 195.666 52.3507 197.772 50.9685C201.49 48.1898 205.458 45.7321 209.631 43.6244C211.656 42.4613 214.046 42.0218 216.378 42.3839C217.86 38.3788 220.421 34.8181 223.801 32.0608C227.182 29.3035 231.263 27.447 235.633 26.6784C240.252 25.7681 245.057 26.362 249.282 28.3656C252.951 30.9518 256.42 33.7877 259.662 36.851C266.176 35.3871 276.296 36.975 281.279 41.8132C283.355 43.9039 284.845 46.4636 285.607 49.2533C286.369 52.043 286.38 54.9719 285.638 57.7667C290.046 60.2255 293.851 63.5589 296.797 67.5423C298.416 69.7719 299.488 72.322 299.932 75.0026C300.377 77.6833 300.184 80.4253 299.366 83.0245C298.605 85.2267 297.241 87.1939 295.416 88.7211C293.59 90.2483 291.37 91.2799 288.986 91.7083C290.483 94.0853 291.174 96.8467 290.965 99.614C290.756 102.381 289.657 105.019 287.818 107.166C285.597 109.549 282.67 111.231 279.426 111.989C276.182 112.747 272.774 112.544 269.653 111.408H269.368C268.87 111.192 268.331 111.073 267.785 111.061C267.195 111.227 266.659 111.534 266.228 111.954L265.709 112.351C264.025 113.432 262.075 114.073 260.052 114.212C258.865 114.32 257.702 114.596 256.6 115.031C253.976 116.335 251.512 117.916 249.256 119.745C248.037 120.638 246.843 121.506 245.701 122.226C242.094 124.568 238.351 126.713 234.491 128.652C233.116 129.396 231.74 130.24 230.313 131.133C227.567 133.022 224.552 134.526 221.36 135.599C220.382 135.871 219.369 136.013 218.35 136.021V136.021ZM214.795 44.7409C213.396 44.8382 212.039 45.2368 210.824 45.907C206.787 47.8921 202.948 50.2258 199.355 52.879C197.588 54.0342 196.123 55.5622 195.073 57.345C193.36 60.8929 195.228 65.3093 197.097 69.1302C197.199 69.3135 197.253 69.518 197.253 69.7257C197.253 69.9334 197.199 70.1379 197.097 70.3212C196.979 70.4914 196.822 70.6336 196.637 70.7368C196.453 70.84 196.246 70.9015 196.033 70.9166C190.09 71.0655 186.198 76.8961 184.797 79.402C182.782 82.7069 181.733 86.4688 181.76 90.2941C181.8 92.1154 182.291 93.9018 183.193 95.5063C184.096 97.1108 185.383 98.4877 186.95 99.5238C187.163 99.6407 187.336 99.814 187.448 100.023C187.56 100.232 187.607 100.467 187.582 100.7C187.557 100.934 187.463 101.155 187.309 101.338C187.156 101.522 186.95 101.658 186.717 101.732C185.24 102.397 184.025 103.5 183.254 104.876C182.483 106.252 182.196 107.829 182.435 109.374C183.044 112.761 184.74 115.882 187.288 118.306C192.952 124.192 200.195 128.482 208.229 130.711C209.164 131.034 210.15 131.332 211.136 131.629C212.122 131.927 213.004 132.25 213.731 132.547C215.834 133.64 218.293 133.924 220.608 133.341C223.552 132.335 226.331 130.932 228.86 129.173C230.287 128.305 231.74 127.387 233.245 126.692C237.034 124.758 240.715 122.638 244.274 120.34C245.39 119.596 246.532 118.752 247.725 117.859C250.12 115.934 252.731 114.27 255.51 112.897C256.836 112.368 258.234 112.025 259.662 111.88C261.252 111.797 262.79 111.318 264.126 110.49L264.619 110.143C265.395 109.415 266.379 108.923 267.447 108.729C268.417 108.655 269.39 108.817 270.276 109.2H270.535C273.167 110.134 276.03 110.295 278.758 109.663C281.486 109.031 283.954 107.634 285.846 105.652C287.566 103.636 288.471 101.096 288.394 98.4948C288.318 95.8939 287.266 93.4059 285.431 91.4851C285.232 91.3092 285.097 91.0771 285.045 90.8227C284.994 90.5683 285.029 90.3049 285.145 90.0708C285.258 89.8329 285.447 89.6352 285.685 89.506C285.923 89.3768 286.197 89.3226 286.469 89.3513C288.793 89.4738 291.093 88.8455 292.999 87.5676C294.905 86.2896 296.307 84.4361 296.978 82.3049C297.629 80.0703 297.747 77.7248 297.325 75.4406C296.903 73.1565 295.951 70.9918 294.539 69.1054C291.583 65.1872 287.765 61.9353 283.355 59.578C283.103 59.4298 282.912 59.2039 282.813 58.9377C282.714 58.6715 282.713 58.381 282.81 58.1141C283.648 55.6251 283.77 52.9663 283.162 50.4167C282.555 47.8672 281.241 45.521 279.358 43.6244C274.947 39.2825 265.242 37.8434 259.533 39.4562C259.368 39.5142 259.192 39.5397 259.016 39.5309C258.841 39.5221 258.669 39.4793 258.511 39.405C258.353 39.3308 258.213 39.2266 258.099 39.0989C257.984 38.9712 257.898 38.8227 257.846 38.6622C254.762 35.7665 251.486 33.0648 248.037 30.5738C244.332 28.7949 240.105 28.27 236.048 29.0851C231.908 29.8225 228.064 31.6475 224.947 34.3556C221.831 37.0638 219.564 40.5482 218.402 44.4184C218.347 44.6166 218.243 44.7992 218.099 44.9505C217.954 45.1017 217.773 45.2171 217.571 45.2868C217.369 45.3591 217.152 45.3811 216.938 45.3507C216.725 45.3204 216.523 45.2386 216.352 45.1131C215.882 44.8452 215.341 44.7157 214.795 44.7409V44.7409Z" fill="#231F20"/>
<path d="M267.421 112.872C267.421 112.872 273.26 132.721 269.809 135.202C266.357 137.683 259.429 133.267 259.429 133.267" fill="white"/>
<path d="M267.032 137.386C263.992 137.102 261.079 136.077 258.572 134.408C258.294 134.214 258.106 133.924 258.048 133.6C257.99 133.276 258.066 132.943 258.261 132.671C258.455 132.404 258.752 132.219 259.087 132.159C259.422 132.099 259.768 132.167 260.051 132.349C261.66 133.416 266.772 136.046 268.978 134.334C270.665 133.044 268.978 122.375 266.176 113.195C266.086 112.879 266.128 112.542 266.293 112.256C266.457 111.969 266.731 111.754 267.058 111.656C267.391 111.572 267.746 111.616 268.047 111.778C268.348 111.94 268.57 112.208 268.667 112.525C270.094 117.338 274.454 133.317 270.613 136.269C269.596 137.036 268.326 137.432 267.032 137.386V137.386Z" fill="#231F20"/>
<path d="M275.672 76.0773C276.566 76.9726 277.1 78.1417 277.177 79.3772C277.728 83.734 277.429 88.1506 276.295 92.403C274.354 100.813 271.867 109.1 268.848 117.214C265.128 128.032 261.166 138.783 256.962 149.469C254.367 156.217 235.606 150.709 233.011 147.657L226.86 175.694C226.86 175.694 217.155 175.322 204.336 164.107C191.517 152.893 192.529 149.444 192.529 149.444L204.206 118.455C204.206 118.455 216.48 122.276 228.443 110.49C230.338 108.605 231.947 105.23 234.178 103.816C236.903 102.055 240.043 102.476 242.482 99.8464C243.588 98.6127 244.38 97.1504 244.794 95.5746C245.208 93.9988 245.234 92.3525 244.87 90.7655C244.714 90.0708 244.532 89.2272 245.077 88.7558C245.434 88.515 245.86 88.385 246.297 88.3836C247.506 88.1804 248.661 87.7501 249.695 87.1176C250.729 86.4851 251.622 85.6629 252.322 84.6986C253.022 83.7342 253.514 82.6468 253.772 81.4992C254.03 80.3516 254.047 79.1666 253.822 78.0126C258.519 79.4516 263.164 75.8788 266.797 72.6038C265.682 73.6458 274.038 75.0849 274.167 75.0849C274.725 75.3306 275.234 75.6663 275.672 76.0773Z" fill="white"/>
<path d="M226.86 176.935C226.445 176.935 216.48 176.414 203.505 165C191.075 154.108 191.024 150.114 191.309 149.097L202.986 118.058C203.099 117.75 203.333 117.497 203.639 117.353C203.945 117.209 204.298 117.186 204.621 117.289C205.088 117.438 216.299 120.688 227.509 109.647C228.275 108.826 228.969 107.946 229.585 107.017C230.607 105.406 231.916 103.979 233.452 102.799C234.644 102.093 235.938 101.558 237.292 101.211C238.897 100.913 240.371 100.161 241.522 99.0525C242.503 97.9708 243.208 96.6863 243.582 95.3001C243.956 93.9138 243.988 92.4635 243.676 91.0633C243.459 90.5271 243.403 89.9438 243.513 89.3786C243.623 88.8134 243.895 88.2886 244.299 87.8627C244.811 87.4548 245.449 87.2194 246.115 87.1928C247.165 87.042 248.17 86.6813 249.065 86.134C249.959 85.5868 250.722 84.8654 251.305 84.017C251.937 83.2197 252.385 82.3028 252.617 81.3274C252.85 80.3521 252.863 79.3405 252.655 78.36C252.604 78.1463 252.613 77.9236 252.681 77.7144C252.75 77.5052 252.875 77.317 253.044 77.1691C253.207 77.0133 253.413 76.9049 253.638 76.8566C253.864 76.8083 254.098 76.822 254.316 76.8962C258.364 78.1119 262.646 74.7872 265.915 71.7603C266.036 71.644 266.179 71.5517 266.337 71.4887C266.496 71.4257 266.665 71.3933 266.836 71.3933C267.008 71.3933 267.177 71.4257 267.335 71.4887C267.494 71.5517 267.637 71.644 267.758 71.7603C267.92 71.9385 268.036 72.1511 268.095 72.3805C270.038 73.0787 272.045 73.602 274.089 73.9436L274.686 74.0925C275.375 74.3451 276.016 74.7056 276.581 75.1594V75.1594C277.668 76.2466 278.336 77.6554 278.475 79.154C279.068 83.6662 278.769 88.2447 277.593 92.6512C275.843 100.324 273.58 107.882 270.82 115.279L269.989 117.76C266.304 128.553 262.204 139.42 258.104 150.015C257.608 151.104 256.803 152.038 255.78 152.714C254.758 153.389 253.559 153.777 252.317 153.835C245.867 154.297 239.417 152.943 233.763 149.94L228.054 176.066C227.977 176.313 227.82 176.53 227.606 176.687C227.391 176.843 227.13 176.93 226.86 176.935V176.935ZM193.748 149.841C193.748 149.841 194.086 153.414 205.218 163.189C215.053 171.799 223.046 173.858 225.848 174.329L231.739 147.385C231.789 147.154 231.907 146.942 232.079 146.773C232.25 146.605 232.469 146.486 232.708 146.431C232.947 146.377 233.198 146.388 233.431 146.465C233.664 146.541 233.869 146.68 234.023 146.864C235.502 148.6 245.544 152.272 251.98 151.28C252.763 151.266 253.526 151.048 254.189 150.65C254.852 150.253 255.389 149.69 255.743 149.022C259.947 138.453 263.943 127.61 267.602 116.768L268.432 114.287C271.118 106.983 273.32 99.525 275.024 91.9565C276.096 87.9057 276.395 83.7032 275.906 79.551C275.847 78.5853 275.465 77.6634 274.816 76.921C274.472 76.6576 274.087 76.4482 273.674 76.3007H273.415C271.052 75.9246 268.744 75.2833 266.538 74.3902C263.372 77.1691 259.454 79.8239 255.302 79.5013C255.303 81.5988 254.623 83.6449 253.355 85.3568C252.574 86.4849 251.554 87.4433 250.36 88.17C249.166 88.8966 247.826 89.3752 246.427 89.5746H245.856C245.984 89.8339 246.071 90.1098 246.115 90.3934C246.555 92.1894 246.542 94.0596 246.078 95.8499C245.613 97.6402 244.71 99.2991 243.443 100.69C241.991 102.144 240.122 103.154 238.071 103.593C236.953 103.855 235.885 104.282 234.905 104.858C233.653 105.876 232.583 107.083 231.739 108.431C231.034 109.465 230.244 110.444 229.378 111.359C218.998 121.531 208.618 120.613 205.037 119.943L193.748 149.866V149.841Z" fill="#231F20"/>
<path d="M237.839 107.017C238.443 104.208 238.21 101.293 237.164 98.6058C236.62 96.4361 235.746 94.3545 234.569 92.4279C234.018 91.4927 233.262 90.6826 232.353 90.0531C231.443 89.4235 230.402 88.9895 229.301 88.7806C228.275 88.7193 227.248 88.8667 226.286 89.2132C225.324 89.5596 224.45 90.0972 223.722 90.7903C222.271 92.1908 221.171 93.8874 220.504 95.7526C218.954 99.7764 218.54 104.12 219.306 108.345C220.071 112.571 221.988 116.528 224.864 119.819L224.449 118.976" fill="white"/>
<path d="M224.733 121.06C224.545 121.06 224.358 121.02 224.188 120.943C224.017 120.866 223.867 120.753 223.747 120.613C220.739 117.144 218.733 112.984 217.927 108.544C217.121 104.105 217.544 99.5408 219.154 95.3059C219.896 93.2692 221.112 91.4199 222.709 89.8971C223.568 89.0781 224.601 88.4457 225.739 88.0432C226.876 87.6408 228.091 87.4776 229.301 87.5649C230.642 87.7534 231.921 88.2282 233.044 88.9541C234.167 89.68 235.105 90.6383 235.788 91.7579C236.98 93.8008 237.855 95.999 238.383 98.2833C239.502 101.197 239.736 104.354 239.058 107.389C238.958 107.718 238.725 107.996 238.412 108.161C238.098 108.326 237.728 108.365 237.384 108.27C237.04 108.174 236.749 107.952 236.577 107.652C236.404 107.352 236.363 106.998 236.463 106.669C236.952 104.073 236.701 101.4 235.736 98.9283C235.267 96.8877 234.489 94.9234 233.427 93.0977C232.949 92.2953 232.292 91.6036 231.502 91.0718C230.713 90.54 229.81 90.1813 228.859 90.0212C228.021 89.9796 227.182 90.1085 226.4 90.3993C225.617 90.6901 224.907 91.1363 224.318 91.7083C223.044 92.9857 222.086 94.5204 221.516 96.1991C220.155 99.7714 219.728 103.607 220.27 107.373C220.813 111.14 222.309 114.722 224.63 117.81C224.8 117.858 224.958 117.94 225.092 118.052C225.226 118.163 225.334 118.3 225.408 118.455L225.823 119.298C225.955 119.569 225.981 119.876 225.895 120.163C225.809 120.45 225.618 120.698 225.356 120.861C225.168 120.975 224.955 121.043 224.733 121.06V121.06Z" fill="#231F20"/>
<path d="M233.011 147.657C233.011 147.657 224.318 141.852 221.93 134.135C221.93 134.135 217.052 150.858 230.26 160.137L233.011 147.657Z" fill="#231F20"/>
<path d="M230.261 161.378C229.993 161.377 229.731 161.299 229.509 161.155C215.729 151.453 220.634 133.862 220.66 133.862C220.734 133.6 220.896 133.368 221.121 133.202C221.346 133.037 221.621 132.946 221.905 132.944C222.185 132.948 222.456 133.037 222.68 133.197C222.904 133.358 223.069 133.582 223.151 133.838C225.357 141.008 233.531 146.615 233.739 146.69C233.945 146.83 234.103 147.024 234.196 147.248C234.288 147.473 234.309 147.719 234.258 147.955L231.507 160.361C231.467 160.567 231.372 160.76 231.231 160.921C231.09 161.082 230.908 161.205 230.703 161.279C230.562 161.335 230.413 161.369 230.261 161.378V161.378ZM222.476 138.527C221.977 142.049 222.344 145.635 223.546 148.998C224.749 152.362 226.755 155.411 229.405 157.904L231.533 148.178C227.914 145.534 224.85 142.259 222.502 138.527H222.476Z" fill="#231F20"/>
<path d="M263.983 102.4C264.782 100.288 264.731 98.3339 263.869 98.0357C263.007 97.7375 261.66 99.2083 260.861 101.321C260.062 103.433 260.113 105.387 260.975 105.685C261.837 105.984 263.184 104.513 263.983 102.4Z" fill="#231F20"/>
<path d="M259.325 133.366L248.218 124.93C248.218 124.93 239.629 138.353 243.885 145.424C248.141 152.496 256.548 140.388 259.325 133.366Z" fill="white"/>
<path d="M247.076 148.823C246.154 148.797 245.258 148.522 244.491 148.031C243.724 147.539 243.118 146.851 242.743 146.045C238.176 138.428 246.739 124.856 247.128 124.285C247.223 124.135 247.352 124.006 247.504 123.907C247.656 123.809 247.829 123.743 248.011 123.715C248.188 123.682 248.371 123.687 248.546 123.73C248.721 123.773 248.884 123.852 249.023 123.963L260.129 132.399C260.341 132.566 260.494 132.791 260.568 133.044C260.642 133.296 260.634 133.565 260.544 133.813C258.754 138.328 253.019 148.377 247.569 148.699L247.076 148.823ZM248.607 126.816C246.687 130.166 241.886 139.619 245 144.829C245.857 146.268 246.687 146.367 247.232 146.342C250.346 146.094 255.277 139.569 257.768 133.788L248.607 126.816Z" fill="#231F20"/>
<path d="M527.248 293.21L424.438 165.013L169.311 352.052L272.121 480.249L527.248 293.21Z" fill="white"/>
<path d="M272.118 481.466C271.92 481.464 271.726 481.418 271.55 481.332C271.375 481.246 271.223 481.122 271.106 480.97L168.292 352.796C168.188 352.667 168.111 352.519 168.066 352.361C168.022 352.204 168.01 352.04 168.032 351.878C168.084 351.548 168.259 351.248 168.525 351.034L423.64 164.008C423.773 163.906 423.927 163.83 424.091 163.786C424.256 163.742 424.428 163.73 424.598 163.75C424.767 163.771 424.931 163.825 425.078 163.907C425.226 163.99 425.354 164.1 425.456 164.231L528.27 292.43C528.376 292.559 528.453 292.706 528.498 292.864C528.542 293.022 528.553 293.186 528.53 293.348C528.477 293.67 528.301 293.962 528.037 294.167L272.922 481.193C272.693 481.367 272.41 481.463 272.118 481.466ZM171.146 352.25L272.351 478.489L525.39 292.951L424.185 166.737L171.146 352.25Z" fill="#231F20"/>
<path d="M293.838 440.751H293.604C293.428 440.729 293.258 440.668 293.11 440.573C292.962 440.479 292.838 440.353 292.748 440.205L292.177 439.461C287.99 434.254 281.815 430.847 275.004 429.987C268.194 429.126 261.305 430.883 255.847 434.871C255.714 434.973 255.56 435.049 255.396 435.093C255.231 435.137 255.059 435.149 254.889 435.128C254.72 435.108 254.556 435.054 254.409 434.972C254.261 434.889 254.133 434.779 254.031 434.648L210.72 380.634C210.511 380.374 210.418 380.045 210.462 379.719C210.506 379.394 210.682 379.098 210.954 378.897C216.4 374.894 219.963 368.989 220.863 362.478C221.763 355.967 219.926 349.38 215.754 344.161C215.57 343.911 215.371 343.671 215.158 343.442C215.029 343.32 214.931 343.172 214.873 343.008C214.814 342.845 214.796 342.67 214.82 342.499C214.833 342.329 214.883 342.163 214.968 342.014C215.053 341.864 215.171 341.733 215.313 341.631L401.998 204.773C402.137 204.663 402.3 204.584 402.475 204.54C402.649 204.497 402.832 204.49 403.01 204.521C403.188 204.551 403.356 204.619 403.504 204.718C403.652 204.817 403.775 204.946 403.866 205.095L404.411 205.815C408.594 211.025 414.768 214.437 421.578 215.302C428.389 216.167 435.28 214.415 440.741 210.43C441.019 210.239 441.36 210.151 441.701 210.181C442.038 210.232 442.343 210.4 442.557 210.653L485.868 264.667C486.077 264.927 486.17 265.256 486.126 265.581C486.083 265.907 485.906 266.202 485.634 266.403C480.189 270.407 476.625 276.311 475.725 282.822C474.825 289.334 476.662 295.921 480.834 301.139L481.456 301.858C481.584 301.981 481.68 302.13 481.738 302.293C481.797 302.456 481.816 302.63 481.794 302.801C481.779 302.974 481.727 303.142 481.642 303.296C481.558 303.449 481.442 303.585 481.301 303.694L294.617 440.602C294.382 440.733 294.108 440.786 293.838 440.751V440.751ZM271.573 427.254C275.915 427.25 280.201 428.193 284.104 430.012C288.007 431.831 291.425 434.477 294.098 437.749L478.654 302.454C474.282 296.886 472.301 289.931 473.116 283.013C473.932 276.094 477.481 269.735 483.039 265.237L441.286 213.134C435.277 217.101 427.905 218.716 420.689 217.645C413.473 216.574 406.96 212.9 402.491 207.378L217.908 342.698C222.28 348.265 224.261 355.22 223.446 362.139C222.631 369.057 219.081 375.416 213.523 379.914L255.276 432.018C260.074 428.88 265.76 427.218 271.573 427.254V427.254Z" fill="#D1D3D4"/>
<path d="M211.967 235.762C211.967 235.762 291.218 328.332 305.542 331.632C319.867 334.932 343.481 330.887 341.872 338.132C340.264 345.377 317.428 345.402 317.428 345.402C317.428 345.402 345.402 357.063 341.95 364.928C338.499 372.793 325.29 379.22 313.405 374.381C301.52 369.543 294.955 361.058 284.627 356.22C274.299 351.381 177.401 265.609 177.401 265.609L211.967 235.762Z" fill="white"/>
<path d="M322.019 377.309C318.879 377.314 315.771 376.706 312.885 375.523C307.001 372.895 301.518 369.515 296.588 365.474C292.732 362.334 288.529 359.606 284.054 357.336C273.674 352.374 180.462 270.026 176.491 266.503C176.361 266.385 176.256 266.242 176.185 266.085C176.113 265.927 176.077 265.757 176.076 265.585C176.078 265.411 176.119 265.239 176.195 265.081C176.271 264.923 176.381 264.782 176.517 264.667L211.083 234.893C211.215 234.786 211.369 234.704 211.535 234.653C211.701 234.602 211.876 234.583 212.049 234.597C212.223 234.611 212.392 234.657 212.547 234.734C212.701 234.81 212.839 234.915 212.951 235.042C234.931 260.697 294.434 327.861 305.852 330.466C311.969 331.566 318.182 332.098 324.406 332.054C333.151 332.277 339.976 332.451 342.364 335.254C342.723 335.704 342.972 336.225 343.093 336.779C343.214 337.333 343.204 337.905 343.064 338.455C341.689 344.286 329.96 345.898 322.746 346.494C331.309 350.513 346.101 358.626 343.064 365.474C340.679 370.163 336.483 373.783 331.361 375.572C328.394 376.723 325.221 377.313 322.019 377.309V377.309ZM179.294 265.659C189.674 274.938 275.75 350.712 285.196 355.153C289.821 357.507 294.171 360.327 298.171 363.564C302.914 367.489 308.207 370.763 313.897 373.29C316.506 374.334 319.307 374.873 322.136 374.873C324.965 374.873 327.765 374.334 330.375 373.29C334.894 371.759 338.616 368.61 340.755 364.507C342.805 359.842 328.039 351.233 316.907 346.593C316.634 346.479 316.41 346.279 316.273 346.026C316.135 345.773 316.094 345.483 316.154 345.204C316.209 344.921 316.367 344.667 316.6 344.485C316.833 344.303 317.125 344.206 317.426 344.211C325.808 344.211 339.535 342.499 340.599 337.934C340.668 337.744 340.687 337.541 340.656 337.342C340.624 337.143 340.542 336.955 340.418 336.793C338.861 334.882 331.517 334.708 324.432 334.535C318.016 334.575 311.611 334.018 305.307 332.872C291.372 329.697 220.996 248.217 211.887 237.623L179.294 265.659Z" fill="#231F20"/>
<path d="M185.264 188.943L217.805 229.782L171.484 270.621L143.666 239.98" fill="#F2C94C"/>
<path d="M171.485 271.887C171.136 271.866 170.81 271.715 170.577 271.465L142.759 240.823C142.521 240.591 142.388 240.279 142.388 239.955C142.388 239.63 142.521 239.318 142.759 239.086C142.879 238.97 143.023 238.878 143.181 238.815C143.339 238.752 143.509 238.719 143.68 238.719C143.851 238.719 144.021 238.752 144.179 238.815C144.337 238.878 144.48 238.97 144.601 239.086L171.537 268.86L216.067 229.708L184.227 189.762C184.017 189.499 183.925 189.166 183.971 188.838C184.017 188.51 184.198 188.213 184.473 188.013C184.749 187.812 185.096 187.724 185.439 187.768C185.782 187.812 186.093 187.985 186.303 188.248L218.922 229.013C219.113 229.265 219.203 229.574 219.174 229.884C219.145 230.195 219.001 230.484 218.766 230.7L172.445 271.539C172.181 271.765 171.839 271.889 171.485 271.887V271.887Z" fill="#231F20"/>
<path d="M664.353 244.594C672.035 245.072 679.532 247.047 686.385 250.4C698.322 255.859 709.74 264.84 712.335 277.246C714.489 287.17 710.493 297.64 705.432 306.696C700.372 315.753 694.144 324.387 691.315 334.286C688.487 344.186 689.81 356.095 698.011 362.72C687.189 358.13 676.161 353.391 667.441 345.749C662.251 341.258 657.944 335.453 657.451 328.853C657.47 323.384 658.858 317.999 661.499 313.147C664.82 305.704 668.376 298.137 668.895 290.073C669.414 282.009 666.3 273.152 658.982 269.083C652.598 265.51 631.708 265.857 634.978 254.643C637.625 245.736 656.88 244.197 664.353 244.594Z" fill="white"/>
<path d="M698.114 363.837C697.943 363.874 697.766 363.874 697.595 363.837C686.799 359.247 675.641 354.508 666.662 346.642C660.305 341.06 656.723 334.932 656.282 328.903C656.284 323.238 657.707 317.656 660.434 312.626L660.875 311.659C663.989 304.687 667.233 297.467 667.726 289.974C668.297 281.389 664.664 273.599 658.462 270.125C655.854 268.98 653.109 268.147 650.288 267.644C644.112 266.254 637.105 264.667 634.484 260.449C633.928 259.507 633.583 258.464 633.471 257.388C633.36 256.311 633.484 255.224 633.836 254.196C636.69 244.421 656.879 242.957 664.405 243.255C672.269 243.722 679.947 245.741 686.955 249.184C695.571 253.129 710.492 261.962 713.736 276.898C715.604 285.607 713.372 295.234 706.703 307.168C705.406 309.525 704.108 311.832 702.629 314.165C698.445 320.525 695.106 327.36 692.69 334.51C690.303 342.772 690.536 354.83 698.97 361.802C699.215 361.992 699.377 362.263 699.425 362.561C699.473 362.859 699.403 363.163 699.23 363.415C699.096 363.569 698.923 363.689 698.728 363.763C698.533 363.836 698.322 363.862 698.114 363.837V363.837ZM662.666 245.661C653.973 245.661 638.455 247.745 636.405 254.841C636.143 255.545 636.04 256.293 636.102 257.037C636.165 257.781 636.392 258.504 636.768 259.158C638.818 262.483 645.254 263.922 650.937 265.212C654.008 265.718 656.994 266.619 659.811 267.892C666.87 271.812 671.022 280.521 670.373 290.024C669.854 297.963 666.533 305.382 663.289 312.527L662.848 313.52C660.486 318.829 658.54 323.643 658.929 328.63C659.448 335.428 664.405 341.035 668.505 344.707C675.907 350.722 684.252 355.586 693.235 359.122C688.045 351.505 688.045 341.234 690.225 333.84C692.691 326.478 696.118 319.443 700.423 312.899C701.799 310.592 703.174 308.309 704.471 305.977C710.829 294.589 712.983 285.483 711.244 277.37C708.234 263.476 694.066 255.04 685.891 251.393C679.207 248.1 671.883 246.166 664.379 245.711L662.666 245.661Z" fill="#231F20"/>
<path d="M655.011 247.076C657.535 251.261 658.505 256.141 657.761 260.92C657.543 264.148 656.323 267.24 654.258 269.802C652.896 271.261 651.197 272.395 649.296 273.114C647.395 273.833 645.344 274.118 643.307 273.946C641.472 273.921 639.713 273.239 638.377 272.035C637.41 270.892 636.783 269.521 636.56 268.066C634.329 257.893 641.906 227.376 655.011 247.076Z" fill="#231F20"/>
<path d="M644.344 275.137H643.202C641.039 275.088 638.974 274.264 637.415 272.829C636.291 271.518 635.556 269.941 635.288 268.264C633.653 260.821 636.974 242.709 644.526 239.756C648.315 238.292 652.311 240.501 656.1 246.356C658.785 250.786 659.827 255.952 659.058 261.019C658.811 264.484 657.492 267.8 655.269 270.547C653.894 272.01 652.208 273.176 650.324 273.968C648.44 274.759 646.402 275.158 644.344 275.137ZM646.732 241.791C646.311 241.792 645.896 241.876 645.512 242.039C639.855 244.247 636.248 260.647 637.727 267.743C637.911 268.97 638.42 270.132 639.206 271.117C640.339 272.076 641.794 272.613 643.306 272.631C645.137 272.788 646.981 272.535 648.692 271.894C650.404 271.252 651.936 270.239 653.167 268.934C655.069 266.563 656.19 263.704 656.385 260.722C657.08 256.216 656.166 251.618 653.79 247.671V247.671C652.051 244.867 649.404 241.791 646.732 241.791Z" fill="#231F20"/>
<path d="M586.528 312.875C589.642 316.323 594.313 318.283 602.098 317.514C608.541 316.673 614.661 314.302 619.899 310.617C630.138 303.691 638.155 294.175 643.051 283.135C647.946 272.095 649.526 259.969 647.614 248.118C643.358 224.15 618.342 200.331 591.432 209.536C586.896 211.123 582.777 213.64 579.366 216.911C575.954 220.181 573.332 224.125 571.684 228.467C569.876 227.897 567.933 227.839 566.091 228.302C564.249 228.764 562.587 229.726 561.304 231.072C554.35 237.722 554.635 244.793 558.372 252.757C564.522 265.833 572.074 278.288 577.601 291.636C580.741 299.427 581.987 307.788 586.528 312.875Z" fill="white"/>
<path d="M598.802 319.028C596.318 319.177 593.832 318.781 591.533 317.869C589.235 316.957 587.185 315.554 585.541 313.768V313.768C582.423 309.607 580.208 304.891 579.028 299.898C578.197 297.417 577.341 294.738 576.433 292.182C573.189 284.367 569.167 276.725 565.274 269.306C562.679 264.121 559.747 258.762 557.23 253.378C552.792 243.925 553.804 236.605 560.422 230.278C561.761 228.924 563.435 227.914 565.29 227.341C567.145 226.769 569.121 226.653 571.035 227.003C572.835 222.739 575.553 218.885 579.014 215.692C582.474 212.498 586.599 210.037 591.121 208.469C596.372 206.667 601.981 206.021 607.53 206.58C613.079 207.138 618.425 208.887 623.169 211.695C629.919 215.669 635.718 220.957 640.188 227.215C644.659 233.473 647.702 240.562 649.119 248.018C650.963 260.096 649.278 272.425 644.249 283.644C639.22 294.862 631.045 304.532 620.626 311.584C615.205 315.379 608.882 317.826 602.227 318.705C601.092 318.872 599.949 318.98 598.802 319.028V319.028ZM587.41 312.056C590.576 315.604 595.195 317.018 601.864 316.274C608.095 315.455 614.012 313.151 619.069 309.575C629.073 302.765 636.907 293.438 641.703 282.628C646.499 271.819 648.069 259.951 646.238 248.341C644.902 241.243 642.019 234.493 637.777 228.53C633.534 222.567 628.026 217.524 621.612 213.729C617.192 211.12 612.216 209.493 607.051 208.969C601.886 208.445 596.663 209.037 591.769 210.702C587.409 212.216 583.45 214.627 580.172 217.766C576.894 220.904 574.377 224.693 572.8 228.864C572.739 229.023 572.646 229.168 572.526 229.292C572.405 229.415 572.26 229.515 572.099 229.584C571.937 229.657 571.76 229.695 571.58 229.695C571.401 229.695 571.224 229.657 571.061 229.584C569.462 229.121 567.757 229.11 566.151 229.55C564.545 229.99 563.105 230.863 562.005 232.065C556.114 237.697 555.31 243.776 559.41 252.385C562.005 257.719 564.6 263.054 567.428 268.215C571.321 275.658 575.369 283.399 578.665 291.289C579.754 293.919 580.611 296.598 581.441 299.204C582.566 303.856 584.609 308.26 587.462 312.18L587.41 312.056Z" fill="#231F20"/>
<path d="M566.444 257.546C566.444 257.546 550.148 270.845 551.471 274.914C552.794 278.983 561.28 278.859 561.28 278.859" fill="white"/>
<path d="M561.124 280.074C559.593 280.074 551.73 279.851 550.225 275.261C548.72 270.671 561.617 259.853 565.587 256.603C565.854 256.393 566.196 256.291 566.54 256.319C566.885 256.347 567.204 256.502 567.43 256.752C567.541 256.875 567.626 257.018 567.678 257.172C567.731 257.327 567.75 257.49 567.736 257.652C567.721 257.814 567.673 257.971 567.594 258.115C567.514 258.259 567.406 258.386 567.274 258.489C559.723 264.667 552.067 272.556 552.716 274.517C553.573 276.998 559.282 277.643 561.254 277.593C561.593 277.593 561.92 277.72 562.162 277.948C562.405 278.175 562.545 278.484 562.551 278.809C562.552 279.136 562.419 279.451 562.182 279.687C561.945 279.922 561.622 280.061 561.28 280.074H561.124Z" fill="#231F20"/>
<path d="M557.594 347.089C575.915 348.429 607.185 330.788 607.418 330.118C610.747 318.744 613.475 307.217 615.592 295.581C615.592 295.581 603.188 292.281 600.022 276.179C596.856 260.077 581.39 257.645 575.266 236.481C566.365 240.128 564.886 252.608 562.602 260.374C559.402 271.324 556.478 282.324 553.831 293.373C552.119 300.37 570.803 305.779 574.591 304.513C570.647 314.984 570.647 314.984 557.594 347.089Z" fill="white"/>
<path d="M559.515 348.404C558.84 348.404 558.165 348.404 557.491 348.404C557.291 348.388 557.099 348.328 556.928 348.229C556.757 348.13 556.612 347.995 556.504 347.833C556.409 347.662 556.359 347.47 556.359 347.275C556.359 347.081 556.409 346.889 556.504 346.717C568.727 316.596 569.479 314.735 572.983 306.027C566.55 305.534 560.412 303.239 555.337 299.427C554.338 298.726 553.564 297.77 553.106 296.669C552.647 295.568 552.521 294.366 552.742 293.199C555.337 282.183 558.347 271.068 561.539 260.176C561.902 258.886 562.265 257.447 562.655 255.933C564.549 248.266 566.936 238.739 574.955 235.464C575.122 235.39 575.303 235.352 575.487 235.352C575.671 235.352 575.852 235.39 576.019 235.464C576.186 235.544 576.334 235.655 576.455 235.792C576.575 235.928 576.665 236.087 576.72 236.258C579.782 246.902 585.205 252.534 590.421 257.992C595.637 263.451 599.919 267.917 601.476 276.03C604.356 291.115 615.541 294.341 616.008 294.465C616.32 294.547 616.589 294.737 616.762 294.999C616.935 295.26 616.999 295.574 616.942 295.879C614.829 307.586 612.083 319.18 608.716 330.615C608.015 332.351 577.757 348.404 559.515 348.404ZM559.515 345.923C576.278 345.923 603.163 331.681 606.225 329.424C609.407 318.55 612.006 307.528 614.01 296.4C610.74 295.135 601.398 290.371 598.725 276.402C597.324 268.959 593.146 264.642 588.345 259.605C581.992 253.686 577.237 246.381 574.488 238.317C568.701 241.642 566.703 249.805 565.016 256.429C564.627 257.968 564.263 259.431 563.874 260.771C560.708 271.639 557.75 282.704 555.103 293.696C555.018 294.433 555.141 295.18 555.461 295.856C555.781 296.533 556.284 297.115 556.92 297.541C561.694 301.784 572.152 304.042 574.384 303.372C574.617 303.309 574.863 303.308 575.097 303.369C575.33 303.43 575.541 303.551 575.707 303.719C575.873 303.89 575.985 304.101 576.031 304.329C576.076 304.557 576.054 304.793 575.967 305.01C571.841 315.256 571.841 315.43 559.463 345.923H559.515Z" fill="#231F20"/>
<path d="M556.635 285.359C556.635 285.359 563.927 293.001 571.245 285.533Z" fill="white"/>
<path d="M564.316 290.048C561.062 289.824 558.01 288.454 555.752 286.203C555.636 286.082 555.546 285.941 555.487 285.787C555.429 285.633 555.402 285.47 555.409 285.306C555.417 285.143 555.457 284.982 555.53 284.834C555.602 284.685 555.704 284.552 555.83 284.441C555.956 284.33 556.104 284.244 556.264 284.188C556.425 284.132 556.596 284.107 556.767 284.113C556.938 284.12 557.106 284.159 557.262 284.228C557.417 284.297 557.556 284.395 557.672 284.515C559.437 286.27 561.806 287.354 564.341 287.567C565.498 287.492 566.627 287.199 567.665 286.705C568.703 286.211 569.628 285.526 570.388 284.689C570.505 284.57 570.646 284.475 570.803 284.408C570.959 284.341 571.127 284.304 571.298 284.3C571.469 284.295 571.64 284.323 571.8 284.381C571.96 284.439 572.106 284.527 572.23 284.64C572.355 284.752 572.455 284.887 572.525 285.036C572.595 285.185 572.633 285.346 572.638 285.51C572.643 285.674 572.614 285.837 572.553 285.989C572.492 286.142 572.4 286.282 572.282 286.401C571.296 287.509 570.077 288.407 568.705 289.035C567.332 289.664 565.837 290.009 564.316 290.048V290.048Z" fill="#231F20"/>
<path d="M574.825 304.563C574.825 304.563 584.556 306.771 590.992 301.66C590.992 301.66 585.361 318.184 569.038 318.904L574.825 304.563Z" fill="#231F20"/>
<path d="M569.038 320.144C568.833 320.146 568.63 320.102 568.445 320.016C568.26 319.93 568.099 319.804 567.974 319.648C567.853 319.475 567.776 319.277 567.749 319.07C567.722 318.863 567.746 318.654 567.819 318.457L573.631 304.116C573.747 303.839 573.961 303.61 574.237 303.469C574.512 303.328 574.831 303.285 575.136 303.347C575.136 303.347 584.323 305.357 590.162 300.692C590.388 300.535 590.66 300.45 590.94 300.45C591.22 300.45 591.492 300.535 591.719 300.692C591.955 300.842 592.133 301.061 592.227 301.316C592.32 301.571 592.324 301.849 592.237 302.107C592.237 302.28 586.113 319.474 569.09 320.219L569.038 320.144ZM575.655 305.977L571.01 317.49C580.378 316.199 585.698 309.153 588.111 304.761C584.153 306.243 579.846 306.663 575.655 305.977V305.977Z" fill="#231F20"/>
<path d="M573.546 253.711C574.033 251.526 573.701 249.607 572.803 249.424C571.906 249.242 570.784 250.864 570.298 253.049C569.811 255.233 570.143 257.152 571.04 257.335C571.937 257.518 573.059 255.895 573.546 253.711Z" fill="#231F20"/>
<path d="M588.008 269.53C589.141 266.878 591.029 264.583 593.457 262.905C595.12 261.382 597.009 260.103 599.062 259.109C600.108 258.633 601.252 258.386 602.41 258.386C603.568 258.386 604.712 258.633 605.758 259.109C606.638 259.599 607.401 260.261 607.996 261.052C608.59 261.843 609.004 262.745 609.209 263.699C609.608 265.624 609.537 267.611 609.001 269.505C607.961 273.658 605.794 277.475 602.719 280.573C599.644 283.67 595.769 285.937 591.485 287.145L592.316 286.674" fill="white"/>
<path d="M591.485 288.287C591.231 288.291 590.982 288.222 590.769 288.09C590.556 287.957 590.39 287.766 590.291 287.542C590.171 287.269 590.158 286.964 590.253 286.681C590.348 286.399 590.546 286.159 590.81 286.004L591.641 285.508C591.791 285.422 591.959 285.366 592.133 285.345C592.307 285.323 592.484 285.337 592.653 285.384C596.363 284.059 599.678 281.885 602.306 279.052C604.935 276.219 606.797 272.813 607.73 269.133C608.217 267.426 608.288 265.635 607.937 263.897C607.779 263.111 607.448 262.365 606.964 261.71C606.481 261.056 605.857 260.507 605.135 260.101C604.254 259.735 603.3 259.558 602.341 259.584C601.381 259.61 600.439 259.837 599.581 260.25C597.675 261.198 595.926 262.41 594.391 263.848C592.119 265.367 590.324 267.452 589.201 269.877C589.094 270.19 588.863 270.451 588.558 270.604C588.253 270.757 587.897 270.79 587.567 270.696C587.241 270.598 586.969 270.382 586.808 270.095C586.648 269.807 586.613 269.47 586.71 269.157C587.926 266.277 589.968 263.783 592.601 261.962C594.35 260.334 596.355 258.977 598.543 257.943C599.757 257.382 601.088 257.091 602.436 257.091C603.784 257.091 605.114 257.382 606.328 257.943C607.379 258.518 608.29 259.3 609.001 260.237C609.712 261.173 610.207 262.243 610.454 263.376C610.885 265.482 610.814 267.653 610.247 269.728C609.133 274.095 606.844 278.107 603.607 281.367C600.371 284.627 596.299 287.021 591.796 288.312L591.485 288.287Z" fill="#231F20"/>
<path d="M554.532 334.063C554.532 334.063 610.065 312.626 627.426 331.334C644.786 350.042 654.414 393.362 647.07 487.197L517.164 482.781C517.164 482.781 527.544 345.6 554.532 334.063Z" fill="#F2C94C"/>
<path d="M477.59 362.447C471.596 357.485 421.694 294.291 421.045 283.945C420.397 273.599 415.855 255.561 413.26 256.826C410.665 258.092 409.368 274.541 409.368 274.541C409.368 274.541 397.042 253.353 391.852 253.526C386.662 253.7 374.309 267.421 374.958 274.541C375.607 281.662 432.749 411.995 459.348 415.717C485.946 419.438 555.155 389.64 561.461 388.424C567.767 387.209 590.862 338.802 561.461 331.681C561.461 331.657 483.611 367.335 477.59 362.447Z" fill="white"/>
<path d="M464.407 417.255C462.671 417.265 460.937 417.158 459.217 416.932C431.424 413.062 374.438 282.555 373.582 274.641C373.167 269.951 377.578 263.352 381.367 259.109C382.82 257.546 387.854 252.41 391.747 252.286C396.392 252.286 404.125 263.699 408.303 270.497C408.978 264.294 410.249 256.802 412.559 255.611C412.844 255.458 413.166 255.379 413.493 255.379C413.82 255.379 414.142 255.458 414.427 255.611C418.034 257.595 421.693 275.261 422.212 283.697C422.809 293.199 471.154 355.475 478.29 361.306C482.001 363.787 523.132 347.61 560.785 330.366C560.921 330.311 561.066 330.283 561.213 330.283C561.361 330.283 561.506 330.311 561.642 330.366C572.022 332.848 577.497 340.737 577.212 352.969C576.822 368.452 566.598 388.549 561.642 389.541C560.344 389.789 555.569 391.576 549.497 393.858C528.789 401.698 487.191 417.255 464.407 417.255ZM391.929 254.767C390.475 254.767 387.309 256.702 383.547 260.746C378.928 265.709 376.021 271.242 376.307 274.417C377.059 282.754 435.006 411.052 459.58 414.476C479.951 417.329 526.375 399.962 548.692 391.625C555.336 389.144 559.747 387.482 561.252 387.184C564.029 386.638 574.409 368.948 574.798 352.994C575.058 342.077 570.646 335.329 561.642 332.972C558.657 334.336 540.7 342.474 522.327 350.017C481.145 366.938 478.083 364.457 476.785 363.39C471.154 358.775 420.499 295.06 419.695 283.994C419.098 274.467 415.543 260.746 413.519 258.216C412.403 260.077 411.132 267.842 410.613 274.591C410.598 274.862 410.491 275.12 410.308 275.327C410.125 275.534 409.876 275.678 409.6 275.737C409.323 275.796 409.034 275.767 408.777 275.654C408.519 275.541 408.307 275.351 408.173 275.112C402.516 265.312 394.679 254.767 391.929 254.767Z" fill="#231F20"/>
<path d="M517.163 482.88L514.153 502.109H647.069V487.198L517.163 482.88Z" fill="#231F20"/>
<path d="M647.096 503.349H514.154C513.968 503.352 513.784 503.315 513.614 503.242C513.445 503.169 513.294 503.061 513.173 502.926C513.051 502.791 512.962 502.633 512.912 502.462C512.862 502.29 512.852 502.111 512.882 501.935L515.867 482.682C515.899 482.377 516.057 482.096 516.304 481.901C516.552 481.706 516.87 481.612 517.19 481.64L647.096 485.957C647.431 485.97 647.748 486.106 647.98 486.337C648.212 486.569 648.342 486.877 648.341 487.197V502.084C648.348 502.409 648.222 502.723 647.989 502.96C647.756 503.197 647.435 503.336 647.096 503.349ZM515.685 500.868H645.798V488.463L518.28 484.22L515.685 500.868Z" fill="#231F20"/>
<path d="M106.48 85.4808H40.6705C40.3285 85.4744 40.0023 85.3417 39.7604 85.1104C39.5185 84.8791 39.3797 84.5672 39.373 84.2402C39.373 83.9112 39.5097 83.5956 39.7531 83.363C39.9964 83.1303 40.3264 82.9996 40.6705 82.9996H106.48C106.824 82.9996 107.154 83.1303 107.397 83.363C107.641 83.5956 107.777 83.9112 107.777 84.2402C107.777 84.5692 107.641 84.8848 107.397 85.1174C107.154 85.3501 106.824 85.4808 106.48 85.4808Z" fill="#D1D3D4"/>
<path d="M73.6011 120.837H40.6705C40.3264 120.837 39.9964 120.706 39.7531 120.473C39.5097 120.241 39.373 119.925 39.373 119.596C39.3797 119.269 39.5185 118.957 39.7604 118.726C40.0023 118.495 40.3285 118.362 40.6705 118.355H73.6011C73.9453 118.355 74.2753 118.486 74.5186 118.719C74.7619 118.951 74.8986 119.267 74.8986 119.596C74.8986 119.925 74.7619 120.241 74.5186 120.473C74.2753 120.706 73.9453 120.837 73.6011 120.837Z" fill="#D1D3D4"/>
<path d="M737.168 406.685H691.211C690.866 406.685 690.536 406.555 690.293 406.322C690.05 406.089 689.913 405.774 689.913 405.445C689.913 405.116 690.05 404.8 690.293 404.568C690.536 404.335 690.866 404.204 691.211 404.204H737.22C737.564 404.204 737.894 404.335 738.137 404.568C738.381 404.8 738.517 405.116 738.517 405.445C738.518 405.612 738.482 405.778 738.414 405.931C738.346 406.085 738.245 406.224 738.119 406.34C737.993 406.456 737.844 406.546 737.681 406.606C737.517 406.665 737.343 406.692 737.168 406.685Z" fill="#D1D3D4"/>
<path d="M720.119 432.812H691.211C690.866 432.812 690.536 432.681 690.293 432.448C690.05 432.216 689.913 431.9 689.913 431.571C689.913 431.242 690.05 430.926 690.293 430.694C690.536 430.461 690.866 430.33 691.211 430.33H720.171C720.513 430.337 720.839 430.47 721.081 430.701C721.323 430.932 721.462 431.244 721.468 431.571C721.468 431.738 721.433 431.904 721.365 432.057C721.296 432.211 721.196 432.35 721.07 432.466C720.944 432.582 720.795 432.672 720.631 432.732C720.468 432.791 720.294 432.818 720.119 432.812V432.812Z" fill="#D1D3D4"/>
<path d="M733.43 474.395H698.761C696.403 474.388 694.143 473.49 692.475 471.895C690.807 470.3 689.867 468.14 689.86 465.885V460.451C689.867 458.196 690.807 456.035 692.475 454.441C694.143 452.846 696.403 451.947 698.761 451.941H733.43C735.789 451.947 738.049 452.846 739.717 454.441C741.384 456.035 742.324 458.196 742.331 460.451V465.81C742.338 466.933 742.113 468.046 741.669 469.086C741.225 470.126 740.571 471.071 739.744 471.869C738.917 472.666 737.934 473.3 736.851 473.733C735.767 474.167 734.605 474.392 733.43 474.395V474.395ZM698.761 454.546C697.089 454.546 695.485 455.181 694.302 456.312C693.12 457.442 692.455 458.976 692.455 460.575V465.934C692.455 467.533 693.12 469.067 694.302 470.197C695.485 471.328 697.089 471.963 698.761 471.963H733.43C735.103 471.963 736.707 471.328 737.889 470.197C739.072 469.067 739.736 467.533 739.736 465.934V460.451C739.736 458.852 739.072 457.318 737.889 456.188C736.707 455.057 735.103 454.422 733.43 454.422L698.761 454.546Z" fill="#D1D3D4"/>
<path d="M57.122 183.336C53.1444 183.336 49.2561 182.208 45.9488 180.095C42.6415 177.982 40.0638 174.979 38.5416 171.466C37.0195 167.952 36.6212 164.086 37.3972 160.356C38.1732 156.626 40.0886 153.2 42.9012 150.51C45.7138 147.821 49.2973 145.99 53.1985 145.248C57.0997 144.506 61.1434 144.887 64.8182 146.342C68.4931 147.798 71.634 150.262 73.8439 153.424C76.0537 156.586 77.2332 160.304 77.2332 164.107C77.2264 169.205 75.1053 174.092 71.3352 177.697C67.5651 181.301 62.4537 183.329 57.122 183.336V183.336ZM57.122 147.36C53.6576 147.36 50.271 148.342 47.3905 150.182C44.51 152.022 42.2649 154.638 40.9391 157.698C39.6133 160.758 39.2665 164.126 39.9423 167.374C40.6182 170.623 42.2864 173.607 44.7361 175.949C47.1858 178.292 50.3069 179.887 53.7047 180.533C57.1026 181.179 60.6245 180.847 63.8252 179.58C67.0258 178.312 69.7615 176.166 71.6862 173.412C73.6109 170.657 74.6382 167.419 74.6382 164.107C74.6314 159.667 72.7837 155.411 69.5003 152.272C66.2168 149.133 61.7655 147.366 57.122 147.36V147.36Z" fill="#D1D3D4"/>
<path d="M57.1226 170.459C56.9386 170.435 56.7612 170.377 56.6008 170.288C56.4404 170.198 56.3003 170.079 56.1884 169.938L48.6369 160.013C48.5364 159.881 48.4641 159.732 48.424 159.573C48.3839 159.414 48.377 159.25 48.4035 159.088C48.43 158.927 48.4894 158.772 48.5785 158.633C48.6675 158.494 48.7844 158.373 48.9224 158.277C49.0604 158.18 49.2169 158.111 49.3829 158.073C49.5488 158.035 49.7211 158.028 49.8898 158.053C50.0585 158.079 50.2202 158.136 50.3659 158.221C50.5116 158.306 50.6384 158.418 50.7389 158.549L57.4081 167.258L83.7733 142.447C83.8916 142.332 84.033 142.24 84.1889 142.177C84.3449 142.114 84.5123 142.082 84.6815 142.082C84.8507 142.082 85.0181 142.114 85.1741 142.177C85.3301 142.24 85.4714 142.332 85.5898 142.447C85.7114 142.562 85.8079 142.7 85.8738 142.851C85.9396 143.002 85.9736 143.164 85.9736 143.328C85.9736 143.492 85.9396 143.654 85.8738 143.805C85.8079 143.956 85.7114 144.093 85.5898 144.209L58.0308 170.161C57.9084 170.267 57.7648 170.348 57.6087 170.399C57.4525 170.45 57.2872 170.471 57.1226 170.459V170.459Z" fill="#D1D3D4"/>
</svg>
