<svg width="702" height="533" viewBox="0 0 702 533" fill="none" xmlns="http://www.w3.org/2000/svg">
<path d="M65.4 392.6H62.4V395.6H65.4V392.6ZM65.4 370.6L62.9408 368.882L62.4 369.656V370.6H65.4ZM130.8 277V274H129.236L128.341 275.282L130.8 277ZM163.4 277H166.4V274H163.4V277ZM163.4 368.2H160.4V371.2H163.4V368.2ZM181 368.2H184V365.2H181V368.2ZM181 392.6V395.6H184V392.6H181ZM163.4 392.6V389.6H160.4V392.6H163.4ZM163.4 421V424H166.4V421H163.4ZM135.4 421H132.4V424H135.4V421ZM135.4 392.6H138.4V389.6H135.4V392.6ZM137.2 307H140.2V297.132L134.708 305.33L137.2 307ZM96.2 368.2L93.7076 366.53L90.5792 371.2H96.2V368.2ZM137.2 368.2V371.2H140.2V368.2H137.2ZM68.4 392.6V370.6H62.4V392.6H68.4ZM67.8592 372.318L133.259 278.718L128.341 275.282L62.9408 368.882L67.8592 372.318ZM130.8 280H163.4V274H130.8V280ZM160.4 277V368.2H166.4V277H160.4ZM163.4 371.2H181V365.2H163.4V371.2ZM178 368.2V392.6H184V368.2H178ZM181 389.6H163.4V395.6H181V389.6ZM160.4 392.6V421H166.4V392.6H160.4ZM163.4 418H135.4V424H163.4V418ZM138.4 421V392.6H132.4V421H138.4ZM135.4 389.6H65.4V395.6H135.4V389.6ZM134.708 305.33L93.7076 366.53L98.6924 369.87L139.692 308.67L134.708 305.33ZM96.2 371.2H137.2V365.2H96.2V371.2ZM140.2 368.2V307H134.2V368.2H140.2ZM211.227 292L208.703 290.378L208.697 290.387L208.691 290.396L211.227 292ZM294.227 292L291.691 293.604L291.697 293.613L291.703 293.622L294.227 292ZM294.227 400.8L291.696 399.189L291.69 399.199L291.684 399.208L294.227 400.8ZM211.227 400.8L208.684 402.392L208.69 402.401L208.696 402.411L211.227 400.8ZM277.227 321.4L274.272 321.921L274.278 321.955L274.285 321.988L277.227 321.4ZM269.627 304.8L267.369 306.776L267.386 306.795L267.404 306.815L269.627 304.8ZM235.827 304.8L233.604 302.785L233.586 302.805L233.569 302.824L235.827 304.8ZM228.227 321.4L225.283 320.823L225.278 320.846L225.274 320.869L228.227 321.4ZM228.227 371.8L225.27 372.312L225.272 372.321L228.227 371.8ZM235.827 388.4L233.604 390.415L233.62 390.432L233.636 390.449L235.827 388.4ZM269.827 388.4L272.017 390.449L272.034 390.432L272.05 390.415L269.827 388.4ZM277.427 371.8L280.381 372.321L280.383 372.312L277.427 371.8ZM201.827 346.2C201.827 323.44 205.913 306.01 213.762 293.604L208.691 290.396C200.006 304.124 195.827 322.827 195.827 346.2H201.827ZM213.75 293.622C221.46 281.63 234.229 275.4 252.827 275.4V269.4C232.758 269.4 217.793 276.237 208.703 290.378L213.75 293.622ZM252.827 275.4C271.426 275.4 284.116 281.629 291.691 293.604L296.762 290.396C287.804 276.237 272.894 269.4 252.827 269.4V275.4ZM291.703 293.622C299.676 306.024 303.827 323.447 303.827 346.2H309.827C309.827 322.82 305.578 304.109 296.75 290.378L291.703 293.622ZM303.827 346.2C303.827 369.088 299.675 386.65 291.696 399.189L296.758 402.411C305.578 388.55 309.827 369.712 309.827 346.2H303.827ZM291.684 399.208C284.102 411.314 271.413 417.6 252.827 417.6V423.6C272.907 423.6 287.817 416.686 296.769 402.392L291.684 399.208ZM252.827 417.6C234.241 417.6 221.473 411.313 213.758 399.189L208.696 402.411C217.78 416.687 232.745 423.6 252.827 423.6V417.6ZM213.769 399.208C205.914 386.664 201.827 369.095 201.827 346.2H195.827C195.827 369.705 200.006 388.536 208.684 402.392L213.769 399.208ZM282.227 346.2C282.227 336.216 281.553 327.737 280.168 320.812L274.285 321.988C275.566 328.396 276.227 336.451 276.227 346.2H282.227ZM280.181 320.879C278.902 313.634 276.166 307.548 271.85 302.785L267.404 306.815C270.821 310.585 273.151 315.566 274.272 321.921L280.181 320.879ZM271.884 302.824C267.414 297.716 260.868 295.4 252.827 295.4V301.4C259.719 301.4 264.372 303.351 267.369 306.776L271.884 302.824ZM252.827 295.4C244.779 295.4 238.196 297.718 233.604 302.785L238.05 306.815C241.19 303.349 245.94 301.4 252.827 301.4V295.4ZM233.569 302.824C229.418 307.568 226.695 313.619 225.283 320.823L231.171 321.977C232.425 315.581 234.768 310.565 238.084 306.776L233.569 302.824ZM225.274 320.869C224.032 327.77 223.427 336.228 223.427 346.2H229.427C229.427 336.439 230.021 328.363 231.179 321.931L225.274 320.869ZM223.427 346.2C223.427 356.437 224.032 365.154 225.271 372.312L231.183 371.288C230.022 364.58 229.427 356.23 229.427 346.2H223.427ZM225.272 372.321C226.551 379.566 229.288 385.652 233.604 390.415L238.05 386.385C234.632 382.615 232.302 377.634 231.181 371.279L225.272 372.321ZM233.636 390.449C238.235 395.366 244.807 397.6 252.827 397.6V391.6C245.912 391.6 241.151 389.701 238.017 386.351L233.636 390.449ZM252.827 397.6C260.846 397.6 267.418 395.366 272.017 390.449L267.636 386.351C264.502 389.701 259.741 391.6 252.827 391.6V397.6ZM272.05 390.415C276.366 385.652 279.102 379.566 280.381 372.321L274.472 371.279C273.351 377.634 271.021 382.615 267.604 386.385L272.05 390.415ZM280.383 372.312C281.622 365.154 282.227 356.437 282.227 346.2H276.227C276.227 356.23 275.632 364.58 274.471 371.288L280.383 372.312ZM326.923 392.6H323.923V395.6H326.923V392.6ZM326.923 370.6L324.464 368.882L323.923 369.656V370.6H326.923ZM392.323 277V274H390.76L389.864 275.282L392.323 277ZM424.923 277H427.923V274H424.923V277ZM424.923 368.2H421.923V371.2H424.923V368.2ZM442.523 368.2H445.523V365.2H442.523V368.2ZM442.523 392.6V395.6H445.523V392.6H442.523ZM424.923 392.6V389.6H421.923V392.6H424.923ZM424.923 421V424H427.923V421H424.923ZM396.923 421H393.923V424H396.923V421ZM396.923 392.6H399.923V389.6H396.923V392.6ZM398.723 307H401.723V297.132L396.231 305.33L398.723 307ZM357.723 368.2L355.231 366.53L352.103 371.2H357.723V368.2ZM398.723 368.2V371.2H401.723V368.2H398.723ZM329.923 392.6V370.6H323.923V392.6H329.923ZM329.383 372.318L394.783 278.718L389.864 275.282L324.464 368.882L329.383 372.318ZM392.323 280H424.923V274H392.323V280ZM421.923 277V368.2H427.923V277H421.923ZM424.923 371.2H442.523V365.2H424.923V371.2ZM439.523 368.2V392.6H445.523V368.2H439.523ZM442.523 389.6H424.923V395.6H442.523V389.6ZM421.923 392.6V421H427.923V392.6H421.923ZM424.923 418H396.923V424H424.923V418ZM399.923 421V392.6H393.923V421H399.923ZM396.923 389.6H326.923V395.6H396.923V389.6ZM396.231 305.33L355.231 366.53L360.216 369.87L401.216 308.67L396.231 305.33ZM357.723 371.2H398.723V365.2H357.723V371.2ZM401.723 368.2V307H395.723V368.2H401.723Z" fill="#F2C94C"/>
<path d="M128.4 322.6H125.4V325.6H128.4V322.6ZM128.4 300.6L125.941 298.882L125.4 299.656V300.6H128.4ZM193.8 207V204H192.236L191.341 205.282L193.8 207ZM226.4 207H229.4V204H226.4V207ZM226.4 298.2H223.4V301.2H226.4V298.2ZM244 298.2H247V295.2H244V298.2ZM244 322.6V325.6H247V322.6H244ZM226.4 322.6V319.6H223.4V322.6H226.4ZM226.4 351V354H229.4V351H226.4ZM198.4 351H195.4V354H198.4V351ZM198.4 322.6H201.4V319.6H198.4V322.6ZM200.2 237H203.2V227.132L197.708 235.33L200.2 237ZM159.2 298.2L156.708 296.53L153.579 301.2H159.2V298.2ZM200.2 298.2V301.2H203.2V298.2H200.2ZM131.4 322.6V300.6H125.4V322.6H131.4ZM130.859 302.318L196.259 208.718L191.341 205.282L125.941 298.882L130.859 302.318ZM193.8 210H226.4V204H193.8V210ZM223.4 207V298.2H229.4V207H223.4ZM226.4 301.2H244V295.2H226.4V301.2ZM241 298.2V322.6H247V298.2H241ZM244 319.6H226.4V325.6H244V319.6ZM223.4 322.6V351H229.4V322.6H223.4ZM226.4 348H198.4V354H226.4V348ZM201.4 351V322.6H195.4V351H201.4ZM198.4 319.6H128.4V325.6H198.4V319.6ZM197.708 235.33L156.708 296.53L161.692 299.87L202.692 238.67L197.708 235.33ZM159.2 301.2H200.2V295.2H159.2V301.2ZM203.2 298.2V237H197.2V298.2H203.2ZM274.227 222L271.703 220.378L271.697 220.387L271.691 220.396L274.227 222ZM357.227 222L354.691 223.604L354.697 223.613L354.703 223.622L357.227 222ZM357.227 330.8L354.696 329.189L354.69 329.199L354.684 329.208L357.227 330.8ZM274.227 330.8L271.684 332.392L271.69 332.401L271.696 332.411L274.227 330.8ZM340.227 251.4L337.272 251.921L337.278 251.955L337.285 251.988L340.227 251.4ZM332.627 234.8L330.369 236.776L330.386 236.795L330.404 236.815L332.627 234.8ZM298.827 234.8L296.604 232.785L296.586 232.805L296.569 232.824L298.827 234.8ZM291.227 251.4L288.283 250.823L288.278 250.846L288.274 250.869L291.227 251.4ZM291.227 301.8L288.27 302.312L288.272 302.321L291.227 301.8ZM298.827 318.4L296.604 320.415L296.62 320.432L296.636 320.449L298.827 318.4ZM332.827 318.4L335.017 320.449L335.034 320.432L335.05 320.415L332.827 318.4ZM340.427 301.8L343.381 302.321L343.383 302.312L340.427 301.8ZM264.827 276.2C264.827 253.44 268.913 236.01 276.762 223.604L271.691 220.396C263.006 234.124 258.827 252.827 258.827 276.2H264.827ZM276.75 223.622C284.46 211.63 297.229 205.4 315.827 205.4V199.4C295.758 199.4 280.793 206.237 271.703 220.378L276.75 223.622ZM315.827 205.4C334.426 205.4 347.116 211.629 354.691 223.604L359.762 220.396C350.804 206.237 335.894 199.4 315.827 199.4V205.4ZM354.703 223.622C362.676 236.024 366.827 253.447 366.827 276.2H372.827C372.827 252.82 368.578 234.109 359.75 220.378L354.703 223.622ZM366.827 276.2C366.827 299.088 362.675 316.65 354.696 329.189L359.758 332.411C368.578 318.55 372.827 299.712 372.827 276.2H366.827ZM354.684 329.208C347.102 341.314 334.413 347.6 315.827 347.6V353.6C335.907 353.6 350.817 346.686 359.769 332.392L354.684 329.208ZM315.827 347.6C297.241 347.6 284.473 341.313 276.758 329.189L271.696 332.411C280.78 346.687 295.745 353.6 315.827 353.6V347.6ZM276.769 329.208C268.914 316.664 264.827 299.095 264.827 276.2H258.827C258.827 299.705 263.006 318.536 271.684 332.392L276.769 329.208ZM345.227 276.2C345.227 266.216 344.553 257.737 343.168 250.812L337.285 251.988C338.566 258.396 339.227 266.451 339.227 276.2H345.227ZM343.181 250.879C341.902 243.634 339.166 237.548 334.85 232.785L330.404 236.815C333.821 240.585 336.151 245.566 337.272 251.921L343.181 250.879ZM334.884 232.824C330.414 227.716 323.868 225.4 315.827 225.4V231.4C322.719 231.4 327.372 233.351 330.369 236.776L334.884 232.824ZM315.827 225.4C307.779 225.4 301.196 227.718 296.604 232.785L301.05 236.815C304.19 233.349 308.94 231.4 315.827 231.4V225.4ZM296.569 232.824C292.418 237.568 289.695 243.619 288.283 250.823L294.171 251.977C295.425 245.581 297.768 240.565 301.084 236.776L296.569 232.824ZM288.274 250.869C287.032 257.77 286.427 266.228 286.427 276.2H292.427C292.427 266.439 293.021 258.363 294.179 251.931L288.274 250.869ZM286.427 276.2C286.427 286.437 287.032 295.154 288.271 302.312L294.183 301.288C293.022 294.58 292.427 286.23 292.427 276.2H286.427ZM288.272 302.321C289.551 309.566 292.288 315.652 296.604 320.415L301.05 316.385C297.632 312.615 295.302 307.634 294.181 301.279L288.272 302.321ZM296.636 320.449C301.235 325.366 307.807 327.6 315.827 327.6V321.6C308.912 321.6 304.151 319.701 301.017 316.351L296.636 320.449ZM315.827 327.6C323.846 327.6 330.418 325.366 335.017 320.449L330.636 316.351C327.502 319.701 322.741 321.6 315.827 321.6V327.6ZM335.05 320.415C339.366 315.652 342.102 309.566 343.381 302.321L337.472 301.279C336.351 307.634 334.021 312.615 330.604 316.385L335.05 320.415ZM343.383 302.312C344.622 295.154 345.227 286.437 345.227 276.2H339.227C339.227 286.23 338.632 294.58 337.471 301.288L343.383 302.312ZM389.923 322.6H386.923V325.6H389.923V322.6ZM389.923 300.6L387.464 298.882L386.923 299.656V300.6H389.923ZM455.323 207V204H453.76L452.864 205.282L455.323 207ZM487.923 207H490.923V204H487.923V207ZM487.923 298.2H484.923V301.2H487.923V298.2ZM505.523 298.2H508.523V295.2H505.523V298.2ZM505.523 322.6V325.6H508.523V322.6H505.523ZM487.923 322.6V319.6H484.923V322.6H487.923ZM487.923 351V354H490.923V351H487.923ZM459.923 351H456.923V354H459.923V351ZM459.923 322.6H462.923V319.6H459.923V322.6ZM461.723 237H464.723V227.132L459.231 235.33L461.723 237ZM420.723 298.2L418.231 296.53L415.103 301.2H420.723V298.2ZM461.723 298.2V301.2H464.723V298.2H461.723ZM392.923 322.6V300.6H386.923V322.6H392.923ZM392.383 302.318L457.783 208.718L452.864 205.282L387.464 298.882L392.383 302.318ZM455.323 210H487.923V204H455.323V210ZM484.923 207V298.2H490.923V207H484.923ZM487.923 301.2H505.523V295.2H487.923V301.2ZM502.523 298.2V322.6H508.523V298.2H502.523ZM505.523 319.6H487.923V325.6H505.523V319.6ZM484.923 322.6V351H490.923V322.6H484.923ZM487.923 348H459.923V354H487.923V348ZM462.923 351V322.6H456.923V351H462.923ZM459.923 319.6H389.923V325.6H459.923V319.6ZM459.231 235.33L418.231 296.53L423.216 299.87L464.216 238.67L459.231 235.33ZM420.723 301.2H461.723V295.2H420.723V301.2ZM464.723 298.2V237H458.723V298.2H464.723Z" fill="#F2C94C" fill-opacity="0.6"/>
<path d="M191.4 252.6H188.4V255.6H191.4V252.6ZM191.4 230.6L188.941 228.882L188.4 229.656V230.6H191.4ZM256.8 137V134H255.236L254.341 135.282L256.8 137ZM289.4 137H292.4V134H289.4V137ZM289.4 228.2H286.4V231.2H289.4V228.2ZM307 228.2H310V225.2H307V228.2ZM307 252.6V255.6H310V252.6H307ZM289.4 252.6V249.6H286.4V252.6H289.4ZM289.4 281V284H292.4V281H289.4ZM261.4 281H258.4V284H261.4V281ZM261.4 252.6H264.4V249.6H261.4V252.6ZM263.2 167H266.2V157.132L260.708 165.33L263.2 167ZM222.2 228.2L219.708 226.53L216.579 231.2H222.2V228.2ZM263.2 228.2V231.2H266.2V228.2H263.2ZM194.4 252.6V230.6H188.4V252.6H194.4ZM193.859 232.318L259.259 138.718L254.341 135.282L188.941 228.882L193.859 232.318ZM256.8 140H289.4V134H256.8V140ZM286.4 137V228.2H292.4V137H286.4ZM289.4 231.2H307V225.2H289.4V231.2ZM304 228.2V252.6H310V228.2H304ZM307 249.6H289.4V255.6H307V249.6ZM286.4 252.6V281H292.4V252.6H286.4ZM289.4 278H261.4V284H289.4V278ZM264.4 281V252.6H258.4V281H264.4ZM261.4 249.6H191.4V255.6H261.4V249.6ZM260.708 165.33L219.708 226.53L224.692 229.87L265.692 168.67L260.708 165.33ZM222.2 231.2H263.2V225.2H222.2V231.2ZM266.2 228.2V167H260.2V228.2H266.2ZM337.227 152L334.703 150.378L334.697 150.387L334.691 150.396L337.227 152ZM420.227 152L417.691 153.604L417.697 153.613L417.703 153.622L420.227 152ZM420.227 260.8L417.696 259.189L417.69 259.199L417.684 259.208L420.227 260.8ZM337.227 260.8L334.684 262.392L334.69 262.401L334.696 262.411L337.227 260.8ZM403.227 181.4L400.272 181.921L400.278 181.955L400.285 181.988L403.227 181.4ZM395.627 164.8L393.369 166.776L393.386 166.795L393.404 166.815L395.627 164.8ZM361.827 164.8L359.604 162.785L359.586 162.805L359.569 162.824L361.827 164.8ZM354.227 181.4L351.283 180.823L351.278 180.846L351.274 180.869L354.227 181.4ZM354.227 231.8L351.27 232.312L351.272 232.321L354.227 231.8ZM361.827 248.4L359.604 250.415L359.62 250.432L359.636 250.449L361.827 248.4ZM395.827 248.4L398.017 250.449L398.034 250.432L398.05 250.415L395.827 248.4ZM403.427 231.8L406.381 232.321L406.383 232.312L403.427 231.8ZM327.827 206.2C327.827 183.44 331.913 166.01 339.762 153.604L334.691 150.396C326.006 164.124 321.827 182.827 321.827 206.2H327.827ZM339.75 153.622C347.46 141.63 360.229 135.4 378.827 135.4V129.4C358.758 129.4 343.793 136.237 334.703 150.378L339.75 153.622ZM378.827 135.4C397.426 135.4 410.116 141.629 417.691 153.604L422.762 150.396C413.804 136.237 398.894 129.4 378.827 129.4V135.4ZM417.703 153.622C425.676 166.024 429.827 183.447 429.827 206.2H435.827C435.827 182.82 431.578 164.109 422.75 150.378L417.703 153.622ZM429.827 206.2C429.827 229.088 425.675 246.65 417.696 259.189L422.758 262.411C431.578 248.55 435.827 229.712 435.827 206.2H429.827ZM417.684 259.208C410.102 271.314 397.413 277.6 378.827 277.6V283.6C398.907 283.6 413.817 276.686 422.769 262.392L417.684 259.208ZM378.827 277.6C360.241 277.6 347.473 271.313 339.758 259.189L334.696 262.411C343.78 276.687 358.745 283.6 378.827 283.6V277.6ZM339.769 259.208C331.914 246.664 327.827 229.095 327.827 206.2H321.827C321.827 229.705 326.006 248.536 334.684 262.392L339.769 259.208ZM408.227 206.2C408.227 196.216 407.553 187.737 406.168 180.812L400.285 181.988C401.566 188.396 402.227 196.451 402.227 206.2H408.227ZM406.181 180.879C404.902 173.634 402.166 167.548 397.85 162.785L393.404 166.815C396.821 170.585 399.151 175.566 400.272 181.921L406.181 180.879ZM397.884 162.824C393.414 157.716 386.868 155.4 378.827 155.4V161.4C385.719 161.4 390.372 163.351 393.369 166.776L397.884 162.824ZM378.827 155.4C370.779 155.4 364.196 157.718 359.604 162.785L364.05 166.815C367.19 163.349 371.94 161.4 378.827 161.4V155.4ZM359.569 162.824C355.418 167.568 352.695 173.619 351.283 180.823L357.171 181.977C358.425 175.581 360.768 170.565 364.084 166.776L359.569 162.824ZM351.274 180.869C350.032 187.77 349.427 196.228 349.427 206.2H355.427C355.427 196.439 356.021 188.363 357.179 181.931L351.274 180.869ZM349.427 206.2C349.427 216.437 350.032 225.154 351.271 232.312L357.183 231.288C356.022 224.58 355.427 216.23 355.427 206.2H349.427ZM351.272 232.321C352.551 239.566 355.288 245.652 359.604 250.415L364.05 246.385C360.632 242.615 358.302 237.634 357.181 231.279L351.272 232.321ZM359.636 250.449C364.235 255.366 370.807 257.6 378.827 257.6V251.6C371.912 251.6 367.151 249.701 364.017 246.351L359.636 250.449ZM378.827 257.6C386.846 257.6 393.418 255.366 398.017 250.449L393.636 246.351C390.502 249.701 385.741 251.6 378.827 251.6V257.6ZM398.05 250.415C402.366 245.652 405.102 239.566 406.381 232.321L400.472 231.279C399.351 237.634 397.021 242.615 393.604 246.385L398.05 250.415ZM406.383 232.312C407.622 225.154 408.227 216.437 408.227 206.2H402.227C402.227 216.23 401.632 224.58 400.471 231.288L406.383 232.312ZM452.923 252.6H449.923V255.6H452.923V252.6ZM452.923 230.6L450.464 228.882L449.923 229.656V230.6H452.923ZM518.323 137V134H516.76L515.864 135.282L518.323 137ZM550.923 137H553.923V134H550.923V137ZM550.923 228.2H547.923V231.2H550.923V228.2ZM568.523 228.2H571.523V225.2H568.523V228.2ZM568.523 252.6V255.6H571.523V252.6H568.523ZM550.923 252.6V249.6H547.923V252.6H550.923ZM550.923 281V284H553.923V281H550.923ZM522.923 281H519.923V284H522.923V281ZM522.923 252.6H525.923V249.6H522.923V252.6ZM524.723 167H527.723V157.132L522.231 165.33L524.723 167ZM483.723 228.2L481.231 226.53L478.103 231.2H483.723V228.2ZM524.723 228.2V231.2H527.723V228.2H524.723ZM455.923 252.6V230.6H449.923V252.6H455.923ZM455.383 232.318L520.783 138.718L515.864 135.282L450.464 228.882L455.383 232.318ZM518.323 140H550.923V134H518.323V140ZM547.923 137V228.2H553.923V137H547.923ZM550.923 231.2H568.523V225.2H550.923V231.2ZM565.523 228.2V252.6H571.523V228.2H565.523ZM568.523 249.6H550.923V255.6H568.523V249.6ZM547.923 252.6V281H553.923V252.6H547.923ZM550.923 278H522.923V284H550.923V278ZM525.923 281V252.6H519.923V281H525.923ZM522.923 249.6H452.923V255.6H522.923V249.6ZM522.231 165.33L481.231 226.53L486.216 229.87L527.216 168.67L522.231 165.33ZM483.723 231.2H524.723V225.2H483.723V231.2ZM527.723 228.2V167H521.723V228.2H527.723Z" fill="#F2C94C" fill-opacity="0.4"/>
<path d="M254.4 182.6H251.4V185.6H254.4V182.6ZM254.4 160.6L251.941 158.882L251.4 159.656V160.6H254.4ZM319.8 67V64H318.236L317.341 65.2817L319.8 67ZM352.4 67H355.4V64H352.4V67ZM352.4 158.2H349.4V161.2H352.4V158.2ZM370 158.2H373V155.2H370V158.2ZM370 182.6V185.6H373V182.6H370ZM352.4 182.6V179.6H349.4V182.6H352.4ZM352.4 211V214H355.4V211H352.4ZM324.4 211H321.4V214H324.4V211ZM324.4 182.6H327.4V179.6H324.4V182.6ZM326.2 97H329.2V87.1319L323.708 95.3303L326.2 97ZM285.2 158.2L282.708 156.53L279.579 161.2H285.2V158.2ZM326.2 158.2V161.2H329.2V158.2H326.2ZM257.4 182.6V160.6H251.4V182.6H257.4ZM256.859 162.318L322.259 68.7183L317.341 65.2817L251.941 158.882L256.859 162.318ZM319.8 70H352.4V64H319.8V70ZM349.4 67V158.2H355.4V67H349.4ZM352.4 161.2H370V155.2H352.4V161.2ZM367 158.2V182.6H373V158.2H367ZM370 179.6H352.4V185.6H370V179.6ZM349.4 182.6V211H355.4V182.6H349.4ZM352.4 208H324.4V214H352.4V208ZM327.4 211V182.6H321.4V211H327.4ZM324.4 179.6H254.4V185.6H324.4V179.6ZM323.708 95.3303L282.708 156.53L287.692 159.87L328.692 98.6697L323.708 95.3303ZM285.2 161.2H326.2V155.2H285.2V161.2ZM329.2 158.2V97H323.2V158.2H329.2ZM400.227 82L397.703 80.3777L397.697 80.3869L397.691 80.3961L400.227 82ZM483.227 82L480.691 83.6039L480.697 83.6131L480.703 83.6223L483.227 82ZM483.227 190.8L480.696 189.189L480.69 189.199L480.684 189.208L483.227 190.8ZM400.227 190.8L397.684 192.392L397.69 192.401L397.696 192.411L400.227 190.8ZM466.227 111.4L463.272 111.921L463.278 111.955L463.285 111.988L466.227 111.4ZM458.627 94.8L456.369 96.7755L456.386 96.7952L456.404 96.8146L458.627 94.8ZM424.827 94.8L422.604 92.7854L422.586 92.8048L422.569 92.8245L424.827 94.8ZM417.227 111.4L414.283 110.823L414.278 110.846L414.274 110.869L417.227 111.4ZM417.227 161.8L414.27 162.312L414.272 162.321L417.227 161.8ZM424.827 178.4L422.604 180.415L422.62 180.432L422.636 180.449L424.827 178.4ZM458.827 178.4L461.017 180.449L461.034 180.432L461.05 180.415L458.827 178.4ZM466.427 161.8L469.381 162.321L469.383 162.312L466.427 161.8ZM390.827 136.2C390.827 113.44 394.913 96.0096 402.762 83.6039L397.691 80.3961C389.006 94.1238 384.827 112.827 384.827 136.2H390.827ZM402.75 83.6223C410.46 71.6295 423.229 65.4 441.827 65.4V59.4C421.758 59.4 406.793 66.2371 397.703 80.3777L402.75 83.6223ZM441.827 65.4C460.426 65.4 473.116 71.6293 480.691 83.6039L485.762 80.3961C476.804 66.2374 461.894 59.4 441.827 59.4V65.4ZM480.703 83.6223C488.676 96.0239 492.827 113.447 492.827 136.2H498.827C498.827 112.82 494.578 94.1094 485.75 80.3777L480.703 83.6223ZM492.827 136.2C492.827 159.088 488.675 176.65 480.696 189.189L485.758 192.411C494.578 178.55 498.827 159.712 498.827 136.2H492.827ZM480.684 189.208C473.102 201.314 460.413 207.6 441.827 207.6V213.6C461.907 213.6 476.817 206.686 485.769 192.392L480.684 189.208ZM441.827 207.6C423.241 207.6 410.473 201.313 402.758 189.189L397.696 192.411C406.78 206.687 421.745 213.6 441.827 213.6V207.6ZM402.769 189.208C394.914 176.664 390.827 159.095 390.827 136.2H384.827C384.827 159.705 389.006 178.536 397.684 192.392L402.769 189.208ZM471.227 136.2C471.227 126.216 470.553 117.737 469.168 110.812L463.285 111.988C464.566 118.396 465.227 126.451 465.227 136.2H471.227ZM469.181 110.879C467.902 103.634 465.166 97.5479 460.85 92.7854L456.404 96.8146C459.821 100.585 462.151 105.566 463.272 111.921L469.181 110.879ZM460.884 92.8245C456.414 87.7159 449.868 85.4 441.827 85.4V91.4C448.719 91.4 453.372 93.3507 456.369 96.7755L460.884 92.8245ZM441.827 85.4C433.779 85.4 427.196 87.7178 422.604 92.7854L427.05 96.8146C430.19 93.3488 434.94 91.4 441.827 91.4V85.4ZM422.569 92.8245C418.418 97.5683 415.695 103.619 414.283 110.823L420.171 111.977C421.425 105.581 423.768 100.565 427.084 96.7755L422.569 92.8245ZM414.274 110.869C413.032 117.77 412.427 126.228 412.427 136.2H418.427C418.427 126.439 419.021 118.363 420.179 111.931L414.274 110.869ZM412.427 136.2C412.427 146.437 413.032 155.154 414.271 162.312L420.183 161.288C419.022 154.58 418.427 146.23 418.427 136.2H412.427ZM414.272 162.321C415.551 169.566 418.288 175.652 422.604 180.415L427.05 176.385C423.632 172.615 421.302 167.634 420.181 161.279L414.272 162.321ZM422.636 180.449C427.235 185.366 433.807 187.6 441.827 187.6V181.6C434.912 181.6 430.151 179.701 427.017 176.351L422.636 180.449ZM441.827 187.6C449.846 187.6 456.418 185.366 461.017 180.449L456.636 176.351C453.502 179.701 448.741 181.6 441.827 181.6V187.6ZM461.05 180.415C465.366 175.652 468.102 169.566 469.381 162.321L463.472 161.279C462.351 167.634 460.021 172.615 456.604 176.385L461.05 180.415ZM469.383 162.312C470.622 155.154 471.227 146.437 471.227 136.2H465.227C465.227 146.23 464.632 154.58 463.471 161.288L469.383 162.312ZM515.923 182.6H512.923V185.6H515.923V182.6ZM515.923 160.6L513.464 158.882L512.923 159.656V160.6H515.923ZM581.323 67V64H579.76L578.864 65.2817L581.323 67ZM613.923 67H616.923V64H613.923V67ZM613.923 158.2H610.923V161.2H613.923V158.2ZM631.523 158.2H634.523V155.2H631.523V158.2ZM631.523 182.6V185.6H634.523V182.6H631.523ZM613.923 182.6V179.6H610.923V182.6H613.923ZM613.923 211V214H616.923V211H613.923ZM585.923 211H582.923V214H585.923V211ZM585.923 182.6H588.923V179.6H585.923V182.6ZM587.723 97H590.723V87.1319L585.231 95.3303L587.723 97ZM546.723 158.2L544.231 156.53L541.103 161.2H546.723V158.2ZM587.723 158.2V161.2H590.723V158.2H587.723ZM518.923 182.6V160.6H512.923V182.6H518.923ZM518.383 162.318L583.783 68.7183L578.864 65.2817L513.464 158.882L518.383 162.318ZM581.323 70H613.923V64H581.323V70ZM610.923 67V158.2H616.923V67H610.923ZM613.923 161.2H631.523V155.2H613.923V161.2ZM628.523 158.2V182.6H634.523V158.2H628.523ZM631.523 179.6H613.923V185.6H631.523V179.6ZM610.923 182.6V211H616.923V182.6H610.923ZM613.923 208H585.923V214H613.923V208ZM588.923 211V182.6H582.923V211H588.923ZM585.923 179.6H515.923V185.6H585.923V179.6ZM585.231 95.3303L544.231 156.53L549.216 159.87L590.216 98.6697L585.231 95.3303ZM546.723 161.2H587.723V155.2H546.723V161.2ZM590.723 158.2V97H584.723V158.2H590.723Z" fill="#F2C94C" fill-opacity="0.2"/>
<path d="M317.4 112.6H314.4V115.6H317.4V112.6ZM317.4 90.6L314.941 88.8817L314.4 89.6558V90.6H317.4ZM382.8 -3.00001V-6.00001H381.236L380.341 -4.71828L382.8 -3.00001ZM415.4 -3.00001H418.4V-6.00001H415.4V-3.00001ZM415.4 88.2H412.4V91.2H415.4V88.2ZM433 88.2H436V85.2H433V88.2ZM433 112.6V115.6H436V112.6H433ZM415.4 112.6V109.6H412.4V112.6H415.4ZM415.4 141V144H418.4V141H415.4ZM387.4 141H384.4V144H387.4V141ZM387.4 112.6H390.4V109.6H387.4V112.6ZM389.2 27H392.2V17.1319L386.708 25.3303L389.2 27ZM348.2 88.2L345.708 86.5303L342.579 91.2H348.2V88.2ZM389.2 88.2V91.2H392.2V88.2H389.2ZM320.4 112.6V90.6H314.4V112.6H320.4ZM319.859 92.3183L385.259 -1.28174L380.341 -4.71828L314.941 88.8817L319.859 92.3183ZM382.8 -5.72205e-06H415.4V-6.00001H382.8V-5.72205e-06ZM412.4 -3.00001V88.2H418.4V-3.00001H412.4ZM415.4 91.2H433V85.2H415.4V91.2ZM430 88.2V112.6H436V88.2H430ZM433 109.6H415.4V115.6H433V109.6ZM412.4 112.6V141H418.4V112.6H412.4ZM415.4 138H387.4V144H415.4V138ZM390.4 141V112.6H384.4V141H390.4ZM387.4 109.6H317.4V115.6H387.4V109.6ZM386.708 25.3303L345.708 86.5303L350.692 89.8697L391.692 28.6697L386.708 25.3303ZM348.2 91.2H389.2V85.2H348.2V91.2ZM392.2 88.2V27H386.2V88.2H392.2ZM463.227 12L460.703 10.3777L460.697 10.3869L460.691 10.3961L463.227 12ZM546.227 12L543.691 13.6039L543.697 13.6131L543.703 13.6223L546.227 12ZM546.227 120.8L543.696 119.189L543.69 119.199L543.684 119.208L546.227 120.8ZM463.227 120.8L460.684 122.392L460.69 122.401L460.696 122.411L463.227 120.8ZM529.227 41.4L526.272 41.9214L526.278 41.9549L526.285 41.9883L529.227 41.4ZM521.627 24.8L519.369 26.7755L519.386 26.7952L519.404 26.8146L521.627 24.8ZM487.827 24.8L485.604 22.7854L485.586 22.8048L485.569 22.8245L487.827 24.8ZM480.227 41.4L477.283 40.8228L477.278 40.8456L477.274 40.8685L480.227 41.4ZM480.227 91.8L477.27 92.3116L477.272 92.3214L480.227 91.8ZM487.827 108.4L485.604 110.415L485.62 110.432L485.636 110.449L487.827 108.4ZM521.827 108.4L524.017 110.449L524.034 110.432L524.05 110.415L521.827 108.4ZM529.427 91.8L532.381 92.3214L532.383 92.3116L529.427 91.8ZM453.827 66.2C453.827 43.4399 457.913 26.0096 465.762 13.6039L460.691 10.3961C452.006 24.1238 447.827 42.8267 447.827 66.2H453.827ZM465.75 13.6223C473.46 1.62954 486.229 -4.60001 504.827 -4.60001V-10.6C484.758 -10.6 469.793 -3.76289 460.703 10.3777L465.75 13.6223ZM504.827 -4.60001C523.426 -4.60001 536.116 1.6293 543.691 13.6039L548.762 10.3961C539.804 -3.76265 524.894 -10.6 504.827 -10.6V-4.60001ZM543.703 13.6223C551.676 26.0239 555.827 43.4468 555.827 66.2H561.827C561.827 42.8199 557.578 24.1094 548.75 10.3777L543.703 13.6223ZM555.827 66.2C555.827 89.0879 551.675 106.65 543.696 119.189L548.758 122.411C557.578 108.55 561.827 89.7121 561.827 66.2H555.827ZM543.684 119.208C536.102 131.314 523.413 137.6 504.827 137.6V143.6C524.907 143.6 539.817 136.686 548.769 122.392L543.684 119.208ZM504.827 137.6C486.241 137.6 473.473 131.313 465.758 119.189L460.696 122.411C469.78 136.687 484.745 143.6 504.827 143.6V137.6ZM465.769 119.208C457.914 106.664 453.827 89.0946 453.827 66.2H447.827C447.827 89.7054 452.006 108.536 460.684 122.392L465.769 119.208ZM534.227 66.2C534.227 56.2158 533.553 47.7373 532.168 40.8116L526.285 41.9883C527.566 48.3961 528.227 56.4509 528.227 66.2H534.227ZM532.181 40.8786C530.902 33.6338 528.166 27.5479 523.85 22.7854L519.404 26.8146C522.821 30.5854 525.151 35.5661 526.272 41.9214L532.181 40.8786ZM523.884 22.8245C519.414 17.7159 512.868 15.4 504.827 15.4V21.4C511.719 21.4 516.372 23.3507 519.369 26.7755L523.884 22.8245ZM504.827 15.4C496.779 15.4 490.196 17.7178 485.604 22.7854L490.05 26.8146C493.19 23.3488 497.94 21.4 504.827 21.4V15.4ZM485.569 22.8245C481.418 27.5683 478.695 33.6191 477.283 40.8228L483.171 41.9772C484.425 35.5809 486.768 30.565 490.084 26.7755L485.569 22.8245ZM477.274 40.8685C476.032 47.7701 475.427 56.2279 475.427 66.2H481.427C481.427 56.4387 482.021 48.3632 483.179 41.9315L477.274 40.8685ZM475.427 66.2C475.427 76.437 476.032 85.1536 477.271 92.3116L483.183 91.2884C482.022 84.5798 481.427 76.2297 481.427 66.2H475.427ZM477.272 92.3214C478.551 99.5661 481.288 105.652 485.604 110.415L490.05 106.385C486.632 102.615 484.302 97.6338 483.181 91.2786L477.272 92.3214ZM485.636 110.449C490.235 115.366 496.807 117.6 504.827 117.6V111.6C497.912 111.6 493.151 109.701 490.017 106.351L485.636 110.449ZM504.827 117.6C512.846 117.6 519.418 115.366 524.017 110.449L519.636 106.351C516.502 109.701 511.741 111.6 504.827 111.6V117.6ZM524.05 110.415C528.366 105.652 531.102 99.5661 532.381 92.3214L526.472 91.2786C525.351 97.6338 523.021 102.615 519.604 106.385L524.05 110.415ZM532.383 92.3116C533.622 85.1536 534.227 76.437 534.227 66.2H528.227C528.227 76.2297 527.632 84.5798 526.471 91.2884L532.383 92.3116ZM578.923 112.6H575.923V115.6H578.923V112.6ZM578.923 90.6L576.464 88.8817L575.923 89.6558V90.6H578.923ZM644.323 -3.00001V-6.00001H642.76L641.864 -4.71828L644.323 -3.00001ZM676.923 -3.00001H679.923V-6.00001H676.923V-3.00001ZM676.923 88.2H673.923V91.2H676.923V88.2ZM694.523 88.2H697.523V85.2H694.523V88.2ZM694.523 112.6V115.6H697.523V112.6H694.523ZM676.923 112.6V109.6H673.923V112.6H676.923ZM676.923 141V144H679.923V141H676.923ZM648.923 141H645.923V144H648.923V141ZM648.923 112.6H651.923V109.6H648.923V112.6ZM650.723 27H653.723V17.1319L648.231 25.3303L650.723 27ZM609.723 88.2L607.231 86.5303L604.103 91.2H609.723V88.2ZM650.723 88.2V91.2H653.723V88.2H650.723ZM581.923 112.6V90.6H575.923V112.6H581.923ZM581.383 92.3183L646.783 -1.28174L641.864 -4.71828L576.464 88.8817L581.383 92.3183ZM644.323 -5.72205e-06H676.923V-6.00001H644.323V-5.72205e-06ZM673.923 -3.00001V88.2H679.923V-3.00001H673.923ZM676.923 91.2H694.523V85.2H676.923V91.2ZM691.523 88.2V112.6H697.523V88.2H691.523ZM694.523 109.6H676.923V115.6H694.523V109.6ZM673.923 112.6V141H679.923V112.6H673.923ZM676.923 138H648.923V144H676.923V138ZM651.923 141V112.6H645.923V141H651.923ZM648.923 109.6H578.923V115.6H648.923V109.6ZM648.231 25.3303L607.231 86.5303L612.216 89.8697L653.216 28.6697L648.231 25.3303ZM609.723 91.2H650.723V85.2H609.723V91.2ZM653.723 88.2V27H647.723V88.2H653.723Z" fill="#F2C94C" fill-opacity="0.1"/>
<path d="M9.4 452.6V430.6L74.8 337H107.4V428.2H125V452.6H107.4V481H79.4V452.6H9.4ZM81.2 367L40.2 428.2H81.2V367ZM142.827 406.2C142.827 383.133 146.96 365.067 155.227 352C163.627 338.933 177.493 332.4 196.827 332.4C216.16 332.4 229.96 338.933 238.227 352C246.627 365.067 250.827 383.133 250.827 406.2C250.827 429.4 246.627 447.6 238.227 460.8C229.96 474 216.16 480.6 196.827 480.6C177.493 480.6 163.627 474 155.227 460.8C146.96 447.6 142.827 429.4 142.827 406.2ZM223.227 406.2C223.227 396.333 222.56 388.067 221.227 381.4C220.027 374.6 217.493 369.067 213.627 364.8C209.893 360.533 204.293 358.4 196.827 358.4C189.36 358.4 183.693 360.533 179.827 364.8C176.093 369.067 173.56 374.6 172.227 381.4C171.027 388.067 170.427 396.333 170.427 406.2C170.427 416.333 171.027 424.867 172.227 431.8C173.427 438.6 175.96 444.133 179.827 448.4C183.693 452.533 189.36 454.6 196.827 454.6C204.293 454.6 209.96 452.533 213.827 448.4C217.693 444.133 220.227 438.6 221.427 431.8C222.627 424.867 223.227 416.333 223.227 406.2ZM270.923 452.6V430.6L336.323 337H368.923V428.2H386.523V452.6H368.923V481H340.923V452.6H270.923ZM342.723 367L301.723 428.2H342.723V367Z" fill="#313131"/>
<path d="M9.4 452.6H6.4V455.6H9.4V452.6ZM9.4 430.6L6.94082 428.882L6.4 429.656V430.6H9.4ZM74.8 337V334H73.2364L72.3408 335.282L74.8 337ZM107.4 337H110.4V334H107.4V337ZM107.4 428.2H104.4V431.2H107.4V428.2ZM125 428.2H128V425.2H125V428.2ZM125 452.6V455.6H128V452.6H125ZM107.4 452.6V449.6H104.4V452.6H107.4ZM107.4 481V484H110.4V481H107.4ZM79.4 481H76.4V484H79.4V481ZM79.4 452.6H82.4V449.6H79.4V452.6ZM81.2 367H84.2V357.132L78.7076 365.33L81.2 367ZM40.2 428.2L37.7076 426.53L34.5792 431.2H40.2V428.2ZM81.2 428.2V431.2H84.2V428.2H81.2ZM12.4 452.6V430.6H6.4V452.6H12.4ZM11.8592 432.318L77.2592 338.718L72.3408 335.282L6.94082 428.882L11.8592 432.318ZM74.8 340H107.4V334H74.8V340ZM104.4 337V428.2H110.4V337H104.4ZM107.4 431.2H125V425.2H107.4V431.2ZM122 428.2V452.6H128V428.2H122ZM125 449.6H107.4V455.6H125V449.6ZM104.4 452.6V481H110.4V452.6H104.4ZM107.4 478H79.4V484H107.4V478ZM82.4 481V452.6H76.4V481H82.4ZM79.4 449.6H9.4V455.6H79.4V449.6ZM78.7076 365.33L37.7076 426.53L42.6924 429.87L83.6924 368.67L78.7076 365.33ZM40.2 431.2H81.2V425.2H40.2V431.2ZM84.2 428.2V367H78.2V428.2H84.2ZM155.227 352L152.703 350.378L152.697 350.387L152.691 350.396L155.227 352ZM238.227 352L235.691 353.604L235.697 353.613L235.703 353.622L238.227 352ZM238.227 460.8L235.696 459.189L235.69 459.199L235.684 459.208L238.227 460.8ZM155.227 460.8L152.684 462.392L152.69 462.401L152.696 462.411L155.227 460.8ZM221.227 381.4L218.272 381.921L218.278 381.955L218.285 381.988L221.227 381.4ZM213.627 364.8L211.369 366.776L211.386 366.795L211.404 366.815L213.627 364.8ZM179.827 364.8L177.604 362.785L177.586 362.805L177.569 362.824L179.827 364.8ZM172.227 381.4L169.283 380.823L169.278 380.846L169.274 380.869L172.227 381.4ZM172.227 431.8L169.27 432.312L169.272 432.321L172.227 431.8ZM179.827 448.4L177.604 450.415L177.62 450.432L177.636 450.449L179.827 448.4ZM213.827 448.4L216.017 450.449L216.034 450.432L216.05 450.415L213.827 448.4ZM221.427 431.8L224.381 432.321L224.383 432.312L221.427 431.8ZM145.827 406.2C145.827 383.44 149.913 366.01 157.762 353.604L152.691 350.396C144.006 364.124 139.827 382.827 139.827 406.2H145.827ZM157.75 353.622C165.46 341.63 178.229 335.4 196.827 335.4V329.4C176.758 329.4 161.793 336.237 152.703 350.378L157.75 353.622ZM196.827 335.4C215.426 335.4 228.116 341.629 235.691 353.604L240.762 350.396C231.804 336.237 216.894 329.4 196.827 329.4V335.4ZM235.703 353.622C243.676 366.024 247.827 383.447 247.827 406.2H253.827C253.827 382.82 249.578 364.109 240.75 350.378L235.703 353.622ZM247.827 406.2C247.827 429.088 243.675 446.65 235.696 459.189L240.758 462.411C249.578 448.55 253.827 429.712 253.827 406.2H247.827ZM235.684 459.208C228.102 471.314 215.413 477.6 196.827 477.6V483.6C216.907 483.6 231.817 476.686 240.769 462.392L235.684 459.208ZM196.827 477.6C178.241 477.6 165.473 471.313 157.758 459.189L152.696 462.411C161.78 476.687 176.745 483.6 196.827 483.6V477.6ZM157.769 459.208C149.914 446.664 145.827 429.095 145.827 406.2H139.827C139.827 429.705 144.006 448.536 152.684 462.392L157.769 459.208ZM226.227 406.2C226.227 396.216 225.553 387.737 224.168 380.812L218.285 381.988C219.566 388.396 220.227 396.451 220.227 406.2H226.227ZM224.181 380.879C222.902 373.634 220.166 367.548 215.85 362.785L211.404 366.815C214.821 370.585 217.151 375.566 218.272 381.921L224.181 380.879ZM215.884 362.824C211.414 357.716 204.868 355.4 196.827 355.4V361.4C203.719 361.4 208.372 363.351 211.369 366.776L215.884 362.824ZM196.827 355.4C188.779 355.4 182.196 357.718 177.604 362.785L182.05 366.815C185.19 363.349 189.94 361.4 196.827 361.4V355.4ZM177.569 362.824C173.418 367.568 170.695 373.619 169.283 380.823L175.171 381.977C176.425 375.581 178.768 370.565 182.084 366.776L177.569 362.824ZM169.274 380.869C168.032 387.77 167.427 396.228 167.427 406.2H173.427C173.427 396.439 174.021 388.363 175.179 381.931L169.274 380.869ZM167.427 406.2C167.427 416.437 168.032 425.154 169.271 432.312L175.183 431.288C174.022 424.58 173.427 416.23 173.427 406.2H167.427ZM169.272 432.321C170.551 439.566 173.288 445.652 177.604 450.415L182.05 446.385C178.632 442.615 176.302 437.634 175.181 431.279L169.272 432.321ZM177.636 450.449C182.235 455.366 188.807 457.6 196.827 457.6V451.6C189.912 451.6 185.151 449.701 182.017 446.351L177.636 450.449ZM196.827 457.6C204.846 457.6 211.418 455.366 216.017 450.449L211.636 446.351C208.502 449.701 203.741 451.6 196.827 451.6V457.6ZM216.05 450.415C220.366 445.652 223.102 439.566 224.381 432.321L218.472 431.279C217.351 437.634 215.021 442.615 211.604 446.385L216.05 450.415ZM224.383 432.312C225.622 425.154 226.227 416.437 226.227 406.2H220.227C220.227 416.23 219.632 424.58 218.471 431.288L224.383 432.312ZM270.923 452.6H267.923V455.6H270.923V452.6ZM270.923 430.6L268.464 428.882L267.923 429.656V430.6H270.923ZM336.323 337V334H334.76L333.864 335.282L336.323 337ZM368.923 337H371.923V334H368.923V337ZM368.923 428.2H365.923V431.2H368.923V428.2ZM386.523 428.2H389.523V425.2H386.523V428.2ZM386.523 452.6V455.6H389.523V452.6H386.523ZM368.923 452.6V449.6H365.923V452.6H368.923ZM368.923 481V484H371.923V481H368.923ZM340.923 481H337.923V484H340.923V481ZM340.923 452.6H343.923V449.6H340.923V452.6ZM342.723 367H345.723V357.132L340.231 365.33L342.723 367ZM301.723 428.2L299.231 426.53L296.103 431.2H301.723V428.2ZM342.723 428.2V431.2H345.723V428.2H342.723ZM273.923 452.6V430.6H267.923V452.6H273.923ZM273.383 432.318L338.783 338.718L333.864 335.282L268.464 428.882L273.383 432.318ZM336.323 340H368.923V334H336.323V340ZM365.923 337V428.2H371.923V337H365.923ZM368.923 431.2H386.523V425.2H368.923V431.2ZM383.523 428.2V452.6H389.523V428.2H383.523ZM386.523 449.6H368.923V455.6H386.523V449.6ZM365.923 452.6V481H371.923V452.6H365.923ZM368.923 478H340.923V484H368.923V478ZM343.923 481V452.6H337.923V481H343.923ZM340.923 449.6H270.923V455.6H340.923V449.6ZM340.231 365.33L299.231 426.53L304.216 429.87L345.216 368.67L340.231 365.33ZM301.723 431.2H342.723V425.2H301.723V431.2ZM345.723 428.2V367H339.723V428.2H345.723Z" fill="#F2C94C"/>
</svg>
