<svg width="702" height="533" viewBox="0 0 702 533" fill="none" xmlns="http://www.w3.org/2000/svg">
<path d="M65.4 392.6H60.4V397.6H65.4V392.6ZM65.4 370.6L61.3014 367.736L60.4 369.026V370.6H65.4ZM130.8 277V272H128.194L126.701 274.136L130.8 277ZM163.4 277H168.4V272H163.4V277ZM163.4 368.2H158.4V373.2H163.4V368.2ZM181 368.2H186V363.2H181V368.2ZM181 392.6V397.6H186V392.6H181ZM163.4 392.6V387.6H158.4V392.6H163.4ZM163.4 421V426H168.4V421H163.4ZM135.4 421H130.4V426H135.4V421ZM135.4 392.6H140.4V387.6H135.4V392.6ZM137.2 307H142.2V290.553L133.046 304.217L137.2 307ZM96.2 368.2L92.046 365.417L86.832 373.2H96.2V368.2ZM137.2 368.2V373.2H142.2V368.2H137.2ZM70.4 392.6V370.6H60.4V392.6H70.4ZM69.4986 373.464L134.899 279.864L126.701 274.136L61.3014 367.736L69.4986 373.464ZM130.8 282H163.4V272H130.8V282ZM158.4 277V368.2H168.4V277H158.4ZM163.4 373.2H181V363.2H163.4V373.2ZM176 368.2V392.6H186V368.2H176ZM181 387.6H163.4V397.6H181V387.6ZM158.4 392.6V421H168.4V392.6H158.4ZM163.4 416H135.4V426H163.4V416ZM140.4 421V392.6H130.4V421H140.4ZM135.4 387.6H65.4V397.6H135.4V387.6ZM133.046 304.217L92.046 365.417L100.354 370.983L141.354 309.783L133.046 304.217ZM96.2 373.2H137.2V363.2H96.2V373.2ZM142.2 368.2V307H132.2V368.2H142.2ZM211.227 292L207.021 289.296L207.011 289.311L207.001 289.327L211.227 292ZM294.227 292L290.001 294.673L290.011 294.689L290.021 294.704L294.227 292ZM294.227 400.8L290.008 398.116L289.999 398.131L289.989 398.146L294.227 400.8ZM211.227 400.8L206.989 403.454L206.999 403.469L207.008 403.484L211.227 400.8ZM277.227 321.4L272.303 322.269L272.313 322.325L272.324 322.381L277.227 321.4ZM269.627 304.8L265.864 308.093L265.892 308.125L265.922 308.158L269.627 304.8ZM235.827 304.8L232.122 301.442L232.092 301.475L232.064 301.507L235.827 304.8ZM228.227 321.4L223.32 320.438L223.313 320.476L223.306 320.514L228.227 321.4ZM228.227 371.8L223.3 372.653L223.301 372.661L223.303 372.669L228.227 371.8ZM235.827 388.4L232.122 391.758L232.148 391.787L232.175 391.816L235.827 388.4ZM269.827 388.4L273.478 391.816L273.505 391.787L273.532 391.758L269.827 388.4ZM277.427 371.8L282.35 372.669L282.352 372.661L282.353 372.653L277.427 371.8ZM203.827 346.2C203.827 323.644 207.882 306.638 215.452 294.673L207.001 289.327C198.038 303.495 193.827 322.622 193.827 346.2H203.827ZM215.432 294.704C222.682 283.427 234.719 277.4 252.827 277.4V267.4C232.268 267.4 216.571 274.44 207.021 289.296L215.432 294.704ZM252.827 277.4C270.937 277.4 282.886 283.427 290.001 294.673L298.452 289.327C289.034 274.44 273.383 267.4 252.827 267.4V277.4ZM290.021 294.704C297.708 306.662 301.827 323.656 301.827 346.2H311.827C311.827 322.611 307.545 303.471 298.432 289.296L290.021 294.704ZM301.827 346.2C301.827 368.88 297.707 386.017 290.008 398.116L298.445 403.484C307.546 389.183 311.827 369.92 311.827 346.2H301.827ZM289.989 398.146C282.864 409.523 270.915 415.6 252.827 415.6V425.6C273.404 425.6 289.056 418.477 298.464 403.454L289.989 398.146ZM252.827 415.6C234.74 415.6 222.704 409.522 215.445 398.116L207.008 403.484C216.549 418.478 232.246 425.6 252.827 425.6V415.6ZM215.464 398.146C207.883 386.041 203.827 368.891 203.827 346.2H193.827C193.827 369.909 198.037 389.159 206.989 403.454L215.464 398.146ZM284.227 346.2C284.227 336.137 283.549 327.518 282.129 320.419L272.324 322.381C273.571 328.616 274.227 336.529 274.227 346.2H284.227ZM282.15 320.531C280.82 312.99 277.947 306.535 273.331 301.442L265.922 308.158C269.039 311.598 271.233 316.21 272.303 322.269L282.15 320.531ZM273.389 301.507C268.428 295.838 261.25 293.4 252.827 293.4V303.4C259.336 303.4 263.358 305.229 265.864 308.093L273.389 301.507ZM252.827 293.4C244.392 293.4 237.198 295.841 232.122 301.442L239.531 308.158C242.188 305.226 246.327 303.4 252.827 303.4V293.4ZM232.064 301.507C227.635 306.569 224.785 312.965 223.32 320.438L233.133 322.362C234.335 316.235 236.552 311.564 239.589 308.093L232.064 301.507ZM223.306 320.514C222.035 327.572 221.427 336.158 221.427 346.2H231.427C231.427 336.509 232.018 328.561 233.147 322.286L223.306 320.514ZM221.427 346.2C221.427 356.506 222.035 365.345 223.3 372.653L233.153 370.947C232.018 364.389 231.427 356.161 231.427 346.2H221.427ZM223.303 372.669C224.633 380.21 227.506 386.665 232.122 391.758L239.531 385.042C236.414 381.602 234.22 376.99 233.15 370.931L223.303 372.669ZM232.175 391.816C237.263 397.254 244.439 399.6 252.827 399.6V389.6C246.281 389.6 242.124 387.812 239.478 384.984L232.175 391.816ZM252.827 399.6C261.214 399.6 268.39 397.254 273.478 391.816L266.175 384.984C263.53 387.812 259.372 389.6 252.827 389.6V399.6ZM273.532 391.758C278.147 386.665 281.02 380.21 282.35 372.669L272.503 370.931C271.433 376.99 269.239 381.602 266.122 385.042L273.532 391.758ZM282.353 372.653C283.618 365.345 284.227 356.506 284.227 346.2H274.227C274.227 356.161 273.635 364.389 272.5 370.947L282.353 372.653ZM326.923 392.6H321.923V397.6H326.923V392.6ZM326.923 370.6L322.825 367.736L321.923 369.026V370.6H326.923ZM392.323 277V272H389.717L388.225 274.136L392.323 277ZM424.923 277H429.923V272H424.923V277ZM424.923 368.2H419.923V373.2H424.923V368.2ZM442.523 368.2H447.523V363.2H442.523V368.2ZM442.523 392.6V397.6H447.523V392.6H442.523ZM424.923 392.6V387.6H419.923V392.6H424.923ZM424.923 421V426H429.923V421H424.923ZM396.923 421H391.923V426H396.923V421ZM396.923 392.6H401.923V387.6H396.923V392.6ZM398.723 307H403.723V290.553L394.569 304.217L398.723 307ZM357.723 368.2L353.569 365.417L348.355 373.2H357.723V368.2ZM398.723 368.2V373.2H403.723V368.2H398.723ZM331.923 392.6V370.6H321.923V392.6H331.923ZM331.022 373.464L396.422 279.864L388.225 274.136L322.825 367.736L331.022 373.464ZM392.323 282H424.923V272H392.323V282ZM419.923 277V368.2H429.923V277H419.923ZM424.923 373.2H442.523V363.2H424.923V373.2ZM437.523 368.2V392.6H447.523V368.2H437.523ZM442.523 387.6H424.923V397.6H442.523V387.6ZM419.923 392.6V421H429.923V392.6H419.923ZM424.923 416H396.923V426H424.923V416ZM401.923 421V392.6H391.923V421H401.923ZM396.923 387.6H326.923V397.6H396.923V387.6ZM394.569 304.217L353.569 365.417L361.877 370.983L402.877 309.783L394.569 304.217ZM357.723 373.2H398.723V363.2H357.723V373.2ZM403.723 368.2V307H393.723V368.2H403.723Z" fill="#F2C94C"/>
<path d="M128.4 322.6H123.4V327.6H128.4V322.6ZM128.4 300.6L124.301 297.736L123.4 299.026V300.6H128.4ZM193.8 207V202H191.194L189.701 204.136L193.8 207ZM226.4 207H231.4V202H226.4V207ZM226.4 298.2H221.4V303.2H226.4V298.2ZM244 298.2H249V293.2H244V298.2ZM244 322.6V327.6H249V322.6H244ZM226.4 322.6V317.6H221.4V322.6H226.4ZM226.4 351V356H231.4V351H226.4ZM198.4 351H193.4V356H198.4V351ZM198.4 322.6H203.4V317.6H198.4V322.6ZM200.2 237H205.2V220.553L196.046 234.217L200.2 237ZM159.2 298.2L155.046 295.417L149.832 303.2H159.2V298.2ZM200.2 298.2V303.2H205.2V298.2H200.2ZM133.4 322.6V300.6H123.4V322.6H133.4ZM132.499 303.464L197.899 209.864L189.701 204.136L124.301 297.736L132.499 303.464ZM193.8 212H226.4V202H193.8V212ZM221.4 207V298.2H231.4V207H221.4ZM226.4 303.2H244V293.2H226.4V303.2ZM239 298.2V322.6H249V298.2H239ZM244 317.6H226.4V327.6H244V317.6ZM221.4 322.6V351H231.4V322.6H221.4ZM226.4 346H198.4V356H226.4V346ZM203.4 351V322.6H193.4V351H203.4ZM198.4 317.6H128.4V327.6H198.4V317.6ZM196.046 234.217L155.046 295.417L163.354 300.983L204.354 239.783L196.046 234.217ZM159.2 303.2H200.2V293.2H159.2V303.2ZM205.2 298.2V237H195.2V298.2H205.2ZM274.227 222L270.021 219.296L270.011 219.311L270.001 219.327L274.227 222ZM357.227 222L353.001 224.673L353.011 224.689L353.021 224.704L357.227 222ZM357.227 330.8L353.008 328.116L352.999 328.131L352.989 328.146L357.227 330.8ZM274.227 330.8L269.989 333.454L269.999 333.469L270.008 333.484L274.227 330.8ZM340.227 251.4L335.303 252.269L335.313 252.325L335.324 252.381L340.227 251.4ZM332.627 234.8L328.864 238.093L328.892 238.125L328.922 238.158L332.627 234.8ZM298.827 234.8L295.122 231.442L295.092 231.475L295.064 231.507L298.827 234.8ZM291.227 251.4L286.32 250.438L286.313 250.476L286.306 250.514L291.227 251.4ZM291.227 301.8L286.3 302.653L286.301 302.661L286.303 302.669L291.227 301.8ZM298.827 318.4L295.122 321.758L295.148 321.787L295.175 321.816L298.827 318.4ZM332.827 318.4L336.478 321.816L336.505 321.787L336.532 321.758L332.827 318.4ZM340.427 301.8L345.35 302.669L345.352 302.661L345.353 302.653L340.427 301.8ZM266.827 276.2C266.827 253.644 270.882 236.638 278.452 224.673L270.001 219.327C261.038 233.495 256.827 252.622 256.827 276.2H266.827ZM278.432 224.704C285.682 213.427 297.719 207.4 315.827 207.4V197.4C295.268 197.4 279.571 204.44 270.021 219.296L278.432 224.704ZM315.827 207.4C333.937 207.4 345.886 213.427 353.001 224.673L361.452 219.327C352.034 204.44 336.383 197.4 315.827 197.4V207.4ZM353.021 224.704C360.708 236.662 364.827 253.656 364.827 276.2H374.827C374.827 252.611 370.545 233.471 361.432 219.296L353.021 224.704ZM364.827 276.2C364.827 298.88 360.707 316.017 353.008 328.116L361.445 333.484C370.546 319.183 374.827 299.92 374.827 276.2H364.827ZM352.989 328.146C345.864 339.523 333.915 345.6 315.827 345.6V355.6C336.404 355.6 352.056 348.477 361.464 333.454L352.989 328.146ZM315.827 345.6C297.74 345.6 285.704 339.522 278.445 328.116L270.008 333.484C279.549 348.478 295.246 355.6 315.827 355.6V345.6ZM278.464 328.146C270.883 316.041 266.827 298.891 266.827 276.2H256.827C256.827 299.909 261.037 319.159 269.989 333.454L278.464 328.146ZM347.227 276.2C347.227 266.137 346.549 257.518 345.129 250.419L335.324 252.381C336.571 258.616 337.227 266.529 337.227 276.2H347.227ZM345.15 250.531C343.82 242.99 340.947 236.535 336.331 231.442L328.922 238.158C332.039 241.598 334.233 246.21 335.303 252.269L345.15 250.531ZM336.389 231.507C331.428 225.838 324.25 223.4 315.827 223.4V233.4C322.336 233.4 326.358 235.229 328.864 238.093L336.389 231.507ZM315.827 223.4C307.392 223.4 300.198 225.841 295.122 231.442L302.531 238.158C305.188 235.226 309.327 233.4 315.827 233.4V223.4ZM295.064 231.507C290.635 236.569 287.785 242.965 286.32 250.438L296.133 252.362C297.335 246.235 299.552 241.564 302.589 238.093L295.064 231.507ZM286.306 250.514C285.035 257.572 284.427 266.158 284.427 276.2H294.427C294.427 266.509 295.018 258.561 296.147 252.286L286.306 250.514ZM284.427 276.2C284.427 286.506 285.035 295.345 286.3 302.653L296.153 300.947C295.018 294.389 294.427 286.161 294.427 276.2H284.427ZM286.303 302.669C287.633 310.21 290.506 316.665 295.122 321.758L302.531 315.042C299.414 311.602 297.22 306.99 296.15 300.931L286.303 302.669ZM295.175 321.816C300.263 327.254 307.439 329.6 315.827 329.6V319.6C309.281 319.6 305.124 317.812 302.478 314.984L295.175 321.816ZM315.827 329.6C324.214 329.6 331.39 327.254 336.478 321.816L329.175 314.984C326.53 317.812 322.372 319.6 315.827 319.6V329.6ZM336.532 321.758C341.147 316.665 344.02 310.21 345.35 302.669L335.503 300.931C334.433 306.99 332.239 311.602 329.122 315.042L336.532 321.758ZM345.353 302.653C346.618 295.345 347.227 286.506 347.227 276.2H337.227C337.227 286.161 336.635 294.389 335.5 300.947L345.353 302.653ZM389.923 322.6H384.923V327.6H389.923V322.6ZM389.923 300.6L385.825 297.736L384.923 299.026V300.6H389.923ZM455.323 207V202H452.717L451.225 204.136L455.323 207ZM487.923 207H492.923V202H487.923V207ZM487.923 298.2H482.923V303.2H487.923V298.2ZM505.523 298.2H510.523V293.2H505.523V298.2ZM505.523 322.6V327.6H510.523V322.6H505.523ZM487.923 322.6V317.6H482.923V322.6H487.923ZM487.923 351V356H492.923V351H487.923ZM459.923 351H454.923V356H459.923V351ZM459.923 322.6H464.923V317.6H459.923V322.6ZM461.723 237H466.723V220.553L457.569 234.217L461.723 237ZM420.723 298.2L416.569 295.417L411.355 303.2H420.723V298.2ZM461.723 298.2V303.2H466.723V298.2H461.723ZM394.923 322.6V300.6H384.923V322.6H394.923ZM394.022 303.464L459.422 209.864L451.225 204.136L385.825 297.736L394.022 303.464ZM455.323 212H487.923V202H455.323V212ZM482.923 207V298.2H492.923V207H482.923ZM487.923 303.2H505.523V293.2H487.923V303.2ZM500.523 298.2V322.6H510.523V298.2H500.523ZM505.523 317.6H487.923V327.6H505.523V317.6ZM482.923 322.6V351H492.923V322.6H482.923ZM487.923 346H459.923V356H487.923V346ZM464.923 351V322.6H454.923V351H464.923ZM459.923 317.6H389.923V327.6H459.923V317.6ZM457.569 234.217L416.569 295.417L424.877 300.983L465.877 239.783L457.569 234.217ZM420.723 303.2H461.723V293.2H420.723V303.2ZM466.723 298.2V237H456.723V298.2H466.723Z" fill="#F2C94C" fill-opacity="0.6"/>
<path d="M191.4 252.6H186.4V257.6H191.4V252.6ZM191.4 230.6L187.301 227.736L186.4 229.026V230.6H191.4ZM256.8 137V132H254.194L252.701 134.136L256.8 137ZM289.4 137H294.4V132H289.4V137ZM289.4 228.2H284.4V233.2H289.4V228.2ZM307 228.2H312V223.2H307V228.2ZM307 252.6V257.6H312V252.6H307ZM289.4 252.6V247.6H284.4V252.6H289.4ZM289.4 281V286H294.4V281H289.4ZM261.4 281H256.4V286H261.4V281ZM261.4 252.6H266.4V247.6H261.4V252.6ZM263.2 167H268.2V150.553L259.046 164.217L263.2 167ZM222.2 228.2L218.046 225.417L212.832 233.2H222.2V228.2ZM263.2 228.2V233.2H268.2V228.2H263.2ZM196.4 252.6V230.6H186.4V252.6H196.4ZM195.499 233.464L260.899 139.864L252.701 134.136L187.301 227.736L195.499 233.464ZM256.8 142H289.4V132H256.8V142ZM284.4 137V228.2H294.4V137H284.4ZM289.4 233.2H307V223.2H289.4V233.2ZM302 228.2V252.6H312V228.2H302ZM307 247.6H289.4V257.6H307V247.6ZM284.4 252.6V281H294.4V252.6H284.4ZM289.4 276H261.4V286H289.4V276ZM266.4 281V252.6H256.4V281H266.4ZM261.4 247.6H191.4V257.6H261.4V247.6ZM259.046 164.217L218.046 225.417L226.354 230.983L267.354 169.783L259.046 164.217ZM222.2 233.2H263.2V223.2H222.2V233.2ZM268.2 228.2V167H258.2V228.2H268.2ZM337.227 152L333.021 149.296L333.011 149.311L333.001 149.327L337.227 152ZM420.227 152L416.001 154.673L416.011 154.689L416.021 154.704L420.227 152ZM420.227 260.8L416.008 258.116L415.999 258.131L415.989 258.146L420.227 260.8ZM337.227 260.8L332.989 263.454L332.999 263.469L333.008 263.484L337.227 260.8ZM403.227 181.4L398.303 182.269L398.313 182.325L398.324 182.381L403.227 181.4ZM395.627 164.8L391.864 168.093L391.892 168.125L391.922 168.158L395.627 164.8ZM361.827 164.8L358.122 161.442L358.092 161.475L358.064 161.507L361.827 164.8ZM354.227 181.4L349.32 180.438L349.313 180.476L349.306 180.514L354.227 181.4ZM354.227 231.8L349.3 232.653L349.301 232.661L349.303 232.669L354.227 231.8ZM361.827 248.4L358.122 251.758L358.148 251.787L358.175 251.816L361.827 248.4ZM395.827 248.4L399.478 251.816L399.505 251.787L399.532 251.758L395.827 248.4ZM403.427 231.8L408.35 232.669L408.352 232.661L408.353 232.653L403.427 231.8ZM329.827 206.2C329.827 183.644 333.882 166.638 341.452 154.673L333.001 149.327C324.038 163.495 319.827 182.622 319.827 206.2H329.827ZM341.432 154.704C348.682 143.427 360.719 137.4 378.827 137.4V127.4C358.268 127.4 342.571 134.44 333.021 149.296L341.432 154.704ZM378.827 137.4C396.937 137.4 408.886 143.427 416.001 154.673L424.452 149.327C415.034 134.44 399.383 127.4 378.827 127.4V137.4ZM416.021 154.704C423.708 166.662 427.827 183.656 427.827 206.2H437.827C437.827 182.611 433.545 163.471 424.432 149.296L416.021 154.704ZM427.827 206.2C427.827 228.88 423.707 246.017 416.008 258.116L424.445 263.484C433.546 249.183 437.827 229.92 437.827 206.2H427.827ZM415.989 258.146C408.864 269.523 396.915 275.6 378.827 275.6V285.6C399.404 285.6 415.056 278.477 424.464 263.454L415.989 258.146ZM378.827 275.6C360.74 275.6 348.704 269.522 341.445 258.116L333.008 263.484C342.549 278.478 358.246 285.6 378.827 285.6V275.6ZM341.464 258.146C333.883 246.041 329.827 228.891 329.827 206.2H319.827C319.827 229.909 324.037 249.159 332.989 263.454L341.464 258.146ZM410.227 206.2C410.227 196.137 409.549 187.518 408.129 180.419L398.324 182.381C399.571 188.616 400.227 196.529 400.227 206.2H410.227ZM408.15 180.531C406.82 172.99 403.947 166.535 399.331 161.442L391.922 168.158C395.039 171.598 397.233 176.21 398.303 182.269L408.15 180.531ZM399.389 161.507C394.428 155.838 387.25 153.4 378.827 153.4V163.4C385.336 163.4 389.358 165.229 391.864 168.093L399.389 161.507ZM378.827 153.4C370.392 153.4 363.198 155.841 358.122 161.442L365.531 168.158C368.188 165.226 372.327 163.4 378.827 163.4V153.4ZM358.064 161.507C353.635 166.569 350.785 172.965 349.32 180.438L359.133 182.362C360.335 176.235 362.552 171.564 365.589 168.093L358.064 161.507ZM349.306 180.514C348.035 187.572 347.427 196.158 347.427 206.2H357.427C357.427 196.509 358.018 188.561 359.147 182.286L349.306 180.514ZM347.427 206.2C347.427 216.506 348.035 225.345 349.3 232.653L359.153 230.947C358.018 224.389 357.427 216.161 357.427 206.2H347.427ZM349.303 232.669C350.633 240.21 353.506 246.665 358.122 251.758L365.531 245.042C362.414 241.602 360.22 236.99 359.15 230.931L349.303 232.669ZM358.175 251.816C363.263 257.254 370.439 259.6 378.827 259.6V249.6C372.281 249.6 368.124 247.812 365.478 244.984L358.175 251.816ZM378.827 259.6C387.214 259.6 394.39 257.254 399.478 251.816L392.175 244.984C389.53 247.812 385.372 249.6 378.827 249.6V259.6ZM399.532 251.758C404.147 246.665 407.02 240.21 408.35 232.669L398.503 230.931C397.433 236.99 395.239 241.602 392.122 245.042L399.532 251.758ZM408.353 232.653C409.618 225.345 410.227 216.506 410.227 206.2H400.227C400.227 216.161 399.635 224.389 398.5 230.947L408.353 232.653ZM452.923 252.6H447.923V257.6H452.923V252.6ZM452.923 230.6L448.825 227.736L447.923 229.026V230.6H452.923ZM518.323 137V132H515.717L514.225 134.136L518.323 137ZM550.923 137H555.923V132H550.923V137ZM550.923 228.2H545.923V233.2H550.923V228.2ZM568.523 228.2H573.523V223.2H568.523V228.2ZM568.523 252.6V257.6H573.523V252.6H568.523ZM550.923 252.6V247.6H545.923V252.6H550.923ZM550.923 281V286H555.923V281H550.923ZM522.923 281H517.923V286H522.923V281ZM522.923 252.6H527.923V247.6H522.923V252.6ZM524.723 167H529.723V150.553L520.569 164.217L524.723 167ZM483.723 228.2L479.569 225.417L474.355 233.2H483.723V228.2ZM524.723 228.2V233.2H529.723V228.2H524.723ZM457.923 252.6V230.6H447.923V252.6H457.923ZM457.022 233.464L522.422 139.864L514.225 134.136L448.825 227.736L457.022 233.464ZM518.323 142H550.923V132H518.323V142ZM545.923 137V228.2H555.923V137H545.923ZM550.923 233.2H568.523V223.2H550.923V233.2ZM563.523 228.2V252.6H573.523V228.2H563.523ZM568.523 247.6H550.923V257.6H568.523V247.6ZM545.923 252.6V281H555.923V252.6H545.923ZM550.923 276H522.923V286H550.923V276ZM527.923 281V252.6H517.923V281H527.923ZM522.923 247.6H452.923V257.6H522.923V247.6ZM520.569 164.217L479.569 225.417L487.877 230.983L528.877 169.783L520.569 164.217ZM483.723 233.2H524.723V223.2H483.723V233.2ZM529.723 228.2V167H519.723V228.2H529.723Z" fill="#F2C94C" fill-opacity="0.4"/>
<path d="M254.4 182.6H249.4V187.6H254.4V182.6ZM254.4 160.6L250.301 157.736L249.4 159.026V160.6H254.4ZM319.8 67V62H317.194L315.701 64.1362L319.8 67ZM352.4 67H357.4V62H352.4V67ZM352.4 158.2H347.4V163.2H352.4V158.2ZM370 158.2H375V153.2H370V158.2ZM370 182.6V187.6H375V182.6H370ZM352.4 182.6V177.6H347.4V182.6H352.4ZM352.4 211V216H357.4V211H352.4ZM324.4 211H319.4V216H324.4V211ZM324.4 182.6H329.4V177.6H324.4V182.6ZM326.2 97H331.2V80.5531L322.046 94.2171L326.2 97ZM285.2 158.2L281.046 155.417L275.832 163.2H285.2V158.2ZM326.2 158.2V163.2H331.2V158.2H326.2ZM259.4 182.6V160.6H249.4V182.6H259.4ZM258.499 163.464L323.899 69.8638L315.701 64.1362L250.301 157.736L258.499 163.464ZM319.8 72H352.4V62H319.8V72ZM347.4 67V158.2H357.4V67H347.4ZM352.4 163.2H370V153.2H352.4V163.2ZM365 158.2V182.6H375V158.2H365ZM370 177.6H352.4V187.6H370V177.6ZM347.4 182.6V211H357.4V182.6H347.4ZM352.4 206H324.4V216H352.4V206ZM329.4 211V182.6H319.4V211H329.4ZM324.4 177.6H254.4V187.6H324.4V177.6ZM322.046 94.2171L281.046 155.417L289.354 160.983L330.354 99.7829L322.046 94.2171ZM285.2 163.2H326.2V153.2H285.2V163.2ZM331.2 158.2V97H321.2V158.2H331.2ZM400.227 82L396.021 79.2962L396.011 79.3115L396.001 79.3268L400.227 82ZM483.227 82L479.001 84.6732L479.011 84.6885L479.021 84.7038L483.227 82ZM483.227 190.8L479.008 188.116L478.999 188.131L478.989 188.146L483.227 190.8ZM400.227 190.8L395.989 193.454L395.999 193.469L396.008 193.484L400.227 190.8ZM466.227 111.4L461.303 112.269L461.313 112.325L461.324 112.381L466.227 111.4ZM458.627 94.8L454.864 98.0925L454.892 98.1253L454.922 98.1576L458.627 94.8ZM424.827 94.8L421.122 91.4424L421.092 91.4747L421.064 91.5075L424.827 94.8ZM417.227 111.4L412.32 110.438L412.313 110.476L412.306 110.514L417.227 111.4ZM417.227 161.8L412.3 162.653L412.301 162.661L412.303 162.669L417.227 161.8ZM424.827 178.4L421.122 181.758L421.148 181.787L421.175 181.816L424.827 178.4ZM458.827 178.4L462.478 181.816L462.505 181.787L462.532 181.758L458.827 178.4ZM466.427 161.8L471.35 162.669L471.352 162.661L471.353 162.653L466.427 161.8ZM392.827 136.2C392.827 113.644 396.882 96.6382 404.452 84.6732L396.001 79.3268C387.038 93.4951 382.827 112.622 382.827 136.2H392.827ZM404.432 84.7038C411.682 73.427 423.719 67.4 441.827 67.4V57.4C421.268 57.4 405.571 64.4396 396.021 79.2962L404.432 84.7038ZM441.827 67.4C459.937 67.4 471.886 73.4266 479.001 84.6732L487.452 79.3268C478.034 64.44 462.383 57.4 441.827 57.4V67.4ZM479.021 84.7038C486.708 96.6621 490.827 113.656 490.827 136.2H500.827C500.827 112.611 496.545 93.4712 487.432 79.2962L479.021 84.7038ZM490.827 136.2C490.827 158.88 486.707 176.017 479.008 188.116L487.445 193.484C496.546 179.183 500.827 159.92 500.827 136.2H490.827ZM478.989 188.146C471.864 199.523 459.915 205.6 441.827 205.6V215.6C462.404 215.6 478.056 208.477 487.464 193.454L478.989 188.146ZM441.827 205.6C423.74 205.6 411.704 199.522 404.445 188.116L396.008 193.484C405.549 208.478 421.246 215.6 441.827 215.6V205.6ZM404.464 188.146C396.883 176.041 392.827 158.891 392.827 136.2H382.827C382.827 159.909 387.037 179.159 395.989 193.454L404.464 188.146ZM473.227 136.2C473.227 126.137 472.549 117.518 471.129 110.419L461.324 112.381C462.571 118.616 463.227 126.529 463.227 136.2H473.227ZM471.15 110.531C469.82 102.99 466.947 96.5354 462.331 91.4424L454.922 98.1576C458.039 101.598 460.233 106.21 461.303 112.269L471.15 110.531ZM462.389 91.5075C457.428 85.8377 450.25 83.4 441.827 83.4V93.4C448.336 93.4 452.358 95.229 454.864 98.0925L462.389 91.5075ZM441.827 83.4C433.392 83.4 426.198 85.8408 421.122 91.4424L428.531 98.1576C431.188 95.2258 435.327 93.4 441.827 93.4V83.4ZM421.064 91.5075C416.635 96.5694 413.785 102.965 412.32 110.438L422.133 112.362C423.335 106.235 425.552 101.564 428.589 98.0925L421.064 91.5075ZM412.306 110.514C411.035 117.572 410.427 126.158 410.427 136.2H420.427C420.427 126.509 421.018 118.561 422.147 112.286L412.306 110.514ZM410.427 136.2C410.427 146.506 411.035 155.345 412.3 162.653L422.153 160.947C421.018 154.389 420.427 146.161 420.427 136.2H410.427ZM412.303 162.669C413.633 170.21 416.506 176.665 421.122 181.758L428.531 175.042C425.414 171.602 423.22 166.99 422.15 160.931L412.303 162.669ZM421.175 181.816C426.263 187.254 433.439 189.6 441.827 189.6V179.6C435.281 179.6 431.124 177.812 428.478 174.984L421.175 181.816ZM441.827 189.6C450.214 189.6 457.39 187.254 462.478 181.816L455.175 174.984C452.53 177.812 448.372 179.6 441.827 179.6V189.6ZM462.532 181.758C467.147 176.665 470.02 170.21 471.35 162.669L461.503 160.931C460.433 166.99 458.239 171.602 455.122 175.042L462.532 181.758ZM471.353 162.653C472.618 155.345 473.227 146.506 473.227 136.2H463.227C463.227 146.161 462.635 154.389 461.5 160.947L471.353 162.653ZM515.923 182.6H510.923V187.6H515.923V182.6ZM515.923 160.6L511.825 157.736L510.923 159.026V160.6H515.923ZM581.323 67V62H578.717L577.225 64.1362L581.323 67ZM613.923 67H618.923V62H613.923V67ZM613.923 158.2H608.923V163.2H613.923V158.2ZM631.523 158.2H636.523V153.2H631.523V158.2ZM631.523 182.6V187.6H636.523V182.6H631.523ZM613.923 182.6V177.6H608.923V182.6H613.923ZM613.923 211V216H618.923V211H613.923ZM585.923 211H580.923V216H585.923V211ZM585.923 182.6H590.923V177.6H585.923V182.6ZM587.723 97H592.723V80.5531L583.569 94.2171L587.723 97ZM546.723 158.2L542.569 155.417L537.355 163.2H546.723V158.2ZM587.723 158.2V163.2H592.723V158.2H587.723ZM520.923 182.6V160.6H510.923V182.6H520.923ZM520.022 163.464L585.422 69.8638L577.225 64.1362L511.825 157.736L520.022 163.464ZM581.323 72H613.923V62H581.323V72ZM608.923 67V158.2H618.923V67H608.923ZM613.923 163.2H631.523V153.2H613.923V163.2ZM626.523 158.2V182.6H636.523V158.2H626.523ZM631.523 177.6H613.923V187.6H631.523V177.6ZM608.923 182.6V211H618.923V182.6H608.923ZM613.923 206H585.923V216H613.923V206ZM590.923 211V182.6H580.923V211H590.923ZM585.923 177.6H515.923V187.6H585.923V177.6ZM583.569 94.2171L542.569 155.417L550.877 160.983L591.877 99.7829L583.569 94.2171ZM546.723 163.2H587.723V153.2H546.723V163.2ZM592.723 158.2V97H582.723V158.2H592.723Z" fill="#F2C94C" fill-opacity="0.2"/>
<path d="M317.4 112.6H312.4V117.6H317.4V112.6ZM317.4 90.6L313.301 87.7362L312.4 89.0263V90.6H317.4ZM382.8 -3.00001V-8.00001H380.194L378.701 -5.86379L382.8 -3.00001ZM415.4 -3.00001H420.4V-8.00001H415.4V-3.00001ZM415.4 88.2H410.4V93.2H415.4V88.2ZM433 88.2H438V83.2H433V88.2ZM433 112.6V117.6H438V112.6H433ZM415.4 112.6V107.6H410.4V112.6H415.4ZM415.4 141V146H420.4V141H415.4ZM387.4 141H382.4V146H387.4V141ZM387.4 112.6H392.4V107.6H387.4V112.6ZM389.2 27H394.2V10.5531L385.046 24.2171L389.2 27ZM348.2 88.2L344.046 85.4171L338.832 93.2H348.2V88.2ZM389.2 88.2V93.2H394.2V88.2H389.2ZM322.4 112.6V90.6H312.4V112.6H322.4ZM321.499 93.4638L386.899 -0.136222L378.701 -5.86379L313.301 87.7362L321.499 93.4638ZM382.8 1.99999H415.4V-8.00001H382.8V1.99999ZM410.4 -3.00001V88.2H420.4V-3.00001H410.4ZM415.4 93.2H433V83.2H415.4V93.2ZM428 88.2V112.6H438V88.2H428ZM433 107.6H415.4V117.6H433V107.6ZM410.4 112.6V141H420.4V112.6H410.4ZM415.4 136H387.4V146H415.4V136ZM392.4 141V112.6H382.4V141H392.4ZM387.4 107.6H317.4V117.6H387.4V107.6ZM385.046 24.2171L344.046 85.4171L352.354 90.9829L393.354 29.7829L385.046 24.2171ZM348.2 93.2H389.2V83.2H348.2V93.2ZM394.2 88.2V27H384.2V88.2H394.2ZM463.227 12L459.021 9.2962L459.011 9.31146L459.001 9.32678L463.227 12ZM546.227 12L542.001 14.6732L542.011 14.6885L542.021 14.7038L546.227 12ZM546.227 120.8L542.008 118.116L541.999 118.131L541.989 118.146L546.227 120.8ZM463.227 120.8L458.989 123.454L458.999 123.469L459.008 123.484L463.227 120.8ZM529.227 41.4L524.303 42.2689L524.313 42.3249L524.324 42.3806L529.227 41.4ZM521.627 24.8L517.864 28.0925L517.892 28.1253L517.922 28.1576L521.627 24.8ZM487.827 24.8L484.122 21.4424L484.092 21.4747L484.064 21.5075L487.827 24.8ZM480.227 41.4L475.32 40.4379L475.313 40.476L475.306 40.5142L480.227 41.4ZM480.227 91.8L475.3 92.6527L475.301 92.6608L475.303 92.6689L480.227 91.8ZM487.827 108.4L484.122 111.758L484.148 111.787L484.175 111.816L487.827 108.4ZM521.827 108.4L525.478 111.816L525.505 111.787L525.532 111.758L521.827 108.4ZM529.427 91.8L534.35 92.6689L534.352 92.6608L534.353 92.6527L529.427 91.8ZM455.827 66.2C455.827 43.6443 459.882 26.6382 467.452 14.6732L459.001 9.32678C450.038 23.4951 445.827 42.6223 445.827 66.2H455.827ZM467.432 14.7038C474.682 3.42702 486.719 -2.60001 504.827 -2.60001V-12.6C484.268 -12.6 468.571 -5.56036 459.021 9.2962L467.432 14.7038ZM504.827 -2.60001C522.937 -2.60001 534.886 3.42661 542.001 14.6732L550.452 9.32678C541.034 -5.55996 525.383 -12.6 504.827 -12.6V-2.60001ZM542.021 14.7038C549.708 26.6621 553.827 43.6557 553.827 66.2H563.827C563.827 42.6109 559.545 23.4712 550.432 9.2962L542.021 14.7038ZM553.827 66.2C553.827 88.8798 549.707 106.017 542.008 118.116L550.445 123.484C559.546 109.183 563.827 89.9202 563.827 66.2H553.827ZM541.989 118.146C534.864 129.523 522.915 135.6 504.827 135.6V145.6C525.404 145.6 541.056 138.477 550.464 123.454L541.989 118.146ZM504.827 135.6C486.74 135.6 474.704 129.522 467.445 118.116L459.008 123.484C468.549 138.478 484.246 145.6 504.827 145.6V135.6ZM467.464 118.146C459.883 106.041 455.827 88.891 455.827 66.2H445.827C445.827 89.909 450.037 109.159 458.989 123.454L467.464 118.146ZM536.227 66.2C536.227 56.1374 535.549 47.5177 534.129 40.4194L524.324 42.3806C525.571 48.6157 526.227 56.5293 526.227 66.2H536.227ZM534.15 40.5311C532.82 32.9897 529.947 26.5354 525.331 21.4424L517.922 28.1576C521.039 31.5979 523.233 36.2102 524.303 42.2689L534.15 40.5311ZM525.389 21.5075C520.428 15.8377 513.25 13.4 504.827 13.4V23.4C511.336 23.4 515.358 25.229 517.864 28.0925L525.389 21.5075ZM504.827 13.4C496.392 13.4 489.198 15.8408 484.122 21.4424L491.531 28.1576C494.188 25.2258 498.327 23.4 504.827 23.4V13.4ZM484.064 21.5075C479.635 26.5694 476.785 32.9651 475.32 40.4379L485.133 42.3621C486.335 36.2349 488.552 31.564 491.589 28.0925L484.064 21.5075ZM475.306 40.5142C474.035 47.5724 473.427 56.1577 473.427 66.2H483.427C483.427 56.509 484.018 48.561 485.147 42.2858L475.306 40.5142ZM473.427 66.2C473.427 76.5061 474.035 85.3448 475.3 92.6527L485.153 90.9473C484.018 84.3885 483.427 76.1605 483.427 66.2H473.427ZM475.303 92.6689C476.633 100.21 479.506 106.665 484.122 111.758L491.531 105.042C488.414 101.602 486.22 96.9897 485.15 90.9311L475.303 92.6689ZM484.175 111.816C489.263 117.254 496.439 119.6 504.827 119.6V109.6C498.281 109.6 494.124 107.812 491.478 104.984L484.175 111.816ZM504.827 119.6C513.214 119.6 520.39 117.254 525.478 111.816L518.175 104.984C515.53 107.812 511.372 109.6 504.827 109.6V119.6ZM525.532 111.758C530.147 106.665 533.02 100.21 534.35 92.6689L524.503 90.9311C523.433 96.9898 521.239 101.602 518.122 105.042L525.532 111.758ZM534.353 92.6527C535.618 85.3448 536.227 76.5061 536.227 66.2H526.227C526.227 76.1605 525.635 84.3885 524.5 90.9473L534.353 92.6527ZM578.923 112.6H573.923V117.6H578.923V112.6ZM578.923 90.6L574.825 87.7362L573.923 89.0263V90.6H578.923ZM644.323 -3.00001V-8.00001H641.717L640.225 -5.86379L644.323 -3.00001ZM676.923 -3.00001H681.923V-8.00001H676.923V-3.00001ZM676.923 88.2H671.923V93.2H676.923V88.2ZM694.523 88.2H699.523V83.2H694.523V88.2ZM694.523 112.6V117.6H699.523V112.6H694.523ZM676.923 112.6V107.6H671.923V112.6H676.923ZM676.923 141V146H681.923V141H676.923ZM648.923 141H643.923V146H648.923V141ZM648.923 112.6H653.923V107.6H648.923V112.6ZM650.723 27H655.723V10.5531L646.569 24.2171L650.723 27ZM609.723 88.2L605.569 85.4171L600.355 93.2H609.723V88.2ZM650.723 88.2V93.2H655.723V88.2H650.723ZM583.923 112.6V90.6H573.923V112.6H583.923ZM583.022 93.4638L648.422 -0.136222L640.225 -5.86379L574.825 87.7362L583.022 93.4638ZM644.323 1.99999H676.923V-8.00001H644.323V1.99999ZM671.923 -3.00001V88.2H681.923V-3.00001H671.923ZM676.923 93.2H694.523V83.2H676.923V93.2ZM689.523 88.2V112.6H699.523V88.2H689.523ZM694.523 107.6H676.923V117.6H694.523V107.6ZM671.923 112.6V141H681.923V112.6H671.923ZM676.923 136H648.923V146H676.923V136ZM653.923 141V112.6H643.923V141H653.923ZM648.923 107.6H578.923V117.6H648.923V107.6ZM646.569 24.2171L605.569 85.4171L613.877 90.9829L654.877 29.7829L646.569 24.2171ZM609.723 93.2H650.723V83.2H609.723V93.2ZM655.723 88.2V27H645.723V88.2H655.723Z" fill="#F2C94C" fill-opacity="0.1"/>
<path d="M9.4 452.6V430.6L74.8 337H107.4V428.2H125V452.6H107.4V481H79.4V452.6H9.4ZM81.2 367L40.2 428.2H81.2V367ZM142.827 406.2C142.827 383.133 146.96 365.067 155.227 352C163.627 338.933 177.493 332.4 196.827 332.4C216.16 332.4 229.96 338.933 238.227 352C246.627 365.067 250.827 383.133 250.827 406.2C250.827 429.4 246.627 447.6 238.227 460.8C229.96 474 216.16 480.6 196.827 480.6C177.493 480.6 163.627 474 155.227 460.8C146.96 447.6 142.827 429.4 142.827 406.2ZM223.227 406.2C223.227 396.333 222.56 388.067 221.227 381.4C220.027 374.6 217.493 369.067 213.627 364.8C209.893 360.533 204.293 358.4 196.827 358.4C189.36 358.4 183.693 360.533 179.827 364.8C176.093 369.067 173.56 374.6 172.227 381.4C171.027 388.067 170.427 396.333 170.427 406.2C170.427 416.333 171.027 424.867 172.227 431.8C173.427 438.6 175.96 444.133 179.827 448.4C183.693 452.533 189.36 454.6 196.827 454.6C204.293 454.6 209.96 452.533 213.827 448.4C217.693 444.133 220.227 438.6 221.427 431.8C222.627 424.867 223.227 416.333 223.227 406.2ZM270.923 452.6V430.6L336.323 337H368.923V428.2H386.523V452.6H368.923V481H340.923V452.6H270.923ZM342.723 367L301.723 428.2H342.723V367Z" fill="#313131"/>
<path d="M9.4 452.6H4.4V457.6H9.4V452.6ZM9.4 430.6L5.30137 427.736L4.4 429.026V430.6H9.4ZM74.8 337V332H72.194L70.7014 334.136L74.8 337ZM107.4 337H112.4V332H107.4V337ZM107.4 428.2H102.4V433.2H107.4V428.2ZM125 428.2H130V423.2H125V428.2ZM125 452.6V457.6H130V452.6H125ZM107.4 452.6V447.6H102.4V452.6H107.4ZM107.4 481V486H112.4V481H107.4ZM79.4 481H74.4V486H79.4V481ZM79.4 452.6H84.4V447.6H79.4V452.6ZM81.2 367H86.2V350.553L77.046 364.217L81.2 367ZM40.2 428.2L36.046 425.417L30.832 433.2H40.2V428.2ZM81.2 428.2V433.2H86.2V428.2H81.2ZM14.4 452.6V430.6H4.4V452.6H14.4ZM13.4986 433.464L78.8986 339.864L70.7014 334.136L5.30137 427.736L13.4986 433.464ZM74.8 342H107.4V332H74.8V342ZM102.4 337V428.2H112.4V337H102.4ZM107.4 433.2H125V423.2H107.4V433.2ZM120 428.2V452.6H130V428.2H120ZM125 447.6H107.4V457.6H125V447.6ZM102.4 452.6V481H112.4V452.6H102.4ZM107.4 476H79.4V486H107.4V476ZM84.4 481V452.6H74.4V481H84.4ZM79.4 447.6H9.4V457.6H79.4V447.6ZM77.046 364.217L36.046 425.417L44.354 430.983L85.354 369.783L77.046 364.217ZM40.2 433.2H81.2V423.2H40.2V433.2ZM86.2 428.2V367H76.2V428.2H86.2ZM155.227 352L151.021 349.296L151.011 349.311L151.001 349.327L155.227 352ZM238.227 352L234.001 354.673L234.011 354.689L234.021 354.704L238.227 352ZM238.227 460.8L234.008 458.116L233.999 458.131L233.989 458.146L238.227 460.8ZM155.227 460.8L150.989 463.454L150.999 463.469L151.008 463.484L155.227 460.8ZM221.227 381.4L216.303 382.269L216.313 382.325L216.324 382.381L221.227 381.4ZM213.627 364.8L209.864 368.093L209.892 368.125L209.922 368.158L213.627 364.8ZM179.827 364.8L176.122 361.442L176.092 361.475L176.064 361.507L179.827 364.8ZM172.227 381.4L167.32 380.438L167.313 380.476L167.306 380.514L172.227 381.4ZM172.227 431.8L167.3 432.653L167.301 432.661L167.303 432.669L172.227 431.8ZM179.827 448.4L176.122 451.758L176.148 451.787L176.175 451.816L179.827 448.4ZM213.827 448.4L217.478 451.816L217.505 451.787L217.532 451.758L213.827 448.4ZM221.427 431.8L226.35 432.669L226.352 432.661L226.353 432.653L221.427 431.8ZM147.827 406.2C147.827 383.644 151.882 366.638 159.452 354.673L151.001 349.327C142.038 363.495 137.827 382.622 137.827 406.2H147.827ZM159.432 354.704C166.682 343.427 178.719 337.4 196.827 337.4V327.4C176.268 327.4 160.571 334.44 151.021 349.296L159.432 354.704ZM196.827 337.4C214.937 337.4 226.886 343.427 234.001 354.673L242.452 349.327C233.034 334.44 217.383 327.4 196.827 327.4V337.4ZM234.021 354.704C241.708 366.662 245.827 383.656 245.827 406.2H255.827C255.827 382.611 251.545 363.471 242.432 349.296L234.021 354.704ZM245.827 406.2C245.827 428.88 241.707 446.017 234.008 458.116L242.445 463.484C251.546 449.183 255.827 429.92 255.827 406.2H245.827ZM233.989 458.146C226.864 469.523 214.915 475.6 196.827 475.6V485.6C217.404 485.6 233.056 478.477 242.464 463.454L233.989 458.146ZM196.827 475.6C178.74 475.6 166.704 469.522 159.445 458.116L151.008 463.484C160.549 478.478 176.246 485.6 196.827 485.6V475.6ZM159.464 458.146C151.883 446.041 147.827 428.891 147.827 406.2H137.827C137.827 429.909 142.037 449.159 150.989 463.454L159.464 458.146ZM228.227 406.2C228.227 396.137 227.549 387.518 226.129 380.419L216.324 382.381C217.571 388.616 218.227 396.529 218.227 406.2H228.227ZM226.15 380.531C224.82 372.99 221.947 366.535 217.331 361.442L209.922 368.158C213.039 371.598 215.233 376.21 216.303 382.269L226.15 380.531ZM217.389 361.507C212.428 355.838 205.25 353.4 196.827 353.4V363.4C203.336 363.4 207.358 365.229 209.864 368.093L217.389 361.507ZM196.827 353.4C188.392 353.4 181.198 355.841 176.122 361.442L183.531 368.158C186.188 365.226 190.327 363.4 196.827 363.4V353.4ZM176.064 361.507C171.635 366.569 168.785 372.965 167.32 380.438L177.133 382.362C178.335 376.235 180.552 371.564 183.589 368.093L176.064 361.507ZM167.306 380.514C166.035 387.572 165.427 396.158 165.427 406.2H175.427C175.427 396.509 176.018 388.561 177.147 382.286L167.306 380.514ZM165.427 406.2C165.427 416.506 166.035 425.345 167.3 432.653L177.153 430.947C176.018 424.389 175.427 416.161 175.427 406.2H165.427ZM167.303 432.669C168.633 440.21 171.506 446.665 176.122 451.758L183.531 445.042C180.414 441.602 178.22 436.99 177.15 430.931L167.303 432.669ZM176.175 451.816C181.263 457.254 188.439 459.6 196.827 459.6V449.6C190.281 449.6 186.124 447.812 183.478 444.984L176.175 451.816ZM196.827 459.6C205.214 459.6 212.39 457.254 217.478 451.816L210.175 444.984C207.53 447.812 203.372 449.6 196.827 449.6V459.6ZM217.532 451.758C222.147 446.665 225.02 440.21 226.35 432.669L216.503 430.931C215.433 436.99 213.239 441.602 210.122 445.042L217.532 451.758ZM226.353 432.653C227.618 425.345 228.227 416.506 228.227 406.2H218.227C218.227 416.161 217.635 424.389 216.5 430.947L226.353 432.653ZM270.923 452.6H265.923V457.6H270.923V452.6ZM270.923 430.6L266.825 427.736L265.923 429.026V430.6H270.923ZM336.323 337V332H333.717L332.225 334.136L336.323 337ZM368.923 337H373.923V332H368.923V337ZM368.923 428.2H363.923V433.2H368.923V428.2ZM386.523 428.2H391.523V423.2H386.523V428.2ZM386.523 452.6V457.6H391.523V452.6H386.523ZM368.923 452.6V447.6H363.923V452.6H368.923ZM368.923 481V486H373.923V481H368.923ZM340.923 481H335.923V486H340.923V481ZM340.923 452.6H345.923V447.6H340.923V452.6ZM342.723 367H347.723V350.553L338.569 364.217L342.723 367ZM301.723 428.2L297.569 425.417L292.355 433.2H301.723V428.2ZM342.723 428.2V433.2H347.723V428.2H342.723ZM275.923 452.6V430.6H265.923V452.6H275.923ZM275.022 433.464L340.422 339.864L332.225 334.136L266.825 427.736L275.022 433.464ZM336.323 342H368.923V332H336.323V342ZM363.923 337V428.2H373.923V337H363.923ZM368.923 433.2H386.523V423.2H368.923V433.2ZM381.523 428.2V452.6H391.523V428.2H381.523ZM386.523 447.6H368.923V457.6H386.523V447.6ZM363.923 452.6V481H373.923V452.6H363.923ZM368.923 476H340.923V486H368.923V476ZM345.923 481V452.6H335.923V481H345.923ZM340.923 447.6H270.923V457.6H340.923V447.6ZM338.569 364.217L297.569 425.417L305.877 430.983L346.877 369.783L338.569 364.217ZM301.723 433.2H342.723V423.2H301.723V433.2ZM347.723 428.2V367H337.723V428.2H347.723Z" fill="#F2C94C"/>
</svg>
